<?xml version="1.0" encoding="UTF-8"?>
<svg viewBox="0 0 108 20" version="1.1" xmlns="http://www.w3.org/2000/svg" xmlns:xlink="http://www.w3.org/1999/xlink">
  <!-- Generator: Sketch 53.2 (72643) - https://sketchapp.com -->
  <title>logo_dark_hk</title>
  <desc>Created with Sketch.</desc>
  <g id="logo_dark_hk" stroke="none" stroke-width="1" fill="none" fill-rule="evenodd">
    <g xmlns="http://www.w3.org/2000/svg" id="分组" transform="translate(0.000000, 1.000000)" fill-rule="nonzero">
      <polygon id="Rectangle" fill="#D0D0D8" points="1.11022302e-13 5.83333335 10.3333333 5.83333335 10.3333333 16.1666667 1.11022302e-13 16.1666667" />
      <polygon id="Rectangle" fill="#D0D0D8" points="5 0.83333335 15.3333333 0.83333335 15.3333333 11.1666667 5 11.1666667" />
      <polygon id="Rectangle" fill="#3D3E49" points="5 5.83333335 10.3333333 5.83333335 10.3333333 11.1666667 5 11.1666667" />
    </g>
    <path d="M86.4895494,5.23392835 L96.2560598,5.23392835 L96.2560598,5.64582263 L91.5196694,5.64582263 L91.5196694,10.6854702 L96.7211317,10.6854702 L96.7211317,11.0852499 L91.5196694,11.0852499 L91.5196694,15.5433997 L91.1035524,15.5433997 L91.1035524,11.0852499 L86,11.0852499 L86,10.6854702 L91.1035524,10.6854702 L91.1035524,5.64582263 L86.4895494,5.64582263 L86.4895494,5.23392835 Z M87.6277517,6.74824553 C88.1173011,7.62049223 88.582373,8.57754069 89.0107288,9.60727637 L88.6190892,9.78899443 C88.1907335,8.72291514 87.7379003,7.76586668 87.2483509,6.94207813 L87.6277517,6.74824553 Z M95.1056187,6.66344377 L95.4972582,6.8330473 C95.09338,7.83855391 94.5671144,8.81983144 93.9184614,9.7768799 L93.5512994,9.5830473 C94.2121911,8.60176976 94.7262179,7.63260677 95.1056187,6.66344377 Z M106.653739,10.6733557 L106.653739,15.5555143 L106.237622,15.5555143 L106.237622,14.7801839 L99.2125884,14.7801839 L99.2125884,15.5555143 L98.7964714,15.5555143 L98.7964714,10.6733557 L106.653739,10.6733557 Z M99.2125884,14.3682896 L106.237622,14.3682896 L106.237622,11.0731354 L99.2125884,11.0731354 L99.2125884,14.3682896 Z M97.8051339,9.21961117 L97.7194628,8.83194598 C99.0412461,8.20199003 100.448701,6.77247461 101.954065,4.55551426 L102.357943,4.70088871 C101.060637,6.59075655 99.7878089,7.94758474 98.539458,8.79560236 C101.403322,8.68657153 103.997934,8.516968 106.298816,8.27467725 C105.711357,7.48723232 105.111659,6.76036007 104.499722,6.10617505 L104.879123,5.91234245 C106.005086,7.14802527 107.045379,8.49273893 108,9.94648342 L107.60836,10.140316 C107.265676,9.61939091 106.93523,9.12269487 106.592545,8.66234245 C103.985695,8.9046332 101.060637,9.08635126 97.8051339,9.21961117 Z" id="平台" fill="#FFFFFF" fill-rule="nonzero" opacity="0.9"></path>
    <path d="M25.1671686,9.49460043 L34.1782125,9.49460043 L34.1782125,12.8898488 L30.3002006,12.8898488 L30.3002006,13.3952484 L34.4166663,13.3952484 L34.4166663,14.2634989 L30.3002006,14.2634989 L30.3002006,14.8077754 L35.3202807,14.8077754 L35.3202807,15.8185745 L24,15.8185745 L24,14.8077754 L28.9949797,14.8077754 L28.9949797,14.2634989 L24.9287148,14.2634989 L24.9287148,13.3952484 L28.9949797,13.3952484 L28.9949797,12.8898488 L25.1671686,12.8898488 L25.1671686,9.49460043 Z M32.9357427,12.112311 L32.9357427,11.5550756 L30.3002006,11.5550756 L30.3002006,12.112311 L32.9357427,12.112311 Z M28.9949797,12.112311 L28.9949797,11.5550756 L26.4096385,11.5550756 L26.4096385,12.112311 L28.9949797,12.112311 Z M26.4096385,10.8293737 L28.9949797,10.8293737 L28.9949797,10.2850972 L26.4096385,10.2850972 L26.4096385,10.8293737 Z M30.3002006,10.2850972 L30.3002006,10.8293737 L32.9357427,10.8293737 L32.9357427,10.2850972 L30.3002006,10.2850972 Z M25.443273,4.23326134 L33.9146583,4.23326134 L33.9146583,7.5637149 L25.443273,7.5637149 L25.443273,4.23326134 Z M32.6596382,6.81209503 L32.6596382,6.28077754 L26.6982931,6.28077754 L26.6982931,6.81209503 L32.6596382,6.81209503 Z M26.6982931,5.52915767 L32.6596382,5.52915767 L32.6596382,4.99784017 L26.6982931,4.99784017 L26.6982931,5.52915767 Z M24,8.05615551 L35.3202807,8.05615551 L35.3202807,9.01511879 L24,9.01511879 L24,8.05615551 Z M36.2274809,9.41684665 L41.3605129,9.41684665 L41.3605129,7.83585313 C42.3143281,7.26565875 43.2430429,6.57883369 44.1466574,5.77537797 L37.545252,5.77537797 L37.545252,4.50539957 L45.8911352,4.50539957 L45.8911352,5.77537797 C44.9498702,6.73434125 43.8831031,7.65442765 42.6782839,8.50971922 L42.6782839,9.41684665 L47.2967576,9.41684665 L47.2967576,10.7386609 L42.6782839,10.7386609 L42.6782839,14.6393089 C42.6782839,15.5075594 42.2515771,15.9481641 41.4232639,15.9481641 L39.1893282,15.9481641 L38.8379226,14.6393089 C39.4654326,14.6652268 40.1431434,14.6781857 40.8836053,14.6781857 C41.1973603,14.6781857 41.3605129,14.5226782 41.3605129,14.2116631 L41.3605129,10.7386609 L36.2274809,10.7386609 L36.2274809,9.41684665 Z M49.3115321,4.19438445 C50.0896445,4.92008639 50.7548052,5.63282937 51.2819136,6.34557235 L50.4410502,7.21382289 C49.9641425,6.5399568 49.2989819,5.82721382 48.4455683,5.04967603 L49.3115321,4.19438445 Z M50.6669538,7.83585313 L51.620769,8.57451404 C50.7924558,9.94816415 49.9139417,11.0885529 49.0103273,11.9956803 L48.1820141,11.0367171 C49.0981787,10.1295896 49.9264919,9.06695464 50.6669538,7.83585313 Z M53.0514918,6.70842333 L53.0514918,7.18790497 L54.9716725,7.18790497 L54.9716725,6.70842333 L53.0514918,6.70842333 Z M53.0514918,8.08207343 L53.0514918,8.56155508 L54.9716725,8.56155508 L54.9716725,8.08207343 L53.0514918,8.08207343 Z M56.1513913,8.56155508 L59.3140418,8.56155508 C59.3140418,10.5313175 59.1634394,11.6976242 58.8747848,12.0345572 C58.5610298,12.3585313 57.9837206,12.5269978 57.1554074,12.5269978 C56.9546041,12.5269978 56.7412507,12.5140389 56.5278973,12.5010799 L56.2517929,11.3477322 C56.5027969,11.3736501 56.7287005,11.399568 56.9546041,11.399568 C57.5444636,11.399568 57.883319,11.2699784 57.9586202,11.0237581 C58.0590218,10.7775378 58.1092226,10.2721382 58.1092226,9.49460043 L51.871773,9.49460043 L51.871773,4.41468683 L58.8998852,4.41468683 L58.8998852,5.37365011 L56.1513913,5.37365011 L56.1513913,5.82721382 L58.6865318,5.82721382 L58.6865318,6.70842333 L56.1513913,6.70842333 L56.1513913,7.18790497 L58.6865318,7.18790497 L58.6865318,8.08207343 L56.1513913,8.08207343 L56.1513913,8.56155508 Z M54.9716725,5.37365011 L53.0514918,5.37365011 L53.0514918,5.82721382 L54.9716725,5.82721382 L54.9716725,5.37365011 Z M51.9219738,9.7537797 L52.8632388,10.0259179 C52.750287,10.699784 52.5369336,11.3347732 52.2357288,11.9568035 L51.181512,11.5939525 C51.5329176,11.0237581 51.7839216,10.4017279 51.9219738,9.7537797 Z M54.1935601,9.79265659 C54.3316123,10.2591793 54.4320139,10.8941685 54.4822147,11.6976242 L53.4781986,11.8272138 C53.440548,10.9978402 53.3652468,10.362851 53.2648452,9.90928726 L54.1935601,9.79265659 Z M55.6619335,9.74082073 C55.8627367,10.1684665 55.9882387,10.7516199 56.0635399,11.5032397 L55.0846243,11.6328294 C55.0344235,10.8552916 54.9214717,10.2591793 54.7583191,9.84449244 L55.6619335,9.74082073 Z M57.0550057,9.6112311 C57.2683592,10.012959 57.4691624,10.4794816 57.6448652,10.9978402 L56.7538009,11.2440605 C56.6157487,10.7775378 56.4400459,10.3239741 56.2392427,9.88336933 L57.0550057,9.6112311 Z M49.6001867,12.2937365 L50.8301064,12.5529158 C50.5038012,13.8488121 50.0394437,14.9762419 49.4495843,15.9092873 L48.3451667,15.1706263 C48.9350261,14.2634989 49.3491827,13.3045356 49.6001867,12.2937365 Z M54.5073151,12.0863931 C54.8712709,12.6306695 55.1850259,13.2138229 55.4485801,13.8358531 L54.3818131,14.3412527 C54.0806083,13.6285097 53.7668533,13.0064795 53.4279978,12.462203 L54.5073151,12.0863931 Z M55.7623351,15.8704104 L52.6122348,15.8704104 C51.8215722,15.8704104 51.432516,15.4557235 51.432516,14.6393089 L51.432516,12.2159827 L52.6749858,12.2159827 L52.6749858,14.3801296 C52.6749858,14.5615551 52.7753874,14.6522678 52.9761906,14.6522678 L55.5238813,14.6522678 C55.7246845,14.6522678 55.8752869,14.587473 55.9756885,14.4838013 C56.1011905,14.3542117 56.1890419,13.9654428 56.2266925,13.3434125 L57.4064114,13.7451404 C57.3060098,14.7818575 57.1177567,15.3909287 56.8667527,15.5982721 C56.6157487,15.7796976 56.2517929,15.8704104 55.7623351,15.8704104 Z M58.2974756,12.5529158 C58.950086,13.4859611 59.452094,14.3153348 59.8160498,15.0151188 L58.761833,15.7667387 C58.3978772,15.0021598 57.9084194,14.1468683 57.2809094,13.2138229 L58.2974756,12.5529158 Z M61.9096389,15.3261339 L61.9096389,16 L60.6546189,16 L60.6546189,11.2311015 L64.3067272,11.2311015 L64.3067272,15.8315335 L63.0642573,15.8315335 L63.0642573,15.3261339 L61.9096389,15.3261339 Z M63.0642573,14.0820734 L63.0642573,12.462203 L61.9096389,12.462203 L61.9096389,14.0820734 L63.0642573,14.0820734 Z M62.6501007,4 C62.8258035,4.54427646 62.9764059,5.0237581 63.0768075,5.46436285 L64.6204822,5.46436285 L64.6204822,6.72138229 L60.4287153,6.72138229 L60.4287153,5.46436285 L61.8343377,5.46436285 C61.7088357,5.08855292 61.5582333,4.71274298 61.4076309,4.34989201 L62.6501007,4 Z M60.7424703,7.4600432 L64.231426,7.4600432 L64.231426,8.65226782 L60.7424703,8.65226782 L60.7424703,7.4600432 Z M60.7424703,9.30021598 L64.231426,9.30021598 L64.231426,10.4924406 L60.7424703,10.4924406 L60.7424703,9.30021598 Z M65.4111448,9.7537797 L70.9583334,9.7537797 L70.9583334,13.0712743 L65.4111448,13.0712743 L65.4111448,9.7537797 Z M69.7284137,11.9568035 L69.7284137,10.8552916 L66.6410644,10.8552916 L66.6410644,11.9568035 L69.7284137,11.9568035 Z M64.8087352,14.6263499 L66.427711,14.6263499 C66.239458,14.2634989 66.0261046,13.9265659 65.800201,13.6155508 L66.9673697,13.161987 C67.2309239,13.5766739 67.4693777,14.0691145 67.6952813,14.6263499 L68.8122491,14.6263499 C69.0632531,14.1598272 69.3017069,13.6803456 69.5025101,13.174946 L70.6696788,13.6025918 C70.493976,13.9784017 70.2931728,14.3153348 70.0923695,14.6263499 L71.6736948,14.6263499 L71.6736948,15.8315335 L64.8087352,15.8315335 L64.8087352,14.6263499 Z M66.615964,8.26349892 C66.176707,8.80777538 65.674699,9.26133909 65.0973898,9.65010799 L64.3443778,8.63930886 C64.8714862,8.31533477 65.3358436,7.93952484 65.73745,7.51187905 C65.4613456,7.22678186 65.1475906,6.95464363 64.7836348,6.66954644 L65.5742974,5.89200864 C65.8755022,6.13822894 66.1390564,6.38444924 66.3900604,6.64362851 C66.5908636,6.2937365 66.7665664,5.93088553 66.9046187,5.55507559 L65.1475906,5.55507559 L65.1475906,4.41468683 L67.9964861,4.41468683 L67.9964861,5.36069114 C67.7705825,6.24190065 67.4568275,7.01943844 67.0301207,7.69330454 L69.6656627,7.69330454 C69.0758033,6.76025918 68.6239961,5.73650108 68.3102411,4.60907127 L69.2389559,4.07775378 C69.3142571,4.37580994 69.4146587,4.66090713 69.5150603,4.94600432 C69.7911647,4.66090713 70.0296185,4.36285097 70.2304217,4.05183585 L71.0712852,4.81641469 C70.74498,5.24406048 70.3810242,5.61987041 69.9543173,5.95680346 C70.0547189,6.1511879 70.1551205,6.34557235 70.2680724,6.5399568 C70.5943776,6.21598272 70.8830322,5.86609071 71.1340362,5.47732181 L71.9748996,6.24190065 C71.6611446,6.6825054 71.2971888,7.0712743 70.8955824,7.43412527 C71.2344378,7.8488121 71.5983936,8.22462203 72,8.56155508 L71.1967872,9.52051836 C70.7073294,9.06695464 70.2806226,8.57451404 69.9166667,8.05615551 L69.9166667,8.85961123 L66.615964,8.85961123 L66.615964,8.26349892 Z" id="量子憑證" stroke="#FFFFFF" stroke-width="0.25" fill="#FFFFFF" fill-rule="nonzero" opacity="0.899902344"></path>
    <path d="M78.488725,8.25284172 L77.979273,8.25284172 L76.6576686,6.2134 L76.6576686,8.25284172 L75.511275,8.25284172 C75.9380556,8.53543482 76.4498097,8.7 77,8.7 C77.5501903,8.7 78.0619444,8.53543482 78.488725,8.25284172 Z M79.0120979,7.80044455 C79.4398705,7.32271056 79.7,6.69173354 79.7,6 C79.7,4.50883118 78.4911688,3.3 77,3.3 C76.4401205,3.3 75.9200429,3.4704124 75.4888067,3.76219774 L77.7700766,3.76219774 C78.4648856,3.76219774 79.0281395,4.32545171 79.0281395,5.02026069 L79.0281395,5.22945714 C79.0281395,5.80873012 78.558546,6.27832365 77.979273,6.27832365 L79.0120979,7.80044455 Z M75.47478,3.77175287 C74.7653591,4.25827989 74.3,5.07479472 74.3,6 C74.3,6.92520528 74.7653591,7.74172011 75.47478,8.22824713 L75.47478,3.77175287 Z M77,10 C74.790861,10 73,8.209139 73,6 C73,3.790861 74.790861,2 77,2 C79.209139,2 81,3.790861 81,6 C81,8.209139 79.209139,10 77,10 Z M76.6576686,5.52682397 L77.4533224,5.52682397 C77.7403796,5.52682397 77.9730854,5.29411815 77.9730854,5.00706096 C77.9730854,5.00501064 77.9730733,5.00296033 77.973049,5.00091015 C77.9695997,4.70945464 77.7323502,4.47499633 77.4408743,4.47499633 L76.6576686,4.47499633 L76.6576686,5.52682397 Z" id="合并形状" fill="#ffffff" fill-rule="nonzero" opacity="0.9"/>
  </g>
</svg>
