<?xml version="1.0" encoding="UTF-8"?>
<svg xmlns="http://www.w3.org/2000/svg" xmlns:xlink="http://www.w3.org/1999/xlink" viewBox="0 0 108 20" version="1.1">
  <!-- Generator: Sketch 53.2 (72643) - https://sketchapp.com -->
  <title>logo_dark_ch</title>
  <desc>Created with Sketch.</desc>
  <g id="logo_dark_ch" stroke="none" stroke-width="1" fill="none" fill-rule="evenodd">

    <g id="分组" transform="translate(0.000000, 1.000000)" fill-rule="nonzero">
      <polygon id="Rectangle" fill="#D0D0D8" points="1.11022302e-13 5.83333335 10.3333333 5.83333335 10.3333333 16.1666667 1.11022302e-13 16.1666667" />
      <polygon id="Rectangle" fill="#D0D0D8" points="5 0.83333335 15.3333333 0.83333335 15.3333333 11.1666667 5 11.1666667" />
      <polygon id="Rectangle" fill="#3D3E49" points="5 5.83333335 10.3333333 5.83333335 10.3333333 11.1666667 5 11.1666667" />
    </g>
    <path d="M25.1707756,9.4295082 L34.2096665,9.4295082 L34.2096665,12.8655738 L30.3196703,12.8655738 L30.3196703,13.3770492 L34.4488572,13.3770492 L34.4488572,14.2557377 L30.3196703,14.2557377 L30.3196703,14.8065574 L35.3552641,14.8065574 L35.3552641,15.8295082 L24,15.8295082 L24,14.8065574 L29.0104159,14.8065574 L29.0104159,14.2557377 L24.9315849,14.2557377 L24.9315849,13.3770492 L29.0104159,13.3770492 L29.0104159,12.8655738 L25.1707756,12.8655738 L25.1707756,9.4295082 Z M32.9633571,12.0786885 L32.9633571,11.5147541 L30.3196703,11.5147541 L30.3196703,12.0786885 L32.9633571,12.0786885 Z M29.0104159,12.0786885 L29.0104159,11.5147541 L26.4170851,11.5147541 L26.4170851,12.0786885 L29.0104159,12.0786885 Z M26.4170851,10.7803279 L29.0104159,10.7803279 L29.0104159,10.2295082 L26.4170851,10.2295082 L26.4170851,10.7803279 Z M30.3196703,10.2295082 L30.3196703,10.7803279 L32.9633571,10.7803279 L32.9633571,10.2295082 L30.3196703,10.2295082 Z M25.4477332,4.10491803 L33.9452979,4.10491803 L33.9452979,7.47540984 L25.4477332,7.47540984 L25.4477332,4.10491803 Z M32.6863994,6.7147541 L32.6863994,6.17704918 L26.7066317,6.17704918 L26.7066317,6.7147541 L32.6863994,6.7147541 Z M26.7066317,5.41639344 L32.6863994,5.41639344 L32.6863994,4.87868852 L26.7066317,4.87868852 L26.7066317,5.41639344 Z M24,7.97377049 L35.3552641,7.97377049 L35.3552641,8.9442623 L24,8.9442623 L24,7.97377049 Z M36.2652679,9.35081967 L41.4141626,9.35081967 L41.4141626,7.75081967 C42.3709254,7.17377049 43.3025103,6.47868852 44.2089172,5.66557377 L37.5871113,5.66557377 L37.5871113,4.38032787 L45.9587861,4.38032787 L45.9587861,5.66557377 C45.0146122,6.63606557 43.9445485,7.56721311 42.736006,8.43278689 L42.736006,9.35081967 L47.3687523,9.35081967 L47.3687523,10.6885246 L42.736006,10.6885246 L42.736006,14.6360656 C42.736006,15.5147541 42.3079805,15.9606557 41.4771075,15.9606557 L39.2362683,15.9606557 L38.8837767,14.6360656 C39.5132259,14.6622951 40.1930311,14.6754098 40.9357812,14.6754098 C41.2505058,14.6754098 41.4141626,14.5180328 41.4141626,14.2032787 L41.4141626,10.6885246 L36.2652679,10.6885246 L36.2652679,9.35081967 Z M55.3537655,4.01311475 L56.6881978,4.01311475 C56.6881978,5.15409836 56.6504309,6.21639344 56.574897,7.18688525 C57.2043462,10.3737705 58.3373548,12.9180328 59.9487448,14.8196721 L58.991982,15.9606557 C57.7960285,14.3344262 56.8644436,12.3672131 56.1846384,10.0721311 C56.1594605,10.1901639 56.1468715,10.3081967 56.1216935,10.4131148 C55.6810791,12.6557377 54.6110154,14.5180328 52.9240914,16 L52.0302735,14.8590164 C53.4654178,13.5737705 54.3970026,12 54.8250281,10.1377049 C55.1649307,8.56393443 55.3411765,6.53114754 55.3537655,4.01311475 Z M49.9027351,4 C50.6958411,4.64262295 51.3756463,5.2852459 51.9421506,5.9147541 L51.0357437,6.87213115 C50.5573623,6.26885246 49.8649682,5.62622951 48.9711502,4.9442623 L49.9027351,4 Z M48.1528662,7.79016393 L51.1490446,7.79016393 L51.1490446,13.1409836 C51.5141251,12.8262295 51.9043837,12.4590164 52.3072312,12.052459 L52.6597227,13.4557377 C51.8414387,14.242623 50.9727988,14.9377049 50.0412139,15.5672131 L49.5376546,14.347541 C49.7642563,14.1639344 49.8775571,13.9147541 49.8775571,13.6262295 L49.8775571,9.10163934 L48.1528662,9.10163934 L48.1528662,7.79016393 Z M67.9715249,5.73114754 L64.5599101,5.73114754 L64.5599101,4.39344262 L71.7356313,4.39344262 L71.7356313,5.73114754 L69.3059573,5.73114754 L69.3059573,8.9704918 L71.5593855,8.9704918 L71.5593855,10.242623 L69.3059573,10.242623 L69.3059573,14.2819672 L72,14.2819672 L72,15.6196721 L64.1822405,15.6196721 L64.1822405,14.2819672 L65.3278381,14.2819672 L65.3278381,7.63278689 L66.6119146,7.63278689 L66.6119146,14.2819672 L67.9715249,14.2819672 L67.9715249,5.73114754 Z M62.0798801,4.01311475 C62.8603972,4.6557377 63.5150244,5.2852459 64.0689397,5.9147541 L63.1751218,6.87213115 C62.6967404,6.2557377 62.0295242,5.6 61.1608842,4.91803279 L62.0798801,4.01311475 Z M60.2796553,7.79016393 L63.2380667,7.79016393 L63.2380667,13.0754098 C63.5653803,12.7606557 63.9052829,12.4327869 64.2577744,12.0655738 L64.597677,13.5081967 C63.829749,14.2688525 63.011465,14.9639344 62.155414,15.5803279 L61.6518546,14.3344262 C61.8784564,14.1508197 61.9917572,13.9147541 61.9917572,13.6262295 L61.9917572,9.10163934 L60.2796553,9.10163934 L60.2796553,7.79016393 Z" id="量子认证" stroke="#222" stroke-width="0.25" fill="#222" fill-rule="nonzero" opacity="0.899902344" />
    <path d="M86.4895494,5.23392835 L96.2560598,5.23392835 L96.2560598,5.64582263 L91.5196694,5.64582263 L91.5196694,10.6854702 L96.7211317,10.6854702 L96.7211317,11.0852499 L91.5196694,11.0852499 L91.5196694,15.5433997 L91.1035524,15.5433997 L91.1035524,11.0852499 L86,11.0852499 L86,10.6854702 L91.1035524,10.6854702 L91.1035524,5.64582263 L86.4895494,5.64582263 L86.4895494,5.23392835 Z M87.6277517,6.74824553 C88.1173011,7.62049223 88.582373,8.57754069 89.0107288,9.60727637 L88.6190892,9.78899443 C88.1907335,8.72291514 87.7379003,7.76586668 87.2483509,6.94207813 L87.6277517,6.74824553 Z M95.1056187,6.66344377 L95.4972582,6.8330473 C95.09338,7.83855391 94.5671144,8.81983144 93.9184614,9.7768799 L93.5512994,9.5830473 C94.2121911,8.60176976 94.7262179,7.63260677 95.1056187,6.66344377 Z M106.653739,10.6733557 L106.653739,15.5555143 L106.237622,15.5555143 L106.237622,14.7801839 L99.2125884,14.7801839 L99.2125884,15.5555143 L98.7964714,15.5555143 L98.7964714,10.6733557 L106.653739,10.6733557 Z M99.2125884,14.3682896 L106.237622,14.3682896 L106.237622,11.0731354 L99.2125884,11.0731354 L99.2125884,14.3682896 Z M97.8051339,9.21961117 L97.7194628,8.83194598 C99.0412461,8.20199003 100.448701,6.77247461 101.954065,4.55551426 L102.357943,4.70088871 C101.060637,6.59075655 99.7878089,7.94758474 98.539458,8.79560236 C101.403322,8.68657153 103.997934,8.516968 106.298816,8.27467725 C105.711357,7.48723232 105.111659,6.76036007 104.499722,6.10617505 L104.879123,5.91234245 C106.005086,7.14802527 107.045379,8.49273893 108,9.94648342 L107.60836,10.140316 C107.265676,9.61939091 106.93523,9.12269487 106.592545,8.66234245 C103.985695,8.9046332 101.060637,9.08635126 97.8051339,9.21961117 Z" id="平台" fill="#222" fill-rule="nonzero" opacity="0.9" />
    <path d="M78.488725,8.25284172 L77.979273,8.25284172 L76.6576686,6.2134 L76.6576686,8.25284172 L75.511275,8.25284172 C75.9380556,8.53543482 76.4498097,8.7 77,8.7 C77.5501903,8.7 78.0619444,8.53543482 78.488725,8.25284172 Z M79.0120979,7.80044455 C79.4398705,7.32271056 79.7,6.69173354 79.7,6 C79.7,4.50883118 78.4911688,3.3 77,3.3 C76.4401205,3.3 75.9200429,3.4704124 75.4888067,3.76219774 L77.7700766,3.76219774 C78.4648856,3.76219774 79.0281395,4.32545171 79.0281395,5.02026069 L79.0281395,5.22945714 C79.0281395,5.80873012 78.558546,6.27832365 77.979273,6.27832365 L79.0120979,7.80044455 Z M75.47478,3.77175287 C74.7653591,4.25827989 74.3,5.07479472 74.3,6 C74.3,6.92520528 74.7653591,7.74172011 75.47478,8.22824713 L75.47478,3.77175287 Z M77,10 C74.790861,10 73,8.209139 73,6 C73,3.790861 74.790861,2 77,2 C79.209139,2 81,3.790861 81,6 C81,8.209139 79.209139,10 77,10 Z M76.6576686,5.52682397 L77.4533224,5.52682397 C77.7403796,5.52682397 77.9730854,5.29411815 77.9730854,5.00706096 C77.9730854,5.00501064 77.9730733,5.00296033 77.973049,5.00091015 C77.9695997,4.70945464 77.7323502,4.47499633 77.4408743,4.47499633 L76.6576686,4.47499633 L76.6576686,5.52682397 Z" id="合并形状" fill="#222" fill-rule="nonzero" opacity="0.9" />
  </g>
</svg>
