<?xml version="1.0" encoding="UTF-8"?>
<svg width="86" height="16" xmlns="http://www.w3.org/2000/svg" version="1.1">
  <!-- Generator: Sketch 53.2 (72643) - https://sketchapp.com -->

  <title>logo_dark_en</title>
  <desc>Created with Sketch.</desc>
  <g>
    <title>Layer 1</title>
    <rect height="10.59953" width="10.59953" y="5.29977" x="0" fill-rule="nonzero" fill="#D0D0D8" id="Rectangle-Copy-4" />
    <polygon points="5.299765586853027,0 15.899297714233398,0 15.899297714233398,10.599532127380371 5.299765586853027,10.599532127380371 " fill-rule="nonzero" fill="#D0D0D8" id="Rectangle-Copy-5" />
    <polygon points="5.299765586853027,5.2997660636901855 10.599532127380371,5.2997660636901855 10.599532127380371,10.599532127380371 5.299765586853027,10.599532127380371 " fill-rule="nonzero" fill="#3D3E49" id="Rectangle-Copy-6" />
    <path opacity="0.8999" fill-rule="nonzero" fill="#fff" stroke-width="0.6" id="Quantum" d="m24.44904,3.17986c1.47212,0 2.63362,0.46027 3.48448,1.39399c0.81035,0.8811 1.21553,2.05152 1.21553,3.4981c0,1.40714 -0.39166,2.55126 -1.14799,3.4192c0.35115,0.44713 0.71581,0.92056 1.06696,1.42029l-1.02643,0.86795c-0.36465,-0.51288 -0.71581,-0.99946 -1.06696,-1.44658c-0.70229,0.39452 -1.55316,0.60494 -2.52557,0.60494c-1.48564,0 -2.64713,-0.47343 -3.48449,-1.39399c-0.81035,-0.89425 -1.20202,-2.05153 -1.20202,-3.47181c0,-1.43343 0.39166,-2.59069 1.20202,-3.48496c0.83735,-0.94685 1.99885,-1.40713 3.48449,-1.40713l-0.00001,0.00001l-0.00001,-0.00001zm0,1.35453c-0.99943,0 -1.76926,0.32876 -2.323,0.98631c-0.52674,0.63123 -0.78334,1.47288 -0.78334,2.55125c0,1.06522 0.25661,1.90687 0.78334,2.53811c0.54023,0.64439 1.32356,0.97315 2.323,0.97315c0.63476,0 1.175,-0.13151 1.6342,-0.38137c-0.48621,-0.57864 -0.94541,-1.09152 -1.39109,-1.55179l0.9184,-0.86795c0.4727,0.48658 0.94541,0.99946 1.4046,1.5255c0.35115,-0.57864 0.54023,-1.32824 0.54023,-2.23564c0,-1.10466 -0.27011,-1.97261 -0.79684,-2.60385c-0.54023,-0.63123 -1.31006,-0.9337 -2.30948,-0.9337l-0.00001,-0.00001l-0.00001,-0.00001zm6.05058,1.42029l1.53965,0l0,4.14248c0,0.55234 0.10806,0.94685 0.35115,1.20988c0.2431,0.24987 0.62126,0.38138 1.1615,0.38138c0.33763,0 0.66178,-0.14466 0.97241,-0.42083c0.31064,-0.28932 0.54024,-0.67069 0.6753,-1.15726l0,-4.15564l1.53965,0l0,6.79895l-1.53965,0l0,-0.88111c-0.59426,0.71015 -1.32357,1.06522 -2.18794,1.06522c-1.67472,0 -2.51207,-0.92056 -2.51207,-2.74852l0,-4.23454l0,-0.00001zm11.03422,-0.18412c1.02643,0 1.79626,0.24986 2.28247,0.74959c0.43218,0.43397 0.64828,1.06522 0.64828,1.89373l0,4.33975l-1.43162,0l0,-0.89425c-0.27011,0.34192 -0.60775,0.59178 -0.99942,0.7759c-0.4457,0.19726 -0.97243,0.30247 -1.58018,0.30247c-0.72931,0 -1.29655,-0.18412 -1.71523,-0.53918c-0.43218,-0.36822 -0.64828,-0.8285 -0.64828,-1.39399c0,-0.76274 0.29713,-1.35452 0.9184,-1.7622c0.56724,-0.39453 1.36409,-0.60494 2.39052,-0.63123l1.52615,-0.03945l0,-0.26302c0,-0.89425 -0.49972,-1.32823 -1.49914,-1.32823c-0.43218,0 -0.76983,0.06575 -1.02643,0.22356c-0.29713,0.17096 -0.49972,0.43397 -0.58074,0.78904l-1.52615,-0.11835c0.14856,-0.7496 0.52673,-1.30193 1.13449,-1.64385c0.51322,-0.31561 1.21552,-0.46027 2.1069,-0.46027l-0.00001,-0.00001l-0.00001,-0.00001zm1.39109,3.87948l-1.41811,0.03945c-1.22903,0.0263 -1.83678,0.44713 -1.83678,1.26248c0,0.23671 0.09454,0.43397 0.31063,0.59178c0.21609,0.15781 0.48621,0.24986 0.82386,0.24986c0.59425,0 1.09397,-0.17096 1.49913,-0.49973c0.40518,-0.34192 0.62127,-0.7759 0.62127,-1.30193l0,-0.34192l0.00001,0.00001l-0.00001,0zm6.76639,-3.87948c1.74224,0 2.62012,0.92056 2.62012,2.78796l0,4.19511l-1.53965,0l0,-4.0636c0,-1.11782 -0.52673,-1.67014 -1.58018,-1.67014c-0.37816,0 -0.71581,0.13151 -0.99943,0.39453c-0.32414,0.28932 -0.51322,0.71014 -0.56723,1.24932l0,4.08989l-1.53966,0l0,-6.79895l1.53966,0l0,0.78904c0.27011,-0.31561 0.58074,-0.56549 0.91839,-0.72329c0.35115,-0.17096 0.72931,-0.24986 1.14799,-0.24986l0,-0.00001l-0.00001,0zm6.42876,-2.01207l0,2.19618l1.55316,0l0,1.23617l-1.55316,0l0,3.84003c0,0.15781 0.02701,0.27616 0.10804,0.36822c0.08104,0.07891 0.18908,0.11835 0.35115,0.11835l0.9184,0l0,1.23618l-1.17501,0c-0.60775,0 -1.05344,-0.15782 -1.33707,-0.47343c-0.27012,-0.28932 -0.40518,-0.697 -0.40518,-1.24932l0,-3.84003l-1.25603,0l0,-1.23617l1.25603,0l0,-1.5781l1.53966,-0.61808l0.00001,0zm2.70115,2.19618l1.53965,0l0,4.14248c0,0.55234 0.10804,0.94685 0.35115,1.20988c0.2431,0.24987 0.62126,0.38138 1.1615,0.38138c0.33763,0 0.66178,-0.14466 0.97241,-0.42083c0.31063,-0.28932 0.54024,-0.67069 0.67529,-1.15726l0,-4.15564l1.53966,0l0,6.79895l-1.53966,0l0,-0.88111c-0.59425,0.71015 -1.32356,1.06522 -2.18793,1.06522c-1.67472,0 -2.51207,-0.92056 -2.51207,-2.74852l0,-4.23454l0,-0.00001zm11.29082,-0.18412c1.02643,0 1.75575,0.36822 2.20144,1.10466c0.32415,-0.42082 0.66179,-0.71014 1.01294,-0.86795c0.31064,-0.15781 0.7023,-0.23671 1.17501,-0.23671c0.7158,0 1.31006,0.22356 1.79626,0.697c0.4592,0.47343 0.7023,1.07837 0.7023,1.82796l0,4.45812l-1.53965,0l0,-4.19511c0,-0.53917 -0.12155,-0.9337 -0.35115,-1.17042c-0.2431,-0.24986 -0.62127,-0.36822 -1.1615,-0.36822c-0.37816,0 -0.68879,0.13151 -0.94541,0.42082c-0.27012,0.27617 -0.39166,0.65754 -0.39166,1.15726l0,4.15566l-1.53966,0l0,-4.18195c0,-1.03891 -0.45919,-1.55179 -1.37759,-1.55179c-0.44569,0 -0.79684,0.15781 -1.06695,0.49973c-0.27012,0.31562 -0.40518,0.71015 -0.40518,1.15726l0,4.07675l-1.53965,0l0,-6.79895l1.53965,0l0,0.69699c0.58074,-0.59178 1.21553,-0.8811 1.89081,-0.8811l-0.00002,-0.00001l0.00001,0z" stroke="#fff" />
    <path opacity="0.9" fill-rule="nonzero" fill="#fff" id="SecureCenter" d="m99.19738,2.3199c1.08616,0 1.95795,0.27141 2.58679,0.84282c0.65742,0.55711 1.02901,1.34279 1.11475,2.37131l-0.55738,0c-0.10005,-0.8571 -0.41447,-1.52849 -0.94325,-1.99991c-0.54309,-0.4714 -1.27197,-0.69997 -2.21521,-0.69997c-0.90038,0 -1.61497,0.15714 -2.12947,0.49998c-0.58595,0.35713 -0.87179,0.88568 -0.87179,1.58565c0,0.62854 0.35729,1.11424 1.07187,1.48566c0.31441,0.17142 1.00042,0.39999 2.04371,0.68568c1.25767,0.34284 2.12947,0.65711 2.60108,0.94281c0.82892,0.49998 1.24338,1.21424 1.24338,2.12848c0,0.85711 -0.37158,1.54279 -1.10045,2.04276c-0.70029,0.47141 -1.60067,0.71426 -2.70113,0.71426c-1.14333,0 -2.05799,-0.2857 -2.71542,-0.84282c-0.72886,-0.61425 -1.14333,-1.5285 -1.22908,-2.72844l0.54309,0c0.08575,1.02852 0.44303,1.79992 1.07186,2.32847c0.57167,0.47141 1.34341,0.71426 2.31525,0.71426c0.95754,0 1.74358,-0.19999 2.34383,-0.59998c0.60025,-0.39999 0.91467,-0.94282 0.91467,-1.61422c0,-0.75712 -0.37158,-1.3428 -1.08616,-1.75706c-0.40017,-0.24285 -1.1862,-0.51427 -2.35812,-0.82853c-1.2005,-0.34285 -1.97225,-0.59998 -2.34384,-0.79996c-0.78604,-0.44283 -1.17192,-1.0571 -1.17192,-1.85706c0,-0.8714 0.3573,-1.5285 1.10046,-1.98564c0.62883,-0.42855 1.45774,-0.62854 2.47246,-0.62854l0.00002,-0.00001zm7.76447,2.81417c1.14333,0 2.00083,0.3857 2.57249,1.17137c0.48591,0.67139 0.75746,1.64278 0.81462,2.89987l-6.174,0c0.02859,0.97138 0.28584,1.75706 0.78604,2.32847c0.5145,0.58569 1.18621,0.88568 2.01513,0.88568c0.74316,0 1.34341,-0.21428 1.80076,-0.61425c0.37158,-0.34284 0.65742,-0.82853 0.82891,-1.45709l0.58595,0c-0.1715,0.72854 -0.5002,1.31424 -0.97183,1.77135c-0.58596,0.52855 -1.32913,0.79996 -2.24379,0.79996c-1.02901,0 -1.84363,-0.35713 -2.44387,-1.07138c-0.62884,-0.72854 -0.92897,-1.67135 -0.92897,-2.82846c0,-1.07138 0.28584,-1.97134 0.88609,-2.71415c0.62883,-0.78567 1.44345,-1.17137 2.47246,-1.17137l0.00001,0zm0.01429,0.49997c-0.81462,0 -1.47204,0.28571 -1.97225,0.8714c-0.5002,0.58569 -0.77174,1.32851 -0.82891,2.21419l5.60234,0c-0.15721,-2.05706 -1.08616,-3.08558 -2.80117,-3.08558l-0.00001,-0.00001zm7.30712,-0.49997c0.8575,0 1.54351,0.21427 2.08659,0.64282c0.54308,0.42856 0.87179,1.07139 0.98612,1.94278l-0.54308,0c-0.10004,-0.69997 -0.37159,-1.21423 -0.80034,-1.55707c-0.45732,-0.35713 -1.02901,-0.52856 -1.72929,-0.52856c-0.8575,0 -1.52921,0.32856 -2.04371,0.99996c-0.48591,0.62854 -0.72888,1.4428 -0.72888,2.47132c0,0.99995 0.22866,1.78563 0.70029,2.3856c0.47162,0.61427 1.15763,0.92853 2.058,0.92853c1.47204,0 2.32954,-0.7714 2.58679,-2.2999l0.54308,0c-0.14292,0.89997 -0.48591,1.59993 -1.02899,2.08562c-0.54309,0.47141 -1.24338,0.71426 -2.10088,0.71426c-1.08616,0 -1.91509,-0.37142 -2.50105,-1.11424c-0.54309,-0.68568 -0.81462,-1.58565 -0.81462,-2.69989c0,-1.12853 0.28584,-2.05705 0.8575,-2.7856c0.60025,-0.79995 1.42916,-1.18565 2.47246,-1.18565l-0.00001,0.00001l0.00002,0.00001zm4.00575,0.19999l0.55738,0l0,4.52836c0,0.82853 0.1715,1.45709 0.52879,1.88563c0.37159,0.44283 0.94325,0.67139 1.72929,0.67139c0.65742,0 1.22909,-0.24285 1.68641,-0.72854c0.45733,-0.48569 0.70029,-1.11424 0.72888,-1.88563l0,-4.47122l0.54309,0l0,7.38539l-0.54309,0l0,-1.37137c-0.55738,1.04281 -1.40058,1.57136 -2.51534,1.57136c-1.81504,0 -2.71542,-1.01424 -2.71542,-3.04273l0,-4.54265l0.00001,0l0,0.00001zm10.03683,-0.19999c0.47162,0 0.8575,0.04286 1.14334,0.14285l0,0.58569c-0.40017,-0.11428 -0.80034,-0.17143 -1.17192,-0.17143c-0.74316,0 -1.34341,0.34284 -1.78647,1.04281c-0.38588,0.59998 -0.57166,1.29994 -0.57166,2.08562l0,3.89984l-0.55738,0l0,-7.38539l0.55738,0l0,1.54278c0.18579,-0.48569 0.47162,-0.87139 0.8575,-1.18566c0.44303,-0.37141 0.95754,-0.55711 1.52921,-0.55711zm4.54885,0c1.14333,0 2.00083,0.3857 2.57249,1.17137c0.48592,0.67139 0.75746,1.64278 0.81462,2.89987l-6.174,0c0.02859,0.97138 0.28584,1.75706 0.78604,2.32847c0.5145,0.58569 1.18621,0.88568 2.01513,0.88568c0.74316,0 1.34341,-0.21428 1.80076,-0.61425c0.37158,-0.34284 0.65742,-0.82853 0.82891,-1.45709l0.58596,0c-0.1715,0.72854 -0.50021,1.31424 -0.97184,1.77135c-0.58596,0.52855 -1.32913,0.79996 -2.24379,0.79996c-1.02901,0 -1.84363,-0.35713 -2.44387,-1.07138c-0.62884,-0.72854 -0.92897,-1.67135 -0.92897,-2.82846c0,-1.07138 0.28584,-1.97134 0.88609,-2.71415c0.62883,-0.78567 1.44345,-1.17137 2.47246,-1.17137l0.00001,0zm0.01429,0.49997c-0.81462,0 -1.47204,0.28571 -1.97224,0.8714c-0.50021,0.58569 -0.77175,1.32851 -0.82892,2.21419l5.60234,0c-0.15721,-2.05706 -1.08616,-3.08558 -2.80117,-3.08558l-0.00001,-0.00001zm13.04218,-3.31413c1.02901,0 1.92938,0.2857 2.70113,0.8571c0.82891,0.59998 1.30055,1.39994 1.41487,2.38561l-0.54308,0c-0.11434,-0.82853 -0.52879,-1.49994 -1.22909,-1.99991c-0.68599,-0.4857 -1.45774,-0.71426 -2.34383,-0.71426c-1.32913,0 -2.38671,0.47141 -3.17274,1.41422c-0.72888,0.89997 -1.08616,2.04277 -1.08616,3.41414c0,1.37137 0.35729,2.4856 1.08616,3.35699c0.74316,0.89997 1.75787,1.35709 3.04412,1.35709c0.92897,0 1.72929,-0.25714 2.4153,-0.75712c0.74316,-0.5714 1.22908,-1.37137 1.42916,-2.37132l0.54309,0c-0.22867,1.17138 -0.75746,2.08563 -1.60067,2.75702c-0.78604,0.59998 -1.715,0.89997 -2.78689,0.89997c-1.45775,0 -2.61537,-0.52855 -3.47287,-1.55707c-0.81462,-0.97139 -1.21479,-2.19991 -1.21479,-3.68555c0,-1.49994 0.40017,-2.74273 1.22908,-3.7427c0.87179,-1.08567 2.07229,-1.61422 3.58721,-1.61422l0,0.00002l0,-0.00001zm8.2218,2.81417c1.14333,0 2.00083,0.3857 2.57249,1.17137c0.48591,0.67139 0.75745,1.64278 0.81462,2.89987l-6.174,0c0.02859,0.97138 0.28584,1.75706 0.78604,2.32847c0.5145,0.58569 1.18621,0.88568 2.01513,0.88568c0.74316,0 1.34341,-0.21428 1.80076,-0.61425c0.37158,-0.34284 0.65742,-0.82853 0.82891,-1.45709l0.58595,0c-0.1715,0.72854 -0.5002,1.31424 -0.97183,1.77135c-0.58596,0.52855 -1.32913,0.79996 -2.24379,0.79996c-1.02901,0 -1.84363,-0.35713 -2.44388,-1.07138c-0.62883,-0.72854 -0.92896,-1.67135 -0.92896,-2.82846c0,-1.07138 0.28583,-1.97134 0.88608,-2.71415c0.62884,-0.78567 1.44346,-1.17137 2.47247,-1.17137l0.00001,0zm0.01429,0.49997c-0.81462,0 -1.47204,0.28571 -1.97225,0.8714c-0.5002,0.58569 -0.77175,1.32851 -0.82891,2.21419l5.60234,0c-0.15721,-2.05706 -1.08617,-3.08558 -2.80117,-3.08558l-0.00001,-0.00001zm7.30712,-0.49997c1.81504,0 2.72971,1.01424 2.72971,3.057l0,4.52837l-0.55738,0l0,-4.51408c0,-1.71421 -0.75745,-2.57132 -2.25808,-2.57132c-0.67171,0 -1.22908,0.24285 -1.67213,0.72855c-0.45732,0.4714 -0.70029,1.09995 -0.72888,1.88562l0,4.47123l-0.55737,0l0,-7.38539l0.55737,0l0,1.34279c0.22867,-0.4714 0.57167,-0.84282 1.00043,-1.12853c0.44303,-0.2857 0.94325,-0.41427 1.48633,-0.41427l-0.00001,0.00002l0.00001,0.00001zm5.62071,-2.18563l0,2.38561l2.04371,0l0,0.49997l-2.04371,0l0,5.32835c0,0.3857 0.05718,0.65711 0.20008,0.81424c0.11433,0.15714 0.37158,0.24285 0.74316,0.24285l0.92896,0l0,0.49998l-0.97183,0c-0.55738,0 -0.94325,-0.14285 -1.15763,-0.41428c-0.20007,-0.25712 -0.28583,-0.62854 -0.28583,-1.14279l0,-5.32835l-1.67213,0l0,-0.49997l1.67213,0l0,-2.14277l0.54308,-0.24285l0.00001,0.00001zm5.79221,2.18563c1.14334,0 2.00084,0.3857 2.5725,1.17137c0.48591,0.67139 0.75745,1.64278 0.81462,2.89987l-6.174,0c0.02859,0.97138 0.28584,1.75706 0.78604,2.32847c0.5145,0.58569 1.18621,0.88568 2.01513,0.88568c0.74316,0 1.34341,-0.21428 1.80074,-0.61425c0.37159,-0.34284 0.65742,-0.82853 0.82891,-1.45709l0.58596,0c-0.1715,0.72854 -0.5002,1.31424 -0.97183,1.77135c-0.58596,0.52855 -1.32913,0.79996 -2.24379,0.79996c-1.02901,0 -1.84363,-0.35713 -2.44388,-1.07138c-0.62883,-0.72854 -0.92896,-1.67135 -0.92896,-2.82846c0,-1.07138 0.28583,-1.97134 0.88608,-2.71415c0.62884,-0.78567 1.44346,-1.17137 2.47246,-1.17137l0.00001,0l0.00001,0zm0.0143,0.49997c-0.81462,0 -1.47204,0.28571 -1.97225,0.8714c-0.5002,0.58569 -0.77175,1.32851 -0.82891,2.21419l5.60233,0c-0.1572,-2.05706 -1.08616,-3.08558 -2.80116,-3.08558l-0.00001,-0.00001zm7.20708,-0.49997c0.47163,0 0.8575,0.04286 1.14334,0.14285l0,0.58569c-0.40017,-0.11428 -0.80034,-0.17143 -1.17192,-0.17143c-0.74316,0 -1.34341,0.34284 -1.78646,1.04281c-0.38588,0.59998 -0.57167,1.29994 -0.57167,2.08562l0,3.89984l-0.55738,0l0,-7.38539l0.55738,0l0,1.54278c0.1858,-0.48569 0.47162,-0.87139 0.8575,-1.18566c0.44303,-0.37141 0.95754,-0.55711 1.52921,-0.55711z" />
    <path opacity="0.9" fill-rule="nonzero" fill="#fff" id="合并形状-copy-2" d="m82.8178,6.62772l-0.54,0l-1.40084,-2.16171l0,2.16171l-1.21513,0c0.45238,0.29953 0.99481,0.47396 1.57799,0.47396c0.58318,0 1.12561,-0.17443 1.57799,-0.47396l-0.00001,0zm0.55475,-0.47953c0.45341,-0.50637 0.72914,-1.17518 0.72914,-1.90838c0,-1.58057 -1.2813,-2.86187 -2.86187,-2.86187c-0.59344,0 -1.14471,0.18063 -1.60179,0.48991l2.41804,0c0.73646,0 1.33349,0.59701 1.33349,1.33349l0,0.22174c0,0.614 -0.49775,1.11174 -1.11175,1.11174l1.09475,1.61337l-0.00001,-0.00001l0,0.00001zm-3.7494,-4.27022c-0.75195,0.5157 -1.24521,1.38116 -1.24521,2.36184c0,0.98068 0.49326,1.84615 1.24521,2.36184l0,-4.72368zm1.61666,6.60165c-2.34159,0 -4.23981,-1.89822 -4.23981,-4.23981c0,-2.34159 1.89822,-4.23981 4.23981,-4.23981c2.34159,0 4.23981,1.89822 4.23981,4.23981c0,2.34159 -1.89822,4.23981 -4.23981,4.23981zm-0.36285,-4.74136l0.84335,0c0.30427,0 0.55093,-0.24665 0.55093,-0.55092c0,-0.00217 -0.00002,-0.00434 -0.00004,-0.00652c-0.00366,-0.30893 -0.25513,-0.55744 -0.56408,-0.55744l-0.83016,0l0,1.11488l0,-0.00001l0,0.00001z" />
  </g>
</svg>
