<?xml version="1.0" encoding="UTF-8"?>
<svg viewBox="0 0 171 20" version="1.1" xmlns="http://www.w3.org/2000/svg" xmlns:xlink="http://www.w3.org/1999/xlink">
    <!-- Generator: Sketch 53.2 (72643) - https://sketchapp.com -->
    <title>logo_dark_en</title>
    <desc>Created with Sketch.</desc>
    <g id="logo_dark_en" stroke="none" stroke-width="1" fill="none" fill-rule="evenodd">
        <rect id="Rectangle-Copy-4" fill="#D0D0D8" fill-rule="nonzero" x="0" y="8" width="10" height="10"></rect>
        <polygon id="Rectangle-Copy-5" fill="#D0D0D8" fill-rule="nonzero" points="5 3 15 3 15 13 5 13"></polygon>
        <polygon id="Rectangle-Copy-6" fill="#3D3E49" fill-rule="nonzero" points="5 8 10 8 10 13 5 13"></polygon>
        <path d="M28.4214252,6 C29.8102879,6 30.9060878,6.43424318 31.7088249,7.31513648 C32.4733365,8.14640199 32.8555923,9.25062035 32.8555923,10.6153846 C32.8555923,11.942928 32.4860783,13.0223325 31.7725342,13.8411911 C32.1038226,14.2630273 32.4478528,14.7096774 32.7791411,15.1811414 L31.8107598,16 C31.4667296,15.516129 31.1354412,15.057072 30.8041529,14.6352357 C30.1415762,15.0074442 29.3388391,15.2059553 28.4214252,15.2059553 C27.0198207,15.2059553 25.9240208,14.7593052 25.1340255,13.8908189 C24.3695139,13.0471464 24,11.955335 24,10.6153846 C24,9.2630273 24.3695139,8.17121588 25.1340255,7.32754342 C25.9240208,6.43424318 27.0198207,6 28.4214252,6 Z M28.4214252,7.27791563 C27.4785276,7.27791563 26.7522416,7.58808933 26.2298254,8.20843672 C25.7328929,8.80397022 25.4907975,9.59801489 25.4907975,10.6153846 C25.4907975,11.6203474 25.7328929,12.4143921 26.2298254,13.0099256 C26.7394998,13.617866 27.4785276,13.9280397 28.4214252,13.9280397 C29.0202926,13.9280397 29.529967,13.8039702 29.9631902,13.5682382 C29.5044832,13.0223325 29.07126,12.5384615 28.6507787,12.1042184 L29.5172251,11.2853598 C29.9631902,11.7444169 30.4091553,12.2282878 30.8423785,12.7245658 C31.1736668,12.17866 31.3520529,11.471464 31.3520529,10.6153846 C31.3520529,9.57320099 31.0972157,8.75434243 30.6002832,8.15880893 C30.0906088,7.56327543 29.3643228,7.27791563 28.4214252,7.27791563 Z M34.1297782,8.617866 L35.5823502,8.617866 L35.5823502,12.5260546 C35.5823502,13.0471464 35.684285,13.4193548 35.9136385,13.6674938 C36.142992,13.9032258 36.499764,14.0272953 37.0094384,14.0272953 C37.3279849,14.0272953 37.6337895,13.8908189 37.9268523,13.630273 C38.2199151,13.3573201 38.4365267,12.9975186 38.5639453,12.5384615 L38.5639453,8.617866 L40.0165172,8.617866 L40.0165172,15.0322581 L38.5639453,15.0322581 L38.5639453,14.2009926 C38.0033034,14.8709677 37.315243,15.2059553 36.499764,15.2059553 C34.9197735,15.2059553 34.1297782,14.337469 34.1297782,12.6129032 L34.1297782,8.617866 Z M44.5398773,8.44416873 C45.5082586,8.44416873 46.2345446,8.67990074 46.6932515,9.15136476 C47.100991,9.56079404 47.3048608,10.1563275 47.3048608,10.9379653 L47.3048608,15.0322581 L45.9542237,15.0322581 L45.9542237,14.1885856 C45.6993865,14.5111663 45.38084,14.7468983 45.0113261,14.9205955 C44.5908447,15.1066998 44.0939122,15.2059553 43.5205286,15.2059553 C42.8324681,15.2059553 42.2973101,15.0322581 41.9023124,14.6972705 C41.4945729,14.3498759 41.2907032,13.9156328 41.2907032,13.382134 C41.2907032,12.662531 41.5710241,12.1042184 42.1571496,11.719603 C42.6923077,11.3473945 43.4440774,11.1488834 44.4124587,11.1240695 L45.8522888,11.0868486 L45.8522888,10.8387097 C45.8522888,9.99503722 45.38084,9.58560794 44.4379424,9.58560794 C44.0302029,9.58560794 43.7116564,9.64764268 43.4695611,9.79652605 C43.1892402,9.95781638 42.9981123,10.2059553 42.9216612,10.5409429 L41.4818311,10.4292804 C41.6219915,9.72208437 41.9787636,9.20099256 42.5521472,8.87841191 C43.0363379,8.58064516 43.6989146,8.44416873 44.5398773,8.44416873 Z M45.8522888,12.1042184 L44.5143936,12.1414392 C43.3548844,12.1662531 42.7815007,12.5632754 42.7815007,13.3325062 C42.7815007,13.5558313 42.8706937,13.7419355 43.0745635,13.8908189 C43.2784332,14.0397022 43.5332704,14.1265509 43.8518169,14.1265509 C44.4124587,14.1265509 44.8839075,13.9652605 45.2661633,13.6550868 C45.6484191,13.3325062 45.8522888,12.9230769 45.8522888,12.426799 L45.8522888,12.1042184 Z M52.2359604,8.44416873 C53.8796602,8.44416873 54.7078811,9.31265509 54.7078811,11.0744417 L54.7078811,15.0322581 L53.2553091,15.0322581 L53.2553091,11.1985112 C53.2553091,10.1439206 52.7583766,9.62282878 51.7645116,9.62282878 C51.4077395,9.62282878 51.089193,9.74689826 50.821614,9.99503722 C50.5158093,10.2679901 50.3374233,10.6650124 50.2864559,11.1736973 L50.2864559,15.0322581 L48.8338839,15.0322581 L48.8338839,8.617866 L50.2864559,8.617866 L50.2864559,9.36228288 C50.5412931,9.06451613 50.8343558,8.82878412 51.1529023,8.67990074 C51.4841907,8.51861042 51.8409627,8.44416873 52.2359604,8.44416873 Z M58.3010854,6.54590571 L58.3010854,8.617866 L59.7663992,8.617866 L59.7663992,9.78411911 L58.3010854,9.78411911 L58.3010854,13.4069479 C58.3010854,13.5558313 58.3265691,13.6674938 58.4030203,13.7543424 C58.4794714,13.8287841 58.5814063,13.866005 58.7343086,13.866005 L59.6007551,13.866005 L59.6007551,15.0322581 L58.4922133,15.0322581 C57.9188296,15.0322581 57.4983483,14.8833747 57.2307692,14.5856079 C56.975932,14.3126551 56.8485134,13.9280397 56.8485134,13.4069479 L56.8485134,9.78411911 L55.6635205,9.78411911 L55.6635205,8.617866 L56.8485134,8.617866 L56.8485134,7.12903226 L58.3010854,6.54590571 Z M60.8494573,8.617866 L62.3020293,8.617866 L62.3020293,12.5260546 C62.3020293,13.0471464 62.4039641,13.4193548 62.6333176,13.6674938 C62.8626711,13.9032258 63.2194431,14.0272953 63.7291175,14.0272953 C64.047664,14.0272953 64.3534686,13.8908189 64.6465314,13.630273 C64.9395941,13.3573201 65.1562058,12.9975186 65.2836244,12.5384615 L65.2836244,8.617866 L66.7361963,8.617866 L66.7361963,15.0322581 L65.2836244,15.0322581 L65.2836244,14.2009926 C64.7229825,14.8709677 64.0349221,15.2059553 63.2194431,15.2059553 C61.6394526,15.2059553 60.8494573,14.337469 60.8494573,12.6129032 L60.8494573,8.617866 Z M71.5016517,8.44416873 C72.470033,8.44416873 73.1580934,8.79156328 73.5785748,9.48635236 C73.8843794,9.08933002 74.2029259,8.81637717 74.5342143,8.6674938 C74.827277,8.51861042 75.1967909,8.44416873 75.642756,8.44416873 C76.3180746,8.44416873 76.8787164,8.65508685 77.3374233,9.10173697 C77.7706465,9.5483871 78,10.1191067 78,10.8263027 L78,15.0322581 L76.547428,15.0322581 L76.547428,11.0744417 C76.547428,10.5657568 76.4327513,10.1935484 76.2161397,9.97022333 C75.9867862,9.73449132 75.6300142,9.62282878 75.1203398,9.62282878 C74.7635677,9.62282878 74.470505,9.74689826 74.2284096,10.0198511 C73.9735724,10.280397 73.8588957,10.6401985 73.8588957,11.1116625 L73.8588957,15.0322581 L72.4063237,15.0322581 L72.4063237,11.0868486 C72.4063237,10.1066998 71.9731005,9.62282878 71.1066541,9.62282878 C70.6861727,9.62282878 70.3548844,9.77171216 70.1000472,10.0942928 C69.84521,10.3920596 69.7177914,10.764268 69.7177914,11.1861042 L69.7177914,15.0322581 L68.2652194,15.0322581 L68.2652194,8.617866 L69.7177914,8.617866 L69.7177914,9.27543424 C70.2656914,8.71712159 70.8645588,8.44416873 71.5016517,8.44416873 Z" id="Quantum" stroke="#FFFFFF" stroke-width="0.6" fill="#FFFFFF" fill-rule="nonzero" opacity="0.899902344"></path>
        <path d="M93.5865595,5.18867925 C94.6112908,5.18867925 95.4337725,5.44474394 96.027038,5.98382749 C96.64727,6.50943396 96.997836,7.25067385 97.0787359,8.22102426 L96.5528869,8.22102426 C96.4585038,7.41239892 96.161871,6.77897574 95.6629887,6.33423181 C95.150623,5.88948787 94.4629744,5.67385445 93.5730762,5.67385445 C92.7236279,5.67385445 92.0494626,5.82210243 91.5640635,6.14555256 C91.011248,6.48247978 90.7415819,6.98113208 90.7415819,7.64150943 C90.7415819,8.23450135 91.0786645,8.69272237 91.7528298,9.04312668 C92.0494626,9.20485175 92.6966613,9.42048518 93.6809426,9.69002695 C94.8674736,10.0134771 95.6899553,10.309973 96.1349044,10.5795148 C96.9169362,11.0512129 97.3079521,11.7250674 97.3079521,12.5876011 C97.3079521,13.3962264 96.9573861,14.0431267 96.2697375,14.5148248 C95.6090555,14.9595687 94.7596072,15.1886792 93.7213926,15.1886792 C92.6427281,15.1886792 91.7797964,14.9191375 91.1595643,14.393531 C90.4719157,13.8140162 90.0808998,12.9514825 90,11.819407 L90.5123656,11.819407 C90.5932655,12.7897574 90.9303481,13.5175202 91.5236136,14.0161725 C92.0629459,14.4609164 92.7910444,14.690027 93.7079093,14.690027 C94.6112908,14.690027 95.3528726,14.5013477 95.9191715,14.1239892 C96.4854704,13.7466307 96.7821031,13.2345013 96.7821031,12.6010782 C96.7821031,11.8867925 96.4315371,11.3342318 95.7573718,10.9433962 C95.3798392,10.7142857 94.6382574,10.458221 93.5326263,10.1617251 C92.4000285,9.83827493 91.67193,9.59568733 91.321364,9.40700809 C90.5797822,8.98921833 90.2157329,8.4097035 90.2157329,7.65498652 C90.2157329,6.8328841 90.5528156,6.21293801 91.2539475,5.78167116 C91.847213,5.37735849 92.6292447,5.18867925 93.5865595,5.18867925 Z M100.911847,7.84366577 C101.990512,7.84366577 102.79951,8.20754717 103.338842,8.94878706 C103.797275,9.58221024 104.053458,10.4986523 104.107391,11.6846361 L98.2826025,11.6846361 C98.3095691,12.6010782 98.5522686,13.3423181 99.0241843,13.8814016 C99.5095834,14.4339623 100.143299,14.7169811 100.925331,14.7169811 C101.626462,14.7169811 102.192761,14.5148248 102.624227,14.1374663 C102.974793,13.8140162 103.244459,13.3557951 103.406259,12.7628032 L103.959074,12.7628032 C103.797275,13.4501348 103.487159,14.0026954 103.04221,14.4339623 C102.489394,14.9326146 101.788262,15.1886792 100.925331,15.1886792 C99.9545325,15.1886792 99.185984,14.851752 98.6196852,14.1778976 C98.0264197,13.490566 97.7432702,12.6010782 97.7432702,11.509434 C97.7432702,10.4986523 98.0129364,9.64959569 98.5792352,8.94878706 C99.1725007,8.20754717 99.9410492,7.84366577 100.911847,7.84366577 Z M100.925331,8.31536388 C100.156782,8.31536388 99.53655,8.58490566 99.0646343,9.13746631 C98.5927185,9.69002695 98.3365357,10.3908356 98.2826025,11.2264151 L103.568059,11.2264151 C103.419742,9.28571429 102.543327,8.31536388 100.925331,8.31536388 Z M107.819152,7.84366577 C108.628151,7.84366577 109.27535,8.0458221 109.787715,8.45013477 C110.300081,8.85444744 110.610197,9.46091644 110.718063,10.2830189 L110.205698,10.2830189 C110.111315,9.62264151 109.855132,9.13746631 109.450633,8.81401617 C109.019167,8.47708895 108.479834,8.31536388 107.819152,8.31536388 C107.010154,8.31536388 106.376439,8.62533693 105.89104,9.25876011 C105.432607,9.85175202 105.203391,10.6199461 105.203391,11.5902965 C105.203391,12.5336927 105.419124,13.2749326 105.864073,13.8409704 C106.309022,14.4204852 106.956221,14.7169811 107.805669,14.7169811 C109.19445,14.7169811 110.003448,13.9892183 110.246148,12.5471698 L110.758513,12.5471698 C110.62368,13.3962264 110.300081,14.0566038 109.787715,14.5148248 C109.27535,14.9595687 108.614668,15.1886792 107.805669,15.1886792 C106.780938,15.1886792 105.998906,14.8382749 105.446091,14.1374663 C104.933725,13.490566 104.677542,12.6415094 104.677542,11.5902965 C104.677542,10.5256065 104.947208,9.64959569 105.48654,8.96226415 C106.052839,8.20754717 106.834871,7.84366577 107.819152,7.84366577 Z M111.598331,8.03234501 L112.12418,8.03234501 L112.12418,12.3045822 C112.12418,13.0862534 112.285979,13.6792453 112.623062,14.083558 C112.973628,14.5013477 113.51296,14.7169811 114.254542,14.7169811 C114.874774,14.7169811 115.414106,14.4878706 115.845572,14.0296496 C116.277038,13.5714286 116.506254,12.9784367 116.533221,12.2506739 L116.533221,8.03234501 L117.045586,8.03234501 L117.045586,15 L116.533221,15 L116.533221,13.7061995 C116.007372,14.690027 115.211857,15.1886792 114.160159,15.1886792 C112.447779,15.1886792 111.598331,14.2318059 111.598331,12.3180593 L111.598331,8.03234501 Z M121.067464,7.84366577 C121.512413,7.84366577 121.876462,7.88409704 122.146129,7.97843666 L122.146129,8.5309973 C121.768596,8.42318059 121.391063,8.36927224 121.040497,8.36927224 C120.339366,8.36927224 119.773067,8.69272237 119.355084,9.35309973 C118.991035,9.91913747 118.815752,10.5795148 118.815752,11.3207547 L118.815752,15 L118.289903,15 L118.289903,8.03234501 L118.815752,8.03234501 L118.815752,9.48787062 C118.991035,9.0296496 119.260701,8.66576819 119.62475,8.36927224 C120.042733,8.01886792 120.528132,7.84366577 121.067464,7.84366577 Z M125.359008,7.84366577 C126.437672,7.84366577 127.246671,8.20754717 127.786003,8.94878706 C128.244435,9.58221024 128.500618,10.4986523 128.554552,11.6846361 L122.729763,11.6846361 C122.75673,12.6010782 122.999429,13.3423181 123.471345,13.8814016 C123.956744,14.4339623 124.590459,14.7169811 125.372491,14.7169811 C126.073623,14.7169811 126.639922,14.5148248 127.071388,14.1374663 C127.421954,13.8140162 127.69162,13.3557951 127.85342,12.7628032 L128.406235,12.7628032 C128.244435,13.4501348 127.934319,14.0026954 127.48937,14.4339623 C126.936555,14.9326146 126.235423,15.1886792 125.372491,15.1886792 C124.401693,15.1886792 123.633145,14.851752 123.066846,14.1778976 C122.47358,13.490566 122.190431,12.6010782 122.190431,11.509434 C122.190431,10.4986523 122.460097,9.64959569 123.026396,8.94878706 C123.619661,8.20754717 124.38821,7.84366577 125.359008,7.84366577 Z M125.372491,8.31536388 C124.603943,8.31536388 123.983711,8.58490566 123.511795,9.13746631 C123.039879,9.69002695 122.783696,10.3908356 122.729763,11.2264151 L128.015219,11.2264151 C127.866903,9.28571429 126.990488,8.31536388 125.372491,8.31536388 Z M137.676971,5.18867925 C138.647769,5.18867925 139.497218,5.45822102 140.225316,5.99730458 C141.007348,6.56334232 141.452297,7.3180593 141.560164,8.24797844 L141.047798,8.24797844 C140.939932,7.46630728 140.548916,6.8328841 139.888234,6.36118598 C139.241035,5.90296496 138.512936,5.68733154 137.676971,5.68733154 C136.423024,5.68733154 135.425259,6.13207547 134.683677,7.02156334 C133.996029,7.87061995 133.658946,8.94878706 133.658946,10.2425876 C133.658946,11.5363881 133.996029,12.5876011 134.683677,13.4097035 C135.384809,14.2587601 136.342124,14.690027 137.555622,14.690027 C138.432037,14.690027 139.187102,14.4474394 139.8343,13.9757412 C140.535432,13.4366577 140.993865,12.6819407 141.182631,11.7385445 L141.694997,11.7385445 C141.479264,12.8436658 140.980381,13.7061995 140.184866,14.3396226 C139.443285,14.9056604 138.56687,15.1886792 137.555622,15.1886792 C136.180324,15.1886792 135.088177,14.690027 134.279178,13.7196765 C133.51063,12.8032345 133.133097,11.6442049 133.133097,10.2425876 C133.133097,8.82749326 133.51063,7.65498652 134.292661,6.7115903 C135.115143,5.68733154 136.247741,5.18867925 137.676971,5.18867925 Z M145.433725,7.84366577 C146.512389,7.84366577 147.321388,8.20754717 147.86072,8.94878706 C148.319152,9.58221024 148.575335,10.4986523 148.629269,11.6846361 L142.80448,11.6846361 C142.831447,12.6010782 143.074146,13.3423181 143.546062,13.8814016 C144.031461,14.4339623 144.665176,14.7169811 145.447208,14.7169811 C146.14834,14.7169811 146.714639,14.5148248 147.146105,14.1374663 C147.496671,13.8140162 147.766337,13.3557951 147.928137,12.7628032 L148.480952,12.7628032 C148.319152,13.4501348 148.009036,14.0026954 147.564087,14.4339623 C147.011272,14.9326146 146.31014,15.1886792 145.447208,15.1886792 C144.47641,15.1886792 143.707862,14.851752 143.141563,14.1778976 C142.548297,13.490566 142.265148,12.6010782 142.265148,11.509434 C142.265148,10.4986523 142.534814,9.64959569 143.101113,8.94878706 C143.694378,8.20754717 144.462927,7.84366577 145.433725,7.84366577 Z M145.447208,8.31536388 C144.67866,8.31536388 144.058428,8.58490566 143.586512,9.13746631 C143.114596,9.69002695 142.858413,10.3908356 142.80448,11.2264151 L148.089936,11.2264151 C147.94162,9.28571429 147.065205,8.31536388 145.447208,8.31536388 Z M152.34103,7.84366577 C154.05341,7.84366577 154.916342,8.80053908 154.916342,10.7277628 L154.916342,15 L154.390493,15 L154.390493,10.7412399 C154.390493,9.12398922 153.675877,8.31536388 152.26013,8.31536388 C151.626415,8.31536388 151.100566,8.54447439 150.682583,9.00269542 C150.251118,9.44743935 150.021901,10.0404313 149.994935,10.7816712 L149.994935,15 L149.469086,15 L149.469086,8.03234501 L149.994935,8.03234501 L149.994935,9.29919137 C150.210668,8.85444744 150.534267,8.50404313 150.938766,8.23450135 C151.356749,7.96495957 151.828665,7.84366577 152.34103,7.84366577 Z M157.643822,5.78167116 L157.643822,8.03234501 L159.571935,8.03234501 L159.571935,8.50404313 L157.643822,8.50404313 L157.643822,13.5309973 C157.643822,13.8948787 157.697755,14.1509434 157.832588,14.2991914 C157.940455,14.4474394 158.183154,14.5283019 158.53372,14.5283019 L159.410135,14.5283019 L159.410135,15 L158.49327,15 C157.967421,15 157.603372,14.8652291 157.401122,14.6091644 C157.212356,14.3665768 157.131456,14.0161725 157.131456,13.5309973 L157.131456,8.50404313 L155.553909,8.50404313 L155.553909,8.03234501 L157.131456,8.03234501 L157.131456,6.01078167 L157.643822,5.78167116 Z M163.108413,7.84366577 C164.187078,7.84366577 164.996076,8.20754717 165.535409,8.94878706 C165.993841,9.58221024 166.250024,10.4986523 166.303957,11.6846361 L160.479169,11.6846361 C160.506135,12.6010782 160.748835,13.3423181 161.22075,13.8814016 C161.70615,14.4339623 162.339865,14.7169811 163.121897,14.7169811 C163.823029,14.7169811 164.389327,14.5148248 164.820793,14.1374663 C165.171359,13.8140162 165.441025,13.3557951 165.602825,12.7628032 L166.155641,12.7628032 C165.993841,13.4501348 165.683725,14.0026954 165.238776,14.4339623 C164.68596,14.9326146 163.984828,15.1886792 163.121897,15.1886792 C162.151099,15.1886792 161.38255,14.851752 160.816251,14.1778976 C160.222986,13.490566 159.939836,12.6010782 159.939836,11.509434 C159.939836,10.4986523 160.209503,9.64959569 160.775801,8.94878706 C161.369067,8.20754717 162.137615,7.84366577 163.108413,7.84366577 Z M163.121897,8.31536388 C162.353348,8.31536388 161.733116,8.58490566 161.2612,9.13746631 C160.789285,9.69002695 160.533102,10.3908356 160.479169,11.2264151 L165.764625,11.2264151 C165.616308,9.28571429 164.739893,8.31536388 163.121897,8.31536388 Z M169.921335,7.84366577 C170.366285,7.84366577 170.730334,7.88409704 171,7.97843666 L171,8.5309973 C170.622467,8.42318059 170.244935,8.36927224 169.894369,8.36927224 C169.193237,8.36927224 168.626938,8.69272237 168.208956,9.35309973 C167.844906,9.91913747 167.669623,10.5795148 167.669623,11.3207547 L167.669623,15 L167.143774,15 L167.143774,8.03234501 L167.669623,8.03234501 L167.669623,9.48787062 C167.844906,9.0296496 168.114572,8.66576819 168.478622,8.36927224 C168.896604,8.01886792 169.382003,7.84366577 169.921335,7.84366577 Z" id="SecureCenter" fill="#FFFFFF" fill-rule="nonzero" opacity="0.9"></path>
        <path d="M83.488725,9.25284172 L82.979273,9.25284172 L81.6576686,7.2134 L81.6576686,9.25284172 L80.511275,9.25284172 C80.9380556,9.53543482 81.4498097,9.7 82,9.7 C82.5501903,9.7 83.0619444,9.53543482 83.488725,9.25284172 Z M84.0120979,8.80044455 C84.4398705,8.32271056 84.7,7.69173354 84.7,7 C84.7,5.50883118 83.4911688,4.3 82,4.3 C81.4401205,4.3 80.9200429,4.4704124 80.4888067,4.76219774 L82.7700766,4.76219774 C83.4648856,4.76219774 84.0281395,5.32545171 84.0281395,6.02026069 L84.0281395,6.22945714 C84.0281395,6.80873012 83.558546,7.27832365 82.979273,7.27832365 L84.0120979,8.80044455 Z M80.47478,4.77175287 C79.7653591,5.25827989 79.3,6.07479472 79.3,7 C79.3,7.92520528 79.7653591,8.74172011 80.47478,9.22824713 L80.47478,4.77175287 Z M82,11 C79.790861,11 78,9.209139 78,7 C78,4.790861 79.790861,3 82,3 C84.209139,3 86,4.790861 86,7 C86,9.209139 84.209139,11 82,11 Z M81.6576686,6.52682397 L82.4533224,6.52682397 C82.7403796,6.52682397 82.9730854,6.29411815 82.9730854,6.00706096 C82.9730854,6.00501064 82.9730733,6.00296033 82.973049,6.00091015 C82.9695997,5.70945464 82.7323502,5.47499633 82.4408743,5.47499633 L81.6576686,5.47499633 L81.6576686,6.52682397 Z" id="合并形状-copy-2" fill="#FFFFFF" fill-rule="nonzero" opacity="0.9"></path>
    </g>
</svg>