<svg class="img-fluid" id="outputsvg" xmlns="http://www.w3.org/2000/svg" width="80" height="68" viewBox="0 0 800 680"><g id="l1T32hZ1oGnuO1eUGgMkKY7" fill="rgb(239,237,233)" style="transform: none;"><g><path id="pIO8ORbCk" d="M240 489 l0 -19 -60 0 -60 0 0 -195 0 -195 295 0 295 0 0 129 0 130 -20 6 -20 6 0 45 0 44 10 0 10 0 0 35 0 35 -60 0 -60 0 0 -40 0 -40 -20 0 -20 0 0 -20 0 -20 -30 0 -30 0 0 20 0 20 -20 0 -20 0 0 40 0 40 -95 -1 -95 0 0 -20z"></path></g></g><g id="l2Ye7TAB71SXNMuB0w4TMfj" fill="rgb(164,203,255)" style="transform: none;"><g><path id="p3omYnrOl" d="M520 605 l0 -35 35 0 35 0 0 35 0 35 -35 0 -35 0 0 -35z"></path></g></g><g id="l1giNbVHcnxfeE7UQ7BJ3P4" fill="rgb(192,178,155)" style="transform: none;"><g><path id="pYfbb1OqV" d="M400 525 l0 -35 35 0 35 0 0 35 0 35 -35 0 -35 0 0 -35z"></path><path id="pqUrloKqR" d="M70 295 l0 -225 320 0 320 0 0 35 0 35 -15 0 -15 0 0 -15 0 -15 -267 1 -268 0 20 8 c11 5 23 7 27 5 4 -3 10 1 14 7 l7 12 -11 -7 -11 -6 -6 10 -6 10 -10 -5 -9 -6 -10 26 -10 26 0 125 0 124 10 0 10 0 0 34 0 34 -16 6 c-9 3 -29 6 -45 6 l-29 0 0 -225z"></path></g></g><g id="l79B8w9dNFyuk64FfyyxE90" fill="rgb(194,199,225)" style="transform: none;"><g><path id="pLOUF6LM0" d="M327 313 c-4 -3 -7 -12 -7 -20 l0 -13 80 0 80 0 0 20 0 20 -73 0 -74 0 -6 -7z"></path><path id="pYkRlHS8w" d="M450 215 l0 -25 50 0 50 0 0 25 0 25 -50 0 -50 0 0 -25z"></path></g></g><g id="l6fpacyEoWevfnnvAwpixbP" fill="rgb(245,214,109)" style="transform: none;"><g><path id="pY8wKja83" d="M450 460 l0 -50 50 0 50 0 0 50 0 50 -50 0 -50 0 0 -50z"></path></g></g><g id="l6mlDyWN4ecKf3MNXjcmtJ8" fill="rgb(159,167,208)" style="transform: none;"><g><path id="pRnN9P9j6" d="M190 380 l0 -20 65 0 65 0 0 20 0 20 -65 0 -65 0 0 -20z"></path><path id="peSzR2aMW" d="M190 215 l0 -25 148 0 147 0 1 25 2 25 -149 0 -149 0 0 -25z"></path><path id="pGl3p5fcj" d="M518 215 l4 -25 39 0 39 0 0 25 0 25 -44 0 -43 0 5 -25z"></path></g></g><g id="l5UosWn6Ij3Yzr46uCHNLkL" fill="rgb(95,150,238)" style="transform: none;"><g><path id="p1840vezO2" d="M423 633 l-23 -4 0 -55 0 -54 -15 0 -15 0 0 -15 0 -15 44 0 45 0 4 8 c3 4 8 37 12 75 l7 67 -19 -1 c-10 -1 -28 -4 -40 -6z m17 -108 c0 -3 -2 -5 -5 -5 -3 0 -5 2 -5 5 0 3 2 5 5 5 3 0 5 -2 5 -5z"></path></g></g><g id="l6b3hE1aJCxOzKSzSqtE9WP" fill="rgb(216,152,6)" style="transform: none;"><g><path id="pRtAAoe5B" d="M440 555 l0 -35 -35 0 -35 0 0 -20 0 -20 15 0 15 0 0 -40 0 -40 20 0 20 0 0 -20 0 -20 60 0 60 0 0 20 0 20 20 0 20 0 0 25 0 24 15 -5 15 -6 0 41 0 41 -15 0 -14 0 -7 35 -6 35 -34 0 -34 0 0 -15 0 -15 -20 0 -20 0 0 15 0 15 -20 0 -20 0 0 -35z m80 -95 l0 -20 -20 0 -20 0 0 20 0 20 20 0 20 0 0 -20z m87 3 l-7 -6 0 13 0 13 7 -6 6 -7 -6 -7z"></path></g></g><g id="l5zQsEnoyAGEgxJqqOUQkMV" fill="rgb(38,93,219)" style="transform: none;"><g><path id="pzdy6s2NH" d="M400 620 l0 -20 20 0 20 0 0 -20 0 -20 20 0 20 0 -2 40 -1 40 -39 0 -38 0 0 -20z"></path><path id="p9wtJLLTw" d="M560 620 l0 -20 -20 0 -20 0 0 -20 0 -20 20 0 20 0 0 -20 0 -20 20 0 20 0 0 -15 0 -15 15 0 15 0 0 15 0 15 -15 0 -15 0 0 60 0 60 -20 0 -20 0 0 -20z"></path></g></g><g id="l3z8vQPboFYsn7SCHJ7g6PV" fill="rgb(109,90,53)" style="transform: none;"><g><path id="pJOeyQh6j" d="M110 485 l0 -35 120 0 120 0 -3 13 -2 12 28 3 27 3 0 20 0 19 -145 0 -145 0 0 -35z m20 -10 c0 -3 -2 -5 -5 -5 -3 0 -5 2 -5 5 0 3 2 5 5 5 3 0 5 -2 5 -5z m150 0 c0 -3 -2 -5 -5 -5 -3 0 -5 2 -5 5 0 3 2 5 5 5 3 0 5 -2 5 -5z"></path><path id="pLddYp2Jt" d="M603 485 l2 -35 23 0 22 0 0 -65 0 -66 15 -5 15 -6 0 -119 0 -119 20 0 20 0 0 225 0 225 -60 0 -60 0 3 -35z m54 -12 l-7 -6 -7 6 -6 7 13 0 13 0 -6 -7z"></path></g></g><g id="l6TusdpflAEYkwyKU1YwoCU" fill="rgb(221,215,203)" style="transform: none;"><g><path id="pf68KMBYL" d="M110 310 l0 -168 20 5 20 5 0 -16 0 -17 27 4 27 4 2 12 3 11 -6 -10 -5 -10 -11 7 c-7 4 -16 8 -22 8 l-10 0 -3 148 -3 147 68 1 c38 1 81 2 97 3 l29 1 3 17 2 17 -119 0 -119 -1 0 -168z"></path><path id="p10U5Z5Fgt" d="M606 463 l-6 -15 20 -5 20 -5 0 -58 0 -58 16 -6 c9 -3 18 -6 20 -6 2 0 4 37 4 83 l0 83 -34 1 -35 1 -5 -15z"></path></g></g></svg>
