<?xml version="1.0" encoding="utf-8"?>
<!-- Generator: Adobe Illustrator 21.1.0, SVG Export Plug-In . SVG Version: 6.00 Build 0)  -->
<svg version="1.1" id="Layer_1" xmlns="http://www.w3.org/2000/svg" xmlns:xlink="http://www.w3.org/1999/xlink" x="0px" y="0px"
	 width="305px" height="242.7px" viewBox="0 0 305 242.7" style="enable-background:new 0 0 305 242.7;" xml:space="preserve">
<style type="text/css">
	.st0{fill:#D75E0C;}
	.st1{fill:#29306C;}
	.st2{fill:#F07725;}
	.st3{fill:#FFFFFF;}
	.st4{fill:#53A446;}
	.st5{fill:#C9CBDA;}
</style>
<polygon class="st0" points="305,173.1 293.1,146.7 305,121.1 276.2,121.1 276,161.4 257.1,173.1 "/>
<path class="st1" d="M242,68.9c-1.8-1.9-3.9-3.4-6.3-4.5c-1.1-0.5-2.2-0.8-3.4-1.1l17.5-22.7h-28l-8.1,10.5
	c-0.9-2.2-2.2-4.2-3.7-5.9c-1.7-1.9-3.9-3.4-6.3-4.5c-2.5-1.1-5.2-1.7-8.1-1.7c-2.9,0-5.7,0.6-8.1,1.7c-2.4,1.1-4.6,2.6-6.3,4.5
	c-0.9,0.9-1.6,2-2.3,3.1c-2.5-2.9-5.6-5.2-9-6.8c-3.7-1.8-7.9-2.7-12.4-2.7c-4.5,0-8.7,0.9-12.5,2.7c-3.7,1.8-6.8,4.2-9.4,7.3
	c-0.9,1-1.6,2.1-2.4,3.3c-0.7-1.2-1.5-2.3-2.4-3.3c-2.6-3.1-5.8-5.5-9.4-7.2c-3.7-1.8-7.9-2.7-12.4-2.7s-8.7,0.9-12.5,2.7
	c-3.2,1.5-6,3.6-8.3,6.1v-7.2H69.8l-21.9,6.2l6,24.3l6.1-1.4v7.3v26.7l0,0h187.3V83.2V83c0-2.7-0.5-5.3-1.4-7.7
	C245,73,243.7,70.8,242,68.9z"/>
<polygon class="st0" points="0,173.1 11.9,146.7 0,121.1 28.8,121.1 29,161.4 47.9,173.1 "/>
<rect x="32.2" y="107.6" class="st2" width="240.5" height="52"/>
<g>
	<path class="st3" d="M51.6,138.4c0.3,2.3,1.2,4.3,3.8,4.3c2.5,0,3.4-1.5,3.4-3.6c0-2.3-1.1-3.6-4.7-5.2c-4.9-2.3-6.8-4.2-6.8-8.4
		c0-4.4,3-7.4,8.1-7.4c6.5,0,8,4.2,8.1,7.8h-5c-0.1-1.6-0.5-3.9-3.2-3.9c-2,0-2.9,1.3-2.9,3.1c0,2,0.9,2.9,4.3,4.4
		c5.1,2.3,7.4,4.5,7.4,9.1c0,4.4-2.8,8-8.8,8c-6.6,0-8.6-4.1-8.7-8.2L51.6,138.4L51.6,138.4z"/>
	<path class="st3" d="M72.6,139.2l-1.4,6.9H66l6.6-27.6h6.6l6.7,27.6h-5.4l-1.4-6.9H72.6z M78.3,134.9c-1.1-5.3-1.9-9.2-2.4-11.8
		h-0.1c-0.3,2.5-1.3,6.7-2.3,11.8H78.3z"/>
	<path class="st3" d="M90.2,122.8h-6.1v-4.3h17.3v4.3h-6.1v23.3h-5.1V122.8z"/>
	<path class="st3" d="M109.3,118.5v27.6h-5.1v-27.6H109.3z"/>
	<path class="st3" d="M117.8,138.4c0.3,2.3,1.2,4.3,3.8,4.3c2.5,0,3.4-1.5,3.4-3.6c0-2.3-1.1-3.6-4.7-5.2c-4.9-2.3-6.8-4.2-6.8-8.4
		c0-4.4,3-7.4,8.1-7.4c6.5,0,8,4.2,8.1,7.8h-5c-0.1-1.6-0.5-3.9-3.2-3.9c-2,0-2.9,1.3-2.9,3.1c0,2,0.9,2.9,4.3,4.4
		c5.1,2.3,7.4,4.5,7.4,9.1c0,4.4-2.8,8-8.8,8c-6.6,0-8.6-4.1-8.7-8.2L117.8,138.4L117.8,138.4z"/>
	<path class="st3" d="M133.8,118.5h14.7v4.3h-9.6v7.1h9.1v4.3h-9.1v11.9h-5.1V118.5z"/>
	<path class="st3" d="M154.8,139.2l-1.4,6.9h-5.1l6.6-27.6h6.6l6.7,27.6h-5.4l-1.4-6.9H154.8z M160.5,134.9
		c-1.1-5.3-1.9-9.2-2.4-11.8H158c-0.3,2.5-1.3,6.7-2.3,11.8H160.5z"/>
	<path class="st3" d="M187.4,138.1c-0.1,1.4-0.7,8.5-8.6,8.5c-8.1,0-9.1-6.9-9.1-14.3c0-8.9,2.7-14.2,9.4-14.2
		c7.6,0,8.1,6.3,8.3,8.5h-5.1c-0.1-0.9-0.1-4.3-3.3-4.3c-3.2,0-4,3.8-4,10.1c0,5.2,0.5,10.1,3.9,10.1c3,0,3.3-3.3,3.4-4.4
		L187.4,138.1L187.4,138.1z"/>
	<path class="st3" d="M195.1,122.8H189v-4.3h17.3v4.3h-6.1v23.3h-5.1L195.1,122.8L195.1,122.8z"/>
	<path class="st3" d="M214.2,118.5v27.6h-5.1v-27.6H214.2z"/>
	<path class="st3" d="M236.9,132.1c0,10.1-2.8,14.5-9.4,14.5c-6.2,0-9.2-4.3-9.2-14.6c0-10,3.5-14,9.4-14
		C233.9,118,236.9,122.5,236.9,132.1z M223.6,132c0,6.6,1.1,10.5,4.1,10.5c3.2,0,4.1-3.6,4.1-10.5c0-6.4-1-9.8-4.1-9.8
		S223.6,125.8,223.6,132z"/>
	<path class="st3" d="M240.9,146.1v-27.6h5.8c5.9,15.3,7,18.2,7.4,19.6h0c-0.2-3.3-0.3-7.4-0.3-11.9v-7.6h4.6v27.6h-5.6
		c-6.1-16.3-7.2-19.2-7.6-20.5h0c0.2,3.4,0.2,7.5,0.2,12.4v8L240.9,146.1L240.9,146.1z"/>
</g>
<g>
	<g>
		<path class="st1" d="M200,163.5c-9.2,17.6-27.1,29.5-47.5,29.5S114.2,181,105,163.5H64.6c10.8,38.3,46.2,66.4,87.9,66.4
			s77.1-28.1,87.9-66.4L200,163.5z"/>
	</g>
</g>
<g>
	<path class="st3" d="M93.9,193.8c-0.8-0.9-1.6-1.8-2.3-2.7c0.3-0.4,0.6-0.8,1-1.2c-1.8,0-3.2-1.2-4.5-3.1
		c-3.3-4.8-1.5-8.4,3.2-11.2c5.4-3.2,8.9-2.2,11.5,1.4c3.4,4.5,0.9,7.3,0.1,8.1c-0.9-1-1.7-2-2.5-3c0.5-0.5,1.7-1.8,0.3-3.6
		c-1.5-2-4-1.2-7,1c-3.2,2.3-4.7,4.2-2.9,6.7c1.5,2,2.9,1.8,4.8,0.1c0.2-0.2,0.5-0.4,0.7-0.6c-0.7-0.9-1.3-1.7-2-2.6
		c0.7-0.5,1.4-1.1,2.1-1.6c1.4,2,3,3.9,4.6,5.7C98.6,189.4,96.2,191.6,93.9,193.8z"/>
	<path class="st3" d="M111.7,187.2c-2.5,3.1-5.1,6.1-7.6,9.2c-0.9,1.1-1.6,2.7,0.5,4.5c2.1,1.6,3.3,0.8,4.3-0.6
		c2.3-3.3,4.6-6.5,6.9-9.8c1,0.7,1.9,1.4,2.9,2c-2.1,3.4-4.2,6.8-6.4,10.2c-1.6,2.6-4.5,4-9.3,0.2c-4.7-3.9-4.3-7.1-2.1-9.4
		c2.7-2.9,5.4-5.9,8.1-8.8C109.9,185.6,110.8,186.4,111.7,187.2z"/>
	<path class="st3" d="M118.6,207.5c-1,1.1-2,2.3-3,3.3c-1.3-0.7-2.6-1.4-3.9-2.2c4.5-4,8.8-8.3,12.7-12.9c1.4,0.7,2.7,1.3,4.1,1.9
		c-0.8,6-1.2,12-1.1,18.2c-1.4-0.5-2.9-1-4.3-1.6c0.2-1.5,0.3-3,0.5-4.5C121.9,209.1,120.3,208.3,118.6,207.5z M123.9,207
		c0.5-3.4,1-5.9,1.3-7.5c0,0-0.1,0-0.1,0c-0.9,1.4-2.6,3.5-4.7,6C121.6,206,122.7,206.5,123.9,207z"/>
	<path class="st3" d="M136.1,210.6c-0.5,2.4-1.1,4.8-1.6,7.3c-1.4-0.3-2.8-0.7-4.2-1.1c1.6-5.6,3.2-11.2,4.8-16.8
		c1.9,0.5,3.8,1,5.7,1.4c3.4,0.6,5.2,2.4,4.9,5.5c-0.2,2.5-2,3.4-3.2,3.6c1.6,0.9,2.3,2.1,2,4.6c0,0.2,0,0.5-0.1,0.7
		c-0.2,2-0.2,2.7-0.1,3.7c-1.4-0.1-2.8-0.3-4.2-0.5c-0.2-0.8,0-2.2,0.2-3.7c0-0.2,0.1-0.4,0.1-0.6c0.4-2.3-0.2-3.2-2.7-3.7
		C137.2,210.9,136.7,210.8,136.1,210.6z M136.7,208.2c0.6,0.1,1.2,0.3,1.8,0.4c2.3,0.5,3.3-0.2,3.6-1.9c0.2-1.5-0.5-2.5-2.3-2.8
		c-0.7-0.1-1.3-0.3-2-0.4C137.4,204.9,137,206.5,136.7,208.2z"/>
	<path class="st3" d="M152.6,215.6c-0.4,1.5-0.8,2.9-1.2,4.4c-1.4,0-2.9-0.1-4.3-0.2c2.3-5.7,4.2-11.4,5.7-17.2c1.5,0,3-0.1,4.4-0.2
		c1.9,5.7,4.2,11.3,6.9,16.8c-1.5,0.2-3,0.4-4.5,0.5c-0.5-1.4-1-2.9-1.5-4.3C156.2,215.5,154.4,215.6,152.6,215.6z M157,212.8
		c-1-3.3-1.7-5.7-2.1-7.4c0,0-0.1,0-0.1,0c-0.2,1.6-0.8,4.2-1.6,7.5C154.5,212.9,155.8,212.8,157,212.8z"/>
	<path class="st3" d="M166.9,218.7c-1-5.7-2-11.5-3-17.2c1.3-0.2,2.5-0.5,3.8-0.8c6.3,8.3,8.2,9.6,8.6,10.4c0,0,0,0,0,0
		c-0.8-1.9-1.6-4.4-2.5-7.1c-0.5-1.5-1-3.1-1.5-4.6c1-0.3,2-0.7,2.9-1c2,5.4,4.1,10.9,6.1,16.3c-1.5,0.6-3,1.1-4.5,1.6
		c-7.8-8.4-8.5-10.3-9.1-10.9c0,0,0,0,0,0c0.6,2.1,1.2,4.6,1.9,7.6c0.4,1.6,0.7,3.3,1.1,5C169.5,218.2,168.2,218.5,166.9,218.7z"/>
	<path class="st3" d="M182.7,198c-1.3,0.7-2.6,1.3-3.9,1.9c-0.4-0.8-0.7-1.7-1.1-2.5c3.6-1.6,7.1-3.5,10.4-5.8
		c0.5,0.8,1,1.5,1.5,2.3c-1.2,0.8-2.4,1.6-3.7,2.4c2.4,4.2,4.8,8.5,7.2,12.8c-1.3,0.8-2.6,1.5-3.9,2.2
		C187,206.8,184.8,202.4,182.7,198z"/>
	<path class="st3" d="M204.5,190.2c-1.7,1.8-3.6,3.6-5.4,5.2c1.1,1.3,2.1,2.6,3.2,3.9c2.3-1.9,4.4-4,6.5-6.2c0.5,0.8,1,1.5,1.5,2.3
		c-3.1,3.3-6.3,6.2-9.8,8.8c-3.4-4.7-6.7-9.4-10.1-14.1c2.7-2.1,5.3-4.4,7.7-6.9c0.6,0.6,1.3,1.3,1.9,1.9c-1.6,1.8-3.4,3.4-5.2,4.9
		c0.9,1.1,1.8,2.2,2.6,3.3c1.8-1.5,3.6-3.2,5.2-5C203.2,188.9,203.8,189.5,204.5,190.2z"/>
	<path class="st3" d="M214.4,176.9c-1.4,2.3-2.8,4.5-4.4,6.6c1.3,1,2.6,2.1,3.9,3.1c1.9-2.5,3.6-5.2,5.2-8c0.6,0.6,1.3,1.3,1.9,1.9
		c-2.4,4.1-5.1,7.9-8,11.4c-4.3-3.8-8.5-7.7-12.8-11.5c2.3-2.7,4.4-5.7,6.3-8.9c0.8,0.5,1.5,1,2.3,1.4c-1.3,2.2-2.7,4.3-4.1,6.3
		c1.1,0.9,2.2,1.7,3.3,2.6c1.5-2,2.9-4.1,4.2-6.4C212.9,176,213.6,176.5,214.4,176.9z"/>
</g>
<g>
	<path class="st3" d="M67.9,60l-8.1,1.9l-2.5-10.3l14-4H81v48.3H67.9V60z"/>
	<path class="st3" d="M109,96.8c-3.4,0-6.5-0.6-9.3-2c-2.7-1.3-5.1-3.1-6.9-5.3c-1.9-2.3-3.4-4.9-4.4-7.9c-1-3-1.5-6.2-1.5-9.6v-0.1
		c0-3.4,0.5-6.6,1.6-9.6c1.1-3,2.5-5.7,4.5-7.9c1.9-2.3,4.2-4.1,7-5.4c2.7-1.3,5.8-2,9.2-2c3.4,0,6.5,0.6,9.2,2
		c2.7,1.3,5,3.1,6.9,5.3s3.4,4.9,4.4,7.9s1.5,6.2,1.5,9.6v0.1c0,3.4-0.5,6.6-1.5,9.6c-1,3-2.5,5.7-4.5,7.9c-1.9,2.3-4.3,4.1-7,5.4
		C115.6,96.1,112.5,96.8,109,96.8z M109.2,85c1.3,0,2.5-0.3,3.6-1c1.1-0.6,2-1.5,2.8-2.7c0.8-1.2,1.3-2.5,1.7-4.1
		c0.4-1.6,0.6-3.3,0.6-5.2v-0.1c0-1.9-0.2-3.7-0.6-5.3c-0.4-1.6-1-3-1.8-4.1c-0.8-1.2-1.7-2.1-2.8-2.7c-1.1-0.7-2.3-1-3.6-1
		c-1.3,0-2.5,0.3-3.6,1c-1.1,0.6-2,1.5-2.8,2.7c-0.8,1.1-1.4,2.5-1.8,4.1c-0.4,1.6-0.6,3.4-0.6,5.3v0.1c0,1.9,0.2,3.7,0.6,5.3
		c0.4,1.6,1,3,1.8,4.2s1.7,2.1,2.8,2.7C106.7,84.7,107.9,85,109.2,85z"/>
	<path class="st3" d="M157.6,96.8c-3.4,0-6.5-0.6-9.3-2s-5.1-3.1-6.9-5.3c-1.9-2.3-3.4-4.9-4.4-7.9c-1-3-1.5-6.2-1.5-9.6v-0.1
		c0-3.4,0.5-6.6,1.6-9.6c1.1-3,2.5-5.7,4.5-7.9c1.9-2.3,4.2-4.1,7-5.4s5.8-2,9.2-2c3.4,0,6.5,0.6,9.2,2c2.7,1.3,5,3.1,6.9,5.3
		c1.9,2.3,3.4,4.9,4.4,7.9c1,3,1.5,6.2,1.5,9.6v0.1c0,3.4-0.5,6.6-1.5,9.6c-1,3-2.5,5.7-4.5,7.9c-1.9,2.3-4.3,4.1-7,5.4
		C164.1,96.1,161,96.8,157.6,96.8z M157.7,85c1.3,0,2.5-0.3,3.6-1c1.1-0.6,2-1.5,2.8-2.7c0.8-1.2,1.3-2.5,1.7-4.1
		c0.4-1.6,0.6-3.3,0.6-5.2v-0.1c0-1.9-0.2-3.7-0.6-5.3c-0.4-1.6-1-3-1.8-4.1c-0.8-1.2-1.7-2.1-2.8-2.7c-1.1-0.7-2.3-1-3.6-1
		s-2.5,0.3-3.6,1c-1.1,0.6-2,1.5-2.8,2.7c-0.8,1.1-1.4,2.5-1.8,4.1c-0.4,1.6-0.6,3.4-0.6,5.3v0.1c0,1.9,0.2,3.7,0.6,5.3
		c0.4,1.6,1,3,1.8,4.2c0.8,1.2,1.7,2.1,2.8,2.7C155.2,84.7,156.4,85,157.7,85z"/>
	<path class="st3" d="M195.9,73c-1.9,0-3.6-0.3-5.1-1c-1.5-0.7-2.8-1.6-3.9-2.7c-1.1-1.2-1.9-2.5-2.5-4.1c-0.6-1.5-0.9-3.2-0.9-5
		v-0.1c0-1.8,0.3-3.4,0.9-5c0.6-1.5,1.4-2.9,2.5-4.1c1.1-1.2,2.4-2.1,3.9-2.8c1.5-0.7,3.2-1,5.1-1s3.6,0.3,5.1,1
		c1.5,0.7,2.8,1.6,3.9,2.8c1.1,1.2,1.9,2.5,2.5,4.1c0.6,1.5,0.9,3.2,0.9,4.9v0.1c0,1.8-0.3,3.4-0.9,5c-0.6,1.5-1.4,2.9-2.5,4.1
		c-1.1,1.2-2.4,2.1-3.9,2.8S197.7,73,195.9,73z M225.8,47.9h9.3l-37,48h-9.3L225.8,47.9z M195.9,65.5c1.2,0,2.2-0.5,2.9-1.5
		c0.7-1,1.1-2.3,1.1-3.8v-0.1c0-1.5-0.4-2.8-1.1-3.8c-0.8-1-1.7-1.5-2.9-1.5c-1.2,0-2.2,0.5-2.9,1.5c-0.7,1-1.1,2.3-1.1,3.8v0.1
		c0,1.5,0.4,2.8,1.2,3.8C193.8,65,194.8,65.5,195.9,65.5z M227.9,96.5c-1.9,0-3.6-0.3-5.1-1c-1.5-0.7-2.8-1.6-3.9-2.8
		c-1.1-1.2-1.9-2.5-2.5-4.1c-0.6-1.5-0.9-3.2-0.9-4.9v-0.1c0-1.8,0.3-3.4,0.9-5c0.6-1.5,1.4-2.9,2.5-4.1c1.1-1.2,2.4-2.1,3.9-2.8
		c1.5-0.7,3.2-1,5.1-1s3.6,0.3,5.1,1c1.5,0.7,2.8,1.6,3.9,2.7c1.1,1.2,1.9,2.5,2.5,4.1c0.6,1.5,0.9,3.2,0.9,5v0.1
		c0,1.7-0.3,3.4-0.9,5c-0.6,1.6-1.4,2.9-2.5,4.1c-1.1,1.2-2.4,2.1-3.9,2.8C231.4,96.2,229.7,96.5,227.9,96.5z M228,89
		c1.2,0,2.2-0.5,2.9-1.5c0.7-1,1.1-2.3,1.1-3.8v-0.1c0-1.5-0.4-2.8-1.1-3.8c-0.8-1-1.7-1.5-2.9-1.5c-1.2,0-2.2,0.5-2.9,1.5
		c-0.7,1-1.1,2.3-1.1,3.8v0.1c0,1.5,0.4,2.8,1.2,3.8C225.9,88.5,226.8,89,228,89z"/>
</g>
<path class="st4" d="M244.3,163.7c-11,40.4-47.9,70.2-91.8,70.2s-80.8-29.7-91.8-70.2l-2.7,0l-3.5,5.6l-0.9,1.5l1.6,0.7l5.8,2.3
	l-2.8,5.6l-0.8,1.6l1.7,0.5l6,1.7l-2.2,5.9l-0.6,1.7l1.7,0.3l6.2,1.1l-1.5,6.1l-0.4,1.7L70,200l6.2,0.4l-0.9,6.2l-0.3,1.7l1.8-0.1
	l6.2-0.2l-0.2,6.2l-0.1,1.8l1.7-0.3l6.2-0.9l0.4,6.2l0.1,1.8l1.7-0.4l6.1-1.5l1.1,6.2l0.3,1.7l1.7-0.6l5.9-2.2l1.7,6l0.5,1.7
	l1.6-0.8l5.6-2.8l2.3,5.8l0.7,1.6l1.5-0.9l5.3-3.3l2.9,5.5l0.8,1.6l1.4-1.1l4.9-3.9l3.5,5.2l1,1.5l1.3-1.2l4.5-4.4l4,4.8l1.1,1.4
	l1.1-1.4l4-4.8l4.5,4.4l1.3,1.2l1-1.5l3.5-5.2l4.9,3.9l1.4,1.1l0.8-1.6l2.9-5.5l5.3,3.3l1.5,0.9l0.7-1.6l2.3-5.8l5.6,2.8l1.6,0.8
	l0.5-1.7l1.7-6l5.9,2.2l1.7,0.6l0.3-1.7l1.1-6.2l6.1,1.5l1.7,0.4l0.1-1.8l0.4-6.2l6.2,0.9l1.7,0.3l-0.1-1.8l-0.2-6.2l6.2,0.2
	l1.8,0.1l-0.3-1.7l-0.9-6.2l6.2-0.4l1.8-0.1l-0.4-1.7l-1.5-6.1l6.2-1.1l1.7-0.3L242,189l-2.2-5.9l6-1.7l1.7-0.5l-0.8-1.6l-2.8-5.6
	l5.8-2.3l1.6-0.7l-0.9-1.5l-3.5-5.6L244.3,163.7z"/>
<polygon class="st4" points="152.2,0 157.3,10.3 168.6,11.9 160.4,19.9 162.4,31.2 152.2,25.9 142.1,31.2 144,19.9 135.8,11.9 
	147.2,10.3 "/>
<polygon class="st4" points="117.2,8 120.8,15.3 128.8,16.5 123,22.2 124.4,30.2 117.2,26.4 110,30.2 111.3,22.2 105.5,16.5 
	113.6,15.3 "/>
<polygon class="st4" points="187.3,8 190.9,15.3 198.9,16.5 193.1,22.2 194.5,30.2 187.3,26.4 180.1,30.2 181.4,22.2 175.6,16.5 
	183.7,15.3 "/>
<polygon class="st4" points="90.4,17.9 92.7,22.7 98,23.4 94.2,27.1 95.1,32.4 90.4,29.9 85.7,32.4 86.6,27.1 82.7,23.4 88,22.7 "/>
<polygon class="st4" points="215.6,17.9 217.9,22.7 223.2,23.4 219.4,27.1 220.3,32.4 215.6,29.9 210.9,32.4 211.8,27.1 208,23.4 
	213.2,22.7 "/>
<path class="st5" d="M194.1,163.7c-8.2,14.8-22.7,24.9-41.8,24.9s-36.2-11.3-41.5-24.9H194.1z"/>
</svg>
