<?xml version="1.0" encoding="utf-8"?>
<!-- Generator: Adobe Illustrator 23.0.2, SVG Export Plug-In . SVG Version: 6.00 Build 0)  -->
<svg version="1.1" id="Layer_1" xmlns="http://www.w3.org/2000/svg" xmlns:xlink="http://www.w3.org/1999/xlink" x="0px" y="0px"
	 width="55px" height="55px" viewBox="0 0 55 55" style="enable-background:new 0 0 55 55;" xml:space="preserve">
<style type="text/css">
	.st0{fill:#29306C;}
</style>
<g>
	<path class="st0" d="M25.35,48.45h-0.21l-0.07,1.09h0.21c0.36,0,0.5-0.15,0.5-0.51C25.78,48.67,25.71,48.52,25.35,48.45z"/>
	<polygon class="st0" points="29,50.56 29.65,50.49 29.22,48.6 	"/>
	<polygon class="st0" points="21.77,49.83 21.91,47.94 21.13,49.69 	"/>
	<path class="st0" d="M50.27,22.55l-4.65,4.29c0.14,10.18-7.95,18.55-17.97,18.7c-9.31,0.15-17.11-6.98-18.26-16.22l-3.72,3.42
		l-1,0.95L3.6,32.74L0,29.54C1.29,43.94,13.32,55.14,27.79,55C43.04,54.78,55.21,42.12,55,26.63L50.27,22.55z M14.68,48.74
		l-0.64-0.44l0.21-0.36c-0.36,0.22-0.72,0.07-1.07-0.15c-1-0.65-0.57-1.45,0.29-2.69c0.86-1.24,1.58-1.75,2.72-1.02
		c0.72,0.51,0.93,1.16,0.29,2.11l-0.93-0.65c0.14-0.22,0.21-0.36,0.21-0.44c0-0.15,0-0.22-0.14-0.29c-0.29-0.22-0.5,0-1.22,1.02
		s-0.86,1.31-0.57,1.53c0.21,0.15,0.43,0.07,0.86-0.58l-0.36-0.22l0.5-0.73l1.22,0.87L14.68,48.74z M17.05,50.05
		c-0.86-0.44-1.22-1.02-0.72-2.18l1.22-2.69l1.07,0.51l-1.36,2.98c-0.21,0.36-0.14,0.58,0.07,0.65s0.36,0.07,0.57-0.36l1.36-2.98
		l1.07,0.51l-1.22,2.69C18.62,50.34,17.98,50.42,17.05,50.05z M22.77,51.87l-1.22-0.36l0.07-0.8l-0.86-0.15l-0.29,0.73l-1.22-0.36
		l2.22-4.07l1.43,0.36L22.77,51.87z M26.86,51.07v0.36c0,0.22-0.07,0.51,0,0.65c0,0.07,0.07,0.07,0.14,0.15v0.07l-1.22-0.15
		c-0.07-0.22-0.07-0.65,0-0.87V51c0.07-0.51-0.07-0.65-0.29-0.65H25.2l-0.14,1.82l-1.15-0.07l0.21-4.58l1.79,0.15
		c0.86,0.07,1.15,0.65,1.15,1.31c-0.07,0.58-0.29,0.95-0.86,1.02C26.78,50.05,26.93,50.49,26.86,51.07z M30.08,52.16l-0.21-0.8
		l-0.93,0.07l-0.07,0.8l-1.22,0.15l0.79-4.66l1.43-0.15l1.43,4.44L30.08,52.16z M34.16,51.36l-1.43-2.55l0.72,2.69l-1.22,0.36
		l-1.07-4.36l1.29-0.36l1.43,2.55L33.16,47l1.07-0.29l1.15,4.36L34.16,51.36z M37.1,50.34l-1.43-3.2l-0.79,0.36l-0.43-0.95
		l2.65-1.24l0.43,0.95l-0.79,0.36l1.43,3.2L37.1,50.34z M39.82,48.89l-2.43-3.71l2.22-1.45l0.5,0.8l-1.22,0.8l0.43,0.65l1.15-0.73
		l0.5,0.8l-1.15,0.73l0.5,0.73l1.29-0.87l0.5,0.8L39.82,48.89z M43.04,46.85l-2.94-3.42l2.01-1.82l0.64,0.73l-1.15,1.02l0.5,0.58
		L43.18,43l0.57,0.73l-1.07,0.95l0.57,0.65l1.15-1.02l0.64,0.73L43.04,46.85z"/>
</g>
<g>
	<path class="st0" d="M40.68,7.42l-0.21-0.15l-0.5,0.8l0.21,0.15c0.21,0.15,0.43,0,0.57-0.22C40.89,7.79,40.89,7.49,40.68,7.42z"/>
	<path class="st0" d="M11.53,12.66l-1.07-1.02c-0.5-0.44-0.72-0.51-0.86-0.29c-0.14,0.22-0.14,0.36,0.36,0.8l1.07,1.02
		c0.5,0.44,0.72,0.51,0.86,0.29C12.03,13.24,12.03,13.1,11.53,12.66z"/>
	<path class="st0" d="M39.53,8.73l-0.57,0.95l0.29,0.15c0.21,0.15,0.5,0.07,0.64-0.22c0.21-0.29,0.14-0.58-0.07-0.73L39.53,8.73z"/>
	<path class="st0" d="M25.07,3.64c-0.36,0.07-0.36,0.36-0.21,1.6c0.07,1.24,0.14,1.6,0.5,1.53c0.43,0,0.43-0.36,0.29-1.6
		C25.49,3.93,25.42,3.64,25.07,3.64z"/>
	<path class="st0" d="M15.4,9.02c-0.14,0.15-0.07,0.22,0.21,0.73c0.36,0.51,0.43,0.58,0.64,0.44c0.14-0.15,0.07-0.22-0.21-0.73
		C15.68,8.95,15.61,8.88,15.4,9.02z"/>
	<path class="st0" d="M11.82,8.88c-0.14,0.15-0.07,0.22,0.21,0.73c0.36,0.51,0.5,0.58,0.64,0.44c0.14-0.15,0.07-0.22-0.21-0.73
		C12.1,8.8,12.03,8.73,11.82,8.88z"/>
	<path class="st0" d="M27.21,0C12.03,0.22-0.21,12.88,0,28.37l4.73,4.15l4.65-4.29C9.24,18.04,17.33,9.68,27.36,9.53
		c9.31-0.07,17.11,6.98,18.26,16.22l3.72-3.42l1-0.95l1.07,0.95l3.58,3.2C53.71,11.06,41.68-0.14,27.21,0z M8.74,19.21l-2.79-1.38
		l-0.36,0.8l-0.64-0.36c0.36-0.65,0.36-1.02-0.07-1.38l0.36-0.8l4.08,2.11L8.74,19.21z M10.39,16.52c-0.57,0.87-1.29,1.02-2.79,0
		s-1.65-1.75-1.07-2.62s1.29-1.02,2.79,0C10.89,14.91,10.96,15.57,10.39,16.52z M12.46,13.97c-0.72,0.8-1.43,0.8-2.79-0.44
		s-1.36-1.89-0.64-2.69c0.72-0.8,1.43-0.8,2.79,0.44S13.18,13.24,12.46,13.97z M13.04,10.55c-0.64,0.44-1,0.29-1.58-0.44
		c-0.57-0.73-0.57-1.16,0.07-1.6c0.64-0.44,1-0.29,1.58,0.44C13.68,9.68,13.61,10.11,13.04,10.55z M14.25,12.22l-1.07-4.95
		l0.57-0.44l1.07,4.95L14.25,12.22z M16.54,10.62c-0.64,0.44-1,0.29-1.58-0.44c-0.5-0.73-0.5-1.09,0.07-1.6
		c0.64-0.44,1-0.29,1.58,0.44C17.12,9.75,17.12,10.19,16.54,10.62z M22.34,8.08L21.27,4.8l0.43,3.42l-0.86,0.29l-1.65-3.06
		l1.07,3.27l-1.07,0.36l-1.43-4.44l1.65-0.51L20.7,6.6l-0.36-2.76l1.65-0.51l1.43,4.36L22.34,8.08z M25.42,7.57
		c-1.22,0.15-1.72-0.51-1.86-2.18c-0.14-1.67,0.21-2.4,1.43-2.55c1.22-0.15,1.72,0.51,1.86,2.18C27,6.69,26.71,7.42,25.42,7.57z
		 M30.79,7.57L29.5,7.49l-0.57-2.91l-0.29,2.84L27.5,7.35l0.43-4.58l1.36,0.07l0.57,2.91l0.21-2.84l1.15,0.07L30.79,7.57z
		 M34.95,4.88l-1.5-0.36l-0.21,0.73l1.43,0.36l-0.21,0.95L33.03,6.2L32.8,7.06l1.58,0.36l-0.21,0.95l-2.72-0.65l1.07-4.44l2.65,0.65
		L34.95,4.88z M36.38,9.31L35.23,8.8l0.79-1.6V4.15l1.22,0.51l-0.21,1.67l1.07-1.31l1.22,0.51L37.1,7.64L36.38,9.31z M39.03,10.77
		l-1.58-0.95l2.51-3.93l1.58,0.95c0.72,0.44,0.79,1.09,0.43,1.67c-0.29,0.44-0.72,0.65-1.15,0.51c0.5,0.36,0.43,0.95,0.14,1.31
		C40.53,10.99,39.89,11.28,39.03,10.77z M42.18,13.24l0.43-0.65l-0.72-0.65l-0.72,0.44l-0.93-0.87l4.01-2.55l1.15,1.02l-2.29,4.15
		L42.18,13.24z M43.97,15.42c-0.86-1.09-0.5-1.67,0.86-2.76c1.43-1.09,2.15-1.16,2.94-0.15c0.64,0.87,0.5,1.53-0.21,2.04l-0.29,0.15
		l-0.72-0.87l0.21-0.22c0.43-0.29,0.5-0.51,0.36-0.65c-0.21-0.29-0.5-0.15-1.5,0.65c-1,0.8-1.22,1.02-1,1.31
		c0.21,0.22,0.43,0.15,1.15-0.44l0.72,0.95l-0.29,0.22C45.12,16.37,44.4,16.01,43.97,15.42z M48.55,17.46l-1.65,2.4l-0.64-1.24
		l1.07-1.38l-0.43-0.07l-1.07,0.58l-0.57-1.02l4.01-2.04l0.57,1.02l-1.58,0.8l2.01-0.07l0.64,1.09L48.55,17.46z"/>
	<polygon class="st0" points="43.11,11.79 44.18,10.11 42.61,11.35 	"/>
	<path class="st0" d="M9.31,15.35l-1.29-0.87c-0.57-0.36-0.72-0.36-0.86-0.15c-0.14,0.22-0.07,0.36,0.5,0.73l1.29,0.87
		c0.57,0.36,0.72,0.36,0.86,0.15C9.96,15.86,9.88,15.71,9.31,15.35z"/>
</g>
<path class="st0" d="M21.63,22.92c1.43,0,2.15-0.73,2.15-2.18c0-0.65-0.14-1.16-0.5-1.53s-0.86-0.58-1.43-0.58
	c-0.64,0-1.15,0.15-1.5,0.51c-0.36,0.36-0.57,0.8-0.57,1.31h-2.94v-0.07c-0.07-1.24,0.43-2.18,1.36-2.98s2.15-1.16,3.72-1.16
	s2.72,0.36,3.65,1.16s1.36,1.89,1.36,3.27c0,0.65-0.21,1.31-0.64,1.96c-0.43,0.58-1,1.09-1.72,1.38c0.86,0.29,1.5,0.73,1.93,1.38
	s0.64,1.38,0.64,2.18c0,1.38-0.5,2.55-1.5,3.35c-1,0.8-2.29,1.24-3.94,1.24c-0.93,0-1.86-0.15-2.58-0.51
	c-0.79-0.36-1.36-0.87-1.86-1.53c-0.43-0.65-0.72-1.45-0.64-2.33v-0.07h2.94c0,0.58,0.21,1.09,0.64,1.45s0.93,0.58,1.65,0.58
	c0.64,0,1.22-0.22,1.65-0.58s0.64-0.95,0.64-1.6c0-1.6-0.79-2.4-2.36-2.4h-1.72v-2.33h1.58L21.63,22.92L21.63,22.92z"/>
<path class="st0" d="M38.81,22.55v3.42c0,2.04-0.43,3.56-1.36,4.66c-0.93,1.09-2.15,1.6-3.8,1.6c-1.65,0-2.86-0.51-3.8-1.6
	c-0.93-1.09-1.36-2.62-1.36-4.66v-3.42c0-2.04,0.43-3.56,1.36-4.66c0.93-1.09,2.15-1.6,3.8-1.6c1.65,0,2.86,0.51,3.8,1.6
	C38.38,18.99,38.81,20.52,38.81,22.55z M35.73,26.26v-4c0-2.4-0.72-3.56-2.15-3.56c-0.72,0-1.22,0.29-1.58,0.87
	c-0.36,0.58-0.5,1.45-0.5,2.69v4c0,1.24,0.14,2.11,0.5,2.69c0.36,0.58,0.93,0.87,1.65,0.87s1.22-0.29,1.58-0.87
	S35.73,27.5,35.73,26.26z"/>
<path class="st0" d="M21.27,39.14h-1.72v-5.09h1.72c0.64,0,1.15,0.22,1.5,0.58c0.36,0.36,0.57,0.87,0.57,1.53v0.87
	c0,0.65-0.21,1.16-0.57,1.53C22.42,38.92,21.84,39.14,21.27,39.14z M21.2,34.85h-0.64v3.49h0.64c0.36,0,0.64-0.15,0.86-0.36
	c0.21-0.22,0.29-0.58,0.29-0.95v-0.87c0-0.44-0.07-0.73-0.29-0.95S21.56,34.85,21.2,34.85z"/>
<path class="st0" d="M27.07,39.14l-0.36-1.09h-1.79l-0.36,1.09h-0.93l1.72-5.09h1l1.72,5.09H27.07z M25.85,35.21l-0.64,1.96h1.29
	L25.85,35.21L25.85,35.21z"/>
<path class="st0" d="M30.29,39.14h-1v-1.82l-1.72-3.27h1.07l1.07,2.33l0,0l1.07-2.33h1.07l-1.72,3.27v1.82
	C30.13,39.14,30.29,39.14,30.29,39.14z"/>
<path class="st0" d="M34.3,38.41L34.3,38.41c0.29,0,0.5-0.07,0.64-0.15s0.21-0.29,0.21-0.44s-0.07-0.36-0.21-0.44
	s-0.36-0.22-0.72-0.36c-0.64-0.22-1.07-0.36-1.36-0.65s-0.43-0.58-0.43-0.95c0-0.36,0.14-0.73,0.5-1.02s0.79-0.36,1.36-0.36
	s1,0.15,1.36,0.44c0.36,0.29,0.5,0.65,0.5,1.09l0,0h-1c0-0.22-0.07-0.44-0.21-0.58s-0.36-0.22-0.64-0.22s-0.5,0-0.64,0.15
	s-0.21,0.29-0.21,0.44c0,0.22,0.07,0.36,0.21,0.44c0.14,0.15,0.43,0.22,0.79,0.36c0.57,0.15,1,0.36,1.29,0.65s0.43,0.58,0.43,1.02
	s-0.14,0.73-0.5,1.02c-0.36,0.22-0.79,0.36-1.36,0.36c-0.36,0-0.72-0.07-1-0.22s-0.57-0.29-0.72-0.58
	c-0.21-0.22-0.29-0.51-0.29-0.87l0,0h1C33.3,38.12,33.66,38.41,34.3,38.41z"/>
</svg>
