<?xml version="1.0" encoding="utf-8"?>
<!-- Generator: Adobe Illustrator 22.1.0, SVG Export Plug-In . SVG Version: 6.00 Build 0)  -->
<svg version="1.1" id="Layer_1" xmlns="http://www.w3.org/2000/svg" xmlns:xlink="http://www.w3.org/1999/xlink" x="0px" y="0px"
	 width="181.1px" height="167px" viewBox="0 0 181.1 167" style="enable-background:new 0 0 181.1 167;" xml:space="preserve">
<style type="text/css">
	.st0{fill:#2A306C;}
	.st1{fill:none;}
</style>
<g>
	<g>
		<polygon class="st0" points="136,114.11 119.07,131.04 146.66,161.53 166.65,141.55 136.15,113.96 		"/>
	</g>
	<g>
		<path class="st1" d="M108.89,90.76c3.16-5.94,4.95-12.71,4.95-19.9c0-23.48-19.03-42.51-42.51-42.51S28.82,47.38,28.82,70.86
			c0,23.48,19.03,42.51,42.51,42.51c8.09,0,15.66-2.26,22.09-6.19l2.52,2.79l15.5-15.5l0.73-0.73l-2.73-2.47L108.89,90.76z
			 M108.85,96.35l-12.3,12.3l-3.13-3.46L81.16,91.64c-9.47,4.35-21.04,2.62-28.84-5.18c-6.78-6.77-8.97-16.39-6.59-25.01
			l15.71,15.71l14.1-3.77l3.78-14.1L63.61,43.58c8.62-2.38,18.23-0.19,25,6.58c7.79,7.78,9.52,19.32,5.22,28.78l13.07,11.82
			l0.56,0.51l3.4,3.08L108.85,96.35z"/>
		<polygon class="st1" points="119.46,95.43 120.39,96.37 120.4,96.36 118.8,94.77 		"/>
		<path class="st0" d="M65.9,140.02l30.05-30.04l-2.52-2.79c-6.44,3.93-14,6.19-22.09,6.19c-23.48,0-42.51-19.03-42.51-42.51
			c0-23.48,19.03-42.51,42.51-42.51s42.51,19.03,42.51,42.51c0,7.19-1.79,13.97-4.95,19.9l0.56,0.51l2.73,2.47l2.79-2.8l3.53,3.53
			l0.3,0.3l1.59,1.59l2.94-2.77c0.94-2.13,1.76-4.31,2.37-6.56c0.46-1.68,1.53-2.35,3.06-2.77c2.12-0.57,4.24-1.19,6.35-1.79
			l6.79-6.41c-0.06-4.1-0.06-8.19,0.02-12.29h0.18c-0.03-1.02-0.19-1.64-0.69-2.1c-0.01-0.01-0.01-0.02-0.02-0.03
			c-0.02-0.02-0.05-0.04-0.07-0.06c-0.38-0.45-0.94-0.77-1.75-0.98c-3.15-0.8-6.27-1.71-9.4-2.59c-2.16-1.23-3.73-2.98-5.19-5.38
			c-0.8-2.54-1.84-4.99-3.11-7.34c-0.94-4.75,0.65-8.77,3.74-13.05c0.85-1.18,1.42-2.57,1.99-3.62c0.07-0.88-0.27-1.34-0.65-1.73
			c-0.2-0.39-0.47-0.78-0.88-1.17c-3.34-3.21-6.6-6.5-9.84-9.82c-1.32-1.35-2.6-1.5-4.22-0.55c-3.08,1.82-6.25,3.48-9.33,5.31
			c-1.61,0.96-3.06,1.06-4.73,0.12c-3.22-1.81-6.63-3.26-10.19-4.22c-2.11-0.57-3.14-1.81-3.66-3.84
			c-0.87-3.47-1.99-6.88-2.81-10.36C80.9,0.6,80.07-0.04,78.27,0c-4.84,0.1-9.69,0.11-14.53,0.02c-1.84-0.04-2.58,0.7-3,2.42
			c-0.72,2.92-1.58,5.8-2.38,8.7c-0.22,0.78-0.46,1.56-0.66,2.35c-0.45,1.66-1.38,2.54-3.07,3.03c-3.64,1.06-7.2,2.4-10.48,4.34
			c-1.62,0.96-3.04,0.96-4.7-0.04c-3.06-1.85-6.28-3.44-9.37-5.25c-1.54-0.9-2.75-0.89-4,0.17l0.13,0.13
			c-0.16,0.14-0.33,0.24-0.5,0.41c-3.28,3.41-6.64,6.76-10.05,10.05c-1.29,1.24-1.46,2.33-0.54,3.87c1.94,3.26,3.73,6.6,5.62,9.89
			c0.8,1.39,0.95,2.72,0.1,4.16c-1.99,3.38-3.47,6.98-4.46,10.76c-0.46,1.74-1.49,2.6-3.2,3.04c-3.57,0.92-7.08,2.04-10.64,2.98
			C0.71,61.5-0.03,62.5,0,64.4c0.09,4.63,0.07,9.27,0.02,13.9c-0.02,1.89,0.78,2.9,2.59,3.37c3.46,0.9,6.88,1.96,10.35,2.84
			c1.82,0.46,2.91,1.42,3.43,3.26c1,3.56,2.38,6.99,4.22,10.19c1.09,1.89,0.94,3.5-0.13,5.3c-1.84,3.07-3.46,6.27-5.34,9.32
			c-0.96,1.54-0.82,2.58,0.48,3.82c3.49,3.35,6.93,6.77,10.29,10.26c1.28,1.33,2.32,1.33,3.83,0.42c2.62-1.58,5.31-3.04,7.97-4.55
			c2.63-0.93,5.14-0.85,8.09-0.16c2.47,1.26,5.03,2.34,7.7,3.11c2.44,1.67,4.01,3.82,5.06,6.43c0.42,1.48,0.82,2.97,1.25,4.45
			c0.06,0.31,0.13,0.6,0.19,0.93c0.23,1.44,0.81,2.82,1.15,3.97c0.6,0.71,1.19,0.76,1.76,0.77c0.23,0.06,0.46,0.14,0.73,0.16v-0.15
			c0.08,0,0.17,0,0.25,0l0.53-0.53L65.9,140.02z"/>
		<g>
			<path class="st0" d="M107.22,91.2L94.15,79.38c4.3-9.46,2.57-21-5.22-28.78c-6.77-6.77-16.39-8.97-25-6.58l15.71,15.71
				l-3.78,14.1l-14.1,3.77L46.06,61.89c-2.38,8.62-0.19,18.23,6.59,25.01c7.8,7.8,19.38,9.53,28.84,5.18l12.26,13.55l3.13,3.46
				l12.3-12.3l2-2l-3.4-3.08L107.22,91.2z"/>
		</g>
		<g>
			<polygon class="st0" points="173.83,46.81 157.15,59.92 159.09,61.85 141.91,78.06 135.12,84.47 123.33,95.59 120.4,98.36 
				120.39,98.37 119.46,97.43 118.8,96.77 118.5,96.47 114.97,92.94 112.18,95.74 111.45,96.47 95.95,111.97 65.9,142.02 
				64.42,143.49 63.9,144.02 60.9,147.02 64.42,150.54 77.36,163.48 80.88,167 84.41,163.48 131.43,116.45 134.95,112.92 
				131.43,109.4 129.54,107.51 166.05,68.81 167.98,70.75 181.1,54.07 			"/>
		</g>
	</g>
</g>
</svg>
