<?xml version="1.0" encoding="utf-8"?>
<!-- Generator: Adobe Illustrator 21.0.2, SVG Export Plug-In . SVG Version: 6.00 Build 0)  -->
<svg version="1.1" id="Layer_1" xmlns="http://www.w3.org/2000/svg" xmlns:xlink="http://www.w3.org/1999/xlink" x="0px" y="0px"
	 width="183px" height="47px" viewBox="0 0 183 47" style="enable-background:new 0 0 183 47;" xml:space="preserve">
<style type="text/css">
	.st0{fill:#0650A0;}
	.st1{fill:#EB234E;}
</style>
<g>
	<path class="st0" d="M83.3,18.6c-1-0.6-2.5-1-4.2-1c-4,0-6.4,1.9-7.4,2.7l1.4-8.6h-5.7l-4,23.4h5.7l2.2-12.7c1.4-1.1,3.2-2,5.1-2
		c1,0,1.8,0.3,2.4,0.8c1,0.9,0.9,2.3,0.6,3.9l-1.7,10h5.7l1.9-11.2C85.5,22.4,85.9,20.1,83.3,18.6 M98.4,17.5
		c-6.5,0-8.7,2.9-9.9,4.6l1.4,0.5c1-0.9,2.8-2.5,6.5-2.5c1.6,0,4,0.4,4.7,2.2c0.3,0.7,0.3,1.4,0.2,2.2h0.1l-0.9,5.3h-0.1l-0.3,1.9
		c-1.2,0.6-2.7,1.2-4.7,1.2c-2.9,0-3.7-1.6-3.4-3c0.4-2.2,2.8-3.2,5.3-3.2c0.8,0,1.4,0.1,2.1,0.2l0.4-2.4c-1-0.2-2.1-0.4-3.5-0.4
		c-5.1,0-9.6,2.2-10.2,6.1c-0.5,3,1.9,5.4,6.3,5.4c4.1,0,6.5-1.6,7.6-2.4l-0.3,1.9h5.5l1.7-10.2c0.3-1.6,0.6-3.8-1.3-5.5
		C104.3,18.4,102.1,17.5,98.4,17.5 M148.2,33.7c-0.4,0-2.1,0-2.9-1.5c-0.3-0.5-0.5-1.2-0.2-2.7l1.3-7.7h6.2l0.6-3.6H147l0.8-4.6
		h-5.7l-0.8,4.6h-6l-5.2,8.5l-0.9,1.6c-0.3-0.9-0.3-1.1-0.6-1.9l-3-8.2h-1.9l-7.4,10c-0.2-0.8-0.2-1-0.4-1.8l-2.2-8.2h-5.9l5.2,17.1
		h2.1l7.4-9.9l4.1,9.9h2.1l8.8-13.5h3.2l-1.4,8.4c-0.2,1.5-0.3,3,1.1,4.2c1.5,1.3,3.7,1.4,4.7,1.4c2.8,0,4.5-0.8,5.9-1.4l-0.5-1.1
		C149.8,33.5,149.1,33.7,148.2,33.7 M160,24.5c-0.1,0.1-0.2,0.5-0.4,1.6c-0.1,0.4-0.1,0.8-0.1,1h15.2c0.3-1.9,0.8-5-1.9-7.4
		c-2.3-2.1-5.7-2.3-7.6-2.3c-7.7,0-12.5,4-13.4,9c-0.9,5.2,2.6,9.4,10.4,9.4c7.5,0,9.9-3.5,11.1-5.3L172,30c-1.8,1.5-3.6,3-7.6,3
		c-5.8,0-6.6-3.5-6.7-5.2c0-0.1-0.1-0.4,0.1-1.6c0.2-1.2,0.5-1.6,0.5-1.7c0.9-1.9,2.1-4.3,6.2-4.3c4.3,0,4.3,2.8,4.3,4.3
		C168.8,24.5,160,24.5,160,24.5z M58.8,13.6h-5.7l-2.8,16.6c-0.2,1.5-0.3,3,1.1,4.2c1.5,1.3,3.7,1.4,4.7,1.4c2.8,0,4.5-0.8,5.9-1.4
		l-0.5-1.1c-0.7,0.2-1.3,0.3-2.2,0.3c-0.4,0-2.1,0-2.9-1.5c-0.3-0.5-0.5-1.2-0.2-2.7l1.3-7.7H62l0.6-3.6H58L58.8,13.6z"/>
	<path class="st1" d="M21.7,2.1C9.7,2.1,0,11.8,0,23.8s9.7,21.7,21.7,21.7s21.7-9.7,21.7-21.7C43.5,11.8,33.7,2.1,21.7,2.1
		 M21.7,41.2c-9.6,0-17.4-7.8-17.4-17.4S12.1,6.4,21.7,6.4s17.4,7.8,17.4,17.4C39.2,33.4,31.4,41.2,21.7,41.2 M23.8,13.2h-5.7
		l-2.8,16.6c-0.2,1.5-0.3,3,1.1,4.2c1.4,1.3,3.7,1.4,4.7,1.4c2.8,0,4.5-0.8,5.9-1.4l-0.5-1c-0.7,0.2-1.3,0.3-2.2,0.3
		c-0.4,0-2.1,0-2.9-1.5c-0.3-0.6-0.5-1.3-0.2-2.7l1.3-7.7h4.6l0.6-3.6H23L23.8,13.2z"/>
	<path class="st0" d="M177.5,15.2h-1.4v3.7h-1.2v-3.7h-1.4v-0.9h4L177.5,15.2L177.5,15.2z M183,18.9h-1.2v-3.1l-0.8,2h-0.8l-0.8-2
		v3.1h-1.1v-4.6h1.4l1,2.3l1-2.3h1.4L183,18.9L183,18.9z"/>
</g>
</svg>
