<?xml version="1.0" encoding="utf-8"?>
<!-- Generator: Adobe Illustrator 22.1.0, SVG Export Plug-In . SVG Version: 6.00 Build 0)  -->
<svg version="1.1" id="Layer_1" xmlns="http://www.w3.org/2000/svg" xmlns:xlink="http://www.w3.org/1999/xlink" x="0px" y="0px"
	 width="15.12px" height="16px" viewBox="0 0 15.12 16" style="enable-background:new 0 0 15.12 16;" xml:space="preserve">
<style type="text/css">
	.st0{fill:#54A447;}
</style>
<g>
	<path class="st0" d="M4.65,15.35l-4-4c-0.87-0.87-0.87-2.27,0-3.14l0,0c0.87-0.87,2.27-0.87,3.14,0l0,0l1.96,1.96l5.23-9.06
		c0.61-1.06,1.97-1.42,3.03-0.81l0,0c1.06,0.61,1.42,1.97,0.81,3.03l0,0L8.14,14.89c-0.34,0.6-0.95,1-1.63,1.09l0,0
		C6.41,15.99,6.32,16,6.22,16l0,0C5.64,16,5.07,15.77,4.65,15.35L4.65,15.35z"/>
</g>
</svg>
