<?xml version="1.0" encoding="UTF-8"?>
<!-- Generator: Adobe Illustrator 21.1.0, SVG Export Plug-In . SVG Version: 6.00 Build 0)  -->
<svg version="1.1" id="Layer_1" xmlns="http://www.w3.org/2000/svg" xmlns:xlink="http://www.w3.org/1999/xlink" x="0px" y="0px" width="25.7px" height="22.2px" viewBox="0 0 25.7 22.2" style="enable-background:new 0 0 25.7 22.2;" xml:space="preserve">
<style type="text/css">
	.st0{fill:#FFFFFF;}
</style>
<title>Checkout_Header_Icon</title>
<g>
	<circle class="st0" cx="10.7" cy="20.5" r="1.7"/>
	<circle class="st0" cx="20" cy="20.5" r="1.7"/>
	<path class="st0" d="M25.7,7.2c-0.2-0.3-0.5-0.5-0.8-0.5L6.8,5.4L5.7,1.9L1.4,0.1C0.9-0.1,0.3,0.2,0.1,0.7s0,1.1,0.6,1.3l3.4,1.4   l4.1,13.4c0.1,0.4,0.5,0.7,1,0.7c0.1,0,0.2,0,0.3,0c0.5-0.2,0.8-0.7,0.7-1.3l-0.3-0.8h11.5c0.4,0,0.7-0.2,0.9-0.6l3.3-6.6   C25.8,7.9,25.8,7.5,25.7,7.2z M20.8,13.3H9.3L7.5,7.4l15.7,1.2L20.8,13.3z"/>
</g>
</svg>