<?xml version="1.0" encoding="UTF-8"?>
<!-- Generator: Adobe Illustrator 21.1.0, SVG Export Plug-In . SVG Version: 6.00 Build 0)  -->
<svg version="1.1" id="Layer_1" xmlns="http://www.w3.org/2000/svg" xmlns:xlink="http://www.w3.org/1999/xlink" x="0px" y="0px" width="48px" height="48px" viewBox="0 0 48 48" style="enable-background:new 0 0 48 48;" xml:space="preserve">
<style type="text/css">
	.st0{fill:#54A447;}
</style>
<g>
	<path class="st0" d="M24,36.9c-7.5,0-12.6-5.2-13.3-10.2c-0.1-0.8,0.4-1.4,1.2-1.5s1.4,0.4,1.5,1.2c0.5,3.8,4.8,7.8,10.7,7.8   s10.3-4,10.7-7.8c0.1-0.8,0.8-1.3,1.5-1.2c0.8,0.1,1.3,0.8,1.2,1.5C36.9,31.7,31.7,36.9,24,36.9z"/>
	<g>
		<circle class="st0" cx="18.8" cy="15.9" r="2.9"/>
		<circle class="st0" cx="29.2" cy="15.9" r="2.9"/>
	</g>
	<g>
		<path class="st0" d="M24,47.9c-13.2,0-24-10.7-24-24S10.8,0,24,0s24,10.7,24,24S37.2,47.9,24,47.9z M24,3    C12.4,3,3.1,12.4,3.1,23.9s9.4,21,20.9,21S44.9,35.5,44.9,24S35.6,3,24,3z"/>
	</g>
</g>
</svg>