<?xml version="1.0" encoding="utf-8"?>
<!-- Generator: Adobe Illustrator 23.0.0, SVG Export Plug-In . SVG Version: 6.00 Build 0)  -->
<svg version="1.1" id="Layer_1" xmlns="http://www.w3.org/2000/svg" xmlns:xlink="http://www.w3.org/1999/xlink" x="0px" y="0px"
	 width="126px" height="20px" viewBox="0 0 126 20" style="enable-background:new 0 0 126 20;" xml:space="preserve">
<style type="text/css">
	.st0{fill-rule:evenodd;clip-rule:evenodd;fill:#6DBB5B;}
</style>
<title>ev-5-0mdpi</title>
<g>
	<g id="Layer_1-2">
		<g id="Page-1">
			<g id="icon-23-star">
				<polygon id="star" class="st0" points="10.77,15.38 3.85,20 6.92,12.31 0,7.69 7.69,7.69 10.77,0 13.85,7.69 21.54,7.69 
					14.62,12.31 17.69,20 				"/>
			</g>
		</g>
		<g id="Page-1-2">
			<g id="icon-23-star-2">
				<polygon id="star-2" class="st0" points="115.23,15.38 108.31,20 111.39,12.31 104.46,7.69 112.15,7.69 115.23,0 118.31,7.69 
					126,7.69 119.08,12.31 122.15,20 				"/>
			</g>
		</g>
		<g id="Page-1-3">
			<g id="icon-23-star-3">
				<polygon id="star-3" class="st0" points="89.11,15.38 82.19,20 85.27,12.31 78.35,7.69 86.04,7.69 89.11,0 92.19,7.69 
					99.89,7.69 92.96,12.31 96.04,20 				"/>
			</g>
		</g>
		<g id="Page-1-4">
			<g id="icon-23-star-4">
				<polygon id="star-4" class="st0" points="63,15.38 56.08,20 59.15,12.31 52.23,7.69 59.92,7.69 63,0 66.08,7.69 73.77,7.69 
					66.85,12.31 69.92,20 				"/>
			</g>
		</g>
		<g id="Page-1-5">
			<g id="icon-23-star-5">
				<polygon id="star-5" class="st0" points="36.88,15.38 29.96,20 33.04,12.31 26.11,7.69 33.81,7.69 36.88,0 39.96,7.69 
					47.65,7.69 40.73,12.31 43.81,20 				"/>
			</g>
		</g>
	</g>
</g>
</svg>
