<?xml version="1.0" encoding="utf-8"?>
<!-- Generator: Adobe Illustrator 24.2.3, SVG Export Plug-In . SVG Version: 6.00 Build 0)  -->
<svg version="1.1" id="Layer_1" xmlns="http://www.w3.org/2000/svg" xmlns:xlink="http://www.w3.org/1999/xlink" x="0px" y="0px"
	 width="120px" height="59.716px" viewBox="0 0 120 59.716" style="enable-background:new 0 0 120 59.716;" xml:space="preserve">
<style type="text/css">
	.st0{fill:#ABB6BF;}
	.st1{fill:#0174C3;}
	.st2{fill-rule:evenodd;clip-rule:evenodd;fill:#0174C3;}
	.st3{fill-rule:evenodd;clip-rule:evenodd;fill:#F26F28;}
	.st4{fill:#5E6C75;}
	.st5{fill:#707E86;}
</style>
<g>
	<g>
		<g>
			<path class="st0" d="M101.806,7.354H38.492c1.066,0.389,2.089,0.868,3.058,1.429h60.255c9.245,0,16.765,7.52,16.765,16.765
				c0,9.244-7.52,16.765-16.765,16.765H41.797c-0.926,0.554-1.902,1.033-2.92,1.428h62.929c10.032,0,18.194-8.163,18.194-18.194
				C120,15.515,111.838,7.354,101.806,7.354z"/>
		</g>
		<polygon class="st0" points="115.768,7.354 115.768,7.814 115.096,7.814 115.096,10.076 114.57,10.076 114.57,7.814 
			113.911,7.814 113.911,7.354 		"/>
		<polygon class="st0" points="116.145,10.075 116.145,7.354 116.855,7.354 117.327,9.136 117.807,7.354 118.524,7.354 
			118.524,10.075 118.091,10.075 118.091,7.946 118.079,7.946 117.53,10.075 117.144,10.075 116.59,7.946 116.578,7.946 
			116.578,10.075 		"/>
		<path class="st1" d="M54.405,36.396l0.641-0.997c0.519,0.384,1.3,0.742,2.253,0.742c0.926,0,1.497-0.42,1.497-1.148
			c0-0.838-0.721-1.059-1.908-1.474c-1.065-0.373-2.112-0.91-2.112-2.417c0-1.413,1.115-2.182,2.614-2.182
			c0.996,0,1.731,0.196,2.321,0.544l-0.512,1.06c-0.497-0.258-1.089-0.433-1.786-0.433c-0.835,0-1.336,0.315-1.336,0.977
			c0,0.778,0.581,0.976,1.673,1.335c1.138,0.368,2.392,0.895,2.392,2.566c0,1.411-1.01,2.344-2.822,2.344
			C55.974,37.314,54.986,36.85,54.405,36.396"/>
		<polygon class="st1" points="62.573,29.048 67.425,29.048 67.425,30.175 63.954,30.175 63.954,32.402 66.696,32.402 
			66.696,33.507 63.954,33.507 63.954,36.081 67.637,36.081 67.637,37.207 62.573,37.207 		"/>
		<path class="st1" d="M69.613,33.134c0-2.38,1.139-4.213,3.415-4.213c1.02,0,1.824,0.322,2.391,0.984l-0.805,0.932
			c-0.488-0.477-0.9-0.711-1.564-0.711c-1.336,0-1.952,1.093-1.952,3.112c0,1.896,0.651,2.856,1.965,2.856
			c0.729,0,1.242-0.383,1.691-0.859l0.813,0.906c-0.592,0.698-1.331,1.174-2.517,1.174C70.704,37.314,69.613,35.525,69.613,33.134"
			/>
		<path class="st1" d="M77.817,34.084v-5.037h1.392v5.263c0,1.12,0.278,1.854,1.461,1.854c1.173,0,1.464-0.734,1.464-1.854v-5.263
			h1.406v5.037c0,2.022-0.778,3.23-2.88,3.23C78.591,37.314,77.817,36.107,77.817,34.084"/>
		<path class="st1" d="M92.053,37.207h-1.509l-1.566-3.46h-1.29v3.46h-1.381v-8.16h2.661c1.647,0,2.934,0.592,2.934,2.38
			c0,1.22-0.731,1.831-1.546,2.123L92.053,37.207z M88.919,32.682c1.035,0,1.567-0.337,1.567-1.279c0-0.906-0.543-1.228-1.485-1.228
			h-1.313v2.508H88.919z"/>
		<polygon class="st1" points="94.417,29.048 99.268,29.048 99.268,30.175 95.797,30.175 95.797,32.402 98.534,32.402 
			98.534,33.507 95.797,33.507 95.797,36.081 99.477,36.081 99.477,37.207 94.417,37.207 		"/>
		<path class="st1" d="M101.809,29.047h2.038c2.659,0,3.938,1.44,3.938,4.051c0,2.66-1.301,4.11-3.868,4.11h-2.108V29.047z
			 M103.767,36.081c1.904,0,2.555-0.88,2.555-2.983c0-1.845-0.511-2.923-2.384-2.923h-0.742v5.907H103.767z"/>
		<path class="st2" d="M19.423,10.179c4.23-2.887,8.732-4.011,12.467-3.463V0H0v32.189h10.905c-0.127-0.221-0.251-0.452-0.362-0.689
			C7.522,25.13,11.497,15.584,19.423,10.179L19.423,10.179z"/>
		<path class="st3" d="M31.714,10.392c-8.412,0-15.229,6.819-15.229,15.231c0,0.956,0.09,1.891,0.258,2.799
			c0.38,1.645,1.256,2.156,2.066,2.504c0.399,0.17,0.746,0.237,0.942,0.263c1.611,0.119,3.295-0.276,4.883-1.265
			c2.156-1.341,3.755-3.525,4.615-6.011c-2.672,0.309-5.265,0.71-7.748,1.186l0.048-4.776l17.105-1.14l-0.12,16.132l-5.168,0.35
			c0-0.009,0.005-0.015,0.005-0.023c0.025-0.17,0.053-0.34,0.078-0.507c0.2-1.355,0.371-2.733,0.509-4.138
			c0.078-0.809,0.15-1.617,0.207-2.435c-0.652,0.855-1.396,1.666-2.226,2.413c-0.768,0.691-1.606,1.329-2.516,1.903
			c-0.535,0.334-1.088,0.647-1.664,0.933c-1.17,0.577-2.36,1.018-3.55,1.324c-0.976,0.249-2.689,0.368-4.04,0.419
			c2.795,3.244,6.928,5.295,11.543,5.295c8.41,0,15.228-6.818,15.228-15.227C46.942,17.211,40.124,10.392,31.714,10.392
			L31.714,10.392z"/>
		<g>
			<path class="st4" d="M59.072,23.841c-1.053,0-1.954-0.203-2.702-0.608c-0.748-0.405-1.309-0.972-1.683-1.7
				c-0.374-0.728-0.561-1.585-0.561-2.57c0-1.004,0.212-1.902,0.635-2.695c0.423-0.793,1.02-1.413,1.791-1.861
				c0.77-0.448,1.649-0.672,2.634-0.672c1.268,0,2.341,0.327,3.219,0.981l-0.517,0.894c-0.775-0.529-1.666-0.793-2.675-0.793
				c-0.743,0-1.402,0.177-1.975,0.531c-0.573,0.354-1.013,0.841-1.321,1.462c-0.307,0.62-0.46,1.321-0.46,2.1
				c0,1.174,0.314,2.109,0.941,2.806c0.627,0.697,1.536,1.045,2.728,1.045c0.811,0,1.523-0.116,2.137-0.349v-2.768H58.79v-1.095
				h3.749v4.583C61.5,23.603,60.344,23.841,59.072,23.841z"/>
			<path class="st4" d="M67.27,23.841c-1.098,0-1.969-0.326-2.614-0.978c-0.645-0.652-0.968-1.517-0.968-2.597
				c0-1.062,0.31-1.934,0.931-2.617s1.442-1.025,2.463-1.025c0.645,0,1.197,0.15,1.656,0.45c0.459,0.3,0.8,0.708,1.021,1.223
				c0.222,0.515,0.333,1.113,0.333,1.794c0,0.085-0.007,0.195-0.02,0.329h-5.107c0.013,0.771,0.235,1.365,0.665,1.784
				c0.43,0.419,0.999,0.628,1.707,0.628c0.824,0,1.555-0.255,2.191-0.766l0.37,0.914C69.158,23.554,68.282,23.841,67.27,23.841z
				 M64.998,19.574h3.958c-0.045-0.632-0.228-1.118-0.551-1.458c-0.323-0.34-0.753-0.511-1.29-0.511
				c-0.564,0-1.036,0.175-1.414,0.524C65.322,18.478,65.088,18.96,64.998,19.574z"/>
			<path class="st4" d="M74.433,23.841c-1.115,0-1.988-0.332-2.617-0.994c-0.629-0.663-0.944-1.528-0.944-2.594
				c0-1.084,0.317-1.96,0.951-2.628c0.634-0.667,1.509-1.001,2.624-1.001c1.111,0,1.976,0.333,2.594,0.998
				c0.618,0.665,0.927,1.542,0.927,2.631c0,1.066-0.314,1.931-0.941,2.594C76.399,23.509,75.535,23.841,74.433,23.841z
				 M74.433,22.833c0.726,0,1.28-0.235,1.663-0.705c0.383-0.47,0.575-1.095,0.575-1.875c0-0.793-0.194-1.428-0.581-1.905
				c-0.388-0.477-0.942-0.716-1.663-0.716c-0.726,0-1.284,0.239-1.673,0.716c-0.39,0.477-0.584,1.112-0.584,1.905
				c0,0.779,0.194,1.404,0.581,1.875C73.137,22.598,73.698,22.833,74.433,22.833z"/>
			<path class="st4" d="M80.207,23.693v-8.702h-3.125v-1.082h7.553v1.082h-3.145v8.702H80.207z"/>
			<path class="st4" d="M84.608,23.693v-5.201c0-0.152-0.008-0.369-0.024-0.652c-0.016-0.282-0.03-0.526-0.044-0.732l-0.02-0.309
				h1.31l0.014,1.075c0.417-0.824,1.03-1.236,1.841-1.236c0.255,0,0.488,0.027,0.699,0.081l-0.007,1.095
				c-0.264-0.072-0.518-0.108-0.759-0.108c-0.529,0-0.954,0.185-1.277,0.555c-0.323,0.369-0.484,0.902-0.484,1.596v3.837H84.608z"/>
			<path class="st4" d="M91.879,23.847c-0.883,0-1.546-0.252-1.989-0.756c-0.443-0.504-0.665-1.182-0.665-2.033v-4.26h1.23v4.26
				c0,0.591,0.14,1.036,0.42,1.334c0.28,0.298,0.684,0.447,1.213,0.447c0.605,0,1.077-0.173,1.418-0.518s0.511-0.791,0.511-1.337
				v-4.186h1.236v5.188c0,0.614,0.02,1.183,0.061,1.707h-1.257l-0.033-1.109c-0.193,0.354-0.466,0.653-0.82,0.897
				C92.848,23.725,92.407,23.847,91.879,23.847z"/>
			<path class="st4" d="M98.944,23.841c-0.596,0-1.121-0.09-1.576-0.269c-0.455-0.179-0.807-0.367-1.058-0.564l0.343-0.92
				c0.255,0.188,0.581,0.358,0.978,0.511c0.397,0.152,0.801,0.228,1.213,0.228c0.914,0,1.371-0.336,1.371-1.008
				c0-0.283-0.103-0.493-0.309-0.632c-0.206-0.139-0.607-0.309-1.203-0.511l-0.591-0.202c-0.229-0.081-0.422-0.157-0.581-0.228
				c-0.159-0.072-0.319-0.162-0.481-0.272c-0.161-0.11-0.291-0.228-0.39-0.356c-0.098-0.128-0.178-0.282-0.238-0.464
				c-0.061-0.182-0.091-0.386-0.091-0.615c0-0.327,0.068-0.617,0.205-0.87c0.137-0.253,0.324-0.452,0.561-0.598
				c0.237-0.146,0.499-0.255,0.786-0.329c0.287-0.074,0.596-0.111,0.927-0.111c0.909,0,1.675,0.199,2.298,0.598l-0.343,0.887
				c-0.605-0.322-1.21-0.484-1.815-0.484c-0.443,0-0.786,0.076-1.028,0.229s-0.363,0.367-0.363,0.645
				c0,0.251,0.073,0.436,0.218,0.555c0.146,0.119,0.436,0.256,0.87,0.413c0.39,0.13,0.62,0.208,0.692,0.235
				c0.282,0.098,0.508,0.184,0.679,0.255c0.17,0.072,0.353,0.167,0.548,0.286c0.195,0.119,0.345,0.243,0.45,0.373
				c0.105,0.13,0.192,0.292,0.262,0.487c0.069,0.195,0.104,0.415,0.104,0.662c0,0.367-0.07,0.689-0.208,0.964
				c-0.139,0.276-0.327,0.491-0.565,0.645c-0.237,0.154-0.495,0.27-0.773,0.346S99.262,23.841,98.944,23.841z"/>
			<path class="st4" d="M106.114,23.693h-0.571c-0.977-0.009-1.645-0.184-2.006-0.524c-0.361-0.34-0.541-0.961-0.541-1.861v-3.683
				h-1.324v-0.827h1.351v-1.774l1.21-0.356v2.13h1.868v0.827h-1.868v3.75c0,0.247,0.017,0.446,0.05,0.598
				c0.033,0.152,0.086,0.281,0.158,0.386c0.072,0.105,0.186,0.183,0.343,0.232c0.157,0.049,0.333,0.084,0.531,0.104
				c0.197,0.02,0.463,0.03,0.799,0.03V23.693z"/>
		</g>
		<path class="st4" d="M107.302,22.954c-0.261,0-0.47,0.21-0.47,0.471c0,0.259,0.209,0.47,0.47,0.47c0.26,0,0.47-0.211,0.47-0.47
			C107.773,23.164,107.562,22.954,107.302,22.954 M107.302,23.803c-0.209,0-0.378-0.169-0.378-0.378
			c0-0.209,0.169-0.379,0.378-0.379c0.209,0,0.378,0.17,0.378,0.379C107.68,23.633,107.511,23.803,107.302,23.803"/>
		<g>
			<path class="st4" d="M107.14,23.684v-0.52h0.159c0.044,0,0.076,0.004,0.097,0.012c0.027,0.01,0.048,0.027,0.064,0.052
				c0.016,0.025,0.024,0.054,0.024,0.088c0,0.033-0.008,0.063-0.025,0.088c-0.017,0.026-0.04,0.043-0.068,0.052v0.001
				c0.004,0.004,0.009,0.012,0.015,0.024l0.11,0.202h-0.082l-0.11-0.207h-0.111v0.207H107.14z M107.213,23.414h0.104
				c0.028,0,0.051-0.008,0.067-0.025c0.016-0.017,0.025-0.04,0.025-0.069c0-0.038-0.014-0.065-0.041-0.08
				c-0.015-0.008-0.039-0.012-0.071-0.012h-0.084V23.414z"/>
		</g>
	</g>
	<g>
		<g>
			<path class="st1" d="M74.791,54.583c0-0.887,0.236-1.598,0.709-2.134c0.473-0.536,1.082-0.804,1.829-0.804
				c0.244,0,0.469,0.03,0.676,0.089c0.207,0.059,0.371,0.133,0.493,0.222c0.122,0.089,0.229,0.177,0.321,0.266
				c0.092,0.089,0.157,0.163,0.194,0.222l0.044,0.089h0.022c-0.015-0.111-0.022-0.236-0.022-0.377v-2.594h1.075v7.826h-1.02v-0.532
				l0.011-0.377h-0.022c-0.015,0.03-0.035,0.067-0.061,0.111c-0.026,0.044-0.089,0.127-0.188,0.249s-0.214,0.229-0.344,0.321
				c-0.129,0.093-0.305,0.176-0.527,0.249c-0.222,0.074-0.462,0.111-0.72,0.111c-0.754,0-1.354-0.27-1.801-0.809
				C75.015,56.172,74.791,55.463,74.791,54.583z M75.889,54.583c0,0.606,0.146,1.092,0.438,1.458
				c0.292,0.366,0.674,0.549,1.147,0.549c0.458,0,0.842-0.168,1.153-0.504c0.31-0.336,0.466-0.841,0.466-1.513
				c0-0.539-0.139-1.007-0.416-1.402c-0.277-0.395-0.667-0.593-1.169-0.593c-0.458,0-0.843,0.179-1.153,0.538
				C76.044,53.473,75.889,53.963,75.889,54.583z"/>
			<path class="st1" d="M81.041,50.659v-1.097h1.086v1.097H81.041z M81.052,57.388v-5.609h1.075v5.609H81.052z"/>
			<path class="st1" d="M83.767,58.408c0.466,0.251,0.979,0.377,1.541,0.377c0.532,0,0.961-0.127,1.286-0.382
				c0.325-0.255,0.488-0.652,0.488-1.192V56.8l0.011-0.355h-0.022c-0.347,0.584-0.902,0.876-1.663,0.876
				c-0.761,0-1.369-0.272-1.823-0.815c-0.455-0.543-0.682-1.228-0.682-2.056c0-0.828,0.218-1.502,0.654-2.023
				c0.436-0.521,1.034-0.781,1.796-0.781c0.251,0,0.484,0.028,0.698,0.083c0.214,0.055,0.384,0.126,0.51,0.211
				c0.126,0.085,0.233,0.168,0.321,0.249c0.089,0.081,0.148,0.152,0.177,0.211l0.055,0.078h0.022
				c-0.008-0.052-0.011-0.111-0.011-0.177v-0.521h1.031v5.376c0,0.443-0.08,0.835-0.238,1.175c-0.159,0.34-0.375,0.608-0.648,0.804
				c-0.273,0.196-0.573,0.342-0.898,0.438c-0.325,0.096-0.672,0.144-1.042,0.144c-0.673,0-1.312-0.155-1.918-0.466L83.767,58.408z
				 M85.619,56.39c0.436,0,0.793-0.151,1.07-0.454c0.277-0.303,0.416-0.794,0.416-1.474c0-1.256-0.528-1.884-1.585-1.884
				c-0.48,0-0.855,0.165-1.125,0.493c-0.27,0.329-0.405,0.781-0.405,1.358c0,0.591,0.146,1.066,0.438,1.424
				C84.719,56.211,85.116,56.39,85.619,56.39z"/>
			<path class="st1" d="M89.042,50.659v-1.097h1.086v1.097H89.042z M89.053,57.388v-5.609h1.075v5.609H89.053z"/>
			<path class="st1" d="M90.915,54.583c0-0.835,0.283-1.533,0.848-2.095c0.565-0.562,1.284-0.842,2.156-0.842
				c0.414,0,0.796,0.068,1.147,0.205c0.351,0.137,0.6,0.275,0.748,0.416l0.211,0.2l-0.51,0.754
				c-0.044-0.044-0.109-0.103-0.194-0.177c-0.085-0.074-0.262-0.17-0.532-0.288c-0.27-0.118-0.545-0.177-0.826-0.177
				c-0.562,0-1.027,0.188-1.397,0.565c-0.369,0.377-0.554,0.854-0.554,1.43c0,0.576,0.187,1.057,0.56,1.441
				c0.373,0.384,0.848,0.576,1.424,0.576c0.31,0,0.61-0.063,0.898-0.188c0.288-0.126,0.499-0.251,0.632-0.377l0.2-0.188l0.432,0.787
				c-0.022,0.022-0.054,0.054-0.094,0.094c-0.041,0.041-0.131,0.113-0.272,0.216c-0.14,0.104-0.292,0.194-0.455,0.272
				c-0.163,0.078-0.371,0.15-0.626,0.216c-0.255,0.067-0.519,0.1-0.792,0.1c-0.88,0-1.6-0.277-2.162-0.831
				C91.195,56.135,90.915,55.433,90.915,54.583z"/>
			<path class="st1" d="M96.291,54.583c0-0.879,0.264-1.589,0.793-2.128c0.528-0.539,1.199-0.809,2.012-0.809
				c0.761,0,1.356,0.248,1.785,0.743c0.429,0.495,0.643,1.123,0.643,1.884l-0.033,0.466H97.4c0.029,0.591,0.227,1.047,0.593,1.369
				c0.366,0.321,0.811,0.482,1.336,0.482c0.288,0,0.571-0.055,0.848-0.166c0.277-0.111,0.482-0.218,0.615-0.321l0.2-0.166
				l0.443,0.787c-0.059,0.059-0.148,0.133-0.266,0.222c-0.118,0.089-0.366,0.207-0.743,0.355c-0.377,0.148-0.765,0.222-1.164,0.222
				c-0.872,0-1.585-0.279-2.139-0.837C96.568,56.126,96.291,55.426,96.291,54.583z M97.433,53.929h2.993
				c-0.015-0.466-0.15-0.82-0.405-1.064c-0.255-0.244-0.571-0.366-0.948-0.366c-0.421,0-0.781,0.126-1.081,0.377
				C97.694,53.128,97.507,53.479,97.433,53.929z"/>
			<path class="st1" d="M102.298,57.388v-5.609h1.042v0.975l-0.022,0.421h0.022c0.133-0.428,0.356-0.78,0.671-1.053
				c0.314-0.273,0.682-0.41,1.103-0.41l0.277,0.022v1.064c-0.096-0.022-0.2-0.033-0.31-0.033c-0.347,0-0.665,0.118-0.953,0.355
				c-0.288,0.237-0.495,0.558-0.621,0.964c-0.089,0.288-0.133,0.625-0.133,1.009v2.295H102.298z"/>
			<path class="st1" d="M106.767,55.337v-2.616h-0.732v-0.865h0.765v-1.618h1.042v1.618h1.352v0.865h-1.352v2.494
				c0,0.214,0.029,0.401,0.089,0.56c0.059,0.159,0.131,0.283,0.216,0.371c0.085,0.089,0.185,0.159,0.299,0.211
				c0.114,0.052,0.218,0.085,0.31,0.1c0.092,0.015,0.187,0.022,0.283,0.022l0.255-0.022v0.953c-0.104,0.015-0.229,0.022-0.377,0.022
				c-0.177,0-0.347-0.011-0.51-0.033c-0.163-0.022-0.347-0.078-0.554-0.166c-0.207-0.089-0.386-0.205-0.538-0.349
				c-0.152-0.144-0.281-0.349-0.388-0.615C106.821,56.002,106.767,55.692,106.767,55.337z"/>
			<path class="st1" d="M109.889,49.548c-0.451,0-0.812,0.363-0.812,0.813c0,0.447,0.362,0.811,0.812,0.811
				c0.449,0,0.813-0.364,0.813-0.811C110.701,49.911,110.338,49.548,109.889,49.548 M109.889,51.013
				c-0.362,0-0.653-0.293-0.653-0.653c0-0.361,0.291-0.654,0.653-0.654c0.361,0,0.652,0.293,0.652,0.654
				C110.541,50.721,110.25,51.013,109.889,51.013"/>
			<g>
				<path class="st1" d="M109.608,50.808v-0.897h0.275c0.075,0,0.131,0.007,0.168,0.02c0.047,0.017,0.083,0.047,0.111,0.09
					c0.027,0.043,0.041,0.094,0.041,0.153c0,0.058-0.015,0.108-0.044,0.153c-0.029,0.044-0.068,0.074-0.118,0.09v0.003
					c0.007,0.008,0.016,0.021,0.027,0.041l0.191,0.348h-0.142l-0.189-0.357h-0.192v0.357H109.608z M109.734,50.342h0.181
					c0.049,0,0.088-0.015,0.116-0.044c0.028-0.029,0.043-0.069,0.043-0.119c0-0.066-0.024-0.112-0.071-0.139
					c-0.025-0.014-0.067-0.02-0.123-0.02h-0.145V50.342z"/>
			</g>
		</g>
	</g>
	<g>
		<g>
			<path class="st5" d="M23.563,54.732c0,0.842-0.192,1.52-0.577,2.034c-0.385,0.514-0.906,0.772-1.564,0.772
				c-0.671,0-1.199-0.213-1.584-0.639v2.663h-0.945v-7.655h0.864l0.046,0.613c0.385-0.477,0.92-0.715,1.605-0.715
				c0.664,0,1.19,0.25,1.577,0.751c0.387,0.501,0.58,1.198,0.58,2.09V54.732z M22.618,54.625c0-0.624-0.133-1.116-0.399-1.477
				c-0.266-0.361-0.63-0.542-1.094-0.542c-0.572,0-1.002,0.254-1.288,0.762v2.642c0.283,0.504,0.716,0.756,1.298,0.756
				c0.453,0,0.813-0.18,1.081-0.539C22.484,55.868,22.618,55.334,22.618,54.625z"/>
			<path class="st5" d="M24.462,54.62c0-0.542,0.107-1.029,0.319-1.462c0.213-0.433,0.509-0.767,0.889-1.002
				c0.38-0.235,0.813-0.353,1.301-0.353c0.753,0,1.362,0.261,1.827,0.782c0.465,0.521,0.698,1.215,0.698,2.08v0.066
				c0,0.538-0.103,1.021-0.309,1.449c-0.206,0.428-0.501,0.761-0.884,0.999c-0.383,0.239-0.824,0.358-1.321,0.358
				c-0.749,0-1.357-0.261-1.822-0.782c-0.465-0.521-0.698-1.211-0.698-2.07V54.62z M25.412,54.732c0,0.613,0.142,1.106,0.427,1.477
				c0.284,0.371,0.665,0.557,1.142,0.557c0.48,0,0.862-0.188,1.145-0.565c0.283-0.376,0.424-0.904,0.424-1.582
				c0-0.606-0.144-1.098-0.432-1.474c-0.288-0.376-0.67-0.565-1.147-0.565c-0.467,0-0.843,0.186-1.129,0.557
				C25.555,53.509,25.412,54.041,25.412,54.732z"/>
			<path class="st5" d="M35.525,56.133l1.063-4.226h0.945l-1.61,5.529h-0.766l-1.344-4.191l-1.308,4.191h-0.766l-1.605-5.529h0.94
				l1.089,4.139l1.288-4.139h0.762L35.525,56.133z"/>
			<path class="st5" d="M40.736,57.538c-0.75,0-1.359-0.246-1.83-0.738c-0.47-0.492-0.705-1.151-0.705-1.975v-0.174
				c0-0.548,0.105-1.038,0.314-1.469c0.209-0.431,0.502-0.768,0.879-1.012c0.376-0.244,0.785-0.365,1.224-0.365
				c0.719,0,1.278,0.237,1.676,0.71c0.399,0.474,0.598,1.152,0.598,2.034v0.393h-3.746c0.014,0.545,0.173,0.985,0.478,1.321
				c0.305,0.336,0.692,0.503,1.163,0.503c0.334,0,0.617-0.068,0.848-0.204c0.232-0.136,0.434-0.317,0.608-0.542l0.578,0.45
				C42.357,57.182,41.663,57.538,40.736,57.538z M40.618,52.581c-0.382,0-0.702,0.139-0.961,0.416
				c-0.259,0.278-0.419,0.667-0.48,1.168h2.77v-0.072c-0.027-0.48-0.157-0.853-0.388-1.117
				C41.327,52.713,41.014,52.581,40.618,52.581z"/>
			<path class="st5" d="M46.606,52.755c-0.143-0.024-0.298-0.036-0.465-0.036c-0.62,0-1.041,0.264-1.262,0.792v3.925h-0.945v-5.529
				h0.92l0.015,0.639c0.31-0.494,0.75-0.741,1.319-0.741c0.184,0,0.324,0.024,0.419,0.071V52.755z"/>
			<path class="st5" d="M49.718,57.538c-0.75,0-1.359-0.246-1.83-0.738c-0.47-0.492-0.705-1.151-0.705-1.975v-0.174
				c0-0.548,0.105-1.038,0.314-1.469c0.209-0.431,0.502-0.768,0.879-1.012c0.376-0.244,0.785-0.365,1.224-0.365
				c0.719,0,1.278,0.237,1.676,0.71c0.399,0.474,0.598,1.152,0.598,2.034v0.393h-3.746c0.014,0.545,0.173,0.985,0.478,1.321
				c0.305,0.336,0.692,0.503,1.163,0.503c0.334,0,0.617-0.068,0.848-0.204c0.232-0.136,0.434-0.317,0.608-0.542l0.578,0.45
				C51.339,57.182,50.644,57.538,49.718,57.538z M49.6,52.581c-0.382,0-0.702,0.139-0.961,0.416
				c-0.259,0.278-0.419,0.667-0.48,1.168h2.77v-0.072c-0.027-0.48-0.157-0.853-0.388-1.117C50.309,52.713,49.995,52.581,49.6,52.581
				z"/>
			<path class="st5" d="M52.685,54.625c0-0.848,0.201-1.531,0.603-2.047c0.402-0.516,0.928-0.774,1.579-0.774
				c0.647,0,1.16,0.221,1.538,0.664v-2.882h0.945v7.85h-0.869l-0.046-0.593c-0.378,0.463-0.905,0.695-1.579,0.695
				c-0.641,0-1.163-0.262-1.566-0.787c-0.404-0.525-0.606-1.209-0.606-2.054V54.625z M53.631,54.732
				c0,0.627,0.129,1.118,0.388,1.472c0.259,0.354,0.617,0.531,1.073,0.531c0.6,0,1.037-0.269,1.313-0.807v-2.54
				c-0.283-0.521-0.717-0.782-1.303-0.782c-0.463,0-0.825,0.179-1.083,0.537C53.76,53.501,53.631,54.031,53.631,54.732z"/>
			<path class="st5" d="M65.985,54.732c0,0.845-0.194,1.524-0.583,2.037c-0.388,0.513-0.91,0.769-1.564,0.769
				c-0.698,0-1.238-0.247-1.62-0.741l-0.046,0.639h-0.869v-7.85h0.945v2.928c0.381-0.473,0.908-0.71,1.579-0.71
				c0.671,0,1.198,0.254,1.582,0.761c0.383,0.508,0.575,1.203,0.575,2.085V54.732z M65.04,54.625c0-0.644-0.124-1.141-0.373-1.492
				c-0.249-0.351-0.606-0.526-1.073-0.526c-0.624,0-1.072,0.29-1.344,0.869v2.392c0.289,0.579,0.741,0.869,1.354,0.869
				c0.453,0,0.806-0.175,1.058-0.526C64.914,55.858,65.04,55.33,65.04,54.625z"/>
			<path class="st5" d="M68.933,56.051l1.288-4.145h1.012l-2.223,6.383c-0.344,0.92-0.891,1.38-1.64,1.38l-0.179-0.015l-0.353-0.066
				v-0.767l0.256,0.02c0.32,0,0.57-0.065,0.749-0.194c0.179-0.13,0.326-0.366,0.442-0.71l0.21-0.562l-1.973-5.468h1.032
				L68.933,56.051z"/>
		</g>
	</g>
</g>
</svg>
