<?xml version="1.0" encoding="utf-8"?>
<!-- Generator: Adobe Illustrator 22.1.0, SVG Export Plug-In . SVG Version: 6.00 Build 0)  -->
<svg version="1.1" id="Layer_1" xmlns="http://www.w3.org/2000/svg" xmlns:xlink="http://www.w3.org/1999/xlink" x="0px" y="0px"
	 width="100px" height="64.67px" viewBox="0 0 100 64.67" style="enable-background:new 0 0 100 64.67;" xml:space="preserve">
<style type="text/css">
	.st0{fill:#57A34C;}
</style>
<g>
	<g>
		<path class="st0" d="M87.28,19.54v-0.29v-4.69V8.67V8.25L63.02,0h-3.96H50h-9.14h-3.88L12.72,8.25v6.31v6.95h0h28.14H50h9.06
			h28.22h0h4.5L87.28,19.54z M30.65,15.88l-1.39-1.01l-1.39,1.01l0.53-1.63l-1.39-1.01h1.72l0.53-1.63l0.53,1.63h1.72l-1.39,1.01
			L30.65,15.88z M36.35,16.79c1.25,0,1.34-1.49,1.34-2.46h-1.44V13.6h2.25v3.79h-0.67v-0.99h-0.02c-0.19,0.62-0.78,1.13-1.57,1.13
			c-1.9,0-2.23-1.83-2.23-3.79c0-1.84,0.34-3.79,2.35-3.79c2.09,0,2.14,1.79,2.15,2.16h-0.94c-0.04-0.77-0.33-1.43-1.21-1.43
			c-1.25,0-1.41,1.37-1.41,3.05S35.1,16.79,36.35,16.79z M44.29,17.38H40.4V10.1h3.77v0.8H41.3v2.29h2.7v0.8h-2.7v2.61h2.99V17.38z
			 M50,10.89h-1.84v6.49h-0.9v-6.49h-1.83v-0.8H50V10.89z M58.65,17.38h-3.89V10.1h3.77v0.8h-2.87v2.29h2.7v0.8h-2.7v2.61h2.99
			V17.38z M62.61,17.38h-1.14l-1.78-7.29h0.94l1.43,6.26h0.02l1.43-6.26h0.94L62.61,17.38z M69.93,15.88l-1.39-1.01l-1.39,1.01
			l0.53-1.63l-1.39-1.01H68l0.53-1.63l0.53,1.63h1.72l-1.39,1.01L69.93,15.88z M83.64,12.4l-1.46-0.49L62.18,5.1H37.82l-20.01,6.8
			l-1.46,0.49v-1.54l21.11-7.18l0.11-0.04h24.83l0.11,0.04l21.11,7.18V12.4z"/>
		<polygon class="st0" points="12.72,19.54 8.22,21.51 12.72,21.51 12.72,21.51 12.72,19.24 12.72,19.24 		"/>
	</g>
	<g>
		<path class="st0" d="M8.66,36.25H3.76l-0.95,3.01H0l4.8-13.93h2.86l4.77,13.93H9.6L8.66,36.25z M4.46,34.06h3.52l-1.72-5.48H6.19
			L4.46,34.06z"/>
		<path class="st0" d="M16.52,34.21v5.05h-2.8V25.33h5.55c3.22,0,5.17,1.77,5.17,4.44s-1.95,4.43-5.17,4.43H16.52z M16.52,32.05
			h2.75c1.56,0,2.38-0.93,2.38-2.25c0-1.35-0.8-2.32-2.38-2.32h-2.75V32.05z"/>
		<path class="st0" d="M29.3,34.21v5.05h-2.8V25.33h5.55c3.22,0,5.17,1.77,5.17,4.44s-1.95,4.43-5.17,4.43H29.3z M29.3,32.05h2.75
			c1.56,0,2.38-0.93,2.38-2.25c0-1.35-0.8-2.32-2.38-2.32H29.3V32.05z"/>
		<path class="st0" d="M42.07,33.7v5.57h-2.8V25.34h5.26c3.19,0,5.07,1.51,5.07,4.12c0,1.44-0.77,2.46-2.22,3.09
			c1.65,0.49,2.32,1.64,2.32,3.32v1.03c0,0.79,0.18,1.74,0.69,2.16v0.2h-2.88c-0.51-0.41-0.61-1.53-0.61-2.38v-0.99
			c0-1.39-0.79-2.2-2.18-2.2L42.07,33.7z M42.07,31.54h2.41c1.58,0,2.34-0.67,2.34-1.98c0-1.29-0.78-2.08-2.29-2.08h-2.47V31.54z"/>
		<path class="st0" d="M63.44,33.57c0,3.43-2.36,5.91-5.84,5.91c-3.45,0-5.78-2.48-5.78-5.91v-2.51c0-3.42,2.33-5.91,5.77-5.91
			c3.48,0,5.85,2.49,5.85,5.91V33.57z M60.66,31.04c0-2.18-1.14-3.71-3.06-3.71c-1.91,0-2.99,1.52-2.99,3.71v2.53
			c0,2.21,1.11,3.74,3,3.74c1.92,0,3.05-1.53,3.05-3.74V31.04z"/>
		<path class="st0" d="M70.35,35.56l0.17,0.75h0.06l0.16-0.74l3.03-10.24h2.95l-4.73,13.93h-2.87l-4.73-13.93h2.96L70.35,35.56z"/>
		<path class="st0" d="M86.67,33.13h-5.77v3.98h6.75v2.15h-9.55V25.33h9.53v2.15h-6.73v3.5h5.77V33.13z"/>
		<path class="st0" d="M89.34,39.26V25.33h4.79c3.43,0,5.87,2.38,5.87,5.82v2.31c0,3.43-2.44,5.81-5.87,5.81H89.34z M92.14,27.47
			v9.63h1.85c2.01,0,3.2-1.47,3.2-3.66v-2.33c0-2.17-1.19-3.65-3.2-3.65H92.14z"/>
	</g>
	<g>
		<path class="st0" d="M87.28,43.16L87.28,43.16H59.14H50h-9.06H12.72h0h-4.5l4.5,1.97v0.29h0v4.18v6.82l24.26,8.25h3.96H50h9.14
			h3.88l24.26-8.25v-4.14v-2.16v-4.69h0v-0.29l4.5-1.97H87.28L87.28,43.16z M68,49.69l0.53-1.63l0.53,1.63h1.72L69.4,50.7l0.53,1.63
			l-1.39-1.01l-1.39,1.01l0.53-1.63l-1.39-1.01H68z M60.05,47.23l1.39,3.41l1.44-3.41h0.94l-1.93,4.43v2.86h-0.9v-2.86l-1.93-4.43
			H60.05z M55.26,47.23h0.9v6.49h2.96v0.8h-3.86V47.23z M52.36,47.23h0.9v7.29h-0.9V47.23z M46.25,49.1c0-0.67,0.29-2.01,2.13-2.01
			c1.39,0,2.02,0.69,2.04,2.03h-0.9c0-0.77-0.28-1.3-1.13-1.3c-0.76,0-1.2,0.41-1.2,1.18c0,2.05,3.44,0.83,3.44,3.49
			c0,1.68-1.23,2.16-2.27,2.16c-1.7,0-2.2-0.88-2.2-2.43h0.9c0,0.82,0.05,1.69,1.37,1.69c0.71,0,1.27-0.51,1.27-1.29
			C49.69,50.58,46.25,51.77,46.25,49.1z M41.94,47.23h1.2l1.96,7.29h-0.94l-0.52-2h-2.33l-0.54,2h-0.94L41.94,47.23z M34.97,47.23
			h3.77v0.8h-2.87v2.29h2.7v0.8h-2.7v2.61h2.99v0.8h-3.89V47.23z M28.73,49.69l0.53-1.63l0.53,1.63h1.72l-1.39,1.01l0.53,1.63
			l-1.39-1.01l-1.39,1.01l0.53-1.63l-1.39-1.01H28.73z M83.64,53.81l-21.11,7.18l-0.11,0.04H37.58l-0.11-0.04l-21.11-7.18v-1.54
			l1.46,0.49l20.01,6.8h0h24.35l20.01-6.8l1.46-0.49V53.81z"/>
		<polygon class="st0" points="42.54,48.26 42.52,48.26 41.51,51.78 43.46,51.78 		"/>
	</g>
</g>
</svg>
