<?xml version="1.0" encoding="utf-8"?>
<!-- Generator: Adobe Illustrator 22.1.0, SVG Export Plug-In . SVG Version: 6.00 Build 0)  -->
<svg version="1.1" id="Layer_1" xmlns="http://www.w3.org/2000/svg" xmlns:xlink="http://www.w3.org/1999/xlink" x="0px" y="0px"
	 width="24px" height="24px" viewBox="0 0 24 24" style="enable-background:new 0 0 24 24;" xml:space="preserve">
<style type="text/css">
	.st0{fill:#007C85;}
	.st1{fill:#F5F5F5;}
</style>
<g>
	<circle class="st0" cx="12" cy="12" r="12"/>
	<path class="st1" d="M10.9,14.7c-3.4,0-6.7,1-9.5,3c2,3.8,6,4.8,10.6,4.8c4.1,0,7.8-0.5,9.9-3.6C18.9,16.1,15,14.7,10.9,14.7z"/>
	<path d="M10.9,15.2c-3.4,0-6.6,1.1-9.3,2.9C3.8,21.6,7.6,24,12,24c3.9,0,7.4-1.9,9.6-4.8C18.7,16.7,15,15.2,10.9,15.2z"/>
	<path class="st1" d="M10.1,16.5H9.8c-0.4,0-0.7-0.1-1-0.3C8.5,16,8.4,15.6,8.4,15V8.6l6.3,7.1c0.5,0.1,1,0.3,1.6,0.4V8.6
		c0-0.5,0-0.8,0.1-1s0.2-0.3,0.4-0.4c0.2-0.1,0.5-0.2,1-0.2V6.6H14v0.3c0.6,0,1.1,0.1,1.3,0.4c0.2,0.2,0.3,0.6,0.3,1.2v4.4l-5.5-6.3
		h-4v0.3c0.3,0,0.6,0.1,0.8,0.1c0.2,0.1,0.4,0.3,0.6,0.5l0.2,0.3V15c0,0.5-0.1,0.9-0.4,1.1c-0.2,0.2-0.7,0.3-1.3,0.3v0.3h4
		L10.1,16.5L10.1,16.5z"/>
</g>
</svg>
