<?xml version="1.0" encoding="utf-8"?>
<!-- Generator: Adobe Illustrator 22.1.0, SVG Export Plug-In . SVG Version: 6.00 Build 0)  -->
<svg version="1.1" id="Layer_1" xmlns="http://www.w3.org/2000/svg" xmlns:xlink="http://www.w3.org/1999/xlink" x="0px" y="0px"
	 width="56.25px" height="60px" viewBox="0 0 56.25 60" style="enable-background:new 0 0 56.25 60;" xml:space="preserve">
<style type="text/css">
	.st0{fill:#E12F35;}
</style>
<path class="st0" d="M44.23,4.69C39.73,1.69,34.29,0,28.1,0c-5.63,0-10.69,1.31-15,3.94C5.04,8.81-0.02,18-0.02,29.62
	C-0.02,45.56,11.23,60,28.1,60s28.12-14.44,28.12-30.38C56.23,18.56,51.73,9.75,44.23,4.69z M28.1,5.44c9,0,11.25,12.56,11.25,24
	c0,10.5-1.31,24.75-11.06,24.75S16.85,39.94,16.85,29.25C16.85,18,19.1,5.44,28.1,5.44z"/>
</svg>
