<?xml version="1.0" encoding="utf-8"?>
<!-- Generator: Adobe Illustrator 22.1.0, SVG Export Plug-In . SVG Version: 6.00 Build 0)  -->
<svg version="1.1" id="Layer_1" xmlns="http://www.w3.org/2000/svg" xmlns:xlink="http://www.w3.org/1999/xlink" x="0px" y="0px"
	 width="38.93px" height="16px" viewBox="0 0 38.93 16" style="enable-background:new 0 0 38.93 16;" xml:space="preserve">
<style type="text/css">
	.st0{fill:#F07725;}
</style>
<g>
	<path class="st0" d="M31.57,0.85c-1.23-0.31-2.75-0.7-4.53-0.17c-1.78,0.54-2.03,1.06-2.47,1.43c-0.48,0.41-1.3,0.84-1.6,0.2
		C22.34,0.97,21.03,0,19.46,0s-2.87,0.97-3.5,2.31c-0.3,0.65-1.12,0.21-1.6-0.2c-0.44-0.37-0.69-0.89-2.47-1.43S8.58,0.54,7.36,0.85
		C3.27,0.96,0,4.31,0,8.42C0,12.61,3.39,16,7.58,16c3.04,0,5.66-1.8,6.86-4.38c2.29-0.5,3.94-2.23,4.02-4.13
		c0.32,0.09,0.66,0.14,1,0.14c0.35,0,0.69-0.05,1-0.14c0.08,1.9,1.73,3.63,4.02,4.13C25.69,14.2,28.31,16,31.35,16
		c4.18,0,7.58-3.39,7.58-7.58C38.93,4.31,35.65,0.96,31.57,0.85z M7.58,14.37c-3.28,0-5.95-2.67-5.95-5.95S4.3,2.48,7.58,2.48
		s5.95,2.67,5.95,5.95S10.86,14.37,7.58,14.37z M19.46,5.67c-1.02,0-1.85-0.83-1.85-1.85s0.83-1.85,1.85-1.85
		c1.02,0,1.85,0.83,1.85,1.85S20.48,5.66,19.46,5.67z M31.35,14.37c-3.28,0-5.95-2.67-5.95-5.95s2.67-5.95,5.95-5.95
		s5.95,2.67,5.95,5.95S34.63,14.37,31.35,14.37z"/>
</g>
</svg>
