<?xml version="1.0" encoding="utf-8"?>
<!-- Generator: Adobe Illustrator 22.1.0, SVG Export Plug-In . SVG Version: 6.00 Build 0)  -->
<svg version="1.1" id="Layer_1" xmlns="http://www.w3.org/2000/svg" xmlns:xlink="http://www.w3.org/1999/xlink" x="0px" y="0px"
	 width="60px" height="58.12px" viewBox="0 0 60 58.12" style="enable-background:new 0 0 60 58.12;" xml:space="preserve">
<style type="text/css">
	.st0{fill:#2394BC;}
	.st1{fill:#EC8840;}
</style>
<g>
	<path class="st0" d="M30,0c15.53,0,28.12,12.59,28.12,28.12c0,15.53-12.59,28.12-28.12,28.12S1.87,43.65,1.87,28.12
		C1.87,12.59,14.47,0,30,0z"/>
	<path class="st1" d="M34.81,57.7C49.08,55.4,60,43.05,60,28.12l-0.27,0.34c0.43-2.84,0.35-5.36-0.23-7.57
		c-0.21,1.63-0.44,2.62-0.67,3.01c0-0.13-0.03-1.83-0.58-4.21c-0.26-1.73-0.63-3.36-1.15-4.87c0.13,0.69,0.2,1.27,0.24,1.79
		c-2.18-5.85-7.54-13.04-20.76-12.88c0,0,4.65,0.49,6.84,3.8c0,0-2.24-0.53-3.93,0.28c2.06,0.82,3.85,1.68,5.37,2.58l0.13,0.08
		c0.39,0.23,0.72,0.47,1.07,0.71c2.81,1.97,5.41,4.79,5.22,8.42c-0.61-0.96-1.41-1.58-2.44-1.9c1.27,4.99,1.4,9.11,0.37,12.36
		c-0.71-2.16-1.36-3.46-1.94-3.92c0.81,6.69-0.28,11.63-3.26,14.85c0.57-1.97,0.79-3.58,0.66-4.85c-3.5,5.29-7.48,8.03-11.95,8.2
		c-1.76-0.01-3.43-0.28-5-0.8c-2.3-0.78-4.39-2.11-6.24-3.99c2.89,0.24,5.54-0.26,7.87-1.45l3.81-2.5l-0.01-0.01
		c0.49-0.19,0.96-0.17,1.41,0.04c0.93-0.13,1.26-0.63,0.94-1.47c-0.45-0.63-1.13-1.19-2-1.69c-1.91-1-3.9-0.84-5.98,0.49
		c-1.98,1.12-3.88,1.08-5.73-0.12c-1.21-0.84-2.38-1.97-3.52-3.38l-0.45-0.67c-0.21,1.6,0.03,3.65,0.75,6.17l0.02,0.03l-0.02-0.03
		c-0.72-2.52-0.96-4.58-0.75-6.17V28.8c0.05-1.39,0.63-2.16,1.73-2.34l-0.47-0.04l0.47,0.04c1.24,0.11,2.67,0.4,4.28,0.87
		c0.27-1.55-0.08-3.18-1.06-4.84v-0.03c1.51-1.41,2.85-2.44,4-3.09c0.51-0.27,0.8-0.68,0.9-1.24l0.04-0.03l0.01-0.01l0.06-0.05
		c0.3-0.44,0.2-0.8-0.31-1.11c-1.06,0.06-2.12-0.02-3.18-0.23l-0.02,0.04c-0.44-0.13-0.99-0.52-1.67-1.17l-1.74-1.71l-0.52-0.41
		v0.05h-0.02l0.02-0.07l-0.1-0.1l0.14-0.1c0.24-1.3,0.64-2.41,1.2-3.37l0.13-0.11c0.57-0.94,1.65-1.95,3.25-3.03
		c-2.97,0.37-5.65,1.71-8.03,4.02c-1.98-0.73-4.32-0.57-7.02,0.47l-0.32,0.25l-0.02,0.01l0.35-0.26l0.01-0.01
		C8.24,10.41,7.1,8.17,6.55,4.5c-2.16,2.14-3.21,5.96-3.14,11.47l-0.62,0.94l-0.16,0.11L2.6,17.05l-0.01,0.01l-0.03,0.06
		c-0.33,0.51-0.78,1.29-1.35,2.33c-0.82,1.47-1.09,2.71-1.18,3.79l-0.01,0.01l0,0.04L0,23.58l0.05-0.07
		c0.01,0.25,0.01,0.5,0.07,0.73l1.75-1.44c-0.64,1.61-1.06,3.32-1.27,5.13l-0.05,0.83L0,28.12c0,6.43,2.04,12.37,5.48,17.25
		l0.1,0.16l0.16,0.2c2.47,3.4,5.64,6.26,9.3,8.37c2.63,1.56,5.46,2.65,8.47,3.3l0.62,0.14c0.62,0.12,1.26,0.21,1.9,0.29
		c0.47,0.06,0.95,0.12,1.43,0.16l0.64,0.07l0.91,0.01L30,58.12l0.78-0.04l1.29-0.06c0.77-0.05,1.52-0.14,2.27-0.25
		C34.35,57.77,34.81,57.7,34.81,57.7z M17.17,26.3L17.17,26.3z M53.78,21.16l-0.01,0.25L53.78,21.16L53.78,21.16z"/>
</g>
</svg>
