<?xml version="1.0" encoding="utf-8"?>
<!-- Generator: Adobe Illustrator 22.1.0, SVG Export Plug-In . SVG Version: 6.00 Build 0)  -->
<svg version="1.1" id="Layer_1" xmlns="http://www.w3.org/2000/svg" xmlns:xlink="http://www.w3.org/1999/xlink" x="0px" y="0px"
	 width="60px" height="60px" viewBox="0 0 60 60" style="enable-background:new 0 0 60 60;" xml:space="preserve">
<style type="text/css">
	.st0{fill:#4AAE48;}
	.st1{fill:#EA3939;}
	.st2{fill:#FED14B;}
	.st3{fill:#188FD1;}
</style>
<g>
	<path class="st0" d="M30,45.35c-3.05,0-5.82-0.82-8.32-2.46c-2.5-1.64-4.38-3.75-5.63-6.33L3.75,15C1.17,19.61,0,24.77,0,30
		c0,7.5,2.44,14.04,7.32,19.63s10.96,8.92,18.22,10.02l8.7-15.06C33.37,44.85,31.91,45.35,30,45.35z"/>
	<path class="st1" d="M20.57,17.87C23.34,15.72,26.48,15,30,15c0.47,0,25.78,0,25.78,0c-2.66-4.53-6.27-8.36-10.84-11.02
		C40.37,1.33,35.39,0,30,0c-4.69,0-9.06,1-13.13,2.99C12.81,4.98,9.05,7.88,6.3,11.6L15,26.25C15.86,22.89,17.79,20.02,20.57,17.87z
		"/>
	<path class="st2" d="M57.74,18.75H40.31c3.05,3.05,5.04,6.95,5.04,11.25c0,3.2-0.9,6.13-2.7,8.79L30.35,60
		c8.2-0.08,15.2-3.05,20.98-8.91C57.11,45.23,60,38.2,60,30C60,26.17,59.35,22.15,57.74,18.75z"/>
	<circle class="st3" cx="30" cy="30" r="11.25"/>
</g>
</svg>
