<?xml version="1.0" encoding="utf-8"?>
<!-- Generator: Adobe Illustrator 22.1.0, SVG Export Plug-In . SVG Version: 6.00 Build 0)  -->
<svg version="1.1" id="Layer_1" xmlns="http://www.w3.org/2000/svg" xmlns:xlink="http://www.w3.org/1999/xlink" x="0px" y="0px"
	 width="56.24px" height="60px" viewBox="0 0 56.24 60" style="enable-background:new 0 0 56.24 60;" xml:space="preserve">
<style type="text/css">
	.st0{fill:#FFFFFF;}
	.st1{fill:#188FD1;}
	.st2{fill:#1373A8;}
	.st3{fill:#EA3939;}
</style>
<g>
	<path class="st0" d="M28.8,4.51c-0.74,0-1.78,0-2.67-0.15c0.74-0.44,1.04-1.48,0.89-2.37c-0.15-1.33-2.08-2.22-3.56-1.93
		c-1.78,0.44-2.97,1.78-2.67,2.97c0.3,0.74,0.74,1.33,1.19,1.63C9.66,7.32,0.47,18,0.02,30.91c-0.59,15.28,11.42,28.48,27.14,29.07
		c15.28,0.59,28.48-11.42,29.07-27.14C56.09,17.86,43.78,4.95,28.8,4.51z M33.54,53.75l-2.97-5.64l-0.44,6.23
		c-1.04,0.3-2.08,0.3-3.11,0.3c-10.09-0.3-18.39-7.71-20.76-17.06l5.78-2.67l-6.23-0.74c0-0.74-0.15-1.63-0.15-2.37
		c0.3-10.38,8.01-18.99,17.65-20.91l2.67,5.49l1.04-5.93c0.59,0,1.04,0,1.63,0c9.64,0.3,17.65,6.82,20.32,15.57l-5.64,2.97
		l6.53,0.74c0.15,1.33,0.15,2.37,0.15,3.71C49.56,43.22,42.44,51.23,33.54,53.75z"/>
	<path class="st1" d="M26.57,27.5c-2.08,0.74-3.56,3.56-2.82,5.64c0,0,0,0,0,0.3l2.22-3.11l3.41-2.67
		C28.5,27.05,27.46,27.05,26.57,27.5z"/>
	<path class="st1" d="M29.54,35.95c2.08-0.74,3.41-2.67,2.97-5.04l-2.22,2.97l-2.67,2.22C28.2,36.25,28.65,35.95,29.54,35.95z"/>
	<path class="st1" d="M43.03,28.83l5.64-2.97c-2.52-8.6-10.68-15.13-20.32-15.57c-0.59,0-1.04,0-1.63,0l-1.04,5.93l-2.67-5.49
		c-9.64,1.93-17.2,10.39-17.65,20.92c0,0.74,0,1.63,0.15,2.37l6.23,0.74l-5.78,2.67c2.22,9.49,10.53,16.76,20.76,17.06
		c1.04,0,2.08,0,3.11-0.15l0.44-6.23l2.97,5.64c9.2-2.52,16.02-10.68,16.32-20.47c0-1.33,0.15-2.67-0.15-3.71L43.03,28.83z
		 M38.44,26.46l-4.89,4.3c0.3,0.59,0.15,1.33,0.15,2.08l2.82,1.63l-3.11,0.15c-0.3,0.74-0.89,1.48-1.33,2.08l1.93,6.08l-4.3-4.89
		c-1.33,0.15-2.67,0.15-3.56-0.44l-11.72,9.2l7.12-9.64l-3.56,0.89l4.6-4.3c-0.3-0.74-0.15-1.63-0.15-2.37l-2.82-1.63l3.11,0.15v0.3
		c0.59-0.74,0.89-1.48,1.63-2.22l-1.93-6.08l4.3,4.89c1.33-0.15,2.67-0.15,3.56,0.44L42,17.86l-7.12,9.64L38.44,26.46z"/>
	<path class="st2" d="M29.54,35.95c-0.59,0.3-1.33,0.15-1.78,0.15l-1.63,1.19c1.04,0.59,2.37,0.59,3.56,0.44l4.3,4.89l-1.93-6.08
		c0.59-0.44,1.04-1.33,1.33-2.08l3.11-0.15l-2.82-1.63c0-0.74,0-1.63-0.15-2.08l4.89-4.3l-3.41,0.89l-2.52,3.71
		C32.95,33.28,31.61,35.21,29.54,35.95z"/>
	<path class="st2" d="M23.9,33.13c-0.74-2.08,0.74-4.89,2.82-5.64c1.04-0.3,1.78-0.15,2.82,0.15l0.74-0.74
		c-1.04-0.59-2.37-0.59-3.56-0.44l-4.3-4.75l1.93,6.08c-0.74,0.74-1.04,1.48-1.63,2.22v-0.3l-3.11-0.15l2.82,1.63
		c0,0.74,0,1.63,0.15,2.37l-4.6,4.3l3.41-0.89L23.9,33.13L23.9,33.13z"/>
	<polygon class="st3" points="30.28,26.9 29.24,27.64 25.98,30.31 30.28,33.87 32.21,30.91 35.02,27.35 42.14,17.71 	"/>
	<polygon class="st0" points="30.28,33.87 25.98,30.31 23.9,33.13 21.08,36.69 14.26,46.63 25.83,37.14 27.46,35.95 	"/>
</g>
</svg>
