<?xml version="1.0" encoding="utf-8"?>
<!-- Generator: Adobe Illustrator 22.1.0, SVG Export Plug-In . SVG Version: 6.00 Build 0)  -->
<svg version="1.1" id="Layer_1" xmlns="http://www.w3.org/2000/svg" xmlns:xlink="http://www.w3.org/1999/xlink" x="0px" y="0px"
	 width="24px" height="24px" viewBox="0 0 24 24" style="enable-background:new 0 0 24 24;" xml:space="preserve">
<style type="text/css">
	.st0{fill:#FFFFFF;}
</style>
<g>
	<g>
		<circle cx="12" cy="12" r="12"/>
	</g>
	<g>
		<g>
			<g>
				<path class="st0" d="M19.7,13.3c-0.6,0-1,0.5-1,1s0.5,1,1,1s1-0.5,1-1C20.7,13.8,20.3,13.3,19.7,13.3z M5.9,8.5l-2.7,6.8h1.8
					l0.4-1h2.3l0.3,1h1.8L7.3,8.6L5.9,8.5L5.9,8.5z M5.9,13l0.7-2.4L7.3,13H5.9z M16.3,15.3h1.5V8.5h-1.5V15.3z M12.8,10.1
					c-1.8,0-2.7,1.5-2.7,2.7s0.9,2.7,2.7,2.7s2.7-1.5,2.7-2.7C15.5,11.5,14.6,10.1,12.8,10.1z M12.8,14c-0.7,0-1.2-0.5-1.2-1.3
					c0-0.7,0.6-1.3,1.2-1.3S14,12,14,12.8C14,13.5,13.4,14,12.8,14z"/>
			</g>
		</g>
	</g>
</g>
</svg>
