<?xml version="1.0" encoding="utf-8"?>
<!-- Generator: Adobe Illustrator 22.1.0, SVG Export Plug-In . SVG Version: 6.00 Build 0)  -->
<svg version="1.1" id="Layer_1" xmlns="http://www.w3.org/2000/svg" xmlns:xlink="http://www.w3.org/1999/xlink" x="0px" y="0px"
	 width="54.79px" height="60px" viewBox="0 0 54.79 60" style="enable-background:new 0 0 54.79 60;" xml:space="preserve">
<style type="text/css">
	.st0{fill:#188FD1;}
</style>
<path class="st0" d="M52.57,1.43C47.88-2.53,37.62,2.6,32.05,6.12c-1.76-0.15-3.37-0.44-5.13-0.29C19.6,5.98,13.88,8.32,9.48,12.57
	C4.5,17.26,1.86,23.42,2.01,30.6v0.29C8.9,19.61,19.6,13.6,22.38,11.99c0.44-0.29,0.73,0.29,0.29,0.44
	C17.98,15.5,9.04,24.15,3.62,36.61l0,0c-3.37,7.77-6.16,18.76,0.15,22.43c4.84,2.78,13.19-0.88,20.08-5.57
	c1.76,0.15,3.37,0.15,5.28,0.15c12.75-0.29,21.25-7.62,24.33-17.74l-17.3,0.44c-0.59,3.66-2.93,5.57-6.89,5.72
	c-4.84,0.15-8.21-2.35-8.35-8.5l32.98-0.88c0-1.17,0-2.2-0.15-3.08C53.45,18.29,46.42,9.49,35.28,7c4.54-3.08,12.75-7.33,17-4.1
	c3.22,2.35,1.61,7.62,1.03,9.82c-0.29,0.44,0.44,0.73,0.73,0.29C54.63,8.32,55.94,4.07,52.57,1.43z M22.23,52.88
	c-5.28,3.22-12.61,5.86-16.27,3.37c-2.64-1.91-1.61-7.48,0.59-12.75c1.47,2.05,3.22,3.96,5.42,5.57
	C14.91,50.97,18.28,52.29,22.23,52.88z M35.57,25.32l-15.39,0.44c-0.15-5.28,3.66-7.62,7.77-7.62
	C32.05,17.7,35.42,20.05,35.57,25.32z"/>
</svg>
