<?xml version="1.0" encoding="utf-8"?>
<!-- Generator: Adobe Illustrator 22.1.0, SVG Export Plug-In . SVG Version: 6.00 Build 0)  -->
<svg version="1.1" id="Layer_1" xmlns="http://www.w3.org/2000/svg" xmlns:xlink="http://www.w3.org/1999/xlink" x="0px" y="0px"
	 width="69.16px" height="60px" viewBox="0 0 69.16 60" style="enable-background:new 0 0 69.16 60;" xml:space="preserve">
<style type="text/css">
	.st0{fill:#F07725;}
	.st1{fill:#29306B;}
	.st2{fill:#52A346;}
	.st3{fill:#FFFFFF;}
</style>
<g>
	<g>
		<path class="st0" d="M16.25,17.02c0.31,1.27,1.17,2.15,1.96,2c0.79,2.57,1.77,4.56,2.06,4.98c1.07,1.58,4.89,4,7.29,4
			c2.4,0,6.42-2.42,7.5-4c0.28-0.42,1.3-2.41,2.13-4.97c0.77,0.13,1.63-0.75,1.93-2c0.3-1.25-0.06-2.4-0.8-2.65
			c0.08-0.54,0.13-1.08,0.14-1.61c0.33-3.01-0.08-6.19-1.57-8.36c-2.41-3.51-7.2-3.95-9.47-3.83c0.4-0.17,1.26-0.41,2.23-0.37
			c-4.17-0.72-5.79,0.67-7.79,2.06C20.43,2.13,18.54,3.31,18,4.26c0.46-0.41,0.99-0.77,1.46-0.93c-2.31,1.35-2.87,3.74-2.91,4.02
			c-0.32,2-0.08,4.51,0.46,7.02C16.3,14.66,15.96,15.79,16.25,17.02"/>
		<polygon class="st1" points="27.69,49.2 30.82,44.66 28.78,37.03 30.21,34.8 27.69,32.38 25.11,34.8 26.55,37.03 24.5,44.66 		"/>
		<path class="st1" d="M50.53,37.9c-1.37-1.22-4.88-3.61-15.32-8.96l-2.36,16.04l-5.16,7.39l-5.25-7.39l-2.4-16.01
			C9.74,34.25,6.15,36.69,4.79,37.9C2.55,39.87,1.23,46.25,0,53.5h26.9h1.6h26.82C54.2,47.4,52.77,39.87,50.53,37.9"/>
	</g>
	<g>
		<g>
			<path class="st2" d="M54.49,59.05c-1.09,0-2.15-0.44-2.92-1.21l-5.74-5.74c-0.78-0.78-1.21-1.82-1.21-2.92
				c0-1.1,0.43-2.14,1.21-2.92c0.78-0.78,1.82-1.21,2.92-1.21c1.1,0,2.14,0.43,2.92,1.21l1.93,1.93l6.88-11.91
				c0.74-1.27,2.11-2.07,3.58-2.07c0.72,0,1.44,0.19,2.06,0.55c0.96,0.55,1.64,1.44,1.93,2.51c0.29,1.07,0.14,2.18-0.41,3.14
				l-9.58,16.58c-0.64,1.1-1.77,1.86-3.04,2.03C54.85,59.03,54.67,59.05,54.49,59.05z"/>
			<path class="st3" d="M64.07,35.16c0.54,0,1.09,0.14,1.59,0.43c1.52,0.88,2.04,2.82,1.16,4.34L57.24,56.5
				c-0.49,0.86-1.36,1.43-2.34,1.56c-0.14,0.02-0.28,0.03-0.41,0.03c-0.84,0-1.65-0.33-2.25-0.93l-5.73-5.74
				c-1.24-1.24-1.24-3.25,0-4.5c0.62-0.62,1.43-0.93,2.25-0.93s1.63,0.31,2.25,0.93l2.81,2.81l7.5-12.99
				C61.9,35.73,62.97,35.16,64.07,35.16 M64.07,33.25c-1.81,0-3.5,0.97-4.41,2.54L53.4,46.63l-1.05-1.05
				c-0.96-0.96-2.24-1.49-3.6-1.49c-1.36,0-2.64,0.53-3.6,1.49c-0.96,0.96-1.49,2.24-1.49,3.6s0.53,2.64,1.49,3.6l5.73,5.74
				c0.95,0.95,2.26,1.49,3.6,1.49c0.22,0,0.44-0.01,0.66-0.04c1.56-0.21,2.96-1.14,3.74-2.5l9.58-16.58
				c0.68-1.18,0.86-2.55,0.51-3.86c-0.35-1.31-1.19-2.41-2.37-3.09C65.84,33.49,64.96,33.25,64.07,33.25L64.07,33.25z"/>
		</g>
	</g>
</g>
</svg>
