<?xml version="1.0" encoding="utf-8"?>
<!-- Generator: Adobe Illustrator 22.0.1, SVG Export Plug-In . SVG Version: 6.00 Build 0)  -->
<svg version="1.1" id="Layer_1" xmlns="http://www.w3.org/2000/svg" xmlns:xlink="http://www.w3.org/1999/xlink" x="0px" y="0px"
	 width="14px" height="14px" viewBox="0 0 14 14" style="enable-background:new 0 0 14 14;" xml:space="preserve">
<style type="text/css">
	.st0{fill:#EC1C24;}
</style>
<path class="st0" d="M10.2,7.03l3.15-3.14c0.86-0.86,0.93-2.37,0.07-3.23L13.35,0.6c-0.86-0.86-2.32-0.75-3.18,0.11L7.02,3.86
	L3.86,0.7C3-0.15,1.54-0.27,0.68,0.59L0.61,0.66c-0.86,0.86-0.79,2.37,0.07,3.23l3.15,3.14L0.67,10.2c-0.86,0.86-0.86,2.25,0,3.11
	l0.07,0.07c0.86,0.86,2.45,0.85,3.3-0.19l2.99-2.98L10,13.19c0.85,1.04,2.44,1.05,3.3,0.19l0.07-0.07c0.86-0.86,0.86-2.25,0-3.11
	L10.2,7.03z"/>
</svg>
