<?xml version="1.0" encoding="utf-8"?>
<!-- Generator: Adobe Illustrator 22.1.0, SVG Export Plug-In . SVG Version: 6.00 Build 0)  -->
<svg version="1.1" id="Layer_1" xmlns="http://www.w3.org/2000/svg" xmlns:xlink="http://www.w3.org/1999/xlink" x="0px" y="0px"
	 width="46.29px" height="60px" viewBox="0 0 46.29 60" style="enable-background:new 0 0 46.29 60;" xml:space="preserve">
<style type="text/css">
	.st0{fill:#29306C;}
	.st1{fill:#FFFFFF;}
	.st2{clip-path:url(#SVGID_2_);fill:#E9EAF0;}
	.st3{fill:#52A346;}
</style>
<g>
	<g>
		<path class="st0" d="M28.56,0H8.91H1.32C0.59,0,0,0.59,0,1.32v53.36C0,55.41,0.59,56,1.32,56h27.25c0.73,0,1.32-0.59,1.32-1.32
			v-2.25V1.32C29.88,0.59,29.29,0,28.56,0z M14.94,54.37c-0.92,0-1.66-0.74-1.66-1.66s0.74-1.66,1.66-1.66
			c0.92,0,1.66,0.74,1.66,1.66S15.86,54.37,14.94,54.37z M17.65,3.18h-5.41c-0.32,0-0.58-0.26-0.58-0.58c0-0.32,0.26-0.58,0.58-0.58
			h5.41c0.32,0,0.58,0.26,0.58,0.58C18.22,2.93,17.96,3.18,17.65,3.18z"/>
		<rect x="4.21" y="4.72" class="st1" width="21.33" height="44.8"/>
		<g>
			<defs>
				<rect id="SVGID_1_" x="4.21" y="4.72" width="21.33" height="44.8"/>
			</defs>
			<clipPath id="SVGID_2_">
				<use xlink:href="#SVGID_1_"  style="overflow:visible;"/>
			</clipPath>
			<path class="st2" d="M26.63,0.66H8.92L29.6,52.48V3.62C29.6,1.99,28.27,0.66,26.63,0.66z"/>
		</g>
	</g>
	<g>
		<g>
			<path class="st3" d="M31.63,59.05c-1.09,0-2.15-0.44-2.92-1.21l-5.74-5.74c-0.78-0.78-1.21-1.82-1.21-2.92
				c0-1.1,0.43-2.14,1.21-2.92c0.78-0.78,1.82-1.21,2.92-1.21c1.1,0,2.14,0.43,2.92,1.21l1.93,1.93l6.88-11.91
				c0.74-1.27,2.11-2.07,3.58-2.07c0.72,0,1.44,0.19,2.06,0.55c0.96,0.55,1.64,1.44,1.93,2.51c0.29,1.07,0.14,2.18-0.41,3.14
				l-9.58,16.58c-0.64,1.1-1.77,1.86-3.04,2.03C31.99,59.03,31.81,59.05,31.63,59.05z"/>
			<path class="st1" d="M41.21,35.16c0.54,0,1.09,0.14,1.59,0.43c1.52,0.88,2.04,2.82,1.16,4.34L34.38,56.5
				c-0.49,0.86-1.36,1.43-2.34,1.56c-0.14,0.02-0.28,0.03-0.41,0.03c-0.84,0-1.65-0.33-2.25-0.93l-5.73-5.74
				c-1.24-1.24-1.24-3.25,0-4.5c0.62-0.62,1.43-0.93,2.25-0.93c0.81,0,1.63,0.31,2.25,0.93l2.81,2.81l7.5-12.99
				C39.04,35.73,40.11,35.16,41.21,35.16 M41.21,33.25c-1.81,0-3.5,0.97-4.41,2.54l-6.26,10.84l-1.05-1.05
				c-0.96-0.96-2.24-1.49-3.6-1.49c-1.36,0-2.64,0.53-3.6,1.49c-0.96,0.96-1.49,2.24-1.49,3.6s0.53,2.64,1.49,3.6l5.73,5.74
				c0.95,0.95,2.26,1.49,3.6,1.49c0.22,0,0.44-0.01,0.66-0.04c1.56-0.21,2.96-1.14,3.74-2.5l9.58-16.58
				c0.68-1.18,0.86-2.55,0.51-3.86c-0.35-1.31-1.19-2.41-2.37-3.09C42.97,33.49,42.1,33.25,41.21,33.25L41.21,33.25z"/>
		</g>
	</g>
</g>
</svg>
