<?xml version="1.0" encoding="utf-8"?>
<!-- Generator: Adobe Illustrator 22.1.0, SVG Export Plug-In . SVG Version: 6.00 Build 0)  -->
<svg version="1.1" id="Layer_1" xmlns="http://www.w3.org/2000/svg" xmlns:xlink="http://www.w3.org/1999/xlink" x="0px" y="0px"
	 width="16px" height="16px" viewBox="0 0 16 16" style="enable-background:new 0 0 16 16;" xml:space="preserve">
<style type="text/css">
	.st0{fill:#54A447;}
	.st1{fill:#FFFFFF;}
</style>
<g>
	<circle class="st0" cx="8" cy="8" r="8"/>
	<g>
		<path class="st1" d="M8.7,10.12H7.2c0-0.21-0.01-0.35-0.01-0.39c0-0.48,0.08-0.88,0.24-1.2C7.6,8.22,7.92,7.87,8.4,7.48
			s0.77-0.65,0.86-0.77c0.14-0.19,0.22-0.4,0.22-0.63c0-0.32-0.13-0.59-0.38-0.82s-0.6-0.34-1.03-0.34c-0.42,0-0.77,0.12-1.05,0.36
			s-0.47,0.6-0.58,1.09L4.92,6.17c0.04-0.7,0.34-1.29,0.89-1.78s1.28-0.73,2.18-0.73c0.95,0,1.7,0.25,2.26,0.74s0.84,1.07,0.84,1.73
			c0,0.36-0.1,0.71-0.31,1.03s-0.64,0.77-1.32,1.32C9.11,8.77,8.9,9,8.81,9.18S8.69,9.67,8.7,10.12z M7.2,12.34v-1.65h1.65v1.65H7.2
			z"/>
	</g>
</g>
</svg>
