<?xml version="1.0" encoding="utf-8"?>
<!-- Generator: Adobe Illustrator 22.1.0, SVG Export Plug-In . SVG Version: 6.00 Build 0)  -->
<svg version="1.1" id="Layer_1" xmlns="http://www.w3.org/2000/svg" xmlns:xlink="http://www.w3.org/1999/xlink" x="0px" y="0px"
	 width="77px" height="60px" viewBox="0 0 77 60" style="enable-background:new 0 0 77 60;" xml:space="preserve">
<style type="text/css">
	.st0{fill:#29306C;}
	.st1{fill:#54A447;}
	.st2{fill:#52A346;}
	.st3{fill:#FFFFFF;}
</style>
<g>
	<g>
		<path class="st0" d="M59.8,0H0.78C0.35,0,0.02,0.39,0.02,0.86v3.6H7.1h46.38h7.08v-3.6C60.56,0.39,60.21,0,59.8,0z M2.08,3.02
			c-0.43,0-0.8-0.35-0.8-0.8c0-0.43,0.35-0.8,0.8-0.8c0.43,0,0.8,0.35,0.8,0.8S2.53,3.02,2.08,3.02z M4.61,3.02
			c-0.43,0-0.8-0.35-0.8-0.8c0-0.43,0.35-0.8,0.8-0.8c0.43,0,0.8,0.35,0.8,0.8C5.41,2.68,5.06,3.02,4.61,3.02z M7.14,3.02
			c-0.43,0-0.8-0.35-0.8-0.8c0-0.43,0.35-0.8,0.8-0.8c0.43,0,0.8,0.35,0.8,0.8S7.59,3.02,7.14,3.02z"/>
		<g>
			<path class="st0" d="M59.68,57c0.49,0,0.88-0.41,0.88-0.93V19.73h-3.25v33.83H3.25V19.73H0v36.32c0,0.51,0.39,0.93,0.88,0.93
				L59.68,57L59.68,57z"/>
		</g>
		<path class="st0" d="M39.76,31.36h-1.58v-1.91c0-0.82-0.14-1.65-0.45-2.41c-1.34-3.17-4.16-5.04-7.28-5.08
			c-3.66,0-5.76,2.39-5.76,2.39c-1.44,1.48-2.22,3.44-2.22,5.49v1.52h-1.58c-0.31,0-0.58,0.25-0.58,0.58v15.84
			c0,0.31,0.25,0.58,0.58,0.58h18.91c0.31,0,0.58-0.25,0.58-0.58V31.94C40.31,31.61,40.06,31.36,39.76,31.36z M32.37,43.69h-4.18
			l0.99-4.69c-0.6-0.37-0.99-1.03-0.99-1.77c0-1.15,0.93-2.08,2.08-2.08c1.15,0,2.08,0.93,2.08,2.08c0,0.74-0.39,1.4-0.99,1.77
			L32.37,43.69z M35.85,31.36H24.71v-1.52c0-1.48,0.58-2.9,1.65-3.95c1.03-1.03,2.39-1.61,3.85-1.63c0.02,0,0.06,0,0.08,0l0,0
			c1.48,0,2.88,0.58,3.93,1.63c1.05,1.05,1.63,2.45,1.63,3.95V31.36z"/>
		<g>
			<path class="st1" d="M15.82,13.6h-0.56v-0.35c-0.1,0.12-0.21,0.23-0.33,0.29c-0.12,0.06-0.25,0.1-0.39,0.1
				c-0.27,0-0.49-0.1-0.68-0.31c-0.19-0.21-0.29-0.51-0.29-0.88c0-0.39,0.08-0.68,0.27-0.88c0.19-0.21,0.41-0.31,0.68-0.31
				c0.25,0,0.47,0.1,0.66,0.31v-1.13h0.64V13.6z M14.22,12.41c0,0.25,0.04,0.41,0.1,0.54c0.1,0.16,0.23,0.23,0.41,0.23
				c0.14,0,0.25-0.06,0.35-0.19c0.1-0.12,0.14-0.29,0.14-0.54c0-0.27-0.04-0.45-0.14-0.56c-0.1-0.12-0.21-0.16-0.37-0.16
				c-0.14,0-0.27,0.06-0.35,0.16C14.28,12.02,14.22,12.18,14.22,12.41z"/>
			<path class="st1" d="M16.28,12.43c0-0.21,0.04-0.39,0.14-0.58c0.1-0.19,0.25-0.33,0.41-0.43c0.19-0.1,0.39-0.14,0.6-0.14
				c0.35,0,0.62,0.1,0.84,0.33c0.23,0.23,0.33,0.51,0.33,0.84c0,0.35-0.1,0.64-0.33,0.86c-0.23,0.23-0.49,0.35-0.84,0.35
				c-0.21,0-0.41-0.04-0.6-0.14c-0.19-0.08-0.33-0.23-0.43-0.41C16.32,12.9,16.28,12.68,16.28,12.43z M16.89,12.45
				c0,0.23,0.06,0.39,0.16,0.51c0.1,0.12,0.25,0.19,0.39,0.19c0.16,0,0.29-0.06,0.39-0.19c0.1-0.12,0.16-0.29,0.16-0.51
				c0-0.23-0.06-0.39-0.16-0.51c-0.1-0.12-0.25-0.19-0.39-0.19c-0.16,0-0.29,0.06-0.39,0.19C16.96,12.06,16.89,12.22,16.89,12.45z"
				/>
			<path class="st1" d="M19.05,11.32h0.56v0.31c0.21-0.25,0.43-0.37,0.7-0.37c0.14,0,0.27,0.02,0.37,0.08
				c0.1,0.06,0.19,0.14,0.27,0.27c0.1-0.12,0.21-0.21,0.33-0.27s0.25-0.08,0.37-0.08c0.16,0,0.31,0.04,0.43,0.1s0.21,0.16,0.27,0.29
				c0.04,0.1,0.06,0.25,0.06,0.47v1.46h-0.62v-1.3c0-0.23-0.02-0.37-0.06-0.43c-0.06-0.08-0.14-0.12-0.25-0.12
				c-0.08,0-0.16,0.02-0.25,0.08c-0.08,0.06-0.12,0.12-0.16,0.23c-0.04,0.1-0.04,0.25-0.04,0.47v1.09h-0.6v-1.23
				c0-0.23-0.02-0.37-0.04-0.43s-0.06-0.1-0.1-0.14c-0.04-0.02-0.1-0.04-0.19-0.04c-0.08,0-0.19,0.02-0.25,0.08
				c-0.08,0.04-0.12,0.12-0.16,0.23c-0.04,0.08-0.04,0.25-0.04,0.47v1.11h-0.6C19.05,13.64,19.05,11.32,19.05,11.32z"/>
			<path class="st1" d="M23.44,12.02l-0.54-0.1c0.06-0.23,0.16-0.39,0.31-0.49c0.14-0.1,0.37-0.16,0.66-0.16
				c0.27,0,0.47,0.04,0.6,0.1c0.12,0.06,0.23,0.14,0.27,0.25c0.06,0.1,0.08,0.27,0.08,0.54v0.7c0,0.21,0,0.35,0.02,0.45
				s0.06,0.19,0.1,0.31h-0.6c-0.02-0.04-0.04-0.1-0.06-0.19c0-0.04-0.02-0.06-0.02-0.06c-0.1,0.1-0.21,0.16-0.33,0.23
				c-0.12,0.04-0.25,0.08-0.37,0.08c-0.23,0-0.41-0.06-0.56-0.19s-0.21-0.29-0.21-0.47c0-0.12,0.04-0.25,0.08-0.35
				c0.04-0.1,0.14-0.19,0.25-0.23c0.1-0.06,0.27-0.1,0.47-0.14c0.29-0.06,0.47-0.1,0.58-0.14v-0.06c0-0.12-0.02-0.21-0.08-0.25
				c-0.06-0.04-0.16-0.08-0.33-0.08c-0.1,0-0.19,0.02-0.25,0.06C23.52,11.83,23.46,11.91,23.44,12.02z M24.24,12.51
				c-0.08,0.02-0.21,0.06-0.37,0.08c-0.16,0.04-0.27,0.06-0.33,0.1c-0.08,0.06-0.12,0.12-0.12,0.21c0,0.08,0.04,0.16,0.1,0.23
				c0.06,0.06,0.14,0.1,0.25,0.1c0.1,0,0.21-0.04,0.31-0.1c0.08-0.06,0.12-0.12,0.14-0.21c0.02-0.06,0.02-0.14,0.02-0.29V12.51z"/>
			<path class="st1" d="M25.41,11.01v-0.56h0.6v0.56H25.41z M25.41,13.6v-2.26h0.6v2.26H25.41z"/>
			<path class="st1" d="M28.69,13.6h-0.6v-1.17c0-0.25-0.02-0.41-0.04-0.47c-0.02-0.08-0.06-0.12-0.12-0.16
				c-0.06-0.04-0.12-0.06-0.21-0.06c-0.1,0-0.21,0.02-0.29,0.08c-0.08,0.06-0.14,0.12-0.16,0.23c-0.02,0.1-0.04,0.27-0.04,0.51v1.03
				h-0.6v-2.26h0.56v0.33c0.21-0.25,0.45-0.39,0.74-0.39c0.12,0,0.25,0.02,0.37,0.08s0.19,0.1,0.25,0.19
				c0.06,0.08,0.1,0.16,0.12,0.25c0.02,0.1,0.04,0.23,0.04,0.41v1.42L28.69,13.6z"/>
			<path class="st1" d="M31.36,13.6h-0.6v-1.17c0-0.25-0.02-0.41-0.04-0.47c-0.02-0.08-0.06-0.12-0.12-0.16
				c-0.06-0.04-0.12-0.06-0.21-0.06c-0.1,0-0.21,0.02-0.29,0.08c-0.08,0.06-0.14,0.12-0.16,0.23c-0.02,0.1-0.04,0.27-0.04,0.51v1.03
				h-0.6v-2.26h0.56v0.33c0.21-0.25,0.45-0.39,0.74-0.39c0.12,0,0.25,0.02,0.37,0.08s0.19,0.1,0.25,0.19
				c0.06,0.08,0.1,0.16,0.12,0.25c0.02,0.1,0.04,0.23,0.04,0.41L31.36,13.6L31.36,13.6z"/>
			<path class="st1" d="M32.43,12.02l-0.54-0.1c0.06-0.23,0.16-0.39,0.31-0.49c0.14-0.1,0.37-0.16,0.66-0.16
				c0.27,0,0.47,0.04,0.6,0.1c0.12,0.06,0.23,0.14,0.27,0.25c0.06,0.1,0.08,0.27,0.08,0.54v0.7c0,0.21,0,0.35,0.02,0.45
				c0.02,0.1,0.06,0.19,0.1,0.31h-0.6c-0.02-0.04-0.04-0.1-0.06-0.19c0-0.04-0.02-0.06-0.02-0.06c-0.1,0.1-0.21,0.16-0.33,0.23
				c-0.12,0.04-0.25,0.08-0.37,0.08c-0.23,0-0.41-0.06-0.56-0.19c-0.14-0.12-0.21-0.29-0.21-0.47c0-0.12,0.04-0.25,0.08-0.35
				c0.04-0.1,0.14-0.19,0.25-0.23c0.1-0.06,0.27-0.1,0.47-0.14c0.29-0.06,0.47-0.1,0.58-0.14v-0.06c0-0.12-0.02-0.21-0.08-0.25
				c-0.06-0.04-0.16-0.08-0.33-0.08c-0.1,0-0.19,0.02-0.25,0.06C32.45,11.85,32.45,11.91,32.43,12.02z M33.23,12.51
				c-0.08,0.02-0.21,0.06-0.37,0.08c-0.16,0.04-0.27,0.06-0.33,0.1c-0.08,0.06-0.12,0.12-0.12,0.21c0,0.08,0.04,0.16,0.08,0.23
				c0.06,0.06,0.14,0.1,0.25,0.1s0.21-0.04,0.31-0.1c0.08-0.06,0.12-0.12,0.14-0.21c0.02-0.06,0.02-0.14,0.02-0.29v-0.12
				C33.21,12.51,33.23,12.51,33.23,12.51z"/>
			<path class="st1" d="M34.36,11.32h0.56v0.31c0.21-0.25,0.43-0.37,0.7-0.37c0.14,0,0.27,0.02,0.37,0.08
				c0.1,0.06,0.19,0.14,0.27,0.27c0.1-0.12,0.21-0.21,0.33-0.27c0.12-0.06,0.25-0.08,0.37-0.08c0.16,0,0.31,0.04,0.43,0.1
				c0.12,0.06,0.21,0.16,0.27,0.29c0.04,0.1,0.06,0.25,0.06,0.47v1.46h-0.6v-1.3c0-0.23-0.02-0.37-0.06-0.43
				c-0.06-0.08-0.14-0.12-0.25-0.12c-0.08,0-0.16,0.02-0.25,0.08c-0.08,0.06-0.12,0.12-0.16,0.23c-0.04,0.1-0.04,0.25-0.04,0.47
				v1.09h-0.6v-1.23c0-0.23-0.02-0.37-0.04-0.43c-0.02-0.06-0.06-0.1-0.1-0.14c-0.04-0.02-0.1-0.04-0.19-0.04s-0.16,0.02-0.25,0.08
				s-0.12,0.12-0.16,0.23c-0.04,0.08-0.04,0.25-0.04,0.47v1.11h-0.6L34.36,11.32L34.36,11.32z"/>
			<path class="st1" d="M39.61,12.86l0.6,0.1c-0.08,0.23-0.21,0.39-0.37,0.49c-0.16,0.12-0.37,0.16-0.62,0.16
				c-0.39,0-0.68-0.12-0.88-0.39c-0.14-0.21-0.23-0.47-0.23-0.78c0-0.37,0.1-0.68,0.29-0.88c0.19-0.21,0.45-0.33,0.74-0.33
				c0.33,0,0.6,0.1,0.8,0.33c0.21,0.23,0.29,0.56,0.29,1.03h-1.5c0,0.19,0.06,0.31,0.14,0.41c0.08,0.1,0.21,0.14,0.35,0.14
				c0.1,0,0.16-0.02,0.25-0.08C39.55,13.01,39.57,12.98,39.61,12.86z M39.65,12.26c0-0.16-0.04-0.31-0.14-0.39
				c-0.08-0.08-0.19-0.14-0.31-0.14c-0.12,0-0.25,0.04-0.33,0.14c-0.08,0.1-0.12,0.23-0.12,0.39H39.65z"/>
			<path class="st1" d="M40.72,13.6v-0.6h0.6v0.6H40.72z"/>
			<path class="st1" d="M43.93,12l-0.6,0.1c-0.02-0.12-0.06-0.21-0.14-0.27s-0.16-0.08-0.27-0.08c-0.14,0-0.27,0.06-0.35,0.16
				c-0.08,0.1-0.12,0.27-0.12,0.51c0,0.27,0.04,0.45,0.14,0.58c0.1,0.12,0.21,0.16,0.37,0.16c0.1,0,0.21-0.04,0.29-0.1
				c0.08-0.06,0.12-0.19,0.14-0.33l0.6,0.1c-0.06,0.27-0.19,0.47-0.35,0.62c-0.16,0.14-0.41,0.21-0.7,0.21c-0.33,0-0.6-0.1-0.8-0.31
				c-0.21-0.21-0.29-0.49-0.29-0.86s0.1-0.66,0.29-0.88c0.21-0.21,0.47-0.31,0.8-0.31c0.27,0,0.49,0.06,0.66,0.19
				C43.77,11.61,43.85,11.75,43.93,12z"/>
			<path class="st1" d="M44.24,12.43c0-0.21,0.04-0.39,0.14-0.58s0.25-0.33,0.41-0.43c0.19-0.1,0.37-0.14,0.6-0.14
				c0.35,0,0.62,0.1,0.84,0.33c0.23,0.23,0.33,0.51,0.33,0.84c0,0.35-0.1,0.64-0.33,0.86c-0.23,0.23-0.49,0.35-0.84,0.35
				c-0.21,0-0.41-0.04-0.6-0.14c-0.19-0.08-0.33-0.23-0.43-0.41C44.28,12.9,44.24,12.68,44.24,12.43z M44.86,12.45
				c0,0.23,0.06,0.39,0.16,0.51c0.1,0.12,0.25,0.19,0.39,0.19s0.29-0.06,0.39-0.19s0.16-0.29,0.16-0.51c0-0.23-0.06-0.39-0.16-0.51
				c-0.1-0.12-0.25-0.19-0.39-0.19s-0.29,0.06-0.39,0.19C44.92,12.06,44.86,12.22,44.86,12.45z"/>
			<path class="st1" d="M47,11.32h0.56v0.31c0.21-0.25,0.43-0.37,0.7-0.37c0.14,0,0.27,0.02,0.37,0.08s0.19,0.14,0.27,0.27
				c0.1-0.12,0.21-0.21,0.33-0.27c0.12-0.06,0.25-0.08,0.37-0.08c0.16,0,0.31,0.04,0.43,0.1c0.12,0.06,0.21,0.16,0.27,0.29
				c0.04,0.1,0.06,0.25,0.06,0.47v1.46h-0.6v-1.3c0-0.23-0.02-0.37-0.06-0.43c-0.06-0.08-0.14-0.12-0.25-0.12
				c-0.08,0-0.16,0.02-0.25,0.08c-0.08,0.06-0.12,0.12-0.16,0.23C49,12.14,49,12.28,49,12.51v1.09h-0.6v-1.23
				c0-0.23-0.02-0.37-0.04-0.43c-0.02-0.06-0.06-0.1-0.1-0.14c-0.04-0.02-0.1-0.04-0.19-0.04c-0.08,0-0.16,0.02-0.25,0.08
				c-0.08,0.06-0.12,0.12-0.16,0.23c-0.04,0.08-0.04,0.25-0.04,0.47v1.11h-0.6L47,11.32L47,11.32z"/>
		</g>
		<path class="st1" d="M0.02,6.65v10.91h60.56V6.65H0.02z M5.02,13.13c0,0.12-0.06,0.23-0.16,0.31c-0.06,0.04-0.12,0.06-0.19,0.06
			c-0.04,0-0.1-0.02-0.14-0.04L2.3,12.43C2.18,12.37,2.1,12.24,2.1,12.1s0.08-0.27,0.21-0.33l2.22-1.03
			c0.04-0.02,0.1-0.04,0.14-0.04c0.06,0,0.12,0.02,0.19,0.06c0.1,0.06,0.16,0.19,0.16,0.31V13.13z M8.38,12.43l-2.22,1.03
			c-0.04,0.02-0.1,0.04-0.14,0.04c-0.06,0-0.12-0.02-0.19-0.06c-0.1-0.06-0.16-0.19-0.16-0.31v-2.06c0-0.12,0.06-0.23,0.16-0.31
			c0.06-0.04,0.12-0.06,0.19-0.06c0.04,0,0.1,0.02,0.14,0.04l2.22,1.03c0.12,0.06,0.21,0.19,0.21,0.33S8.5,12.37,8.38,12.43z
			 M53.28,15.25H10.6v-6.3h42.68V15.25z M57.86,13.03c-0.01,0.01-0.02,0.02-0.04,0.04c0,0,0,0,0,0c0,0-0.01,0.01-0.01,0.01
			c-0.03,0.03-0.06,0.06-0.09,0.08c-0.01,0-0.01,0.01-0.01,0.01c-0.03,0.02-0.06,0.05-0.09,0.07c-0.01,0.01-0.01,0.01-0.02,0.01
			c-0.03,0.02-0.06,0.04-0.09,0.05c-0.01,0.01-0.02,0.01-0.03,0.02c-0.03,0.01-0.06,0.03-0.09,0.04c-0.01,0.01-0.03,0.01-0.04,0.02
			c-0.03,0.01-0.05,0.02-0.08,0.03c-0.02,0.01-0.03,0.01-0.05,0.01c-0.02,0.01-0.05,0.01-0.07,0.02c-0.02,0-0.04,0.01-0.06,0.01
			c-0.02,0-0.05,0.01-0.07,0.01c-0.02,0-0.04,0-0.06,0.01c-0.02,0-0.05,0-0.07,0c-0.02,0-0.04,0-0.07,0s-0.04,0-0.07,0
			c-0.02,0-0.05,0-0.07-0.01c-0.02,0-0.04-0.01-0.07-0.01c-0.02,0-0.04-0.01-0.07-0.01c-0.02,0-0.04-0.01-0.06-0.02
			c-0.02-0.01-0.04-0.01-0.06-0.02c-0.02-0.01-0.04-0.01-0.06-0.02c-0.02-0.01-0.04-0.02-0.06-0.02c-0.02-0.01-0.04-0.02-0.06-0.03
			c-0.02-0.01-0.04-0.02-0.06-0.03c-0.02-0.01-0.04-0.02-0.06-0.03c-0.02-0.01-0.04-0.02-0.06-0.04c-0.02-0.01-0.04-0.03-0.06-0.04
			s-0.04-0.03-0.06-0.05c-0.01-0.01-0.02-0.02-0.03-0.02c-0.01-0.01-0.01-0.01-0.02-0.02c-0.01-0.01-0.01-0.01-0.02-0.02
			c-0.01-0.01-0.02-0.02-0.03-0.03c-0.02-0.02-0.03-0.03-0.05-0.05c-0.01-0.02-0.03-0.04-0.04-0.06c-0.01-0.02-0.03-0.03-0.04-0.05
			c-0.01-0.02-0.03-0.04-0.04-0.06c-0.01-0.02-0.02-0.03-0.03-0.05c-0.01-0.02-0.03-0.05-0.04-0.07c-0.01-0.01-0.01-0.03-0.02-0.04
			c-0.01-0.03-0.02-0.06-0.03-0.08c0-0.01-0.01-0.02-0.01-0.03c-0.01-0.03-0.02-0.06-0.03-0.09c0-0.01-0.01-0.02-0.01-0.03
			c-0.01-0.03-0.01-0.07-0.02-0.1c0-0.01,0-0.02,0-0.03c0-0.03-0.01-0.07-0.01-0.1c0-0.01,0-0.02,0-0.03c0-0.03,0-0.07,0-0.1
			c0-0.01,0-0.02,0-0.03c0-0.03,0.01-0.07,0.01-0.1c0-0.01,0-0.02,0-0.03c0-0.03,0.01-0.06,0.02-0.09c0-0.01,0.01-0.02,0.01-0.04
			c0.01-0.03,0.02-0.06,0.03-0.09c0-0.01,0.01-0.03,0.01-0.04c0.01-0.03,0.02-0.05,0.03-0.08c0.01-0.01,0.01-0.03,0.02-0.05
			c0.01-0.02,0.02-0.05,0.04-0.07c0.01-0.02,0.02-0.03,0.03-0.05c0.01-0.02,0.03-0.04,0.05-0.07c0.01-0.02,0.02-0.03,0.03-0.05
			c0.01-0.02,0.03-0.04,0.05-0.06c0.01-0.01,0.02-0.02,0.02-0.03c0.01-0.01,0.01-0.01,0.02-0.02c0.01-0.01,0.01-0.01,0.02-0.02
			c0.01-0.01,0.02-0.02,0.03-0.03c0.02-0.02,0.03-0.03,0.06-0.05c0.02-0.01,0.03-0.03,0.05-0.04c0.02-0.01,0.04-0.03,0.06-0.04
			c0.02-0.01,0.04-0.02,0.06-0.03c0.02-0.01,0.04-0.02,0.06-0.03c0.02-0.01,0.04-0.02,0.06-0.03c0.02-0.01,0.04-0.02,0.06-0.03
			c0.02-0.01,0.04-0.02,0.07-0.03c0.02-0.01,0.04-0.01,0.06-0.02c0.02-0.01,0.05-0.01,0.07-0.02c0.02,0,0.04-0.01,0.06-0.01
			c0.02,0,0.05-0.01,0.07-0.01c0.02,0,0.04-0.01,0.06-0.01c0.02,0,0.04,0,0.07-0.01c0.02,0,0.04,0,0.06,0c0.02,0,0.04,0,0.07,0
			c0.02,0,0.05,0,0.07,0c0.02,0,0.04,0,0.06,0.01c0.02,0,0.05,0.01,0.07,0.01c0.02,0,0.03,0.01,0.05,0.01
			c0.03,0.01,0.06,0.01,0.08,0.02c0.01,0,0.03,0.01,0.04,0.01c0.03,0.01,0.06,0.02,0.09,0.03c0.01,0,0.02,0.01,0.03,0.01
			c0.03,0.01,0.06,0.02,0.09,0.04c0.01,0.01,0.02,0.01,0.03,0.02c0.03,0.02,0.06,0.03,0.09,0.05c0.01,0,0.02,0.01,0.02,0.02
			c0.03,0.02,0.06,0.04,0.09,0.07c0.01,0,0.01,0.01,0.02,0.01c0.02,0.01,0.04,0.03,0.05,0.04l0.34-0.37l0.03,1.01l-1,0.06l0.37-0.4
			c-0.01-0.01-0.03-0.03-0.04-0.04l0,0c-0.02-0.02-0.05-0.04-0.08-0.06l0,0c-0.03-0.02-0.05-0.03-0.08-0.05l0,0
			c-0.03-0.01-0.06-0.03-0.08-0.04c0,0,0,0-0.01,0c-0.03-0.01-0.06-0.02-0.08-0.03c0,0-0.01,0-0.01,0
			c-0.03-0.01-0.06-0.01-0.08-0.02c0,0-0.01,0-0.01,0c-0.03,0-0.05-0.01-0.08-0.01c-0.01,0-0.01,0-0.02,0c-0.02,0-0.05,0-0.07,0
			c-0.01,0-0.01,0-0.02,0c-0.02,0-0.05,0-0.07,0c-0.01,0-0.02,0-0.03,0c-0.02,0-0.04,0.01-0.07,0.01c-0.01,0-0.02,0-0.03,0.01
			c-0.02,0-0.04,0.01-0.06,0.01c-0.01,0-0.02,0.01-0.03,0.01c-0.02,0.01-0.04,0.01-0.05,0.02c-0.01,0-0.02,0.01-0.03,0.01
			c-0.02,0.01-0.03,0.01-0.05,0.02c-0.01,0.01-0.02,0.01-0.04,0.02c-0.02,0.01-0.03,0.02-0.05,0.03c-0.01,0.01-0.02,0.01-0.03,0.02
			c-0.01,0.01-0.03,0.02-0.04,0.03c-0.01,0.01-0.02,0.02-0.03,0.03c-0.01,0.01-0.03,0.02-0.04,0.03c-0.01,0.01-0.02,0.02-0.03,0.03
			c-0.01,0.01-0.02,0.02-0.03,0.04c-0.01,0.01-0.02,0.03-0.03,0.04c-0.01,0.01-0.02,0.02-0.03,0.04c-0.01,0.01-0.02,0.03-0.03,0.04
			C56.01,11.6,56,11.62,56,11.63c-0.01,0.01-0.02,0.03-0.03,0.05c-0.01,0.01-0.01,0.02-0.02,0.04c-0.01,0.02-0.01,0.03-0.02,0.05
			c0,0.01-0.01,0.03-0.01,0.04c-0.01,0.02-0.01,0.03-0.02,0.05c0,0.01-0.01,0.03-0.01,0.04c0,0.02-0.01,0.03-0.01,0.05
			c0,0.01,0,0.03-0.01,0.04c0,0.02,0,0.04-0.01,0.06c0,0.01,0,0.02,0,0.04c0,0.02,0,0.04,0,0.06c0,0.01,0,0.02,0,0.04
			c0,0.02,0,0.04,0.01,0.06c0,0.01,0,0.02,0,0.03c0,0.02,0.01,0.04,0.01,0.06c0,0.01,0.01,0.02,0.01,0.03
			c0,0.02,0.01,0.04,0.02,0.06c0,0.01,0.01,0.02,0.01,0.03c0.01,0.02,0.01,0.03,0.02,0.05c0,0.01,0.01,0.02,0.02,0.04
			c0.01,0.02,0.02,0.03,0.02,0.05C56,12.6,56,12.62,56.01,12.63s0.02,0.03,0.03,0.04c0.01,0.01,0.02,0.03,0.03,0.04
			c0.01,0.01,0.02,0.02,0.03,0.04c0.01,0.01,0.02,0.02,0.03,0.04c0.01,0.01,0.02,0.02,0.03,0.03c0.01,0.01,0.03,0.02,0.04,0.03
			c0.01,0.01,0.02,0.02,0.04,0.03c0.01,0.01,0.03,0.02,0.04,0.03c0.01,0.01,0.02,0.02,0.04,0.02c0.02,0.01,0.03,0.02,0.05,0.03
			c0.01,0.01,0.02,0.01,0.03,0.02c0.02,0.01,0.04,0.02,0.05,0.02c0.01,0,0.02,0.01,0.03,0.01c0.02,0.01,0.04,0.01,0.06,0.02
			c0.01,0,0.02,0.01,0.03,0.01c0.02,0.01,0.04,0.01,0.06,0.01c0.01,0,0.02,0,0.03,0.01c0.02,0,0.05,0.01,0.07,0.01
			c0.01,0,0.02,0,0.02,0c0.02,0,0.05,0,0.07,0c0.01,0,0.01,0,0.02,0c0.02,0,0.05,0,0.07,0c0.01,0,0.01,0,0.02,0
			c0.02,0,0.05-0.01,0.07-0.01c0.01,0,0.01,0,0.02,0c0.02-0.01,0.05-0.01,0.08-0.02c0.01,0,0.01,0,0.01,0
			c0.03-0.01,0.05-0.02,0.08-0.03c0,0,0.01,0,0.01,0c0.03-0.01,0.05-0.02,0.08-0.04c0,0,0,0,0.01,0c0.03-0.01,0.05-0.03,0.08-0.05
			l0,0c0.05-0.03,0.1-0.08,0.15-0.13c0.21-0.21,0.3-0.48,0.29-0.76l0.38-0.02C58.23,12.39,58.11,12.75,57.86,13.03L57.86,13.03z"/>
	</g>
	<g>
		<g>
			<path class="st2" d="M62.34,59.05c-1.09,0-2.15-0.44-2.92-1.21l-5.74-5.74c-0.78-0.78-1.21-1.82-1.21-2.92
				c0-1.1,0.43-2.14,1.21-2.92c0.78-0.78,1.82-1.21,2.92-1.21c1.1,0,2.14,0.43,2.92,1.21l1.93,1.93l6.88-11.91
				c0.74-1.27,2.11-2.07,3.58-2.07c0.72,0,1.44,0.19,2.06,0.55c0.96,0.55,1.64,1.44,1.93,2.51c0.29,1.07,0.14,2.18-0.41,3.14
				l-9.58,16.58c-0.64,1.1-1.77,1.86-3.04,2.03C62.7,59.03,62.52,59.05,62.34,59.05z"/>
			<path class="st3" d="M71.91,35.16c0.54,0,1.09,0.14,1.59,0.43c1.52,0.88,2.04,2.82,1.16,4.34L65.09,56.5
				c-0.49,0.86-1.36,1.43-2.34,1.56c-0.14,0.02-0.28,0.03-0.41,0.03c-0.84,0-1.65-0.33-2.25-0.93l-5.73-5.74
				c-1.24-1.24-1.24-3.25,0-4.5C54.97,46.31,55.79,46,56.6,46c0.81,0,1.63,0.31,2.25,0.93l2.81,2.81l7.5-12.99
				C69.75,35.73,70.82,35.16,71.91,35.16 M71.91,33.25c-1.81,0-3.5,0.97-4.41,2.54l-6.26,10.84l-1.05-1.05
				c-0.96-0.96-2.24-1.49-3.6-1.49c-1.36,0-2.64,0.53-3.6,1.49c-0.96,0.96-1.49,2.24-1.49,3.6s0.53,2.64,1.49,3.6l5.73,5.74
				C59.69,59.46,61,60,62.34,60c0.22,0,0.44-0.01,0.66-0.04c1.56-0.21,2.96-1.14,3.74-2.5l9.58-16.58c0.68-1.18,0.86-2.55,0.51-3.86
				c-0.35-1.31-1.19-2.41-2.37-3.09C73.68,33.49,72.8,33.25,71.91,33.25L71.91,33.25z"/>
		</g>
	</g>
</g>
</svg>
