<?xml version="1.0" encoding="UTF-8"?>
<!-- Generator: Adobe Illustrator 21.1.0, SVG Export Plug-In . SVG Version: 6.00 Build 0)  -->
<svg version="1.1" id="Layer_1" xmlns="http://www.w3.org/2000/svg" xmlns:xlink="http://www.w3.org/1999/xlink" x="0px" y="0px" width="51.4px" height="55px" viewBox="0 0 51.4 55" style="enable-background:new 0 0 51.4 55;" xml:space="preserve">
<style type="text/css">
	.st0{fill:#53A446;}
</style>
<g id="Layer_1_1_">
</g>
<g id="Layer_2">
	<path class="st0" d="M24.5,6.2v2c-0.7,0.2-1.4,0.4-1.9,0.9c-0.9,0.6-1.3,1.6-1.3,2.7c0,0.9,0.2,1.6,0.6,2.1c0.4,0.6,1.1,1.1,2,1.6   l1,0.6c1.3,0.6,2,1,2.3,1.4c0.2,0.2,0.4,0.9,0.4,1.3c0,0.6-0.2,1.1-0.7,1.4c-0.4,0.6-1,0.7-1.8,0.7c-0.6,0-1.1-0.2-1.4-0.6   c-0.2-0.4-0.6-1-0.6-1.7v-0.1h-2.2c0,1.4,0.4,2.3,1.1,3c0.6,0.6,1.3,0.9,2.1,1v1.8h2.9v-1.9c0.7-0.2,1.4-0.4,2-1   c0.9-0.7,1.3-1.7,1.3-2.9c0-1-0.2-1.7-0.7-2.3c-0.6-0.6-1.4-1.3-2.6-1.9L26.1,14c-1-0.4-1.6-0.9-1.9-1.3c-0.2-0.2-0.6-0.7-0.6-1.1   c0-0.6,0.2-1,0.6-1.4c0.4-0.2,1-0.6,1.6-0.6s1.1,0.2,1.4,0.6c0.4,0.2,0.6,0.7,0.6,1.4h2.2c-0.1-1.1-0.6-2-1.3-2.7   c-0.6-0.4-1.1-0.7-1.9-0.9V6.2H24.5z"/>
	<g>
		<path class="st0" d="M25.6,29.4c-8.1,0-14.8-6.6-14.8-14.8S17.5,0,25.6,0s14.8,6.6,14.8,14.8S33.8,29.4,25.6,29.4z M25.6,2    c-7,0-12.8,5.7-12.8,12.8s5.7,12.8,12.8,12.8s12.8-5.7,12.8-12.8S32.6,2,25.6,2z"/>
	</g>
	<g>
		<path class="st0" d="M11.4,21.7c-0.5-1-0.8-1.9-1-3c-0.2-0.1-0.6-0.2-0.7-0.3c-0.2-0.2-0.4-0.8-0.4-1.4V17H7.3    c0.1,1,0.3,1.9,1,2.6c0.4,0.4,1,0.7,1.8,0.8v1.4L11.4,21.7L11.4,21.7z"/>
		<path class="st0" d="M14,3.9c-1-0.2-1.9-0.3-2.8-0.3C5,3.5,0,8.4,0,14.3s5,10.8,11.2,10.8c0.7,0,1.6-0.2,2.3-0.2    c-0.3-0.4-0.6-1-1-1.4c-0.3,0.1-1,0.2-1.4,0.2c-5.3-0.2-9.6-4.4-9.6-9.5s4.3-9.3,9.6-9.3c0.6,0,1.2,0.1,1.8,0.2    C13.3,4.7,13.7,4.3,14,3.9z"/>
		<path class="st0" d="M10.1,6.9v1.7C9.4,8.7,8.9,8.9,8.5,9.3c-0.7,0.6-1,1.3-1,2.2c0,0.6,0.2,1.2,0.6,1.8c0.3,0.6,1,1,1.8,1.3H10    c0-0.6,0.1-1.3,0.2-1.9c-0.2-0.1-0.2-0.2-0.2-0.2c-0.2-0.2-0.4-0.6-0.4-1s0.2-0.8,0.6-1c0.2-0.2,0.6-0.2,0.8-0.3    c0.3-1,0.8-2.1,1.3-3.1L10.1,6.9L10.1,6.9L10.1,6.9z"/>
	</g>
	<path class="st0" d="M20.8,29.6c0,0,4.9,1.9,9.7,0v13.2h6.8L25.6,55L13.9,42.8h6.9V29.6z"/>
	<g>
		<path class="st0" d="M40,21.7c0.4-1,0.8-1.9,1-3c0.2-0.1,0.6-0.2,0.7-0.3c0.2-0.2,0.4-0.8,0.4-1.4V17h1.9c-0.1,1-0.3,1.9-1,2.6    c-0.4,0.4-1,0.7-1.8,0.8v1.4L40,21.7L40,21.7z"/>
		<path class="st0" d="M37.4,3.9c1-0.2,1.9-0.3,2.8-0.3c6.1,0,11.2,4.9,11.2,10.8s-5,10.8-11.2,10.8c-0.7,0-1.8-0.2-2.3-0.2    c0.3-0.4,0.6-1,1-1.4c0.3,0.1,1,0.2,1.4,0.2c5.3,0,9.7-4.2,9.7-9.3S45.6,5,40.2,5c-0.6,0-1.2,0.1-1.8,0.2    C38.1,4.7,37.8,4.3,37.4,3.9z"/>
		<path class="st0" d="M41.3,6.9v1.7c0.6,0.2,1.1,0.3,1.6,0.7c0.7,0.6,1,1.3,1,2.2c0,0.6-0.2,1.2-0.6,1.8c-0.3,0.6-1,1-1.8,1.3h-0.1    c0-0.6-0.1-1.3-0.2-1.9c0.2-0.1,0.2-0.2,0.2-0.2c0.2-0.2,0.4-0.6,0.4-1s-0.2-0.8-0.6-1c-0.2-0.2-0.6-0.2-0.8-0.3    c-0.3-1-0.8-2.1-1.3-3.1L41.3,6.9C41.3,6.8,41.3,6.9,41.3,6.9z"/>
	</g>
</g>
</svg>