<?xml version="1.0" encoding="utf-8"?>
<!-- Generator: Adobe Illustrator 24.0.2, SVG Export Plug-In . SVG Version: 6.00 Build 0)  -->
<svg version="1.1" id="Layer_1" xmlns="http://www.w3.org/2000/svg" xmlns:xlink="http://www.w3.org/1999/xlink" x="0px" y="0px"
	 width="120px" height="64.688px" viewBox="0 0 120 64.688" style="enable-background:new 0 0 120 64.688;" xml:space="preserve">
<style type="text/css">
	.st0{fill:#ACB5C0;}
	.st1{fill:#1C1C1C;}
	.st2{fill:#FAC212;}
	.st3{fill:#1973BB;}
	.st4{fill:#717D87;}
</style>
<g>
	<path class="st0" d="M21.947,10.018c-10.291,0-18.666,8.397-18.666,18.72c0,10.322,8.375,18.721,18.666,18.721h77.796
		c10.293,0,18.665-8.399,18.665-18.721c0-10.323-8.372-18.72-18.665-18.72H21.947z M99.743,49.055H21.947
		c-11.168,0-20.255-9.114-20.255-20.316S10.779,8.423,21.947,8.423h77.796c11.168,0,20.255,9.114,20.255,20.316
		S110.912,49.055,99.743,49.055"/>
	<path class="st1" d="M90.413,33.739c-1.55,0-2.808-1.257-2.808-2.813c0-1.556,1.258-2.815,2.808-2.815
		c1.548,0,2.806,1.259,2.806,2.815C93.219,32.482,91.961,33.739,90.413,33.739 M90.413,25.439c-3.021,0-5.47,2.456-5.47,5.487
		c0,3.029,2.45,5.484,5.47,5.484c3.021,0,5.468-2.455,5.468-5.484C95.881,27.895,93.435,25.439,90.413,25.439"/>
	<path class="st1" d="M65.327,33.739c-1.548,0-2.805-1.257-2.805-2.813c0-1.556,1.257-2.815,2.805-2.815
		c1.552,0,2.807,1.259,2.807,2.815C68.133,32.482,66.878,33.739,65.327,33.739 M65.327,25.439c-3.018,0-5.466,2.456-5.466,5.487
		c0,3.029,2.448,5.484,5.466,5.484c3.022,0,5.47-2.455,5.47-5.484C70.797,27.895,68.349,25.439,65.327,25.439"/>
	<path class="st1" d="M84.59,33.893c-0.347,0.101-0.875,0.2-1.076,0.2c-0.936,0-1.139-0.323-1.139-1.22v-5.068h2.237v-2.12h-2.237
		v-2.992h-2.515l-0.53,2.992h-1.752v0.003h-0.142c-1.435,0.006-2.516,0.883-3.21,2.257l-0.875-2.26h-1.803v10.528h3.085v-4.58
		c0-2.308,1.358-3.784,2.971-3.828h1.686v5.233c0,2.462,1.259,3.379,3.311,3.379c1.057,0,1.867-0.224,2.354-0.387L84.59,33.893z"/>
	<polyline class="st1" points="99.618,29.017 99.618,36.213 96.619,36.213 96.619,25.687 98.439,25.687 99.049,27.295 	"/>
	<path class="st1" d="M99.035,27.304c0.912-1.06,2.16-1.863,3.619-1.863c2.497,0,3.525,1.996,3.525,3.848v6.924h-3.086v-6.835
		c0-0.902-0.749-1.392-1.562-1.392c-0.864,0-1.421,0.496-1.909,1.026"/>
	<polygon class="st1" points="47.83,21.876 51.267,21.876 55.984,30.89 55.984,21.876 58.831,21.876 58.831,36.215 55.718,36.215 
		50.677,26.302 50.677,36.215 47.83,36.215 	"/>
	<path class="st2" d="M21.853,13.752c-3.987,0-7.74,1.56-10.566,4.39c-2.821,2.831-4.377,6.595-4.377,10.597
		c0,3.999,1.556,7.763,4.377,10.597c2.824,2.828,6.577,4.389,10.566,4.389c3.989-0.001,7.74-1.562,10.566-4.391
		c2.819-2.832,4.372-6.596,4.375-10.595c-0.003-4.001-1.556-7.766-4.378-10.597C29.593,15.312,25.84,13.752,21.853,13.752
		 M21.853,50.658c-12.049,0-21.855-9.835-21.855-21.919c0-12.087,9.806-21.92,21.855-21.92c12.047,0,21.852,9.833,21.854,21.92
		C43.706,40.823,33.901,50.658,21.853,50.658"/>
	<rect x="45.659" y="3.443" class="st2" width="1.704" height="1.709"/>
	<rect x="45.659" y="0.038" class="st2" width="1.704" height="1.713"/>
	<rect x="40.865" y="5.14" class="st2" width="1.591" height="1.669"/>
	<rect x="37.712" y="8.418" class="st1" width="1.604" height="1.597"/>
	<rect x="42.457" y="6.808" class="st1" width="1.784" height="1.609"/>
	<rect x="36.111" y="6.888" class="st1" width="1.6" height="1.529"/>
	<rect x="40.865" y="8.418" class="st1" width="1.591" height="1.597"/>
	<rect x="43.973" y="1.749" class="st1" width="1.686" height="1.694"/>
	<rect x="40.865" y="3.443" class="st1" width="3.109" height="1.698"/>
	<rect x="39.316" y="5.14" class="st1" width="1.549" height="3.277"/>
	<path class="st1" d="M39.316,10.014v1.608h-1.604v-1.608h-2.663v1.159H33.62v1.428h1.594v1.592H33.62v-1.592h-1.693v2.5h-1.601
		v1.594h-1.064v1.602h-1.167c-1.313,1.958-4.604,8.062-5.598,10.547c-3.584-5.005-6.368-6.988-8.561-7.705
		c-1.181-0.357-2.606,0.935-0.642,2.967c4.511,4.976,5.93,9.096,7.301,12.383c0.727,1.732,3.979,2.001,4.631,0.236
		c1.388-3.729,3.4-7.92,5.786-11.361v-1.783h1.272v-1.608h1.337v-1.864h1.6V18.31h-1.616v-1.634h1.616v1.634h1.581l-0.004-1.616
		h1.267v-1.952h1.428v-1.342h1.372v-3.387H39.316z"/>
	<path class="st3" d="M73.952,59.306c0,0.64,0.154,1.153,0.462,1.539c0.307,0.386,0.709,0.579,1.207,0.579
		c0.482,0,0.887-0.177,1.214-0.532s0.49-0.888,0.49-1.598c0-0.57-0.146-1.063-0.438-1.48c-0.292-0.418-0.702-0.626-1.231-0.626
		c-0.482,0-0.887,0.189-1.214,0.567C74.115,58.134,73.952,58.651,73.952,59.306 M72.797,59.306c0-0.937,0.249-1.687,0.747-2.253
		c0.497-0.566,1.139-0.849,1.925-0.849c0.256,0,0.494,0.031,0.712,0.094c0.218,0.063,0.39,0.141,0.519,0.234
		c0.129,0.093,0.241,0.188,0.339,0.281c0.097,0.093,0.165,0.172,0.204,0.234l0.046,0.093h0.024c-0.016-0.117-0.024-0.25-0.024-0.398
		v-2.739h1.132v8.263h-1.074v-0.561l0.012-0.398h-0.023c-0.016,0.031-0.037,0.07-0.064,0.117c-0.027,0.047-0.093,0.135-0.199,0.263
		c-0.105,0.129-0.225,0.242-0.362,0.339c-0.135,0.098-0.321,0.186-0.554,0.264c-0.233,0.078-0.486,0.117-0.759,0.117
		c-0.793,0-1.425-0.285-1.896-0.854C73.032,60.984,72.797,60.235,72.797,59.306"/>
	<path class="st3" d="M79.388,56.345h1.132v5.922h-1.132V56.345z M79.377,54.005h1.144v1.159h-1.144V54.005z"/>
	<path class="st3" d="M84.195,61.214c0.459,0,0.834-0.16,1.126-0.48c0.292-0.32,0.437-0.839,0.437-1.556
		c0-1.327-0.556-1.99-1.668-1.99c-0.506,0-0.901,0.173-1.185,0.521c-0.284,0.347-0.426,0.825-0.426,1.434
		c0,0.624,0.154,1.126,0.461,1.504C83.248,61.025,83.666,61.214,84.195,61.214 M82.246,63.344c0.49,0.265,1.031,0.398,1.622,0.398
		c0.56,0,1.011-0.135,1.353-0.404c0.342-0.269,0.514-0.688,0.514-1.258v-0.433l0.011-0.375h-0.023
		c-0.366,0.617-0.949,0.925-1.751,0.925c-0.801,0-1.441-0.286-1.919-0.86c-0.479-0.574-0.718-1.298-0.718-2.171
		c0-0.874,0.229-1.586,0.688-2.136c0.459-0.549,1.09-0.825,1.891-0.825c0.264,0,0.509,0.03,0.735,0.088
		c0.225,0.058,0.404,0.133,0.537,0.223c0.132,0.09,0.245,0.177,0.339,0.263c0.093,0.086,0.155,0.16,0.186,0.222l0.058,0.082h0.024
		c-0.008-0.055-0.012-0.117-0.012-0.188v-0.549h1.085v5.677c0,0.468-0.084,0.881-0.251,1.24c-0.167,0.359-0.395,0.642-0.682,0.849
		c-0.288,0.206-0.603,0.36-0.946,0.462c-0.342,0.101-0.708,0.152-1.097,0.152c-0.708,0-1.381-0.164-2.018-0.492L82.246,63.344z"/>
	<path class="st3" d="M87.811,56.345h1.132v5.922h-1.132V56.345z M87.799,54.005h1.143v1.159h-1.143V54.005z"/>
	<path class="st3" d="M89.771,59.306c0-0.882,0.297-1.619,0.892-2.212c0.595-0.594,1.351-0.89,2.269-0.89
		c0.435,0,0.839,0.073,1.208,0.217c0.369,0.145,0.632,0.291,0.787,0.439l0.222,0.211l-0.536,0.796
		c-0.047-0.047-0.115-0.109-0.205-0.188c-0.09-0.078-0.277-0.179-0.56-0.304c-0.285-0.124-0.575-0.187-0.869-0.187
		c-0.591,0-1.082,0.199-1.471,0.597c-0.388,0.398-0.583,0.901-0.583,1.51s0.197,1.116,0.589,1.522
		c0.393,0.406,0.893,0.608,1.5,0.608c0.327,0,0.643-0.067,0.946-0.199c0.303-0.132,0.525-0.265,0.665-0.398l0.209-0.199l0.456,0.831
		c-0.024,0.023-0.057,0.057-0.1,0.099c-0.042,0.043-0.138,0.119-0.286,0.228c-0.148,0.11-0.307,0.205-0.478,0.287
		c-0.172,0.082-0.392,0.158-0.66,0.228c-0.268,0.07-0.546,0.105-0.834,0.105c-0.925,0-1.684-0.292-2.275-0.878
		C90.066,60.945,89.771,60.204,89.771,59.306"/>
	<path class="st3" d="M96.633,58.616h3.151c-0.016-0.491-0.158-0.866-0.426-1.123c-0.268-0.258-0.601-0.386-0.998-0.386
		c-0.443,0-0.822,0.133-1.138,0.398C96.906,57.769,96.71,58.14,96.633,58.616 M95.431,59.306c0-0.928,0.278-1.677,0.834-2.247
		c0.556-0.57,1.263-0.855,2.118-0.855c0.801,0,1.427,0.262,1.878,0.785c0.451,0.523,0.677,1.186,0.677,1.989l-0.035,0.492h-4.305
		c0.031,0.624,0.238,1.106,0.623,1.446c0.386,0.339,0.854,0.509,1.406,0.509c0.303,0,0.602-0.058,0.893-0.176
		c0.292-0.117,0.508-0.23,0.647-0.339l0.21-0.176l0.467,0.831c-0.063,0.062-0.156,0.141-0.28,0.234
		c-0.124,0.093-0.385,0.218-0.782,0.375c-0.397,0.156-0.805,0.234-1.225,0.234c-0.918,0-1.669-0.295-2.252-0.884
		C95.722,60.935,95.431,60.196,95.431,59.306"/>
	<path class="st3" d="M101.755,62.268v-5.922h1.097v1.03l-0.023,0.445h0.023c0.141-0.452,0.375-0.823,0.706-1.112
		c0.33-0.289,0.718-0.434,1.161-0.434l0.292,0.023v1.124c-0.102-0.024-0.211-0.035-0.327-0.035c-0.366,0-0.7,0.125-1.003,0.375
		c-0.303,0.25-0.522,0.589-0.653,1.018c-0.093,0.304-0.141,0.659-0.141,1.065v2.423H101.755z"/>
	<path class="st3" d="M106.459,60.102V57.34h-0.77v-0.913h0.805v-1.709h1.097v1.709h1.423v0.913h-1.423v2.633
		c0,0.226,0.031,0.423,0.093,0.591c0.062,0.168,0.138,0.299,0.227,0.392c0.089,0.093,0.194,0.167,0.315,0.222
		c0.12,0.055,0.229,0.09,0.326,0.105c0.098,0.016,0.197,0.024,0.298,0.024l0.268-0.024v1.007c-0.109,0.016-0.241,0.023-0.397,0.023
		c-0.186,0-0.366-0.011-0.537-0.035c-0.171-0.023-0.366-0.081-0.584-0.176c-0.218-0.093-0.406-0.216-0.566-0.369
		c-0.159-0.152-0.295-0.369-0.408-0.65C106.516,60.804,106.459,60.477,106.459,60.102"/>
	<path class="st3" d="M109.745,55.537c-0.381,0-0.687-0.309-0.687-0.689c0-0.381,0.306-0.691,0.687-0.691
		c0.38,0,0.686,0.309,0.686,0.691C110.431,55.228,110.125,55.537,109.745,55.537 M109.745,53.989c-0.474,0-0.854,0.383-0.854,0.858
		c0,0.472,0.38,0.857,0.854,0.857c0.472,0,0.856-0.384,0.856-0.857C110.601,54.373,110.217,53.989,109.745,53.989"/>
	<path class="st3" d="M109.582,54.828h0.19c0.052,0,0.093-0.016,0.123-0.046c0.029-0.031,0.044-0.073,0.044-0.126
		c0-0.07-0.025-0.119-0.075-0.147c-0.027-0.014-0.07-0.021-0.129-0.021h-0.153V54.828z M109.45,55.321v-0.948h0.289
		c0.079,0,0.138,0.007,0.176,0.022c0.049,0.018,0.088,0.049,0.117,0.095c0.028,0.046,0.043,0.099,0.043,0.161
		c0,0.061-0.015,0.114-0.046,0.161c-0.031,0.047-0.072,0.078-0.124,0.096v0.002c0.007,0.008,0.016,0.022,0.028,0.043l0.201,0.368
		h-0.15l-0.199-0.377h-0.203v0.377H109.45z"/>
	<polygon class="st0" points="115.287,8.422 115.287,8.937 114.539,8.937 114.539,11.463 113.954,11.463 113.954,8.937 
		113.219,8.937 113.219,8.422 	"/>
	<polygon class="st0" points="115.707,11.462 115.707,8.422 116.497,8.422 117.023,10.413 117.558,8.422 118.355,8.422 
		118.355,11.462 117.874,11.462 117.874,9.085 117.86,9.085 117.249,11.462 116.82,11.462 116.202,9.085 116.189,9.085 
		116.189,11.462 	"/>
	<path class="st4" d="M17.874,59.35c0-0.659-0.141-1.178-0.42-1.559c-0.28-0.381-0.664-0.573-1.153-0.573
		c-0.602,0-1.054,0.269-1.354,0.805v2.79c0.297,0.532,0.752,0.798,1.366,0.798c0.477,0,0.857-0.19,1.138-0.569
		C17.733,60.662,17.874,60.099,17.874,59.35 M18.87,59.464c0,0.888-0.203,1.604-0.609,2.147c-0.405,0.544-0.954,0.816-1.645,0.816
		c-0.707,0-1.263-0.225-1.668-0.675v2.811h-0.996V56.48h0.91l0.048,0.647c0.405-0.503,0.968-0.756,1.689-0.756
		c0.7,0,1.251,0.265,1.66,0.794c0.407,0.528,0.611,1.264,0.611,2.207V59.464z"/>
	<path class="st4" d="M20.813,59.464c0,0.647,0.15,1.168,0.45,1.559c0.299,0.392,0.7,0.588,1.203,0.588
		c0.505,0,0.907-0.198,1.205-0.595c0.297-0.398,0.446-0.955,0.446-1.671c0-0.64-0.15-1.159-0.454-1.557
		c-0.303-0.397-0.706-0.596-1.209-0.596c-0.491,0-0.887,0.196-1.187,0.588C20.965,58.172,20.813,58.734,20.813,59.464
		 M19.814,59.345c0-0.572,0.111-1.087,0.336-1.544c0.224-0.457,0.537-0.81,0.936-1.057c0.401-0.248,0.857-0.373,1.369-0.373
		c0.794,0,1.434,0.275,1.924,0.825c0.49,0.551,0.735,1.283,0.735,2.197v0.07c0,0.568-0.108,1.078-0.326,1.53
		c-0.217,0.451-0.526,0.803-0.93,1.055c-0.404,0.251-0.866,0.377-1.391,0.377c-0.789,0-1.428-0.276-1.918-0.825
		c-0.49-0.551-0.734-1.279-0.734-2.186V59.345z"/>
	<polygon class="st4" points="31.459,60.942 32.579,56.48 33.574,56.48 31.879,62.318 31.074,62.318 29.658,57.893 28.282,62.318 
		27.474,62.318 25.786,56.48 26.774,56.48 27.921,60.85 29.277,56.48 30.078,56.48 	"/>
	<path class="st4" d="M36.821,57.192c-0.401,0-0.737,0.147-1.011,0.44c-0.272,0.294-0.44,0.704-0.505,1.233h2.916v-0.076
		c-0.029-0.507-0.166-0.9-0.409-1.18C37.567,57.332,37.239,57.192,36.821,57.192 M36.946,62.426c-0.789,0-1.431-0.26-1.926-0.78
		c-0.496-0.52-0.742-1.215-0.742-2.086v-0.183c0-0.579,0.109-1.097,0.33-1.552c0.221-0.455,0.529-0.811,0.925-1.068
		s0.825-0.386,1.287-0.386c0.758,0,1.346,0.25,1.766,0.751c0.419,0.499,0.629,1.215,0.629,2.147v0.416h-3.943
		c0.015,0.576,0.182,1.041,0.503,1.396c0.321,0.354,0.73,0.531,1.224,0.531c0.351,0,0.649-0.072,0.894-0.215
		c0.243-0.144,0.455-0.335,0.638-0.573l0.609,0.475C38.654,62.051,37.923,62.426,36.946,62.426"/>
	<path class="st4" d="M43.128,57.376c-0.151-0.025-0.315-0.038-0.49-0.038c-0.653,0-1.097,0.279-1.328,0.836v4.144h-0.996V56.48
		h0.969l0.016,0.674c0.326-0.521,0.789-0.782,1.387-0.782c0.194,0,0.34,0.025,0.443,0.076V57.376z"/>
	<path class="st4" d="M46.277,57.192c-0.4,0-0.737,0.147-1.011,0.44c-0.272,0.294-0.44,0.704-0.505,1.233h2.916v-0.076
		c-0.029-0.507-0.166-0.9-0.41-1.18C47.023,57.332,46.694,57.192,46.277,57.192 M46.401,62.426c-0.789,0-1.431-0.26-1.926-0.78
		c-0.496-0.52-0.743-1.215-0.743-2.086v-0.183c0-0.579,0.11-1.097,0.331-1.552c0.221-0.455,0.529-0.811,0.925-1.068
		c0.396-0.257,0.824-0.386,1.287-0.386c0.757,0,1.346,0.25,1.766,0.751c0.419,0.499,0.629,1.215,0.629,2.147v0.416h-3.942
		c0.013,0.576,0.18,1.041,0.502,1.396c0.321,0.354,0.73,0.531,1.224,0.531c0.351,0,0.649-0.072,0.893-0.215
		c0.244-0.144,0.457-0.335,0.64-0.573l0.608,0.475C48.109,62.051,47.377,62.426,46.401,62.426"/>
	<path class="st4" d="M50.52,59.464c0,0.662,0.137,1.18,0.41,1.554c0.271,0.374,0.649,0.561,1.129,0.561
		c0.631,0,1.092-0.284,1.384-0.852v-2.682c-0.298-0.55-0.756-0.826-1.372-0.826c-0.489,0-0.869,0.189-1.14,0.567
		C50.657,58.164,50.52,58.723,50.52,59.464 M49.525,59.351c0-0.896,0.213-1.616,0.636-2.162c0.422-0.544,0.975-0.817,1.661-0.817
		c0.682,0,1.223,0.234,1.621,0.702V54.03h0.995v8.288h-0.914l-0.049-0.626c-0.398,0.49-0.952,0.733-1.662,0.733
		c-0.676,0-1.224-0.277-1.65-0.83c-0.425-0.555-0.638-1.277-0.638-2.17V59.351z"/>
	<path class="st4" d="M62.531,59.35c0-0.679-0.13-1.205-0.392-1.575c-0.261-0.371-0.637-0.557-1.129-0.557
		c-0.656,0-1.128,0.306-1.415,0.918v2.525c0.304,0.611,0.78,0.918,1.425,0.918c0.477,0,0.849-0.186,1.115-0.556
		C62.4,60.653,62.531,60.096,62.531,59.35 M63.527,59.464c0,0.892-0.203,1.609-0.612,2.151c-0.41,0.541-0.959,0.812-1.647,0.812
		c-0.735,0-1.304-0.261-1.707-0.783l-0.048,0.675H58.6V54.03h0.995v3.092c0.401-0.5,0.956-0.75,1.662-0.75
		c0.707,0,1.262,0.268,1.666,0.804c0.402,0.537,0.604,1.27,0.604,2.202V59.464z"/>
	<path class="st4" d="M66.63,60.856l1.354-4.377h1.065l-2.34,6.74c-0.361,0.971-0.938,1.456-1.727,1.456l-0.188-0.016l-0.372-0.07
		v-0.81l0.268,0.022c0.337,0,0.601-0.069,0.789-0.205c0.189-0.137,0.344-0.386,0.466-0.75l0.221-0.593L64.09,56.48h1.087
		L66.63,60.856z"/>
</g>
</svg>
