<?xml version="1.0" encoding="utf-8"?>
<!-- Generator: Adobe Illustrator 22.1.0, SVG Export Plug-In . SVG Version: 6.00 Build 0)  -->
<svg version="1.1" id="Layer_1" xmlns="http://www.w3.org/2000/svg" xmlns:xlink="http://www.w3.org/1999/xlink" x="0px" y="0px"
	 width="143.5px" height="160px" viewBox="0 0 143.5 160" style="enable-background:new 0 0 143.5 160;" xml:space="preserve">
<style type="text/css">
	.st0{fill:#2A2F6C;}
</style>
<g>
	<g>
		<path class="st0" d="M56.73,98.62C40.29,95.1,27.96,80.49,27.96,63c0-20.12,16.31-36.43,36.43-36.43
			c17.97,0,32.88,13.01,35.88,30.12h26.39c-0.08-2.54-0.99-2.35-6.96-3.73c-4.83-1.11-7.02-3.6-9.37-8.07
			c-3.39-6.46-2.08-11.17,1.62-16.3c0.76-1.05,1.27-2.29,1.78-3.23c0.07-0.9-0.34-1.31-0.73-1.7c-3.25-3.25-6.52-6.49-9.76-9.76
			c-1.08-1.09-2.1-0.88-3.28-0.19c-2.68,1.55-5.46,2.94-8.08,4.58c-1.7,1.07-3.13,1.19-4.92,0.16c-2.76-1.6-5.75-2.81-8.85-3.58
			c-1.83-0.46-2.62-1.48-3.05-3.19c-0.78-3.09-1.79-6.13-2.58-9.22c-0.44-1.71-1.25-2.5-3.13-2.45C65.32,0.12,61.28,0.12,57.25,0
			c-2-0.06-2.83,0.82-3.28,2.65c-0.75,3.1-1.74,6.14-2.54,9.22c-0.39,1.5-1.11,2.46-2.68,2.9c-3.44,0.96-6.76,2.3-9.87,4.07
			c-1.35,0.77-2.45,0.52-3.67-0.18c-2.84-1.64-5.76-3.17-8.58-4.84c-1.46-0.87-2.53-0.69-3.7,0.54c-2.93,3.04-5.92,6.03-8.96,8.96
			c-1.15,1.1-1.3,2.08-0.48,3.45c1.73,2.9,3.32,5.88,5,8.82c0.72,1.24,0.84,2.42,0.09,3.71c-1.77,3.01-3.09,6.22-3.98,9.59
			c-0.41,1.55-1.33,2.32-2.85,2.71c-3.18,0.82-6.31,1.82-9.49,2.65C0.63,54.66-0.03,55.55,0,57.25c0.08,4.13,0.07,8.26,0.01,12.39
			c-0.02,1.69,0.7,2.59,2.31,3c3.09,0.8,6.14,1.75,9.23,2.53c1.62,0.41,2.6,1.27,3.06,2.9c0.89,3.17,2.12,6.23,3.76,9.08
			c0.97,1.68,0.84,3.12-0.12,4.72c-1.64,2.74-3.08,5.59-4.76,8.3c-0.85,1.38-0.73,2.3,0.42,3.41c3.11,2.99,6.18,6.03,9.17,9.15
			c1.14,1.19,2.07,1.19,3.42,0.37c2.89-1.75,5.9-3.3,8.81-5.02c1.36-0.81,2.52-0.78,3.92-0.01c2.96,1.63,6.05,3.02,9.34,3.87
			c1.63,0.42,2.52,1.31,2.94,2.99c0.76,3.09,1.79,6.12,2.59,9.21c0.4,1.54,1.17,2.3,2.63,2.41V98.62z"/>
	</g>
	<g>
		<path class="st0" d="M56.73,63.29v-6.6h6.6h26.56c-2.83-11.46-13.16-19.98-25.5-19.98C49.87,36.71,38.1,48.48,38.1,63
			c0,11.85,7.85,21.87,18.63,25.15V63.29z"/>
	</g>
	<g>
		<path class="st0" d="M125.73,77.45h-5.07v5.93h5.07c2.06,0,3.18-0.88,3.18-3.01C128.92,78.33,127.8,77.45,125.73,77.45z"/>
	</g>
	<g>
		<path class="st0" d="M63.33,63.29V160h80.16V63.29H63.33z M102.54,85.7c-3.12-0.82-6.28-2.03-6.28-5.99
			c0-4.31,4.07-6.37,7.88-6.37c4.39,0,8.43,1.92,8.43,6.78h-4.48c-0.15-2.53-1.95-3.18-4.16-3.18c-1.47,0-3.19,0.62-3.19,2.39
			c0,1.62,1,1.83,6.28,3.19c1.53,0.38,6.25,1.36,6.25,6.13c0,3.86-3.04,6.76-8.76,6.76c-4.66,0-9.03-2.3-8.97-7.49h4.48
			c0,2.8,2.18,3.89,4.66,3.89c1.62,0,4.1-0.47,4.1-2.62C108.79,86.91,105.63,86.53,102.54,85.7z M84.44,73.35
			c4.63,0,8.53,2.71,9.08,7.58h-4.48c-0.29-2.1-2.3-3.69-4.6-3.69c-4.16,0-5.72,3.54-5.72,7.23c0,3.51,1.56,7.05,5.72,7.05
			c2.83,0,4.43-1.95,4.78-4.72h4.48c-0.47,5.25-4.1,8.61-9.26,8.61c-6.52,0-10.35-4.87-10.35-10.94
			C74.09,78.21,77.93,73.35,84.44,73.35z M134.17,149.82h-61.5v-5.09h61.5V149.82z M134.17,131.16h-61.5v-5.09h61.5V131.16z
			 M134.17,112.49h-61.5v-5.09h61.5V112.49z M129.54,94.91c-0.56-1.33-0.5-3.37-0.74-5.04c-0.33-2.21-1.18-3.19-3.51-3.19h-4.63
			v8.23h-4.63V73.84h11.36c3.78,0,6.16,2.63,6.16,5.81c0,2.48-1,4.33-3.33,5.28V85c2.27,0.59,2.92,2.8,3.07,4.93
			c0.09,1.33,0.06,3.8,0.88,4.98H129.54z"/>
	</g>
</g>
</svg>
