<?xml version="1.0" encoding="utf-8"?>
<!-- Generator: Adobe Illustrator 22.1.0, SVG Export Plug-In . SVG Version: 6.00 Build 0)  -->
<svg version="1.1" id="Layer_1" xmlns="http://www.w3.org/2000/svg" xmlns:xlink="http://www.w3.org/1999/xlink" x="0px" y="0px"
	 width="180px" height="188.07px" viewBox="0 0 180 188.07" style="enable-background:new 0 0 180 188.07;" xml:space="preserve">
<style type="text/css">
	.st0{fill:#2A2F6C;}
</style>
<g>
	<g>
		<path class="st0" d="M108.07,87.57v-3.44h3.44h30.29V73.71l-40.91,8.97l-2.06,0.45l-1.34-1.63L79.62,59.71l-31.61,15.8l-1.49,0.74
			l-1.5-0.69c0,0-5.13-2.38-11.97-5.55v39.77l47.49,20.65l27.53-6.18L108.07,87.57L108.07,87.57z"/>
	</g>
	<g>
		<polygon class="st0" points="90.87,22.02 33.06,34.75 7.24,13.07 66.78,-0.01 		"/>
	</g>
	<g>
		<polygon class="st0" points="90.87,22.02 141.8,41.64 177.94,30.11 124.25,9.8 		"/>
	</g>
	<g>
		<path class="st0" d="M33.06,34.75L80.55,55.4L46.48,72.44c0,0-47.49-22.02-46.46-21.68C1.05,51.1,33.06,34.75,33.06,34.75z"/>
	</g>
	<g>
		<polygon class="st0" points="80.54,55.4 141.8,41.64 162.11,65.72 100.16,79.32 		"/>
	</g>
	<g>
		<path class="st0" d="M111.52,87.57v100.49H180V87.57H111.52z M170.19,167.07h-48.87v-3.44h48.87V167.07z M170.19,153.31h-48.87
			v-3.44h48.87V153.31z M170.19,139.54h-48.87v-3.44h48.87V139.54z M170.19,125.78h-48.87v-3.44h48.87V125.78z M170.19,112.01
			h-48.87v-3.44h48.87V112.01z"/>
	</g>
</g>
</svg>
