<?xml version="1.0" encoding="utf-8"?>
<!-- Generator: Adobe Illustrator 22.1.0, SVG Export Plug-In . SVG Version: 6.00 Build 0)  -->
<svg version="1.1" id="Layer_1" xmlns="http://www.w3.org/2000/svg" xmlns:xlink="http://www.w3.org/1999/xlink" x="0px" y="0px"
	 width="105.38px" height="140px" viewBox="0 0 105.38 140" style="enable-background:new 0 0 105.38 140;" xml:space="preserve">
<style type="text/css">
	.st0{fill:#2A306C;}
</style>
<g>
	<g>
		<path class="st0" d="M87.16,39.17h0.11c-0.02-0.63-0.12-1.01-0.42-1.29c0-0.01-0.01-0.01-0.01-0.02
			c-0.02-0.01-0.03-0.03-0.05-0.04c-0.23-0.28-0.57-0.47-1.07-0.6c-1.93-0.49-3.85-1.05-5.77-1.59c-1.33-0.75-2.29-1.83-3.19-3.31
			c-0.49-1.56-1.13-3.06-1.91-4.51c-0.58-2.92,0.4-5.39,2.3-8.02c0.52-0.73,0.87-1.58,1.22-2.22c0.05-0.54-0.16-0.82-0.4-1.06
			c-0.12-0.24-0.29-0.48-0.54-0.72c-2.05-1.97-4.06-3.99-6.04-6.03c-0.81-0.83-1.6-0.92-2.59-0.34c-1.89,1.12-3.84,2.14-5.73,3.26
			c-0.99,0.59-1.88,0.65-2.9,0.07c-1.98-1.11-4.07-2-6.26-2.59c-1.29-0.35-1.93-1.11-2.25-2.36c-0.54-2.13-1.22-4.22-1.73-6.36
			C49.68,0.37,49.17-0.02,48.07,0c-2.97,0.06-5.95,0.07-8.92,0.01c-1.13-0.02-1.59,0.43-1.84,1.48c-0.44,1.79-0.97,3.56-1.46,5.34
			c-0.14,0.48-0.28,0.96-0.41,1.44c-0.28,1.02-0.85,1.56-1.88,1.86c-2.24,0.65-4.42,1.48-6.44,2.66c-1,0.59-1.87,0.59-2.89-0.02
			c-1.88-1.14-3.86-2.11-5.75-3.23C17.53,9,16.78,9.01,16.02,9.66l0.08,0.08C16,9.83,15.9,9.89,15.79,10
			c-2.02,2.1-4.08,4.15-6.17,6.17c-0.79,0.76-0.89,1.43-0.33,2.37c1.19,2,2.29,4.05,3.45,6.07c0.49,0.86,0.58,1.67,0.06,2.55
			c-1.22,2.07-2.13,4.28-2.74,6.61c-0.28,1.07-0.92,1.6-1.97,1.87c-2.19,0.56-4.35,1.25-6.54,1.83C0.44,37.77-0.02,38.38,0,39.55
			c0.06,2.85,0.05,5.69,0.01,8.54C0,49.25,0.49,49.87,1.6,50.15c2.13,0.55,4.23,1.2,6.36,1.74c1.12,0.28,1.79,0.87,2.11,2
			c0.61,2.18,1.46,4.29,2.59,6.26c0.67,1.16,0.58,2.15-0.08,3.26c-1.13,1.89-2.12,3.85-3.28,5.72c-0.59,0.95-0.51,1.58,0.29,2.35
			c2.15,2.06,4.26,4.16,6.32,6.3c0.78,0.82,1.43,0.82,2.35,0.26c1.61-0.97,3.26-1.86,4.9-2.79c1.62-0.57,3.16-0.52,4.97-0.1
			c1.52,0.77,3.09,1.43,4.73,1.91c1.5,1.02,2.46,2.35,3.1,3.95c0.26,0.91,0.5,1.82,0.77,2.73c0.04,0.19,0.08,0.37,0.11,0.57
			c0.14,0.88,0.5,1.73,0.71,2.44c0.37,0.44,0.73,0.47,1.08,0.47c0.14,0.04,0.28,0.08,0.45,0.1v-0.1c3.05,0,6.1-0.02,9.16,0
			c1.05,0.01,1.45-0.59,1.69-1.51c0.55-2.06,1.23-4.09,1.71-6.17c0.31-1.35,0.95-2.11,2.32-2.47c2.13-0.57,4.17-1.43,6.06-2.57
			c1.11-0.67,2-0.56,3.04,0.07c1.89,1.12,3.86,2.11,5.75,3.23c1.04,0.62,1.83,0.61,2.72-0.33c1.91-2.02,3.88-3.99,5.9-5.9
			c1-0.95,0.98-1.78,0.31-2.89c-1.14-1.87-2.14-3.84-3.25-5.73c-0.54-0.92-0.66-1.74-0.11-2.72c1.21-2.15,2.17-4.41,2.82-6.79
			c0.28-1.03,0.94-1.45,1.88-1.7c2.18-0.59,4.35-1.26,6.54-1.82c1.14-0.29,1.57-0.9,1.54-2.07C87.1,44.96,87.1,42.06,87.16,39.17z
			 M43.8,69.62c-14.42,0-26.11-11.69-26.11-26.11c0-14.42,11.69-26.11,26.11-26.11S69.91,29.1,69.91,43.52
			C69.91,57.93,58.22,69.62,43.8,69.62z"/>
		<circle class="st0" cx="43.63" cy="43.66" r="18.47"/>
	</g>
	<g>
		<path class="st0" d="M105.2,115.46l0.08,0.02c0.13-0.44,0.14-0.72-0.01-0.98c0-0.01,0-0.01-0.01-0.02
			c-0.01-0.01-0.02-0.03-0.02-0.04c-0.1-0.24-0.29-0.45-0.6-0.65c-1.22-0.76-2.41-1.57-3.62-2.36c-0.75-0.81-1.17-1.76-1.46-2.97
			c0-1.18-0.11-2.35-0.32-3.51c0.25-2.13,1.46-3.61,3.34-5c0.52-0.38,0.95-0.89,1.33-1.26c0.15-0.36,0.07-0.6-0.04-0.82
			c-0.03-0.19-0.09-0.39-0.21-0.61c-0.98-1.8-1.91-3.63-2.83-5.47c-0.37-0.75-0.9-0.98-1.7-0.8c-1.54,0.35-3.11,0.63-4.65,0.98
			c-0.81,0.19-1.43,0.03-2.01-0.59c-1.11-1.2-2.35-2.27-3.73-3.15c-0.81-0.52-1.08-1.19-1.02-2.11c0.1-1.58,0.09-3.17,0.21-4.75
			c0.06-0.8-0.2-1.18-0.96-1.41c-2.05-0.61-4.1-1.26-6.13-1.95c-0.77-0.26-1.18-0.05-1.59,0.61c-0.7,1.13-1.45,2.23-2.18,3.35
			c-0.2,0.3-0.4,0.6-0.6,0.9c-0.41,0.64-0.92,0.89-1.7,0.86c-1.68-0.05-3.36,0.04-5,0.42c-0.81,0.19-1.41,0-1.98-0.65
			c-1.04-1.19-2.18-2.3-3.24-3.48c-0.53-0.59-1.04-0.75-1.71-0.47l0.04,0.07c-0.09,0.04-0.17,0.06-0.27,0.11
			c-1.84,1-3.71,1.96-5.59,2.88c-0.71,0.35-0.93,0.79-0.75,1.56c0.38,1.63,0.68,3.29,1.04,4.93c0.15,0.7,0.03,1.28-0.52,1.77
			c-1.29,1.16-2.4,2.47-3.33,3.94c-0.43,0.67-0.98,0.9-1.76,0.85c-1.63-0.09-3.26-0.09-4.89-0.18c-0.83-0.04-1.28,0.28-1.52,1.08
			c-0.59,1.97-1.22,3.92-1.87,5.86c-0.26,0.79-0.06,1.33,0.64,1.77c1.34,0.84,2.64,1.75,3.98,2.59c0.7,0.44,1.04,0.99,1.01,1.84
			c-0.06,1.63,0.06,3.27,0.41,4.87c0.2,0.94-0.08,1.6-0.77,2.22c-1.19,1.05-2.3,2.18-3.51,3.21c-0.61,0.52-0.69,0.98-0.31,1.67
			c1.02,1.88,2.01,3.79,2.95,5.72c0.36,0.73,0.8,0.87,1.56,0.69c1.32-0.31,2.65-0.56,3.98-0.84c1.23-0.04,2.28,0.33,3.43,1.02
			c0.87,0.87,1.81,1.66,2.83,2.35c0.8,1.03,1.18,2.15,1.27,3.39c-0.02,0.68-0.05,1.36-0.07,2.04c-0.02,0.14-0.03,0.27-0.05,0.42
			c-0.1,0.64-0.04,1.3-0.05,1.83c0.16,0.38,0.4,0.48,0.64,0.56c0.09,0.06,0.17,0.12,0.29,0.17l0.02-0.07
			c2.1,0.67,4.2,1.33,6.29,2.01c0.72,0.24,1.12-0.09,1.49-0.67c0.83-1.3,1.74-2.54,2.53-3.86c0.51-0.86,1.11-1.24,2.13-1.19
			c1.58,0.08,3.18-0.07,4.72-0.43c0.91-0.21,1.49,0.06,2.07,0.71c1.05,1.19,2.18,2.3,3.24,3.48c0.58,0.65,1.12,0.82,1.94,0.37
			c1.76-0.97,3.54-1.89,5.35-2.75c0.9-0.43,1.07-1.01,0.85-1.92c-0.37-1.54-0.63-3.11-0.98-4.65c-0.17-0.75-0.07-1.34,0.52-1.89
			c1.3-1.21,2.46-2.55,3.43-4.04c0.42-0.65,0.96-0.79,1.66-0.75c1.63,0.08,3.26,0.09,4.89,0.18c0.84,0.05,1.27-0.27,1.51-1.08
			C103.89,119.43,104.53,117.44,105.2,115.46z M68.75,126.87c-9.9-3.16-15.36-13.76-12.2-23.66c3.16-9.9,13.76-15.36,23.66-12.2
			c9.9,3.16,15.36,13.76,12.2,23.66C89.24,124.57,78.65,130.03,68.75,126.87z"/>
		<circle class="st0" cx="74.33" cy="109" r="13.31"/>
	</g>
</g>
</svg>
