<?xml version="1.0" encoding="utf-8"?>
<!-- Generator: Adobe Illustrator 22.1.0, SVG Export Plug-In . SVG Version: 6.00 Build 0)  -->
<svg version="1.1" id="Layer_1" xmlns="http://www.w3.org/2000/svg" xmlns:xlink="http://www.w3.org/1999/xlink" x="0px" y="0px"
	 width="141.97px" height="150px" viewBox="0 0 141.97 150" style="enable-background:new 0 0 141.97 150;" xml:space="preserve">
<style type="text/css">
	.st0{fill:#2A2F6C;}
</style>
<g>
	<g>
		<path class="st0" d="M74.86,105.47c1.7-1.64,3.56-3.03,5.54-4.13c-0.16-0.37-0.31-0.74-0.43-1.12l-8.36-2.61
			c-0.93,0.52-1.97,0.84-3.07,0.92c-0.16,0.01-0.32,0.02-0.49,0.02c-4,0-7.25-3.25-7.25-7.24V78.78c0-3.3,2.22-6.1,5.25-6.97
			c2.34-5,5.94-9.28,10.51-12.46c5.25-3.65,11.4-5.58,17.8-5.58s12.55,1.93,17.8,5.58c4.34,3.02,7.79,7.02,10.13,11.69l19.66-14.26
			l-12.47-17.19c-6.19,4.49-14.83,3.11-19.32-3.08c-4.49-6.18-3.11-14.83,3.08-19.32L100.77,0L0,73.11L12.47,90.3
			c6.19-4.49,14.83-3.11,19.32,3.08c4.49,6.18,3.11,14.83-3.07,19.32l12.47,17.2l33.64-24.41L74.86,105.47z"/>
	</g>
	<g>
		<path class="st0" d="M111.74,107.83L111.74,107.83c-1.99-1.92-4.29-3.53-6.97-4.69c5.98-3.53,10-10.03,10-17.48
			c0-11.22-9.1-20.32-20.32-20.32c0,0-0.01,0-0.01,0c0,0-0.01,0-0.01,0c-11.22,0-20.32,9.1-20.32,20.32c0,0.81,0.06,1.62,0.15,2.41
			l8.92,2.78c1.83-1.34,4.21-2.08,6.81-2.08c0.07,0,0.15,0,0.22,0c1.04,0.02,2.08,0.15,3.11,0.4c6.3,1.53,10.24,6.82,8.97,12.04
			c-1.01,4.18-5.1,6.99-10.16,6.99c-0.07,0-0.15,0-0.22,0c-1.03-0.02-2.08-0.15-3.11-0.4c-2.68-0.65-4.96-1.99-6.57-3.73
			c-1.9,1.04-3.59,2.31-5.09,3.77h0C63.3,121.21,64.95,150,64.95,150h24.88h2.4h4.44h4.71h22.56
			C123.94,150,125.6,121.21,111.74,107.83z"/>
	</g>
	<g>
		<path class="st0" d="M120.7,74.83c-0.1,0-0.19,0.01-0.29,0.02c-4.09-10.39-14.21-17.77-26.04-17.77s-21.95,7.38-26.03,17.77
			c-0.09-0.01-0.19-0.02-0.29-0.02c-2.18,0-3.95,1.77-3.95,3.95v12.52c0,2.18,1.77,3.95,3.95,3.95c0.1,0,0.19-0.01,0.29-0.01
			c1.04-0.08,1.97-0.55,2.63-1.28l11.93,3.72c-0.04,3.05,2.67,5.96,6.68,6.93c0.79,0.19,1.6,0.3,2.39,0.31
			c3.6,0.06,6.46-1.74,7.12-4.47c0.83-3.43-2.04-6.97-6.55-8.06c-0.79-0.19-1.6-0.3-2.39-0.31c-2.63-0.04-4.87,0.91-6.14,2.5
			l-12.01-3.75V78.78c0-0.87-0.29-1.67-0.76-2.33c3.49-9.38,12.54-16.09,23.13-16.09c10.59,0,19.64,6.7,23.13,16.09
			c-0.48,0.65-0.76,1.46-0.76,2.33v12.52c0,0.87,0.28,1.67,0.76,2.33c0.67,0.91,1.71,1.52,2.91,1.61c0.09,0.01,0.19,0.01,0.29,0.01
			c2.18,0,3.95-1.77,3.95-3.95V78.78C124.65,76.6,122.88,74.83,120.7,74.83z"/>
	</g>
</g>
</svg>
