<?xml version="1.0" encoding="utf-8"?>
<!-- Generator: Adobe Illustrator 22.1.0, SVG Export Plug-In . SVG Version: 6.00 Build 0)  -->
<svg version="1.1" id="Layer_1" xmlns="http://www.w3.org/2000/svg" xmlns:xlink="http://www.w3.org/1999/xlink" x="0px" y="0px"
	 width="180px" height="160px" viewBox="0 0 180 160" style="enable-background:new 0 0 180 160;" xml:space="preserve">
<style type="text/css">
	.st0{fill:none;}
	.st1{fill:#2A2F6C;}
</style>
<g>
	<g>
		<polygon class="st0" points="85.71,111.41 80.3,115.04 76,117.94 80.44,123.07 83.2,126.24 90.32,134.45 103.04,125.9 
			104.89,124.66 111.21,120.4 103.45,111.46 100.83,87.17 100.3,82.27 95.4,82.8 90.5,83.32 85.59,83.85 86.12,88.76 86.54,92.63 
			86.76,92.88 86.58,93 88.38,109.61 		"/>
	</g>
	<g>
		<g>
			<polygon class="st1" points="170.46,89.8 170.46,106.71 180,100.3 			"/>
		</g>
		<g>
			<polygon class="st1" points="145.48,62.33 88.79,0 44.63,29.7 47.59,29.38 52.5,28.84 53.03,33.75 55.65,58.04 62.13,65.52 
				61.67,61.24 61.14,56.33 66.04,55.8 70.95,55.27 75.84,54.74 76.37,59.64 79,83.93 86.54,92.63 86.12,88.76 85.59,83.85 
				90.5,83.32 95.4,82.8 100.3,82.27 100.83,87.17 103.45,111.46 111.21,120.4 104.89,124.66 103.04,125.9 90.32,134.45 
				83.2,126.24 80.44,123.07 76,117.94 80.3,115.04 85.71,111.41 88.38,109.61 86.58,93 80.43,97.13 78.59,98.37 65.86,106.92 
				58.75,98.71 55.99,95.54 51.54,90.41 55.85,87.52 61.25,83.88 63.93,82.08 62.36,67.68 57.08,71.24 55.23,72.48 42.52,81.04 
				35.4,72.83 32.64,69.64 28.2,64.52 32.5,61.62 37.9,57.99 40.57,56.2 38.31,35.34 38.18,34.04 0,59.71 91.21,160 145.48,123.51 
							"/>
		</g>
	</g>
	<g>
		<polygon class="st1" points="86.54,92.63 86.58,93 86.76,92.88 		"/>
	</g>
	<g>
		<g>
			<polygon class="st1" points="51.73,67.61 37.54,67.86 37.46,62.93 46.25,62.78 43.22,34.81 48.12,34.28 			"/>
		</g>
	</g>
	<g>
		<g>
			<polygon class="st1" points="75.08,93.5 60.89,93.74 60.8,88.82 69.6,88.67 66.57,60.7 71.48,60.17 			"/>
		</g>
	</g>
	<g>
		<g>
			<polygon class="st1" points="99.53,121.03 85.35,121.28 85.26,116.34 94.05,116.19 91.03,88.23 95.92,87.7 			"/>
		</g>
	</g>
	<g>
		<path class="st1" d="M161.93,19.31V17.5h-7.92v10.03h-3.6v108.15h1.45c0.36,3.54,1.43,6.53,2.89,8.33l3.22,5.63l3.22-5.63
			c1.46-1.81,2.53-4.8,2.89-8.33h1.45V27.53h-3.6v-3.28h6.72v44.87h4.93V19.31H161.93z"/>
	</g>
</g>
</svg>
