<?xml version="1.0" encoding="utf-8"?>
<!-- Generator: Adobe Illustrator 22.1.0, SVG Export Plug-In . SVG Version: 6.00 Build 0)  -->
<svg version="1.1" id="Layer_1" xmlns="http://www.w3.org/2000/svg" xmlns:xlink="http://www.w3.org/1999/xlink" x="0px" y="0px"
	 width="162.24px" height="150px" viewBox="0 0 162.24 150" style="enable-background:new 0 0 162.24 150;" xml:space="preserve">
<style type="text/css">
	.st0{fill:#2A2F6C;}
	.st1{fill:#29306C;}
</style>
<g>
	<g>
		<path class="st0" d="M85.44,101.78l-9.07-10.02c-2.48,0.83-5.12,1.26-7.74,1.26c-6.49,0-12.6-2.53-17.19-7.12
			c-6.18-6.18-8.57-15.26-6.24-23.69l1.58-5.73l4.2,4.2l11.35,11.35l7.6-2.03l2.03-7.6L60.61,51.05l-4.2-4.2l5.73-1.58
			c2.11-0.58,4.3-0.88,6.49-0.88c6.49,0,12.6,2.53,17.19,7.12c6.52,6.52,8.74,16.24,5.88,24.87l10.1,9.14
			c2.53-4.98,3.97-10.6,3.97-16.56c0-20.22-16.45-36.67-36.67-36.67c-20.22,0-36.67,16.45-36.67,36.67
			c0,20.22,16.45,36.67,36.67,36.67C74.97,105.63,80.51,104.24,85.44,101.78z"/>
	</g>
	<g>
		<path class="st0" d="M64.45,128.34l0.53-0.54l17.17-17.17c-4.13,1.29-8.51,2-13.06,2c-24.08,0-43.67-19.59-43.67-43.67
			c0-24.08,19.59-43.67,43.67-43.67s43.67,19.59,43.67,43.67c0,5.79-1.14,11.32-3.2,16.38l1.38,1.38l2.03,2.03l19.87-18.75
			l-8.48-4.8l12.73-9.49l-15.33-4.15l9.97-12.36l-15.88-0.2l6.58-14.45l-15.43,3.76l2.78-15.64l-14.01,7.48l-1.2-15.84L82.87,15.04
			L77.77,0L69.1,13.3L60.42,0l-5.1,15.04L43.61,4.32l-1.2,15.84L28.4,12.68l2.78,15.64l-15.43-3.76l6.58,14.45l-15.88,0.2
			l9.97,12.36L1.09,55.71l12.74,9.5L0,73.03l14.69,6.03L3.25,90.08l15.73,2.19l-8.34,13.51l15.78-1.79l-4.72,15.16l14.84-5.66
			l-0.8,15.86l12.97-9.17l3.17,15.56l10.28-12.11L64.45,128.34z"/>
	</g>
	<g>
		<g>
			<polygon class="st1" points="125.07,111.46 111.31,125.22 133.73,150 149.97,133.76 125.19,111.34 			"/>
		</g>
		<g>
			<path class="st1" d="M77.33,87.66l12.5,13.82l11.62-11.62L87.62,77.35c3.5-7.69,2.09-17.06-4.24-23.39
				c-5.5-5.5-13.32-7.29-20.32-5.35l12.77,12.77l-3.07,11.46L61.3,75.9L48.53,63.13c-1.93,7-0.15,14.82,5.35,20.32
				C60.23,89.79,69.63,91.19,77.33,87.66z"/>
		</g>
	</g>
	<g>
		<polygon class="st0" points="121.88,102.55 120.34,101.01 150.02,69.56 151.59,71.14 162.24,57.58 156.34,51.68 142.79,62.33 
			144.36,63.91 112.91,93.58 111.37,92.04 108.51,89.17 105.64,92.04 67.43,130.26 64.56,133.12 67.43,135.99 77.93,146.5 
			80.8,149.36 83.67,146.5 121.88,108.28 124.75,105.41 		"/>
	</g>
</g>
</svg>
