<?xml version="1.0" encoding="utf-8"?>
<!-- Generator: Adobe Illustrator 22.1.0, SVG Export Plug-In . SVG Version: 6.00 Build 0)  -->
<svg version="1.1" id="Layer_1" xmlns="http://www.w3.org/2000/svg" xmlns:xlink="http://www.w3.org/1999/xlink" x="0px" y="0px"
	 width="200px" height="119.09px" viewBox="0 0 200 119.09" style="enable-background:new 0 0 200 119.09;" xml:space="preserve">
<style type="text/css">
	.st0{fill:#29306C;}
	.st1{fill:#2A2F6C;}
	.st2{fill:#28316C;}
</style>
<g>
	<g>
		<path class="st0" d="M146.73,49.2c-0.03-0.45-0.09-0.9-0.14-1.35c-0.01,0-0.01,0-0.02,0c-0.78-7.52-3.29-14.58-7.18-20.84
			c-0.06-0.09-0.11-0.18-0.17-0.27c-0.36-0.58-0.74-1.15-1.13-1.72c-0.13-0.19-0.26-0.37-0.39-0.56c-0.33-0.46-0.66-0.93-1-1.38
			c-0.21-0.28-0.43-0.56-0.65-0.83c-0.28-0.35-0.56-0.71-0.85-1.06c-0.3-0.36-0.61-0.72-0.92-1.08c-0.22-0.26-0.44-0.51-0.67-0.76
			c-0.39-0.43-0.8-0.86-1.2-1.28c-0.16-0.17-0.32-0.34-0.49-0.51c-0.48-0.49-0.97-0.96-1.47-1.43c-0.11-0.1-0.21-0.2-0.32-0.3
			c-0.56-0.52-1.13-1.02-1.71-1.52c-0.06-0.05-0.12-0.1-0.18-0.15c-0.62-0.52-1.25-1.03-1.9-1.53c-0.03-0.02-0.06-0.05-0.09-0.07
			c-0.65-0.5-1.32-0.99-2-1.47c-0.03-0.02-0.06-0.04-0.09-0.06c-0.65-0.46-1.32-0.9-2-1.34c-0.06-0.04-0.12-0.08-0.19-0.12
			c-0.61-0.39-1.24-0.76-1.87-1.13c-0.14-0.08-0.27-0.17-0.41-0.24c-0.52-0.3-1.05-0.58-1.57-0.87c-0.27-0.14-0.53-0.29-0.79-0.43
			c-0.36-0.19-0.73-0.36-1.1-0.54c-0.45-0.22-0.89-0.45-1.35-0.66c-0.14-0.06-0.29-0.12-0.43-0.19C106.61,2,97.77,0,88.4,0
			C56.13,0,29.97,23.65,29.97,52.82c0,4.58,0.65,9.02,1.86,13.26l0,0L0,91.66l4.55-0.54l38.83-4.63
			c10.72,11.7,26.91,19.16,45.03,19.16c15.1,0,28.86-5.18,39.23-13.68l0,0c0.37-0.31,0.75-0.61,1.12-0.92
			c11.69-10.09,18.13-23.66,18.13-38.22C146.88,51.74,146.84,50.59,146.73,49.2z M93.18,79.07H81.87V67.98h11.31V79.07z
			 M99.66,52.49c-3.09,2.31-6.41,4.18-7.06,8.43v2.74h-9.73v-3.24c0.43-6.27,3.39-9.08,6.27-11.31c2.81-2.23,5.26-3.89,5.26-7.78
			c0-4.39-2.31-6.48-6.12-6.48c-5.19,0-7.35,4.25-7.42,9.36H70.27c0.22-10.3,6.99-17.79,17.5-17.79c13.62,0,17.94,8.36,17.94,13.9
			C105.71,47.3,102.76,50.11,99.66,52.49z"/>
	</g>
	<g>
		<g>
			<path class="st1" d="M177.66,105.14c-0.32-0.16-0.67-0.25-1.02-0.25c-0.35,0-0.7,0.08-1.02,0.25c-4.54,2.33-9.75,3.56-15.06,3.56
				c-4.23,0-8.44-0.76-12.5-2.27c-5.88-2.18-10.97-5.73-14.85-10.35c13.16-11.38,20.41-26.75,20.41-43.27
				c0-1.18-0.05-2.41-0.15-3.85c0.88-0.07,1.77-0.1,2.65-0.1c4.22,0,8.4,0.75,12.41,2.24c17,6.29,26.24,23.82,20.59,39.07
				c-0.86,2.33-2.05,4.53-3.52,6.54c-0.39,0.53-0.53,1.21-0.37,1.85c0.06,0.24,0.16,0.47,0.29,0.67l8.56,14.29L177.66,105.14z"/>
		</g>
		<g>
			<path class="st2" d="M156.1,51.11L156.1,51.11c3.95,0,7.87,0.71,11.64,2.1c15.84,5.86,24.48,22.1,19.27,36.19
				c-0.79,2.13-1.87,4.15-3.22,5.99c-1,1.36-1.15,3.16-0.39,4.66c0.05,0.1,0.1,0.2,0.16,0.29l4.57,7.64l-9.33-4.78
				c-0.67-0.37-1.41-0.55-2.16-0.55c-0.7,0-1.4,0.17-2.05,0.5c-4.22,2.17-9.07,3.32-14.04,3.32c-3.97,0-7.91-0.72-11.72-2.13
				c-4.8-1.78-9.05-4.54-12.47-8.08c12.58-11.65,19.48-26.98,19.48-43.44c0-0.56-0.01-1.12-0.03-1.71
				C155.91,51.11,156.01,51.11,156.1,51.11 M156.1,46.63c-1.72,0-3.42,0.12-5.1,0.35c0.07,0.63,0.14,1.25,0.19,1.89
				c0.11,1.5,0.16,2.76,0.16,3.95c0,15.88-6.99,30.66-19.68,41.62c-0.52,0.45-1.07,0.89-1.6,1.32c4.11,5.56,9.99,10.12,17.19,12.78
				c4.41,1.63,8.91,2.4,13.28,2.4c5.75,0,11.27-1.34,16.09-3.81v0l20.91,10.7l2.45,1.25l-12.6-21.05c0,0,0,0,0,0h0
				c1.57-2.13,2.86-4.5,3.81-7.08c6.08-16.44-3.73-35.22-21.92-41.95C164.91,47.39,160.45,46.63,156.1,46.63L156.1,46.63z"/>
		</g>
	</g>
</g>
</svg>
