<?xml version="1.0" encoding="utf-8"?>
<!-- Generator: Adobe Illustrator 23.0.3, SVG Export Plug-In . SVG Version: 6.00 Build 0)  -->
<svg version="1.1" id="Layer_1" xmlns="http://www.w3.org/2000/svg" xmlns:xlink="http://www.w3.org/1999/xlink" x="0px" y="0px"
	 width="180px" height="99.325px" viewBox="0 0 180 99.325" style="enable-background:new 0 0 180 99.325;" xml:space="preserve">
<style type="text/css">
	.st0{fill:#7A4F2F;}
	.st1{fill:#FFFFFF;}
	.st2{fill:#E75726;}
	.st3{fill:#E85626;}
	.st4{fill:#F3C716;}
</style>
<g>
	<rect y="0" class="st0" width="180" height="99.325"/>
	<rect x="0.868" y="0.867" class="st1" width="178.263" height="97.59"/>
	<g>
		<g>
			<path class="st0" d="M25.898,47.005c0-2.953-2.266-2.678-2.266-2.678h-5.63v5.493h5.63C23.7,49.752,25.898,50.095,25.898,47.005
				 M13.47,61.974V39.864h10.849c0,0,6.111-0.343,6.111,7.004c0,0,0.275,5.974-4.463,5.974l4.6,9.132h-5.424l-4.394-8.446H18.07
				v8.446L13.47,61.974"/>
			<path class="st0" d="M35.648,56.137c0.687,2.953,3.09,1.785,3.09,1.785c2.266-1.511,1.648-3.776,1.648-3.776
				C34.961,52.842,35.648,56.137,35.648,56.137 M34.068,49.683v-4.6c0,0,2.403-0.824,4.188-0.755c0,0,5.905-0.618,6.523,4.532
				v12.153h-3.708v-0.687c0,0-1.785,1.442-3.845,1.511c0,0-6.18,0.755-6.248-5.562c0,0-0.961-5.699,6.729-5.699
				c0,0,1.236-0.137,3.227,0.687c0,0-0.275-3.09-2.678-3.159C37.845,48.104,36.609,47.967,34.068,49.683"/>
			<polyline class="st0" points="66.889,60.944 62.564,60.944 62.495,44.945 66.821,44.945 66.889,60.944 			"/>
			<path class="st0" d="M54.049,57.991c2.197,0,3.09-2.884,3.09-4.6c0-1.717-1.099-4.532-3.158-4.532
				c-2.197,0-2.403,1.442-2.403,1.442v6.248C52.813,57.854,54.049,57.991,54.049,57.991 M47.252,67.055l-0.069-22.109h4.463v0.824
				c0,0,1.236-1.511,3.708-1.373c0,0,5.562-0.412,6.111,8.858c0,0,0.412,9.407-6.729,8.72c0,0-1.236-0.069-3.021-1.167v4.12
				L47.252,67.055"/>
			<path class="st0" d="M76.022,48.173c-2.129,0-3.09,2.953-3.09,4.6c0,1.717,1.03,4.532,3.159,4.532
				c2.129,0,2.403-1.442,2.403-1.442v-6.248C77.326,48.31,76.022,48.173,76.022,48.173 M82.819,39.109l0.069,22.109h-4.463v-0.755
				c0,0-1.167,1.511-3.708,1.373c0,0-5.562,0.412-6.111-8.858c0,0-0.412-9.407,6.729-8.72c0,0,1.305,0.069,3.021,1.167v-4.12
				L82.819,39.109"/>
			<path class="st2" d="M87.832,54.902c0,0,3.502,3.227,6.866,1.923c0.481-0.206,0.687-0.275,1.373-0.893
				c0,0,1.854-2.403-2.953-3.433c0,0-7.347-1.099-7.965-5.562c0,0-1.305-6.111,5.356-7.416c0,0,4.738-2.129,10.093,3.158
				l-3.159,2.953c0,0-4.188-3.57-6.935-1.03c0,0-1.305,1.854,1.305,2.884c0,0,7.965,0.755,8.789,5.356c0,0,1.854,5.356-3.708,7.965
				c0,0-4.806,2.403-8.995-0.275c-1.167-0.824-3.433-2.884-3.433-2.884L87.832,54.902"/>
			<path class="st2" d="M104.86,54.902c0,0,5.218,4.12,8.24,0.961c0,0,1.854-2.403-2.953-3.433c0,0-7.004-1.167-7.965-5.562
				c0,0-1.305-6.111,5.287-7.416c0,0,4.806-2.197,10.162,3.159l-3.159,2.953c0,0-4.463-3.914-6.935-1.03
				c0,0-1.305,1.854,1.305,2.884c0,0,7.553,0.893,8.72,5.356c0,0,1.923,5.356-3.708,7.965c0,0-4.6,2.266-8.995-0.206
				c-1.167-0.824-3.502-2.953-3.502-2.953L104.86,54.902"/>
			<polyline class="st2" points="130.677,56.275 125.871,56.275 125.802,39.521 121.202,39.521 121.27,61.562 133.904,61.562 
				130.677,56.275 			"/>
		</g>
		<circle class="st0" cx="64.692" cy="41.306" r="2.197"/>
	</g>
	<path class="st3" d="M137.299,57.689c-1.167,0-2.06,0.893-2.06,2.06s0.893,2.06,2.06,2.06s2.06-0.893,2.06-2.06
		S138.467,57.689,137.299,57.689z M137.849,59.268c0,0.343-0.275,0.343-0.618,0.343h-0.275v-0.687h0.481
		C137.78,58.925,137.849,59.131,137.849,59.268z M137.711,59.955c0.343-0.069,0.549-0.343,0.549-0.687
		c0-0.481-0.275-0.687-0.824-0.687h-0.961v2.472h0.412v-1.099h0.343l0.618,1.03l0,0h0.481c-0.275,0.275-0.687,0.412-1.099,0.412
		c-0.961,0-1.648-0.687-1.648-1.648c0-0.961,0.687-1.648,1.648-1.648c0.961,0,1.648,0.687,1.648,1.648
		c0,0.481-0.206,0.893-0.481,1.236L137.711,59.955z"/>
	<g>
		<path class="st0" d="M174.355,62.026h-27.04c-1.551,0-2.819,1.269-2.819,2.819c0,1.551,1.269,2.819,2.819,2.819h27.04
			c1.551,0,2.819-1.269,2.819-2.819C177.174,63.294,175.905,62.026,174.355,62.026z"/>
		<path class="st0" d="M147.025,60.508h27.04c1.551,0,2.819-1.269,2.819-2.819v0c0-1.551-1.269-2.819-2.819-2.819h-27.04
			c-1.551,0-2.819,1.269-2.819,2.819v0C144.206,59.239,145.474,60.508,147.025,60.508z"/>
		<path class="st0" d="M147.314,53.166h1.891v0.048l3.768-0.048h16.318l3.768,0.048v-0.048h1.294c1.551,0,2.819-1.269,2.819-2.819
			c0-1.551-1.269-2.819-2.819-2.819h-1.294v-3.574c0-5.904-4.831-10.735-10.735-10.735h-2.386c-5.904,0-10.735,4.831-10.735,10.735
			v3.574h-1.891c-1.551,0-2.819,1.269-2.819,2.819C144.495,51.897,145.764,53.166,147.314,53.166z M153.759,44.687
			c0-4.055,3.318-7.373,7.373-7.373c4.055,0,7.374,3.318,7.374,7.373v2.84h-14.747V44.687z"/>
	</g>
	<g>
		<path class="st0" d="M176.692,3.433L14.402,3.414c-5.948,0-10.77,5.169-10.77,11.546v16.377h162.289
			c5.949,0,10.771-5.17,10.771-11.547V3.433z"/>
		<g>
			<path class="st1" d="M12.355,19.873l2.806-0.273c0.169,0.942,0.511,1.633,1.028,2.075c0.516,0.442,1.213,0.662,2.09,0.662
				c0.929,0,1.628-0.196,2.099-0.589c0.471-0.393,0.706-0.852,0.706-1.379c0-0.338-0.099-0.625-0.297-0.862
				c-0.198-0.237-0.544-0.443-1.038-0.619c-0.338-0.117-1.107-0.325-2.309-0.623c-1.546-0.383-2.63-0.854-3.254-1.413
				c-0.877-0.786-1.315-1.744-1.315-2.874c0-0.727,0.206-1.408,0.619-2.041c0.412-0.633,1.007-1.115,1.783-1.447
				c0.776-0.331,1.713-0.497,2.811-0.497c1.793,0,3.142,0.393,4.048,1.179c0.906,0.786,1.382,1.835,1.427,3.147l-2.884,0.127
				c-0.123-0.734-0.388-1.262-0.794-1.583c-0.406-0.321-1.015-0.482-1.827-0.482c-0.838,0-1.494,0.172-1.968,0.516
				c-0.305,0.221-0.458,0.516-0.458,0.887c0,0.338,0.143,0.627,0.429,0.867c0.364,0.305,1.247,0.623,2.65,0.955
				s2.44,0.674,3.113,1.028c0.672,0.354,1.198,0.838,1.578,1.452c0.38,0.614,0.57,1.372,0.57,2.275c0,0.818-0.227,1.585-0.682,2.299
				c-0.455,0.715-1.098,1.246-1.929,1.593c-0.831,0.347-1.867,0.521-3.108,0.521c-1.806,0-3.192-0.417-4.16-1.252
				C13.121,22.687,12.543,21.471,12.355,19.873z"/>
			<path class="st1" d="M29.227,24.52V10.239h10.59v2.416H32.11v3.166h7.17v2.406h-7.17v3.887h7.979v2.406H29.227z"/>
			<path class="st1" d="M54.506,19.269l2.796,0.887c-0.429,1.559-1.142,2.717-2.138,3.473c-0.997,0.757-2.262,1.135-3.795,1.135
				c-1.897,0-3.455-0.648-4.676-1.944c-1.221-1.296-1.832-3.067-1.832-5.314c0-2.377,0.614-4.223,1.841-5.538
				c1.228-1.315,2.841-1.973,4.842-1.973c1.747,0,3.166,0.516,4.257,1.549c0.649,0.611,1.136,1.487,1.461,2.63l-2.854,0.682
				c-0.169-0.74-0.521-1.325-1.057-1.754c-0.536-0.429-1.187-0.643-1.953-0.643c-1.059,0-1.918,0.38-2.577,1.14
				c-0.659,0.76-0.989,1.991-0.989,3.692c0,1.806,0.325,3.092,0.974,3.858c0.649,0.766,1.494,1.15,2.533,1.15
				c0.766,0,1.426-0.244,1.978-0.731C53.869,21.082,54.265,20.315,54.506,19.269z"/>
			<path class="st1" d="M62.59,10.239h2.884v7.735c0,1.228,0.036,2.023,0.107,2.387c0.123,0.585,0.417,1.054,0.882,1.408
				c0.464,0.354,1.099,0.531,1.905,0.531c0.818,0,1.435-0.167,1.851-0.502c0.416-0.334,0.666-0.745,0.75-1.232
				c0.084-0.487,0.127-1.296,0.127-2.426v-7.901h2.884v7.501c0,1.715-0.078,2.926-0.234,3.634c-0.156,0.708-0.443,1.305-0.862,1.793
				c-0.418,0.487-0.979,0.875-1.68,1.164s-1.617,0.434-2.747,0.434c-1.364,0-2.398-0.158-3.103-0.472
				c-0.705-0.315-1.262-0.724-1.671-1.228c-0.409-0.503-0.679-1.031-0.809-1.583c-0.188-0.818-0.283-2.026-0.283-3.624V10.239z"/>
			<path class="st1" d="M79.861,24.52V10.239h6.069c1.526,0,2.635,0.128,3.327,0.385c0.691,0.257,1.245,0.713,1.661,1.369
				c0.416,0.656,0.623,1.406,0.623,2.25c0,1.072-0.315,1.957-0.945,2.655c-0.63,0.698-1.572,1.138-2.825,1.32
				c0.623,0.364,1.138,0.763,1.544,1.198c0.406,0.435,0.953,1.208,1.641,2.319l1.744,2.786h-3.449l-2.085-3.108
				c-0.74-1.111-1.247-1.81-1.52-2.099c-0.273-0.289-0.562-0.487-0.867-0.594c-0.305-0.107-0.789-0.161-1.452-0.161h-0.585v5.962
				H79.861z M82.745,16.279h2.134c1.383,0,2.247-0.058,2.591-0.175s0.614-0.318,0.809-0.604c0.195-0.286,0.292-0.643,0.292-1.072
				c0-0.481-0.128-0.869-0.385-1.164c-0.257-0.295-0.619-0.482-1.086-0.56c-0.234-0.032-0.935-0.049-2.104-0.049h-2.25V16.279z"/>
			<path class="st1" d="M97.093,24.52V10.239h10.59v2.416h-7.706v3.166h7.17v2.406h-7.17v3.887h7.979v2.406H97.093z"/>
			<path class="st1" d="M113.224,10.239h5.27c1.189,0,2.095,0.091,2.718,0.273c0.838,0.247,1.555,0.685,2.153,1.315
				c0.598,0.63,1.052,1.401,1.364,2.314c0.312,0.913,0.468,2.038,0.468,3.376c0,1.176-0.146,2.189-0.438,3.04
				c-0.357,1.039-0.867,1.88-1.53,2.523c-0.5,0.487-1.175,0.867-2.026,1.14c-0.637,0.201-1.487,0.302-2.552,0.302h-5.426V10.239z
				 M116.107,12.655v9.46h2.153c0.805,0,1.387-0.045,1.744-0.136c0.468-0.117,0.856-0.315,1.164-0.594
				c0.309-0.279,0.56-0.739,0.755-1.379c0.195-0.64,0.292-1.512,0.292-2.616c0-1.104-0.097-1.952-0.292-2.543
				c-0.195-0.591-0.468-1.052-0.818-1.383s-0.795-0.555-1.335-0.672c-0.403-0.091-1.192-0.136-2.367-0.136H116.107z"/>
			<path class="st1" d="M138.862,10.239h5.709c1.13,0,1.973,0.047,2.528,0.141c0.556,0.094,1.052,0.291,1.491,0.589
				c0.438,0.299,0.804,0.697,1.096,1.193c0.292,0.497,0.438,1.054,0.438,1.671c0,0.669-0.18,1.283-0.54,1.841
				c-0.361,0.559-0.849,0.978-1.466,1.257c0.87,0.253,1.539,0.685,2.007,1.296c0.468,0.611,0.701,1.328,0.701,2.153
				c0,0.65-0.151,1.281-0.453,1.895c-0.302,0.614-0.714,1.104-1.237,1.471c-0.523,0.367-1.168,0.593-1.934,0.677
				c-0.481,0.052-1.64,0.085-3.478,0.097h-4.861V10.239z M141.745,12.616v3.303h1.89c1.124,0,1.822-0.016,2.095-0.049
				c0.493-0.058,0.881-0.229,1.164-0.511c0.282-0.283,0.424-0.654,0.424-1.115c0-0.442-0.122-0.8-0.365-1.077
				c-0.244-0.276-0.606-0.443-1.086-0.502c-0.286-0.032-1.107-0.049-2.465-0.049H141.745z M141.745,18.295v3.819h2.669
				c1.039,0,1.699-0.029,1.978-0.088c0.429-0.078,0.778-0.268,1.047-0.57c0.269-0.302,0.404-0.706,0.404-1.213
				c0-0.429-0.104-0.792-0.312-1.091c-0.208-0.299-0.508-0.516-0.901-0.653c-0.393-0.136-1.245-0.205-2.557-0.205H141.745z"/>
			<path class="st1" d="M159.844,24.52V18.51l-5.232-8.271h3.381l3.361,5.65l3.293-5.65h3.322l-5.251,8.291v5.991H159.844z"/>
		</g>
	</g>
	<g>
		<path class="st4" d="M176.531,69.83L14.241,70.123c-5.948,0-10.77,4.822-10.77,10.77v14.965H165.76
			c5.949,0,10.771-4.822,10.771-10.771V69.83z"/>
		<g>
			<path class="st0" d="M18.177,89.84v-1.582c-0.791-0.1-1.434-0.276-1.929-0.532c-0.495-0.254-0.923-0.666-1.283-1.234
				s-0.57-1.263-0.628-2.083l1.591-0.299c0.123,0.85,0.34,1.474,0.65,1.872c0.445,0.563,0.979,0.876,1.6,0.94v-5.036
				c-0.65-0.123-1.315-0.375-1.995-0.756c-0.504-0.281-0.892-0.671-1.165-1.169s-0.409-1.063-0.409-1.696
				c0-1.125,0.398-2.036,1.195-2.733c0.533-0.469,1.324-0.756,2.373-0.861v-0.756h0.932v0.756c0.92,0.088,1.649,0.357,2.188,0.809
				c0.691,0.574,1.107,1.362,1.248,2.364l-1.635,0.246c-0.094-0.621-0.289-1.097-0.584-1.428s-0.702-0.55-1.217-0.655v4.562
				c0.797,0.199,1.324,0.354,1.582,0.466c0.492,0.217,0.894,0.48,1.204,0.791s0.549,0.68,0.716,1.107s0.25,0.891,0.25,1.389
				c0,1.096-0.349,2.01-1.046,2.742s-1.6,1.125-2.707,1.178v1.6H18.177z M18.177,75.988c-0.615,0.094-1.1,0.34-1.455,0.738
				s-0.532,0.87-0.532,1.415c0,0.539,0.151,0.99,0.453,1.354s0.813,0.653,1.534,0.87V75.988z M19.109,86.922
				c0.615-0.076,1.124-0.343,1.525-0.8s0.602-1.022,0.602-1.696c0-0.574-0.142-1.035-0.426-1.384s-0.851-0.661-1.701-0.937V86.922z"
				/>
			<path class="st0" d="M31.059,87.986h-1.582V77.904c-0.381,0.363-0.88,0.727-1.499,1.09s-1.173,0.636-1.666,0.817v-1.529
				c0.885-0.416,1.658-0.92,2.32-1.512s1.131-1.166,1.406-1.723h1.02V87.986z"/>
			<path class="st0" d="M35.759,81.631c0-1.523,0.157-2.749,0.47-3.679c0.313-0.928,0.779-1.645,1.397-2.148
				s1.396-0.756,2.333-0.756c0.691,0,1.298,0.14,1.819,0.418s0.952,0.68,1.292,1.203c0.34,0.525,0.606,1.164,0.8,1.916
				c0.193,0.754,0.29,1.769,0.29,3.046c0,1.512-0.155,2.732-0.466,3.661s-0.775,1.646-1.393,2.152
				c-0.618,0.508-1.399,0.761-2.342,0.761c-1.242,0-2.218-0.445-2.927-1.336C36.184,85.797,35.759,84.051,35.759,81.631z
				 M37.385,81.631c0,2.115,0.248,3.523,0.743,4.224s1.106,1.05,1.833,1.05s1.337-0.352,1.833-1.055s0.743-2.109,0.743-4.219
				c0-2.121-0.248-3.53-0.743-4.228s-1.112-1.046-1.85-1.046c-0.727,0-1.307,0.308-1.74,0.923
				C37.658,78.066,37.385,79.516,37.385,81.631z"/>
			<path class="st0" d="M47.27,87.986v-1.802h1.802v1.802c0,0.662-0.117,1.196-0.352,1.604s-0.606,0.723-1.116,0.945l-0.439-0.677
				c0.334-0.146,0.58-0.362,0.738-0.646c0.158-0.285,0.246-0.693,0.264-1.227H47.27z"/>
			<path class="st0" d="M52.067,81.631c0-1.523,0.157-2.749,0.47-3.679c0.313-0.928,0.779-1.645,1.397-2.148
				s1.396-0.756,2.333-0.756c0.691,0,1.298,0.14,1.819,0.418s0.952,0.68,1.292,1.203c0.34,0.525,0.606,1.164,0.8,1.916
				c0.193,0.754,0.29,1.769,0.29,3.046c0,1.512-0.155,2.732-0.466,3.661s-0.775,1.646-1.393,2.152
				c-0.618,0.508-1.399,0.761-2.342,0.761c-1.242,0-2.218-0.445-2.927-1.336C52.491,85.797,52.067,84.051,52.067,81.631z
				 M53.693,81.631c0,2.115,0.248,3.523,0.743,4.224s1.106,1.05,1.833,1.05s1.337-0.352,1.833-1.055s0.743-2.109,0.743-4.219
				c0-2.121-0.248-3.53-0.743-4.228s-1.112-1.046-1.85-1.046c-0.727,0-1.307,0.308-1.74,0.923
				C53.965,78.066,53.693,79.516,53.693,81.631z"/>
			<path class="st0" d="M62.726,81.631c0-1.523,0.157-2.749,0.47-3.679c0.313-0.928,0.779-1.645,1.397-2.148
				s1.396-0.756,2.333-0.756c0.691,0,1.298,0.14,1.819,0.418s0.952,0.68,1.292,1.203c0.34,0.525,0.606,1.164,0.8,1.916
				c0.193,0.754,0.29,1.769,0.29,3.046c0,1.512-0.155,2.732-0.466,3.661s-0.775,1.646-1.393,2.152
				c-0.618,0.508-1.399,0.761-2.342,0.761c-1.242,0-2.218-0.445-2.927-1.336C63.151,85.797,62.726,84.051,62.726,81.631z
				 M64.352,81.631c0,2.115,0.248,3.523,0.743,4.224s1.106,1.05,1.833,1.05s1.337-0.352,1.833-1.055s0.743-2.109,0.743-4.219
				c0-2.121-0.248-3.53-0.743-4.228s-1.112-1.046-1.85-1.046c-0.727,0-1.307,0.308-1.74,0.923
				C64.624,78.066,64.352,79.516,64.352,81.631z"/>
			<path class="st0" d="M73.385,81.631c0-1.523,0.157-2.749,0.47-3.679c0.313-0.928,0.779-1.645,1.397-2.148
				s1.396-0.756,2.333-0.756c0.691,0,1.298,0.14,1.819,0.418s0.952,0.68,1.292,1.203c0.34,0.525,0.606,1.164,0.8,1.916
				c0.193,0.754,0.29,1.769,0.29,3.046c0,1.512-0.155,2.732-0.466,3.661s-0.775,1.646-1.393,2.152
				c-0.618,0.508-1.399,0.761-2.342,0.761c-1.242,0-2.218-0.445-2.927-1.336C73.809,85.797,73.385,84.051,73.385,81.631z
				 M75.011,81.631c0,2.115,0.248,3.523,0.743,4.224s1.106,1.05,1.833,1.05s1.337-0.352,1.833-1.055s0.743-2.109,0.743-4.219
				c0-2.121-0.248-3.53-0.743-4.228s-1.112-1.046-1.85-1.046c-0.727,0-1.307,0.308-1.74,0.923
				C75.283,78.066,75.011,79.516,75.011,81.631z"/>
			<path class="st0" d="M92.584,87.986l-3.419-12.885h1.749l1.96,8.446c0.211,0.885,0.393,1.764,0.545,2.637
				c0.328-1.377,0.521-2.171,0.58-2.382l2.452-8.701h2.057l1.846,6.521c0.463,1.617,0.797,3.138,1.002,4.562
				c0.164-0.814,0.378-1.749,0.642-2.804l2.021-8.279h1.714l-3.533,12.885h-1.644l-2.716-9.817c-0.229-0.82-0.363-1.324-0.404-1.512
				c-0.135,0.592-0.261,1.096-0.378,1.512l-2.733,9.817H92.584z"/>
			<path class="st0" d="M113.191,86.834c-0.586,0.498-1.149,0.85-1.691,1.055s-1.123,0.308-1.744,0.308
				c-1.025,0-1.814-0.25-2.365-0.752c-0.551-0.5-0.826-1.141-0.826-1.92c0-0.457,0.104-0.875,0.313-1.252
				c0.208-0.379,0.48-0.682,0.817-0.91s0.716-0.401,1.138-0.519c0.311-0.082,0.779-0.161,1.406-0.237
				c1.277-0.152,2.219-0.334,2.822-0.545c0.006-0.217,0.008-0.354,0.008-0.413c0-0.645-0.148-1.099-0.447-1.362
				c-0.404-0.357-1.006-0.536-1.803-0.536c-0.744,0-1.293,0.131-1.647,0.392s-0.616,0.722-0.786,1.384l-1.547-0.211
				c0.141-0.662,0.371-1.196,0.693-1.604c0.322-0.406,0.789-0.721,1.398-0.939c0.609-0.221,1.314-0.33,2.117-0.33
				c0.797,0,1.445,0.094,1.943,0.281s0.863,0.424,1.098,0.707c0.234,0.285,0.398,0.644,0.492,1.077
				c0.053,0.27,0.08,0.756,0.08,1.459v2.109c0,1.471,0.033,2.401,0.101,2.79c0.067,0.391,0.2,0.764,0.399,1.121h-1.652
				C113.344,87.657,113.238,87.274,113.191,86.834z M113.06,83.301c-0.574,0.234-1.436,0.434-2.584,0.598
				c-0.65,0.094-1.111,0.199-1.381,0.316s-0.477,0.289-0.623,0.515s-0.221,0.476-0.221,0.751c0,0.422,0.16,0.773,0.479,1.055
				s0.786,0.422,1.401,0.422c0.609,0,1.152-0.133,1.627-0.399s0.822-0.632,1.045-1.095c0.17-0.357,0.256-0.885,0.256-1.582V83.301z"
				/>
			<path class="st0" d="M117.742,87.986v-9.334h1.424v1.415c0.363-0.662,0.699-1.099,1.006-1.31
				c0.309-0.211,0.646-0.316,1.016-0.316c0.533,0,1.075,0.17,1.626,0.51l-0.545,1.468c-0.387-0.229-0.773-0.343-1.16-0.343
				c-0.346,0-0.656,0.104-0.932,0.313s-0.472,0.496-0.589,0.865c-0.176,0.563-0.264,1.178-0.264,1.846v4.887H117.742z"/>
			<path class="st0" d="M124.385,87.986v-9.334h1.424v1.415c0.363-0.662,0.698-1.099,1.006-1.31s0.646-0.316,1.016-0.316
				c0.533,0,1.074,0.17,1.625,0.51l-0.545,1.468c-0.387-0.229-0.773-0.343-1.16-0.343c-0.346,0-0.656,0.104-0.932,0.313
				s-0.471,0.496-0.588,0.865c-0.176,0.563-0.264,1.178-0.264,1.846v4.887H124.385z"/>
			<path class="st0" d="M137.135,86.834c-0.586,0.498-1.15,0.85-1.691,1.055c-0.543,0.205-1.124,0.308-1.745,0.308
				c-1.025,0-1.813-0.25-2.364-0.752c-0.551-0.5-0.826-1.141-0.826-1.92c0-0.457,0.104-0.875,0.313-1.252
				c0.207-0.379,0.48-0.682,0.816-0.91c0.337-0.229,0.717-0.401,1.139-0.519c0.311-0.082,0.779-0.161,1.406-0.237
				c1.277-0.152,2.218-0.334,2.821-0.545c0.006-0.217,0.009-0.354,0.009-0.413c0-0.645-0.149-1.099-0.448-1.362
				c-0.404-0.357-1.005-0.536-1.802-0.536c-0.744,0-1.294,0.131-1.648,0.392s-0.616,0.722-0.786,1.384l-1.547-0.211
				c0.141-0.662,0.372-1.196,0.694-1.604c0.322-0.406,0.788-0.721,1.397-0.939c0.609-0.221,1.315-0.33,2.118-0.33
				c0.797,0,1.444,0.094,1.942,0.281s0.864,0.424,1.099,0.707c0.234,0.285,0.398,0.644,0.492,1.077
				c0.053,0.27,0.079,0.756,0.079,1.459v2.109c0,1.471,0.033,2.401,0.101,2.79c0.067,0.391,0.201,0.764,0.4,1.121h-1.652
				C137.287,87.657,137.181,87.274,137.135,86.834z M137.003,83.301c-0.574,0.234-1.436,0.434-2.584,0.598
				c-0.65,0.094-1.11,0.199-1.38,0.316s-0.478,0.289-0.624,0.515s-0.22,0.476-0.22,0.751c0,0.422,0.159,0.773,0.479,1.055
				s0.787,0.422,1.402,0.422c0.609,0,1.151-0.133,1.626-0.399s0.823-0.632,1.046-1.095c0.17-0.357,0.255-0.885,0.255-1.582V83.301z"
				/>
			<path class="st0" d="M141.703,87.986v-9.334h1.424v1.327c0.686-1.025,1.676-1.538,2.971-1.538c0.563,0,1.079,0.102,1.552,0.303
				c0.471,0.203,0.824,0.468,1.059,0.796s0.398,0.718,0.492,1.169c0.059,0.293,0.088,0.806,0.088,1.538v5.739h-1.582v-5.678
				c0-0.645-0.062-1.126-0.185-1.445s-0.342-0.574-0.655-0.766c-0.313-0.189-0.681-0.285-1.103-0.285
				c-0.674,0-1.256,0.214-1.745,0.642s-0.733,1.239-0.733,2.435v5.098H141.703z"/>
			<path class="st0" d="M155.815,86.57l0.229,1.397c-0.445,0.094-0.844,0.141-1.195,0.141c-0.574,0-1.02-0.091-1.336-0.272
				s-0.539-0.42-0.668-0.716s-0.193-0.919-0.193-1.868v-5.37h-1.16v-1.23h1.16V76.34l1.573-0.949v3.261h1.591v1.23h-1.591v5.458
				c0,0.451,0.027,0.741,0.083,0.87s0.146,0.231,0.273,0.308c0.125,0.076,0.306,0.114,0.54,0.114
				C155.297,86.632,155.528,86.611,155.815,86.57z"/>
			<path class="st0" d="M157.94,91.58l-0.176-1.485c0.346,0.094,0.647,0.141,0.905,0.141c0.352,0,0.633-0.059,0.844-0.176
				s0.384-0.281,0.519-0.492c0.1-0.158,0.261-0.551,0.483-1.178c0.029-0.088,0.076-0.217,0.141-0.387l-3.542-9.352h1.705
				l1.942,5.405c0.252,0.686,0.478,1.406,0.677,2.162c0.182-0.727,0.398-1.436,0.65-2.127l1.995-5.44h1.582l-3.551,9.492
				c-0.381,1.025-0.677,1.731-0.888,2.118c-0.281,0.521-0.604,0.903-0.967,1.147c-0.363,0.242-0.797,0.364-1.301,0.364
				C158.655,91.774,158.315,91.709,157.94,91.58z"/>
		</g>
	</g>
</g>
</svg>
