<?xml version="1.0" encoding="utf-8"?>
<!-- Generator: Adobe Illustrator 23.0.3, SVG Export Plug-In . SVG Version: 6.00 Build 0)  -->
<svg version="1.1" id="Layer_1" xmlns="http://www.w3.org/2000/svg" xmlns:xlink="http://www.w3.org/1999/xlink" x="0px" y="0px"
	 width="106px" height="42px" viewBox="0 0 106 42" style="enable-background:new 0 0 106 42;" xml:space="preserve">
<style type="text/css">
	.st0{fill:#FFFFFF;}
	.st1{fill:#00B073;}
	.st2{fill:#0B1D2B;}
</style>
<g>
	<path class="st0" d="M96.992,42h-88c-4.971,0-9-4.029-9-9V9c0-4.971,4.029-9,9-9h88c4.971,0,9,4.029,9,9v24
		C105.992,37.971,101.963,42,96.992,42z"/>
</g>
<g>
	<rect x="32.994" y="9.998" class="st1" width="0.999" height="22.003"/>
</g>
<g>
	<path class="st1" d="M94.388,6.009c3.147,0,5.698,2.686,5.698,6v17.981c0,3.314-2.551,6-5.698,6H11.58
		c-3.147,0-5.698-2.686-5.698-6V12.009c0-3.314,2.551-6,5.698-6H94.388 M94.388,4.009H11.58c-4.189,0-7.598,3.589-7.598,8v17.981
		c0,4.411,3.408,8,7.598,8h82.808c4.189,0,7.598-3.589,7.598-8V12.009C101.986,7.598,98.577,4.009,94.388,4.009L94.388,4.009z"/>
</g>
<g>
	<path class="st1" d="M28.322,11.037C28.631,10.578,28.35,10,27.818,10h-4.831h-2.15h-1.579c-1.802,0-3.235,0.479-4.299,1.438
		c-1.057,0.951-1.666,2.319-1.829,4.101h-0.001l-0.409,4.67h0.001c-0.15,1.784,0.219,3.153,1.111,4.105
		c0.897,0.958,2.246,1.437,4.048,1.437h1.955l0.001-0.012c0.385-0.054,0.597-0.289,0.633-0.706l0.2-2.292
		c0.036-0.416-0.271-0.753-0.687-0.753h-1.089c-0.707,0-1.201-0.154-1.482-0.462c-0.281-0.308-0.39-0.827-0.326-1.557l0.366-4.186
		c0.063-0.73,0.263-1.249,0.598-1.557c0.335-0.308,0.856-0.462,1.563-0.462h0.895h1.431h3.452c0.681,0,1.343-0.362,1.738-0.95
		L28.322,11.037z"/>
	<path class="st1" d="M11.873,30.963C11.564,31.422,11.845,32,12.377,32h4.955h2.15h1.579c1.802,0,3.235-0.479,4.299-1.438
		c1.057-0.951,1.666-2.319,1.829-4.101h0.001l0.409-4.67h-0.001c0.15-1.784-0.219-3.153-1.111-4.105
		c-0.897-0.958-2.246-1.437-4.048-1.437h-1.955l-0.001,0.012c-0.385,0.054-0.597,0.289-0.633,0.706l-0.2,2.293
		c-0.036,0.416,0.271,0.753,0.687,0.753h1.089c0.707,0,1.201,0.154,1.482,0.462c0.281,0.308,0.39,0.827,0.325,1.557l-0.366,4.186
		c-0.063,0.73-0.263,1.249-0.598,1.557c-0.335,0.308-0.856,0.462-1.563,0.462h-0.895h-1.431h-3.575c-0.681,0-1.343,0.361-1.738,0.95
		L11.873,30.963z"/>
</g>
<g>
	<g>
		<path class="st2" d="M42.474,15.912c0-0.318-0.081-0.56-0.244-0.723s-0.459-0.332-0.889-0.507
			c-0.784-0.298-1.349-0.646-1.692-1.045s-0.516-0.871-0.516-1.416c0-0.658,0.233-1.188,0.701-1.587
			c0.467-0.399,1.061-0.599,1.78-0.599c0.48,0,0.908,0.102,1.284,0.304s0.665,0.487,0.867,0.856s0.304,0.788,0.304,1.257h-1.574
			c0-0.365-0.078-0.644-0.233-0.835c-0.156-0.191-0.381-0.287-0.674-0.287c-0.276,0-0.491,0.081-0.645,0.244
			c-0.154,0.163-0.231,0.382-0.231,0.658c0,0.215,0.086,0.408,0.258,0.582s0.477,0.354,0.913,0.54
			c0.763,0.275,1.317,0.614,1.662,1.015c0.346,0.401,0.519,0.912,0.519,1.531c0,0.681-0.217,1.212-0.649,1.596
			c-0.434,0.383-1.022,0.574-1.768,0.574c-0.505,0-0.965-0.104-1.38-0.312c-0.416-0.208-0.74-0.505-0.976-0.892
			c-0.234-0.387-0.352-0.844-0.352-1.369h1.585c0,0.451,0.088,0.778,0.263,0.982c0.176,0.204,0.462,0.307,0.859,0.307
			C42.198,16.788,42.474,16.496,42.474,15.912z"/>
		<path class="st2" d="M49.15,14.58h-2.46v2.073h2.911v1.311h-4.49v-7.82h4.479v1.316h-2.9v1.848h2.46V14.58z"/>
		<path class="st2" d="M55.811,15.358c-0.04,0.893-0.29,1.567-0.752,2.025s-1.114,0.688-1.955,0.688
			c-0.885,0-1.563-0.291-2.033-0.873s-0.706-1.411-0.706-2.489v-1.315c0-1.074,0.243-1.902,0.73-2.484
			c0.486-0.582,1.163-0.873,2.03-0.873c0.852,0,1.499,0.238,1.941,0.715c0.442,0.476,0.693,1.16,0.755,2.051h-1.585
			c-0.014-0.551-0.099-0.932-0.255-1.141c-0.155-0.21-0.441-0.314-0.856-0.314c-0.423,0-0.722,0.147-0.897,0.443
			c-0.175,0.295-0.269,0.781-0.279,1.458v1.478c0,0.776,0.087,1.311,0.261,1.6c0.174,0.291,0.472,0.436,0.895,0.436
			c0.415,0,0.701-0.102,0.859-0.304c0.157-0.202,0.247-0.568,0.269-1.099H55.811z"/>
		<path class="st2" d="M61.869,10.144v5.414c-0.008,0.813-0.231,1.435-0.672,1.866s-1.072,0.647-1.896,0.647
			c-0.838,0-1.479-0.219-1.92-0.655c-0.442-0.437-0.664-1.069-0.664-1.896v-5.377h1.59v5.382c0,0.444,0.072,0.761,0.215,0.95
			c0.144,0.19,0.403,0.285,0.779,0.285s0.634-0.094,0.773-0.282c0.14-0.188,0.211-0.497,0.215-0.927v-5.408H61.869z"/>
		<path class="st2" d="M65.436,15.106h-0.784v2.857h-1.579v-7.82h2.519c0.792,0,1.403,0.205,1.835,0.615
			c0.431,0.41,0.646,0.992,0.646,1.748c0,1.038-0.378,1.766-1.133,2.181l1.369,3.201v0.075h-1.697L65.436,15.106z M64.651,13.79
			h0.896c0.315,0,0.552-0.104,0.709-0.313c0.158-0.21,0.236-0.49,0.236-0.841c0-0.784-0.306-1.176-0.918-1.176h-0.924V13.79z"/>
		<path class="st2" d="M73.196,14.58h-2.46v2.073h2.911v1.311h-4.49v-7.82h4.479v1.316h-2.9v1.848h2.46V14.58z"/>
		<path class="st2" d="M74.556,17.964v-7.82h2.067c0.913,0,1.641,0.29,2.184,0.87c0.542,0.58,0.819,1.375,0.83,2.385v1.268
			c0,1.027-0.271,1.834-0.814,2.42c-0.542,0.585-1.289,0.878-2.242,0.878H74.556z M76.135,11.46v5.193h0.473
			c0.526,0,0.896-0.139,1.111-0.416s0.328-0.757,0.339-1.438v-1.358c0-0.73-0.103-1.24-0.307-1.528s-0.551-0.439-1.042-0.453H76.135
			z"/>
		<path class="st2" d="M83.305,17.964v-7.82h2.417c0.816,0,1.438,0.182,1.861,0.545c0.425,0.363,0.637,0.896,0.637,1.598
			c0,0.398-0.088,0.74-0.264,1.026c-0.175,0.286-0.415,0.496-0.72,0.628c0.352,0.101,0.621,0.302,0.812,0.604
			c0.189,0.303,0.284,0.676,0.284,1.12c0,0.759-0.208,1.332-0.625,1.719c-0.418,0.387-1.021,0.58-1.813,0.58H83.305z M84.884,13.415
			h0.822c0.619,0,0.929-0.321,0.929-0.962c0-0.354-0.071-0.608-0.215-0.763c-0.143-0.154-0.376-0.23-0.698-0.23h-0.838V13.415z
			 M84.884,14.563v2.09h1.01c0.283,0,0.498-0.088,0.645-0.264c0.147-0.175,0.221-0.424,0.221-0.746c0-0.702-0.255-1.062-0.763-1.08
			H84.884z"/>
		<path class="st2" d="M91.539,13.656l1.176-3.513h1.719l-2.095,4.984v2.836h-1.601v-2.836l-2.1-4.984h1.719L91.539,13.656z"/>
	</g>
	<g>
		<path class="st2" d="M39.375,29.176v-0.34c0-0.238,0.119-0.357,0.357-0.357h1.444c0.238,0,0.357,0.119,0.357,0.357v0.136
			c0,0.431,0.085,0.726,0.255,0.884c0.17,0.159,0.481,0.238,0.936,0.238h0.799c0.441,0,0.75-0.085,0.927-0.255
			c0.175-0.17,0.263-0.487,0.263-0.952v-0.204c0-0.328-0.133-0.58-0.399-0.756s-0.598-0.281-0.994-0.314
			c-0.396-0.034-0.824-0.1-1.283-0.196c-0.459-0.096-0.888-0.221-1.284-0.374c-0.396-0.152-0.729-0.453-0.994-0.9
			c-0.267-0.448-0.399-1.022-0.399-1.726v-0.595c0-0.885,0.249-1.57,0.748-2.058c0.498-0.487,1.189-0.73,2.074-0.73h1.699
			c0.896,0,1.593,0.243,2.092,0.73c0.498,0.487,0.747,1.173,0.747,2.058v0.322c0,0.238-0.118,0.357-0.356,0.357h-1.445
			c-0.237,0-0.356-0.119-0.356-0.357v-0.102c0-0.442-0.085-0.742-0.255-0.901c-0.171-0.158-0.482-0.237-0.936-0.237h-0.663
			c-0.465,0-0.779,0.088-0.943,0.263c-0.164,0.176-0.246,0.519-0.246,1.029v0.322c0,0.533,0.464,0.839,1.394,0.918
			c0.963,0.08,1.819,0.272,2.567,0.578c0.396,0.17,0.728,0.474,0.994,0.91c0.267,0.436,0.399,0.994,0.399,1.674v0.578
			c0,0.884-0.249,1.57-0.748,2.057c-0.499,0.488-1.189,0.731-2.074,0.731h-1.853c-0.884,0-1.575-0.243-2.074-0.731
			C39.624,30.746,39.375,30.06,39.375,29.176z"/>
		<path class="st2" d="M54.726,31.964h-5.559c-0.238,0-0.357-0.119-0.357-0.357V21.39c0-0.237,0.119-0.356,0.357-0.356h5.559
			c0.227,0,0.34,0.119,0.34,0.356v1.156c0,0.238-0.113,0.357-0.34,0.357h-3.553c-0.136,0-0.204,0.062-0.204,0.187v2.21
			c0,0.125,0.068,0.188,0.204,0.188h2.907c0.237,0,0.356,0.118,0.356,0.356V27c0,0.238-0.119,0.356-0.356,0.356h-2.907
			c-0.136,0-0.204,0.063-0.204,0.188v2.363c0,0.124,0.068,0.187,0.204,0.187h3.553c0.227,0,0.34,0.119,0.34,0.357v1.155
			C55.065,31.845,54.952,31.964,54.726,31.964z"/>
		<path class="st2" d="M61.44,31.964h-1.853c-0.896,0-1.587-0.238-2.074-0.714c-0.487-0.477-0.73-1.162-0.73-2.058v-5.389
			c0-0.895,0.243-1.581,0.73-2.057c0.487-0.477,1.179-0.714,2.074-0.714h1.853c0.885,0,1.573,0.24,2.066,0.722
			c0.492,0.482,0.739,1.165,0.739,2.049v0.799c0,0.25-0.125,0.374-0.374,0.374h-1.428c-0.238,0-0.357-0.124-0.357-0.374v-0.696
			c0-0.363-0.076-0.621-0.229-0.773c-0.153-0.153-0.411-0.229-0.773-0.229h-1.156c-0.352,0-0.604,0.076-0.756,0.229
			c-0.153,0.152-0.229,0.41-0.229,0.773v5.185c0,0.363,0.076,0.62,0.229,0.773c0.152,0.153,0.404,0.229,0.756,0.229h1.156
			c0.362,0,0.62-0.076,0.773-0.229s0.229-0.41,0.229-0.773v-0.697c0-0.249,0.119-0.374,0.357-0.374h1.428
			c0.249,0,0.374,0.125,0.374,0.374v0.799c0,0.885-0.247,1.567-0.739,2.049C63.014,31.724,62.325,31.964,61.44,31.964z"/>
		<path class="st2" d="M69.481,31.964h-1.428c-0.249,0-0.374-0.119-0.374-0.357V23.09c0-0.125-0.063-0.187-0.187-0.187h-1.938
			c-0.237,0-0.356-0.119-0.356-0.357V21.39c0-0.237,0.119-0.356,0.356-0.356h6.426c0.238,0,0.357,0.119,0.357,0.356v1.156
			c0,0.238-0.119,0.357-0.357,0.357h-1.938c-0.136,0-0.204,0.062-0.204,0.187v8.517C69.839,31.845,69.72,31.964,69.481,31.964z"/>
		<path class="st2" d="M75.874,21.39v10.217c0,0.238-0.119,0.357-0.357,0.357h-1.445c-0.237,0-0.356-0.119-0.356-0.357V21.39
			c0-0.237,0.119-0.356,0.356-0.356h1.445C75.755,21.033,75.874,21.152,75.874,21.39z"/>
		<path class="st2" d="M82.605,31.964h-1.802c-0.896,0-1.587-0.238-2.074-0.714c-0.487-0.477-0.73-1.162-0.73-2.058v-5.389
			c0-0.895,0.243-1.581,0.73-2.057c0.487-0.477,1.179-0.714,2.074-0.714h1.802c0.884,0,1.57,0.24,2.058,0.722
			c0.486,0.482,0.73,1.165,0.73,2.049v0.51c0,0.25-0.119,0.374-0.356,0.374h-1.445c-0.238,0-0.357-0.124-0.357-0.374v-0.407
			c0-0.363-0.073-0.621-0.221-0.773c-0.147-0.153-0.402-0.229-0.765-0.229h-1.105c-0.352,0-0.604,0.076-0.756,0.229
			c-0.153,0.152-0.229,0.41-0.229,0.773v5.185c0,0.363,0.076,0.62,0.229,0.773c0.152,0.153,0.404,0.229,0.756,0.229h1.105
			c0.362,0,0.617-0.076,0.765-0.229s0.221-0.41,0.221-0.773V28.02c0-0.124-0.063-0.187-0.187-0.187h-1.021
			c-0.237,0-0.356-0.119-0.356-0.357V26.32c0-0.238,0.119-0.357,0.356-0.357h2.976c0.261,0,0.391,0.131,0.391,0.391v2.839
			c0,0.885-0.244,1.567-0.73,2.049C84.176,31.724,83.489,31.964,82.605,31.964z"/>
		<path class="st2" d="M91.973,31.964h-1.904c-0.896,0-1.587-0.238-2.074-0.714c-0.487-0.477-0.73-1.162-0.73-2.058v-5.389
			c0-0.895,0.243-1.581,0.73-2.057c0.487-0.477,1.179-0.714,2.074-0.714h1.904c0.895,0,1.586,0.237,2.073,0.714
			c0.487,0.476,0.731,1.162,0.731,2.057v5.389c0,0.896-0.244,1.581-0.731,2.058C93.559,31.726,92.867,31.964,91.973,31.964z
			 M90.408,30.094h1.207c0.362,0,0.621-0.076,0.773-0.229c0.153-0.153,0.229-0.41,0.229-0.773v-5.185
			c0-0.363-0.076-0.621-0.229-0.773c-0.152-0.153-0.411-0.229-0.773-0.229h-1.207c-0.362,0-0.618,0.076-0.765,0.229
			c-0.147,0.152-0.221,0.41-0.221,0.773v5.185c0,0.363,0.073,0.62,0.221,0.773C89.79,30.018,90.046,30.094,90.408,30.094z"/>
	</g>
</g>
</svg>
