<?xml version="1.0" encoding="utf-8"?>
<!-- Generator: Adobe Illustrator 23.0.3, SVG Export Plug-In . SVG Version: 6.00 Build 0)  -->
<svg version="1.1" id="Layer_1" xmlns="http://www.w3.org/2000/svg" xmlns:xlink="http://www.w3.org/1999/xlink" x="0px" y="0px"
	 width="167px" height="42px" viewBox="0 0 167 42" style="enable-background:new 0 0 167 42;" xml:space="preserve">
<style type="text/css">
	.st0{fill:#FFFFFF;}
	.st1{fill:#FFD756;}
	.st2{fill:#0F1D2B;}
	.st3{fill:#0A1D2B;}
</style>
<g>
	<g>
		<path class="st0" d="M158,42H9c-4.971,0-9-4.029-9-9V9c0-4.971,4.029-9,9-9h149c4.971,0,9,4.029,9,9v24
			C167,37.971,162.971,42,158,42z"/>
	</g>
	<g>
		<path class="st1" d="M154.988,6.009c3.314,0,6,2.686,6,6v17.981c0,3.314-2.686,6-6,6H11.99c-3.314,0-6-2.686-6-6V12.009
			c0-3.314,2.686-6,6-6H154.988 M154.988,4.009H11.99c-4.411,0-8,3.589-8,8v17.981c0,4.411,3.589,8,8,8h142.997c4.411,0,8-3.589,8-8
			V12.009C162.988,7.598,159.399,4.009,154.988,4.009L154.988,4.009z"/>
	</g>
	<g>
		<g>
			<path class="st2" d="M67.265,24.689c-0.071,0.989-0.353,1.977-0.847,2.895c-0.353,0.777-0.918,1.412-1.624,1.906
				c-0.635,0.424-1.412,0.635-2.189,0.565c-0.847,0-1.695-0.424-2.189-1.059l-0.918,4.872H56.32l2.542-14.334h2.895l-0.141,0.989
				c0.565-0.777,1.483-1.2,2.471-1.13c0.918,0,1.765,0.353,2.33,1.059c0.635,0.847,0.918,1.836,0.918,2.895
				C67.406,23.701,67.335,24.195,67.265,24.689z M64.228,23.348c0-1.059-0.424-1.624-1.059-1.624c-0.706,0-1.342,0.282-1.695,0.847
				l-0.706,4.095c0.212,0.565,0.706,0.918,1.342,0.847c1.13,0,1.836-0.918,2.048-2.895C64.228,24.054,64.228,23.63,64.228,23.348z"
				/>
		</g>
		<g>
			<path class="st2" d="M73.69,19.323c0.847,0,1.695,0.212,2.401,0.706c0.706,0.424,1.2,1.13,1.483,1.836
				c0.353,0.847,0.424,1.765,0.353,2.613v0.212c-0.141,1.412-0.777,2.754-1.765,3.813c-0.989,0.989-2.33,1.483-3.742,1.412
				c-0.847,0-1.695-0.212-2.401-0.706c-0.635-0.424-1.2-1.13-1.483-1.836c-0.353-0.847-0.424-1.765-0.353-2.613
				c0.071-1.483,0.706-2.895,1.765-4.025C70.936,19.747,72.278,19.252,73.69,19.323z M71.36,24.76v0.565
				c-0.071,1.412,0.353,2.118,1.271,2.118c1.271,0.071,1.977-0.918,2.189-2.966l0.071-0.847c0.071-0.494-0.071-0.918-0.353-1.342
				c-0.212-0.353-0.635-0.565-0.989-0.565c-0.565,0-1.13,0.212-1.412,0.706C71.642,23.136,71.36,23.913,71.36,24.76z"/>
		</g>
		<g>
			<path class="st2" d="M84.07,26.737c0.071-0.424-0.212-0.706-0.989-0.918l-0.635-0.141c-0.918-0.212-1.695-0.635-2.401-1.2
				c-0.494-0.494-0.777-1.13-0.706-1.836c0-0.989,0.494-1.836,1.342-2.401c0.918-0.635,1.977-0.918,3.107-0.918
				c1.059,0,2.048,0.282,2.895,0.918c0.706,0.565,1.13,1.483,1.13,2.401h-3.107c0-0.777-0.353-1.2-1.059-1.2
				c-0.282,0-0.635,0.071-0.847,0.282c-0.282,0.141-0.424,0.424-0.494,0.706c-0.071,0.494,0.353,0.847,1.342,1.059
				c0.706,0.141,1.412,0.424,2.048,0.706c0.424,0.212,0.847,0.565,1.059,0.989c0.282,0.424,0.353,0.918,0.353,1.483
				c0,0.635-0.212,1.2-0.635,1.624c-0.424,0.494-0.989,0.918-1.624,1.2c-0.777,0.282-1.553,0.424-2.33,0.424
				c-0.706,0-1.412-0.141-2.048-0.494c-0.565-0.282-1.13-0.706-1.483-1.2c-0.353-0.494-0.565-1.13-0.565-1.765h2.824
				c-0.071,0.353,0.071,0.777,0.353,0.989c0.282,0.282,0.635,0.353,0.989,0.353c0.353,0,0.706-0.071,0.989-0.282
				C83.858,27.302,84.07,27.09,84.07,26.737z"/>
		</g>
		<g>
			<path class="st2" d="M91.625,29.914h-3.107l1.765-10.309h3.107L91.625,29.914z M90.566,16.993c0-0.424,0.141-0.847,0.494-1.13
				c0.353-0.353,0.777-0.494,1.271-0.494c0.424,0,0.918,0.141,1.271,0.424c0.353,0.282,0.494,0.706,0.494,1.13
				s-0.141,0.847-0.494,1.13c-0.353,0.282-0.777,0.494-1.271,0.494c-0.424,0-0.847-0.141-1.2-0.424
				C90.778,17.84,90.566,17.416,90.566,16.993z"/>
		</g>
		<g>
			<path class="st2" d="M99.181,16.922l-0.424,2.542h1.553l-0.353,2.189h-1.624l-0.777,4.731c-0.071,0.212,0,0.494,0.071,0.706
				c0.071,0.141,0.282,0.282,0.635,0.282c0.282,0,0.565,0,0.777-0.071l-0.212,2.33c-0.565,0.141-1.059,0.282-1.624,0.212
				c-0.777,0.071-1.553-0.282-2.118-0.847c-0.494-0.635-0.706-1.483-0.565-2.26l0.777-5.013h-1.2l0.353-2.189h1.2l0.424-2.613
				H99.181z"/>
		</g>
		<g>
			<path class="st2" d="M103.417,29.914h-3.107l1.765-10.309h3.107L103.417,29.914z M102.358,16.993c0-0.424,0.141-0.847,0.494-1.13
				c0.353-0.353,0.777-0.494,1.2-0.494c0.424,0,0.918,0.141,1.2,0.424c0.353,0.282,0.494,0.706,0.494,1.13s-0.141,0.847-0.494,1.13
				c-0.353,0.282-0.777,0.494-1.2,0.494s-0.847-0.141-1.2-0.424C102.57,17.84,102.358,17.416,102.358,16.993z"/>
		</g>
		<g>
			<polygon class="st2" points="109.984,25.678 112.597,19.323 116.057,19.323 111.114,29.491 107.866,29.491 106.242,19.323 
				109.49,19.323 			"/>
		</g>
		<g>
			<path class="st2" d="M120.576,29.844c-0.847,0-1.695-0.212-2.471-0.635c-0.706-0.424-1.271-1.059-1.624-1.765
				c-0.353-0.777-0.494-1.624-0.424-2.471v-0.282c0.071-1.483,0.706-2.895,1.765-3.954c0.989-0.989,2.33-1.483,3.672-1.412
				c0.777,0,1.624,0.212,2.26,0.635c0.635,0.424,1.13,1.059,1.342,1.765c0.282,0.847,0.424,1.695,0.282,2.542l-0.212,1.271h-6.073
				c0,0.494,0.141,0.918,0.424,1.271c0.353,0.353,0.777,0.565,1.271,0.494c0.918,0.071,1.906-0.353,2.542-0.989l1.342,1.695
				c-0.424,0.565-0.989,0.989-1.624,1.271c-0.706,0.282-1.483,0.494-2.26,0.494L120.576,29.844z M121.352,21.724
				c-0.424,0-0.847,0.141-1.13,0.424c-0.424,0.424-0.706,0.918-0.847,1.412h3.107l0.071-0.282c0-0.212,0-0.424,0-0.635
				C122.412,22.147,121.917,21.724,121.352,21.724z"/>
		</g>
		<g>
			<path class="st1" d="M132.862,26.313c0.141-0.635-0.212-1.13-1.059-1.483l-1.412-0.565c-1.977-0.918-2.966-2.118-2.824-3.672
				c0-0.706,0.282-1.342,0.706-1.906c0.494-0.565,1.13-0.989,1.836-1.271c0.847-0.353,1.695-0.494,2.542-0.494
				c1.13,0,2.189,0.353,3.036,1.13c0.777,0.706,1.2,1.765,1.13,2.824h-2.966c0.071-0.424-0.071-0.847-0.282-1.2
				c-0.282-0.282-0.706-0.494-1.059-0.494c-0.494,0-0.918,0.071-1.342,0.353c-0.353,0.212-0.635,0.565-0.706,0.989
				c-0.141,0.565,0.353,1.059,1.271,1.412c0.706,0.282,1.412,0.565,2.118,0.918c1.271,0.635,2.048,1.906,1.906,3.319
				c-0.071,0.706-0.282,1.342-0.706,1.906c-0.494,0.565-1.059,0.989-1.765,1.271c-0.777,0.282-1.624,0.494-2.542,0.424
				c-0.635,0-1.271-0.141-1.906-0.353c-0.565-0.212-1.059-0.494-1.483-0.847c-0.847-0.777-1.271-1.906-1.2-3.107h2.966
				c-0.071,0.494,0.071,1.059,0.353,1.483c0.353,0.353,0.918,0.565,1.412,0.494c0.424,0,0.918-0.071,1.271-0.353
				C132.58,27.019,132.791,26.666,132.862,26.313z"/>
		</g>
		<g>
			<path class="st1" d="M143.454,26.313c0.141-0.635-0.212-1.13-1.059-1.483l-1.412-0.565c-1.977-0.918-2.966-2.118-2.824-3.672
				c0-0.706,0.282-1.342,0.706-1.906c0.494-0.565,1.13-0.989,1.836-1.271c0.847-0.353,1.695-0.494,2.542-0.494
				c1.13,0,2.189,0.353,3.036,1.059c0.777,0.706,1.2,1.765,1.13,2.824h-2.966c0-0.424-0.071-0.847-0.282-1.13
				c-0.282-0.282-0.706-0.494-1.13-0.494c-0.494,0-0.918,0.071-1.342,0.353c-0.353,0.212-0.635,0.565-0.706,0.989
				c-0.141,0.565,0.353,1.059,1.271,1.412c0.706,0.282,1.412,0.565,2.118,0.918c0.918,0.494,1.624,1.342,1.836,2.33
				c0.212,0.989,0,2.118-0.635,2.895c-0.494,0.565-1.059,0.989-1.765,1.271c-0.777,0.282-1.624,0.424-2.542,0.424
				c-0.635,0-1.271-0.141-1.906-0.353c-0.565-0.212-1.059-0.494-1.483-0.847c-0.847-0.777-1.271-1.906-1.2-3.107h2.966
				c-0.071,0.494,0.071,1.059,0.353,1.483c0.353,0.353,0.918,0.565,1.412,0.494c0.424,0,0.918-0.071,1.271-0.353
				C143.171,27.019,143.383,26.666,143.454,26.313z"/>
		</g>
		<g>
			<polygon class="st1" points="150.656,27.584 155.669,27.584 155.246,29.914 147.408,29.914 149.526,17.346 152.421,17.346 			"/>
		</g>
		<g>
			<polygon class="st1" points="48.694,24.407 48.694,20.947 46.576,20.947 46.576,24.407 43.186,24.407 43.186,26.525 
				46.576,26.525 46.576,29.985 48.694,29.985 48.694,26.525 52.154,26.525 52.154,24.407 			"/>
		</g>
		<g>
			<path class="st1" d="M47.635,18.829c-3.672,0-6.637,2.966-6.637,6.637s2.966,6.637,6.637,6.637c3.672,0,6.637-2.966,6.637-6.637
				C54.343,21.794,51.377,18.829,47.635,18.829z M47.635,31.397c-3.248,0-5.861-2.683-5.861-5.931s2.683-5.861,5.931-5.861
				s5.861,2.613,5.931,5.861c0,1.553-0.635,3.107-1.765,4.166C50.742,30.762,49.259,31.397,47.635,31.397L47.635,31.397z"/>
		</g>
	</g>
	<g>
		<rect x="34.002" y="10.014" class="st3" width="0.999" height="22.003"/>
	</g>
	<g>
		<path class="st2" d="M43.685,13.57c0.038-0.275-0.028-0.492-0.2-0.648c-0.171-0.157-0.488-0.318-0.951-0.486
			c-0.735-0.233-1.283-0.517-1.642-0.848s-0.499-0.765-0.419-1.301c0.073-0.51,0.335-0.913,0.787-1.211
			c0.451-0.297,0.998-0.445,1.639-0.445c0.727,0,1.291,0.173,1.692,0.521c0.401,0.347,0.551,0.827,0.448,1.438l-0.009,0.027h-1.244
			c0.041-0.293-0.034-0.533-0.224-0.719c-0.19-0.187-0.458-0.279-0.804-0.279c-0.258,0-0.482,0.063-0.672,0.189
			s-0.297,0.282-0.321,0.47c-0.041,0.272,0.027,0.479,0.205,0.622c0.177,0.142,0.541,0.307,1.092,0.494
			c0.694,0.226,1.206,0.503,1.536,0.833c0.329,0.329,0.453,0.774,0.371,1.333c-0.076,0.531-0.339,0.938-0.789,1.225
			c-0.45,0.285-1.005,0.428-1.667,0.428c-0.709,0-1.302-0.158-1.78-0.477c-0.478-0.317-0.659-0.812-0.545-1.482l0.009-0.027h1.244
			c-0.053,0.361,0.047,0.618,0.299,0.771c0.252,0.154,0.557,0.23,0.914,0.23c0.261,0,0.491-0.061,0.69-0.184
			S43.656,13.763,43.685,13.57z"/>
		<path class="st2" d="M49.605,12.308h-2.377l-0.268,1.828h2.826l-0.141,0.984h-4.109l0.927-6.398h4.096L50.413,9.71h-2.813
			l-0.233,1.609h2.377L49.605,12.308z"/>
		<path class="st2" d="M55.643,13.002l0.009,0.026c-0.088,0.697-0.372,1.235-0.853,1.615c-0.48,0.379-1.1,0.568-1.859,0.568
			c-0.75,0-1.329-0.248-1.738-0.744c-0.408-0.497-0.556-1.133-0.441-1.91l0.18-1.27c0.114-0.797,0.436-1.439,0.964-1.927
			c0.529-0.488,1.17-0.731,1.923-0.731c0.762,0,1.339,0.191,1.731,0.575s0.533,0.919,0.422,1.604l-0.013,0.025H54.72
			c0.059-0.418,0.005-0.726-0.161-0.922s-0.456-0.295-0.872-0.295c-0.375,0-0.696,0.156-0.962,0.468
			c-0.267,0.313-0.434,0.71-0.501,1.193l-0.185,1.278c-0.076,0.502-0.023,0.905,0.158,1.211c0.182,0.307,0.476,0.459,0.883,0.459
			c0.378,0,0.677-0.101,0.898-0.303s0.363-0.51,0.424-0.923H55.643z"/>
		<path class="st2" d="M62.266,8.722l-0.606,4.188c-0.108,0.738-0.429,1.308-0.961,1.705c-0.531,0.399-1.181,0.598-1.948,0.598
			c-0.741,0-1.324-0.204-1.747-0.615c-0.423-0.409-0.582-0.972-0.477-1.688l0.606-4.188h1.287l-0.606,4.188
			c-0.064,0.438,0.001,0.766,0.195,0.987c0.195,0.221,0.489,0.331,0.882,0.331c0.387,0,0.714-0.113,0.981-0.34
			c0.269-0.228,0.435-0.553,0.499-0.979l0.606-4.188H62.266z"/>
		<path class="st2" d="M64.098,12.563l-0.369,2.558h-1.287l0.927-6.398h2.237c0.712,0,1.254,0.167,1.626,0.501
			s0.517,0.797,0.435,1.389c-0.05,0.34-0.179,0.628-0.387,0.863c-0.208,0.236-0.492,0.428-0.853,0.573
			c0.354,0.115,0.598,0.303,0.729,0.563c0.132,0.262,0.172,0.579,0.119,0.954l-0.066,0.47c-0.026,0.183-0.029,0.369-0.009,0.563
			s0.082,0.338,0.185,0.432l-0.013,0.092h-1.323c-0.103-0.094-0.155-0.247-0.158-0.459c-0.003-0.213,0.011-0.424,0.04-0.635
			l0.065-0.453c0.047-0.325-0.004-0.575-0.153-0.749c-0.149-0.175-0.384-0.262-0.703-0.262H64.098z M64.238,11.574h0.932
			c0.352,0,0.629-0.076,0.833-0.23c0.203-0.153,0.327-0.378,0.371-0.674c0.041-0.299-0.014-0.533-0.164-0.703
			c-0.151-0.17-0.401-0.256-0.75-0.256h-0.949L64.238,11.574z"/>
		<path class="st2" d="M72.236,12.308h-2.377l-0.269,1.828h2.826l-0.141,0.984h-4.109l0.928-6.398h4.096L73.045,9.71h-2.813
			L70,11.32h2.377L72.236,12.308z"/>
		<path class="st2" d="M76.332,8.722c0.762,0,1.364,0.251,1.807,0.754c0.442,0.502,0.607,1.142,0.496,1.918l-0.153,1.059
			c-0.117,0.804-0.463,1.448-1.037,1.937c-0.574,0.487-1.254,0.731-2.039,0.731h-2.237l0.928-6.398H76.332z M75.238,9.71
			l-0.642,4.426h0.949c0.41,0,0.77-0.158,1.079-0.475c0.309-0.316,0.5-0.719,0.573-1.209l0.153-1.067
			c0.07-0.498-0.001-0.901-0.213-1.211c-0.213-0.309-0.529-0.464-0.951-0.464H75.238z"/>
		<path class="st2" d="M81.355,15.121l0.927-6.398h2.097c0.738,0,1.301,0.148,1.688,0.443c0.387,0.297,0.537,0.733,0.452,1.311
			c-0.044,0.299-0.157,0.563-0.34,0.791c-0.184,0.229-0.431,0.401-0.741,0.518c0.387,0.077,0.66,0.251,0.82,0.523
			c0.159,0.272,0.214,0.589,0.164,0.949c-0.091,0.624-0.358,1.091-0.804,1.399c-0.445,0.31-1.042,0.464-1.789,0.464H81.355z
			 M83.047,12.291l-0.268,1.846h1.19c0.334,0,0.603-0.074,0.805-0.225c0.202-0.148,0.325-0.367,0.369-0.654
			c0.047-0.316-0.006-0.557-0.156-0.721c-0.151-0.164-0.403-0.246-0.758-0.246H83.047z M83.175,11.403h0.861
			c0.334,0,0.604-0.071,0.813-0.213c0.208-0.143,0.333-0.347,0.374-0.613c0.041-0.302-0.021-0.521-0.185-0.659
			S84.605,9.71,84.233,9.71h-0.813L83.175,11.403z"/>
		<path class="st2" d="M89.129,11.667l0.026,0.005l1.828-2.949h1.406l-2.795,4.152l-0.325,2.246h-1.283l0.334-2.324l-1.564-4.074
			h1.406L89.129,11.667z"/>
	</g>
	<g>
		<g>
			<path class="st3" d="M26.31,16.821h-1.168v-2.525c0-2.585-2.413-4.688-5.38-4.688s-5.38,2.103-5.38,4.688v2.525h-1.169
				c-1.333,0-2.418,0.97-2.418,2.162v10.905c0,1.192,1.085,2.161,2.418,2.161H26.31c1.334,0,2.419-0.97,2.419-2.161V18.983
				C28.729,17.791,27.644,16.821,26.31,16.821z M16.175,14.296c0-1.701,1.609-3.085,3.587-3.085s3.587,1.384,3.587,3.085v2.525
				h-7.174V14.296z"/>
		</g>
		<g>
			<g>
				<path class="st0" d="M21.365,28.442h-3.206c-0.221,0-0.401-0.179-0.401-0.401v-2.846c-0.511-0.522-0.801-1.228-0.801-1.963
					c0-1.547,1.259-2.805,2.805-2.805c1.547,0,2.805,1.259,2.805,2.805c0,0.736-0.29,1.441-0.801,1.963v2.846
					C21.765,28.263,21.586,28.442,21.365,28.442z M18.559,27.641h2.404v-2.616c0-0.114,0.049-0.223,0.134-0.299
					c0.424-0.379,0.668-0.923,0.668-1.493c0-1.105-0.899-2.004-2.004-2.004s-2.004,0.899-2.004,2.004
					c0,0.569,0.243,1.114,0.668,1.493c0.085,0.076,0.133,0.185,0.133,0.299V27.641z"/>
			</g>
		</g>
	</g>
</g>
</svg>
