<?xml version="1.0" encoding="utf-8"?>
<!-- Generator: Adobe Illustrator 23.0.3, SVG Export Plug-In . SVG Version: 6.00 Build 0)  -->
<svg version="1.1" id="Layer_1" xmlns="http://www.w3.org/2000/svg" xmlns:xlink="http://www.w3.org/1999/xlink" x="0px" y="0px"
	 width="159px" height="42px" viewBox="0 0 159 42" style="enable-background:new 0 0 159 42;" xml:space="preserve">
<style type="text/css">
	.st0{fill:#FFFFFF;}
	.st1{fill:#079E4D;}
	.st2{fill:#0A1D2B;}
	.st3{fill:#0F1D2B;}
	.st4{fill:#0D1D2A;}
</style>
<g>
	<g>
		<path class="st0" d="M150,42.07H9c-4.971,0-9-4.029-9-9v-24c0-4.971,4.029-9,9-9h141c4.971,0,9,4.029,9,9v24
			C159,38.04,154.971,42.07,150,42.07z"/>
	</g>
	<g>
		<path class="st1" d="M147.396,6.079c3.147,0,5.698,2.686,5.698,6V30.06c0,3.314-2.551,6-5.698,6H11.588
			c-3.147,0-5.698-2.686-5.698-6V12.079c0-3.314,2.551-6,5.698-6H147.396 M147.396,4.079H11.588c-4.189,0-7.598,3.589-7.598,8V30.06
			c0,4.411,3.408,8,7.598,8h135.808c4.189,0,7.598-3.589,7.598-8V12.079C154.994,7.668,151.585,4.079,147.396,4.079L147.396,4.079z"
			/>
	</g>
	<g>
		<rect x="34.002" y="10.084" class="st2" width="0.999" height="22.003"/>
	</g>
	<g>
		<path class="st3" d="M43.685,14.639c0.038-0.275-0.028-0.492-0.2-0.648c-0.171-0.157-0.488-0.318-0.951-0.486
			c-0.735-0.233-1.283-0.517-1.642-0.848s-0.499-0.765-0.419-1.301c0.073-0.51,0.335-0.913,0.787-1.211
			C41.711,9.848,42.257,9.7,42.899,9.7c0.727,0,1.291,0.173,1.692,0.521c0.401,0.347,0.551,0.827,0.448,1.438l-0.009,0.027h-1.244
			c0.041-0.293-0.034-0.533-0.224-0.719c-0.19-0.187-0.458-0.279-0.804-0.279c-0.258,0-0.482,0.063-0.672,0.189
			s-0.297,0.282-0.321,0.47c-0.041,0.272,0.027,0.479,0.205,0.622c0.177,0.142,0.541,0.307,1.092,0.494
			c0.694,0.226,1.206,0.503,1.536,0.833c0.329,0.329,0.453,0.774,0.371,1.333c-0.076,0.531-0.339,0.938-0.789,1.225
			c-0.45,0.285-1.005,0.428-1.667,0.428c-0.709,0-1.302-0.158-1.78-0.477c-0.478-0.317-0.659-0.812-0.545-1.482l0.009-0.027h1.244
			c-0.053,0.361,0.047,0.618,0.299,0.771c0.252,0.154,0.557,0.23,0.914,0.23c0.261,0,0.491-0.061,0.69-0.184
			S43.656,14.833,43.685,14.639z"/>
		<path class="st3" d="M49.605,13.378h-2.377l-0.268,1.828h2.826l-0.141,0.984h-4.109l0.927-6.398h4.096l-0.145,0.988h-2.813
			l-0.233,1.609h2.377L49.605,13.378z"/>
		<path class="st3" d="M55.643,14.072l0.009,0.026c-0.088,0.697-0.372,1.235-0.853,1.615c-0.48,0.379-1.1,0.568-1.859,0.568
			c-0.75,0-1.329-0.248-1.738-0.744c-0.408-0.497-0.556-1.133-0.441-1.91l0.18-1.27c0.114-0.797,0.436-1.439,0.964-1.927
			c0.529-0.488,1.17-0.731,1.923-0.731c0.762,0,1.339,0.191,1.731,0.575s0.533,0.919,0.422,1.604l-0.013,0.025H54.72
			c0.059-0.418,0.005-0.726-0.161-0.922s-0.456-0.295-0.872-0.295c-0.375,0-0.696,0.156-0.962,0.468
			c-0.267,0.313-0.434,0.71-0.501,1.193l-0.185,1.278c-0.076,0.502-0.023,0.905,0.158,1.211c0.182,0.307,0.476,0.459,0.883,0.459
			c0.378,0,0.677-0.101,0.898-0.303s0.363-0.51,0.424-0.923H55.643z"/>
		<path class="st3" d="M62.266,9.792l-0.606,4.188c-0.108,0.738-0.429,1.308-0.961,1.705c-0.531,0.399-1.181,0.598-1.948,0.598
			c-0.741,0-1.324-0.204-1.747-0.615c-0.423-0.409-0.582-0.972-0.477-1.688l0.606-4.188h1.287l-0.606,4.188
			c-0.064,0.438,0.001,0.766,0.195,0.987c0.195,0.221,0.489,0.331,0.882,0.331c0.387,0,0.714-0.113,0.981-0.34
			c0.269-0.228,0.435-0.553,0.499-0.979l0.606-4.188H62.266z"/>
		<path class="st3" d="M64.098,13.633l-0.369,2.558h-1.287l0.927-6.398h2.237c0.712,0,1.254,0.167,1.626,0.501
			s0.517,0.797,0.435,1.389c-0.05,0.34-0.179,0.628-0.387,0.863c-0.208,0.236-0.492,0.428-0.853,0.573
			c0.354,0.115,0.598,0.303,0.729,0.563c0.132,0.262,0.172,0.579,0.119,0.954l-0.066,0.47c-0.026,0.183-0.029,0.369-0.009,0.563
			s0.082,0.338,0.185,0.432l-0.013,0.092h-1.323c-0.103-0.094-0.155-0.247-0.158-0.459c-0.003-0.213,0.011-0.424,0.04-0.635
			l0.065-0.453c0.047-0.325-0.004-0.575-0.153-0.749c-0.149-0.175-0.384-0.262-0.703-0.262H64.098z M64.238,12.643h0.932
			c0.352,0,0.629-0.076,0.833-0.23c0.203-0.153,0.327-0.378,0.371-0.674c0.041-0.299-0.014-0.533-0.164-0.703
			c-0.151-0.17-0.401-0.256-0.75-0.256h-0.949L64.238,12.643z"/>
		<path class="st3" d="M72.236,13.378h-2.377l-0.269,1.828h2.826l-0.141,0.984h-4.109l0.928-6.398h4.096l-0.146,0.988h-2.813
			L70,12.389h2.377L72.236,13.378z"/>
		<path class="st3" d="M76.332,9.792c0.762,0,1.364,0.251,1.807,0.754c0.442,0.502,0.607,1.142,0.496,1.918l-0.153,1.059
			c-0.117,0.804-0.463,1.448-1.037,1.937c-0.574,0.487-1.254,0.731-2.039,0.731h-2.237l0.928-6.398H76.332z M75.238,10.78
			l-0.642,4.426h0.949c0.41,0,0.77-0.158,1.079-0.475c0.309-0.316,0.5-0.719,0.573-1.209l0.153-1.067
			c0.07-0.498-0.001-0.901-0.213-1.211c-0.213-0.309-0.529-0.464-0.951-0.464H75.238z"/>
		<path class="st3" d="M81.355,16.19l0.927-6.398h2.097c0.738,0,1.301,0.148,1.688,0.443c0.387,0.297,0.537,0.733,0.452,1.311
			c-0.044,0.299-0.157,0.563-0.34,0.791c-0.184,0.229-0.431,0.401-0.741,0.518c0.387,0.077,0.66,0.251,0.82,0.523
			c0.159,0.272,0.214,0.589,0.164,0.949c-0.091,0.624-0.358,1.091-0.804,1.399c-0.445,0.31-1.042,0.464-1.789,0.464H81.355z
			 M83.047,13.36l-0.268,1.846h1.19c0.334,0,0.603-0.074,0.805-0.225c0.202-0.148,0.325-0.367,0.369-0.654
			c0.047-0.316-0.006-0.557-0.156-0.721c-0.151-0.164-0.403-0.246-0.758-0.246H83.047z M83.175,12.472h0.861
			c0.334,0,0.604-0.071,0.813-0.213c0.208-0.143,0.333-0.347,0.374-0.613c0.041-0.302-0.021-0.521-0.185-0.659
			s-0.433-0.207-0.805-0.207h-0.813L83.175,12.472z"/>
		<path class="st3" d="M89.129,12.736l0.026,0.005l1.828-2.949h1.406l-2.795,4.152l-0.325,2.246h-1.283l0.334-2.324l-1.564-4.074
			h1.406L89.129,12.736z"/>
	</g>
	<g>
		<g>
			<path class="st2" d="M26.31,16.891h-1.168v-2.525c0-2.585-2.413-4.688-5.38-4.688s-5.38,2.103-5.38,4.688v2.525h-1.169
				c-1.333,0-2.418,0.97-2.418,2.162v10.905c0,1.192,1.085,2.161,2.418,2.161H26.31c1.334,0,2.419-0.97,2.419-2.161V19.053
				C28.729,17.861,27.644,16.891,26.31,16.891z M16.175,14.366c0-1.701,1.609-3.085,3.587-3.085s3.587,1.384,3.587,3.085v2.525
				h-7.174V14.366z"/>
		</g>
		<g>
			<g>
				<path class="st0" d="M21.365,28.512h-3.206c-0.221,0-0.401-0.179-0.401-0.401v-2.846c-0.511-0.522-0.801-1.228-0.801-1.963
					c0-1.547,1.259-2.805,2.805-2.805c1.547,0,2.805,1.259,2.805,2.805c0,0.736-0.29,1.441-0.801,1.963v2.846
					C21.765,28.333,21.586,28.512,21.365,28.512z M18.559,27.711h2.404v-2.616c0-0.114,0.049-0.223,0.134-0.299
					c0.424-0.379,0.668-0.923,0.668-1.493c0-1.105-0.899-2.004-2.004-2.004s-2.004,0.899-2.004,2.004
					c0,0.569,0.243,1.114,0.668,1.493c0.085,0.076,0.133,0.185,0.133,0.299V27.711z"/>
			</g>
		</g>
	</g>
	<g>
		<path class="st4" d="M59.555,18.783c-0.022-0.448,0.16-0.88,0.494-1.178c0.345-0.317,0.799-0.488,1.268-0.476
			c0.461-0.021,0.913,0.13,1.268,0.425c0.328,0.278,0.518,0.686,0.52,1.116c0.025,0.449-0.157,0.886-0.495,1.185
			c-0.345,0.316-0.799,0.484-1.267,0.469c-0.448,0.011-0.886-0.137-1.236-0.419C59.762,19.635,59.558,19.222,59.555,18.783
			 M60.651,31.91h-3.201l1.825-10.477h3.169L60.651,31.91z"/>
		<path class="st4" d="M67.408,21.42l-0.222,1.268c0.72-0.941,1.845-1.482,3.029-1.458c0.859-0.035,1.676,0.375,2.161,1.083
			c0.52,0.91,0.703,1.973,0.52,3.004l-1.109,6.592h-3.169l1.109-6.623c0.023-0.21,0.023-0.423,0-0.634
			c-0.044-0.634-0.405-0.919-1.083-0.919c-0.6,0.005-1.165,0.28-1.54,0.748l-1.306,7.416h-3.169l1.8-10.465L67.408,21.42z"/>
		<path class="st4" d="M79.526,28.906c0.083-0.425-0.247-0.741-0.989-0.958l-0.684-0.171c-0.923-0.193-1.777-0.63-2.472-1.268
			c-0.509-0.498-0.777-1.191-0.736-1.901c0.019-0.987,0.518-1.903,1.337-2.453c0.926-0.65,2.04-0.975,3.17-0.925
			c1.076-0.026,2.13,0.316,2.985,0.969c0.758,0.596,1.191,1.515,1.166,2.479h-3.169c0-0.824-0.342-1.268-1.096-1.268
			c-0.323,0-0.637,0.1-0.9,0.286c-0.266,0.171-0.446,0.448-0.494,0.761c-0.107,0.526,0.349,0.881,1.388,1.077
			c0.723,0.152,1.423,0.402,2.079,0.741c0.456,0.245,0.843,0.603,1.122,1.04c0.277,0.446,0.412,0.965,0.387,1.489
			c-0.018,0.618-0.242,1.213-0.634,1.692c-0.459,0.55-1.056,0.968-1.73,1.211c-0.77,0.302-1.594,0.445-2.421,0.419
			c-0.73,0-1.451-0.163-2.11-0.476c-0.61-0.28-1.135-0.718-1.521-1.267c-0.368-0.545-0.564-1.188-0.564-1.845h2.96
			c-0.088,0.674,0.386,1.291,1.06,1.379c0.113,0.014,0.228,0.013,0.341-0.004c0.353,0.011,0.701-0.081,1.001-0.266
			C79.269,29.482,79.459,29.214,79.526,28.906"/>
		<path class="st4" d="M89.553,18.822l-0.456,2.611h1.673l-0.393,2.262h-1.679l-0.812,4.843c-0.054,0.248-0.032,0.506,0.063,0.741
			c0.089,0.171,0.304,0.259,0.634,0.273c0.278,0.001,0.555-0.016,0.83-0.051l-0.228,2.364c-0.554,0.18-1.135,0.264-1.718,0.247
			c-0.832,0.051-1.644-0.269-2.218-0.875c-0.524-0.649-0.754-1.488-0.633-2.313l0.856-5.203h-1.268l0.387-2.262h1.267l0.456-2.611
			L89.553,18.822z"/>
		<path class="st4" d="M94.364,29.806c0.68,0.013,1.322-0.309,1.717-0.863l0.317-1.686h-0.824c-0.477,0.004-0.941,0.164-1.319,0.456
			c-0.362,0.288-0.592,0.711-0.633,1.173c-0.035,0.222,0.019,0.45,0.152,0.633C93.918,29.699,94.134,29.804,94.364,29.806
			 M96.189,31.91c-0.102-0.306-0.149-0.628-0.14-0.95c-0.628,0.746-1.56,1.168-2.535,1.147c-0.847,0.015-1.663-0.315-2.262-0.913
			c-0.591-0.557-0.9-1.351-0.843-2.161c-0.01-1.059,0.528-2.048,1.42-2.618c1.136-0.666,2.443-0.987,3.758-0.919h1.065l0.12-0.589
			l0.038-0.513c0.033-0.457-0.311-0.855-0.769-0.887c-0.037-0.003-0.074-0.003-0.112,0c-0.662-0.022-1.223,0.485-1.267,1.147h-3.169
			c0.006-0.659,0.229-1.298,0.633-1.818c0.455-0.546,1.045-0.961,1.712-1.205c0.746-0.282,1.54-0.415,2.339-0.393
			c0.725,0.001,1.438,0.173,2.085,0.5c0.572,0.286,1.043,0.742,1.343,1.306c0.306,0.595,0.423,1.27,0.336,1.933l-0.779,4.931
			l-0.063,0.596c-0.028,0.411,0.04,0.823,0.196,1.204v0.184L96.189,31.91z"/>
		<path class="st4" d="M105.309,21.42l-0.222,1.268c0.721-0.94,1.846-1.481,3.029-1.458c0.86-0.03,1.676,0.378,2.168,1.083
			c0.516,0.911,0.699,1.973,0.52,3.004l-1.11,6.598h-3.169l1.116-6.623c0.019-0.21,0.019-0.423,0-0.634
			c-0.045-0.633-0.406-0.919-1.084-0.919c-0.601,0.003-1.167,0.278-1.54,0.748l-1.305,7.416h-3.17l1.794-10.471L105.309,21.42z"/>
		<path class="st4" d="M117.478,18.822l-0.456,2.611h1.724l-0.399,2.262h-1.693l-0.818,4.843c-0.054,0.248-0.032,0.506,0.063,0.741
			c0.089,0.171,0.304,0.259,0.634,0.273c0.28,0.001,0.559-0.016,0.836-0.051l-0.234,2.364c-0.552,0.179-1.131,0.263-1.712,0.247
			c-0.832,0.052-1.644-0.269-2.217-0.875c-0.528-0.647-0.758-1.487-0.634-2.313l0.849-5.203h-1.268l0.387-2.262h1.267l0.501-2.637
			H117.478z"/>
		<path class="st1" d="M125.35,28.475c0.127-0.634-0.228-1.166-1.065-1.527l-1.426-0.59c-2.009-0.899-2.96-2.13-2.865-3.682
			c0.035-0.696,0.293-1.362,0.735-1.901c0.496-0.58,1.137-1.017,1.857-1.268c0.826-0.324,1.706-0.484,2.592-0.476
			c1.113-0.025,2.194,0.368,3.03,1.103c0.776,0.739,1.187,1.782,1.128,2.852h-2.985c0.037-0.416-0.073-0.831-0.31-1.173
			c-0.274-0.32-0.683-0.491-1.103-0.462c-0.466-0.016-0.927,0.105-1.324,0.348c-0.361,0.214-0.609,0.575-0.678,0.989
			c-0.114,0.583,0.317,1.058,1.267,1.432c0.742,0.259,1.461,0.582,2.149,0.963c1.271,0.625,2.041,1.953,1.952,3.366
			c-0.038,0.69-0.283,1.353-0.703,1.902c-0.465,0.573-1.075,1.011-1.768,1.267c-0.807,0.315-1.67,0.463-2.536,0.438
			c-0.646-0.008-1.288-0.117-1.901-0.324c-0.559-0.188-1.073-0.491-1.509-0.887c-0.853-0.796-1.3-1.935-1.217-3.099h2.985
			c-0.066,0.523,0.07,1.051,0.381,1.477c0.382,0.372,0.908,0.556,1.438,0.5c0.448,0.02,0.891-0.099,1.268-0.342
			C125.056,29.17,125.274,28.845,125.35,28.475"/>
		<path class="st1" d="M136.284,28.475c0.127-0.634-0.229-1.166-1.065-1.527l-1.426-0.59c-2.011-0.899-2.964-2.127-2.858-3.682
			c0.033-0.696,0.288-1.362,0.729-1.901c0.496-0.58,1.137-1.017,1.857-1.268c0.826-0.324,1.706-0.484,2.592-0.476
			c1.113-0.025,2.194,0.368,3.03,1.103c0.786,0.737,1.208,1.782,1.154,2.858h-2.967c0.04-0.416-0.069-0.832-0.31-1.173
			c-0.273-0.32-0.682-0.492-1.103-0.462c-0.466-0.015-0.927,0.106-1.325,0.348c-0.359,0.215-0.607,0.577-0.678,0.989
			c-0.108,0.583,0.324,1.059,1.268,1.432c0.733,0.258,1.444,0.578,2.123,0.957c1.271,0.625,2.041,1.953,1.952,3.366
			c-0.038,0.69-0.283,1.353-0.703,1.902c-0.465,0.573-1.076,1.011-1.769,1.267c-0.806,0.315-1.669,0.463-2.535,0.438
			c-0.647-0.008-1.288-0.117-1.901-0.324c-0.559-0.188-1.073-0.491-1.509-0.887c-0.854-0.796-1.3-1.935-1.217-3.099h2.991
			c-0.071,0.522,0.063,1.052,0.375,1.477c0.381,0.372,0.908,0.556,1.438,0.5c0.448,0.021,0.891-0.098,1.268-0.342
			C136,29.167,136.211,28.841,136.284,28.475"/>
		<polygon class="st1" points="143.636,29.559 148.807,29.559 148.396,31.91 140.244,31.91 142.444,19.233 145.429,19.233 		"/>
		<path class="st1" d="M47.563,19.139c-3.704,0.004-6.706,3.007-6.706,6.711c0,0.246,0.013,0.491,0.038,0.736l0.736-0.425V25.85
			c-0.006-3.276,2.645-5.937,5.921-5.943c1.781-0.004,3.47,0.794,4.6,2.172l1.451,0.837C52.479,20.604,50.133,19.137,47.563,19.139
			 M54.231,25.109l-0.735,0.425v0.317c-0.007,3.281-2.672,5.933-5.952,5.926c-1.769-0.004-3.444-0.796-4.569-2.161l-1.438-0.836
			c1.622,3.329,5.637,4.712,8.966,3.089c2.301-1.122,3.763-3.457,3.767-6.018C54.269,25.603,54.256,25.355,54.231,25.109"/>
		<polygon class="st1" points="54.972,24.197 54.168,24.665 53.451,25.078 50.282,26.903 50.282,25.508 45.51,25.508 45.51,22.879 
			50.282,22.879 50.282,21.49 52.703,22.885 53.87,23.556 		"/>
		<polygon class="st1" points="49.623,26.187 49.623,28.817 44.844,28.817 44.844,30.211 42.423,28.81 41.257,28.139 40.154,27.499 
			40.959,27.036 41.675,26.617 44.844,24.792 44.844,26.187 		"/>
		<path class="st4" d="M59.555,18.783c-0.022-0.448,0.16-0.88,0.494-1.178c0.345-0.317,0.799-0.488,1.268-0.476
			c0.461-0.021,0.913,0.13,1.268,0.425c0.328,0.278,0.518,0.686,0.52,1.116c0.025,0.449-0.157,0.886-0.495,1.185
			c-0.345,0.316-0.799,0.484-1.267,0.469c-0.448,0.011-0.886-0.137-1.236-0.419C59.762,19.635,59.558,19.222,59.555,18.783
			 M60.651,31.91h-3.201l1.825-10.477h3.169L60.651,31.91z"/>
		<path class="st4" d="M67.408,21.42l-0.222,1.268c0.72-0.941,1.845-1.482,3.029-1.458c0.859-0.035,1.676,0.375,2.161,1.083
			c0.52,0.91,0.703,1.973,0.52,3.004l-1.109,6.592h-3.169l1.109-6.623c0.023-0.21,0.023-0.423,0-0.634
			c-0.044-0.634-0.405-0.919-1.083-0.919c-0.6,0.005-1.165,0.28-1.54,0.748l-1.306,7.416h-3.169l1.8-10.465L67.408,21.42z"/>
		<path class="st4" d="M79.526,28.906c0.083-0.425-0.247-0.741-0.989-0.958l-0.684-0.171c-0.923-0.193-1.777-0.63-2.472-1.268
			c-0.509-0.498-0.777-1.191-0.736-1.901c0.019-0.987,0.518-1.903,1.337-2.453c0.926-0.65,2.04-0.975,3.17-0.925
			c1.076-0.026,2.13,0.316,2.985,0.969c0.758,0.596,1.191,1.515,1.166,2.479h-3.169c0-0.824-0.342-1.268-1.096-1.268
			c-0.323,0-0.637,0.1-0.9,0.286c-0.266,0.171-0.446,0.448-0.494,0.761c-0.107,0.526,0.349,0.881,1.388,1.077
			c0.723,0.152,1.423,0.402,2.079,0.741c0.456,0.245,0.843,0.603,1.122,1.04c0.277,0.446,0.412,0.965,0.387,1.489
			c-0.018,0.618-0.242,1.213-0.634,1.692c-0.459,0.55-1.056,0.968-1.73,1.211c-0.77,0.302-1.594,0.445-2.421,0.419
			c-0.73,0-1.451-0.163-2.11-0.476c-0.61-0.28-1.135-0.718-1.521-1.267c-0.368-0.545-0.564-1.188-0.564-1.845h2.96
			c-0.088,0.674,0.386,1.291,1.06,1.379c0.113,0.014,0.228,0.013,0.341-0.004c0.353,0.011,0.701-0.081,1.001-0.266
			C79.269,29.482,79.459,29.214,79.526,28.906"/>
		<path class="st4" d="M89.553,18.822l-0.456,2.611h1.673l-0.393,2.262h-1.679l-0.812,4.843c-0.054,0.248-0.032,0.506,0.063,0.741
			c0.089,0.171,0.304,0.259,0.634,0.273c0.278,0.001,0.555-0.016,0.83-0.051l-0.228,2.364c-0.554,0.18-1.135,0.264-1.718,0.247
			c-0.832,0.051-1.644-0.269-2.218-0.875c-0.524-0.649-0.754-1.488-0.633-2.313l0.856-5.203h-1.268l0.387-2.262h1.267l0.456-2.611
			L89.553,18.822z"/>
		<path class="st4" d="M94.364,29.806c0.68,0.013,1.322-0.309,1.717-0.863l0.317-1.686h-0.824c-0.477,0.004-0.941,0.164-1.319,0.456
			c-0.362,0.288-0.592,0.711-0.633,1.173c-0.035,0.222,0.019,0.45,0.152,0.633C93.918,29.699,94.134,29.804,94.364,29.806
			 M96.189,31.91c-0.102-0.306-0.149-0.628-0.14-0.95c-0.628,0.746-1.56,1.168-2.535,1.147c-0.847,0.015-1.663-0.315-2.262-0.913
			c-0.591-0.557-0.9-1.351-0.843-2.161c-0.01-1.059,0.528-2.048,1.42-2.618c1.136-0.666,2.443-0.987,3.758-0.919h1.065l0.12-0.589
			l0.038-0.513c0.033-0.457-0.311-0.855-0.769-0.887c-0.037-0.003-0.074-0.003-0.112,0c-0.662-0.022-1.223,0.485-1.267,1.147h-3.169
			c0.006-0.659,0.229-1.298,0.633-1.818c0.455-0.546,1.045-0.961,1.712-1.205c0.746-0.282,1.54-0.415,2.339-0.393
			c0.725,0.001,1.438,0.173,2.085,0.5c0.572,0.286,1.043,0.742,1.343,1.306c0.306,0.595,0.423,1.27,0.336,1.933l-0.779,4.931
			l-0.063,0.596c-0.028,0.411,0.04,0.823,0.196,1.204v0.184L96.189,31.91z"/>
		<path class="st4" d="M105.309,21.42l-0.222,1.268c0.721-0.94,1.846-1.481,3.029-1.458c0.86-0.03,1.676,0.378,2.168,1.083
			c0.516,0.911,0.699,1.973,0.52,3.004l-1.11,6.598h-3.169l1.116-6.623c0.019-0.21,0.019-0.423,0-0.634
			c-0.045-0.633-0.406-0.919-1.084-0.919c-0.601,0.003-1.167,0.278-1.54,0.748l-1.305,7.416h-3.17l1.794-10.471L105.309,21.42z"/>
		<path class="st4" d="M117.478,18.822l-0.456,2.611h1.724l-0.399,2.262h-1.693l-0.818,4.843c-0.054,0.248-0.032,0.506,0.063,0.741
			c0.089,0.171,0.304,0.259,0.634,0.273c0.28,0.001,0.559-0.016,0.836-0.051l-0.234,2.364c-0.552,0.179-1.131,0.263-1.712,0.247
			c-0.832,0.052-1.644-0.269-2.217-0.875c-0.528-0.647-0.758-1.487-0.634-2.313l0.849-5.203h-1.268l0.387-2.262h1.267l0.501-2.637
			H117.478z"/>
		<path class="st1" d="M125.35,28.475c0.127-0.634-0.228-1.166-1.065-1.527l-1.426-0.59c-2.009-0.899-2.96-2.13-2.865-3.682
			c0.035-0.696,0.293-1.362,0.735-1.901c0.496-0.58,1.137-1.017,1.857-1.268c0.826-0.324,1.706-0.484,2.592-0.476
			c1.113-0.025,2.194,0.368,3.03,1.103c0.776,0.739,1.187,1.782,1.128,2.852h-2.985c0.037-0.416-0.073-0.831-0.31-1.173
			c-0.274-0.32-0.683-0.491-1.103-0.462c-0.466-0.016-0.927,0.105-1.324,0.348c-0.361,0.214-0.609,0.575-0.678,0.989
			c-0.114,0.583,0.317,1.058,1.267,1.432c0.742,0.259,1.461,0.582,2.149,0.963c1.271,0.625,2.041,1.953,1.952,3.366
			c-0.038,0.69-0.283,1.353-0.703,1.902c-0.465,0.573-1.075,1.011-1.768,1.267c-0.807,0.315-1.67,0.463-2.536,0.438
			c-0.646-0.008-1.288-0.117-1.901-0.324c-0.559-0.188-1.073-0.491-1.509-0.887c-0.853-0.796-1.3-1.935-1.217-3.099h2.985
			c-0.066,0.523,0.07,1.051,0.381,1.477c0.382,0.372,0.908,0.556,1.438,0.5c0.448,0.02,0.891-0.099,1.268-0.342
			C125.056,29.17,125.274,28.845,125.35,28.475"/>
		<path class="st1" d="M136.284,28.475c0.127-0.634-0.229-1.166-1.065-1.527l-1.426-0.59c-2.011-0.899-2.964-2.127-2.858-3.682
			c0.033-0.696,0.288-1.362,0.729-1.901c0.496-0.58,1.137-1.017,1.857-1.268c0.826-0.324,1.706-0.484,2.592-0.476
			c1.113-0.025,2.194,0.368,3.03,1.103c0.786,0.737,1.208,1.782,1.154,2.858h-2.967c0.04-0.416-0.069-0.832-0.31-1.173
			c-0.273-0.32-0.682-0.492-1.103-0.462c-0.466-0.015-0.927,0.106-1.325,0.348c-0.359,0.215-0.607,0.577-0.678,0.989
			c-0.108,0.583,0.324,1.059,1.268,1.432c0.733,0.258,1.444,0.578,2.123,0.957c1.271,0.625,2.041,1.953,1.952,3.366
			c-0.038,0.69-0.283,1.353-0.703,1.902c-0.465,0.573-1.076,1.011-1.769,1.267c-0.806,0.315-1.669,0.463-2.535,0.438
			c-0.647-0.008-1.288-0.117-1.901-0.324c-0.559-0.188-1.073-0.491-1.509-0.887c-0.854-0.796-1.3-1.935-1.217-3.099h2.991
			c-0.071,0.522,0.063,1.052,0.375,1.477c0.381,0.372,0.908,0.556,1.438,0.5c0.448,0.021,0.891-0.098,1.268-0.342
			C136,29.167,136.211,28.841,136.284,28.475"/>
	</g>
</g>
</svg>
