<?xml version="1.0" encoding="utf-8"?>
<!-- Generator: Adobe Illustrator 23.0.3, SVG Export Plug-In . SVG Version: 6.00 Build 0)  -->
<svg version="1.1" id="Layer_1" xmlns="http://www.w3.org/2000/svg" xmlns:xlink="http://www.w3.org/1999/xlink" x="0px" y="0px"
	 width="180px" height="42px" viewBox="0 0 180 42" style="enable-background:new 0 0 180 42;" xml:space="preserve">
<style type="text/css">
	.st0{fill:#FFFFFF;}
	.st1{fill:#67B1E2;}
	.st2{fill:#0A1D2B;}
	.st3{fill:#0F1D2B;}
	.st4{fill:#0D1D2A;}
	.st5{fill:#6BB1E2;}
</style>
<g>
	<g>
		<path class="st0" d="M171,41.985H9c-4.971,0-9-4.029-9-9v-24c0-4.971,4.029-9,9-9h162c4.971,0,9,4.029,9,9v24
			C180,37.955,175.971,41.985,171,41.985z"/>
	</g>
	<g>
		<path class="st1" d="M167.017,5.979c3.576,0,6.475,2.686,6.475,6V29.96c0,3.314-2.899,6-6.475,6H12.702
			c-3.576,0-6.475-2.686-6.475-6V11.979c0-3.314,2.899-6,6.475-6H167.017 M167.017,3.979H12.702c-4.76,0-8.633,3.589-8.633,8V29.96
			c0,4.411,3.873,8,8.633,8h154.314c4.76,0,8.633-3.589,8.633-8V11.979C175.65,7.567,171.777,3.979,167.017,3.979L167.017,3.979z"/>
	</g>
	<g>
		<rect x="34.081" y="9.983" class="st2" width="0.999" height="22.003"/>
	</g>
	<g>
		<path class="st3" d="M43.765,14.539c0.038-0.275-0.028-0.492-0.2-0.648c-0.171-0.157-0.488-0.318-0.951-0.486
			c-0.735-0.233-1.283-0.517-1.642-0.848s-0.499-0.765-0.419-1.301c0.073-0.51,0.335-0.913,0.787-1.211
			c0.451-0.297,0.998-0.445,1.639-0.445c0.727,0,1.291,0.173,1.692,0.521c0.401,0.347,0.551,0.827,0.448,1.438l-0.009,0.027h-1.244
			c0.041-0.293-0.034-0.533-0.224-0.719c-0.19-0.187-0.458-0.279-0.804-0.279c-0.258,0-0.482,0.063-0.672,0.189
			s-0.297,0.282-0.321,0.47c-0.041,0.272,0.027,0.479,0.205,0.622c0.177,0.142,0.541,0.307,1.092,0.494
			c0.694,0.226,1.206,0.503,1.536,0.833c0.329,0.329,0.453,0.774,0.371,1.333c-0.076,0.531-0.339,0.938-0.789,1.225
			c-0.45,0.285-1.005,0.428-1.667,0.428c-0.709,0-1.302-0.158-1.78-0.477c-0.478-0.317-0.659-0.812-0.545-1.482l0.009-0.027h1.244
			c-0.053,0.361,0.047,0.618,0.299,0.771c0.252,0.154,0.557,0.23,0.914,0.23c0.261,0,0.491-0.061,0.69-0.184
			S43.735,14.732,43.765,14.539z"/>
		<path class="st3" d="M49.684,13.277h-2.377l-0.268,1.828h2.826l-0.141,0.984h-4.109l0.927-6.398h4.096l-0.145,0.988H47.68
			l-0.233,1.609h2.377L49.684,13.277z"/>
		<path class="st3" d="M55.722,13.972l0.009,0.026c-0.088,0.697-0.372,1.235-0.853,1.615c-0.48,0.379-1.1,0.568-1.859,0.568
			c-0.75,0-1.329-0.248-1.738-0.744c-0.408-0.497-0.556-1.133-0.441-1.91l0.18-1.27c0.114-0.797,0.436-1.439,0.964-1.927
			c0.529-0.488,1.17-0.731,1.923-0.731c0.762,0,1.339,0.191,1.731,0.575s0.533,0.919,0.422,1.604l-0.013,0.025h-1.248
			c0.059-0.418,0.005-0.726-0.161-0.922s-0.456-0.295-0.872-0.295c-0.375,0-0.696,0.156-0.962,0.468
			c-0.267,0.313-0.434,0.71-0.501,1.193l-0.185,1.278c-0.076,0.502-0.023,0.905,0.158,1.211c0.182,0.307,0.476,0.459,0.883,0.459
			c0.378,0,0.677-0.101,0.898-0.303s0.363-0.51,0.424-0.923H55.722z"/>
		<path class="st3" d="M62.345,9.691l-0.606,4.188c-0.108,0.738-0.429,1.308-0.961,1.705c-0.531,0.399-1.181,0.598-1.948,0.598
			c-0.741,0-1.324-0.204-1.747-0.615c-0.423-0.409-0.582-0.972-0.477-1.688l0.606-4.188h1.287l-0.606,4.188
			c-0.064,0.438,0.001,0.766,0.195,0.987c0.195,0.221,0.489,0.331,0.882,0.331c0.387,0,0.714-0.113,0.981-0.34
			c0.269-0.228,0.435-0.553,0.499-0.979l0.606-4.188H62.345z"/>
		<path class="st3" d="M64.177,13.532l-0.369,2.558H62.52l0.927-6.398h2.237c0.712,0,1.254,0.167,1.626,0.501
			s0.517,0.797,0.435,1.389c-0.05,0.34-0.179,0.628-0.387,0.863c-0.208,0.236-0.492,0.428-0.853,0.573
			c0.354,0.115,0.598,0.303,0.729,0.563c0.132,0.262,0.172,0.579,0.119,0.954l-0.066,0.47c-0.026,0.183-0.029,0.369-0.009,0.563
			s0.082,0.338,0.185,0.432l-0.013,0.092h-1.323c-0.103-0.094-0.155-0.247-0.158-0.459c-0.003-0.213,0.011-0.424,0.04-0.635
			l0.065-0.453c0.047-0.325-0.004-0.575-0.153-0.749c-0.149-0.175-0.384-0.262-0.703-0.262H64.177z M64.317,12.543h0.932
			c0.352,0,0.629-0.076,0.833-0.23c0.203-0.153,0.327-0.378,0.371-0.674c0.041-0.299-0.014-0.533-0.164-0.703
			c-0.151-0.17-0.401-0.256-0.75-0.256H64.59L64.317,12.543z"/>
		<path class="st3" d="M72.315,13.277h-2.377l-0.269,1.828h2.826l-0.141,0.984h-4.109l0.928-6.398h4.096l-0.146,0.988h-2.813
			l-0.232,1.609h2.377L72.315,13.277z"/>
		<path class="st3" d="M76.411,9.691c0.762,0,1.364,0.251,1.807,0.754c0.442,0.502,0.607,1.142,0.496,1.918l-0.153,1.059
			c-0.117,0.804-0.463,1.448-1.037,1.937c-0.574,0.487-1.254,0.731-2.039,0.731h-2.237l0.928-6.398H76.411z M75.317,10.68
			l-0.642,4.426h0.949c0.41,0,0.77-0.158,1.079-0.475c0.309-0.316,0.5-0.719,0.573-1.209l0.153-1.067
			c0.07-0.498-0.001-0.901-0.213-1.211c-0.213-0.309-0.529-0.464-0.951-0.464H75.317z"/>
		<path class="st3" d="M81.434,16.09l0.927-6.398h2.097c0.738,0,1.301,0.148,1.688,0.443c0.387,0.297,0.537,0.733,0.452,1.311
			c-0.044,0.299-0.157,0.563-0.34,0.791c-0.184,0.229-0.431,0.401-0.741,0.518c0.387,0.077,0.66,0.251,0.82,0.523
			c0.159,0.272,0.214,0.589,0.164,0.949c-0.091,0.624-0.358,1.091-0.804,1.399c-0.445,0.31-1.042,0.464-1.789,0.464H81.434z
			 M83.126,13.26l-0.268,1.846h1.19c0.334,0,0.603-0.074,0.805-0.225c0.202-0.148,0.325-0.367,0.369-0.654
			c0.047-0.316-0.006-0.557-0.156-0.721c-0.151-0.164-0.403-0.246-0.758-0.246H83.126z M83.254,12.372h0.861
			c0.334,0,0.604-0.071,0.813-0.213c0.208-0.143,0.333-0.347,0.374-0.613c0.041-0.302-0.021-0.521-0.185-0.659
			s-0.433-0.207-0.805-0.207H83.5L83.254,12.372z"/>
		<path class="st3" d="M89.208,12.636l0.026,0.005l1.828-2.949h1.406l-2.795,4.152l-0.325,2.246h-1.283l0.334-2.324l-1.564-4.074
			h1.406L89.208,12.636z"/>
	</g>
	<g>
		<g>
			<path class="st2" d="M26.389,16.79h-1.168v-2.525c0-2.585-2.413-4.688-5.38-4.688s-5.38,2.103-5.38,4.688v2.525h-1.169
				c-1.333,0-2.418,0.97-2.418,2.162v10.905c0,1.192,1.085,2.161,2.418,2.161h13.097c1.334,0,2.419-0.97,2.419-2.161V18.952
				C28.808,17.76,27.723,16.79,26.389,16.79z M16.254,14.265c0-1.701,1.609-3.085,3.587-3.085s3.587,1.384,3.587,3.085v2.525h-7.174
				V14.265z"/>
		</g>
		<g>
			<g>
				<path class="st0" d="M21.444,28.412h-3.206c-0.221,0-0.401-0.179-0.401-0.401v-2.846c-0.511-0.522-0.801-1.228-0.801-1.963
					c0-1.547,1.259-2.805,2.805-2.805c1.547,0,2.805,1.259,2.805,2.805c0,0.736-0.29,1.441-0.801,1.963v2.846
					C21.844,28.232,21.665,28.412,21.444,28.412z M18.639,27.61h2.404v-2.616c0-0.114,0.049-0.223,0.134-0.299
					c0.424-0.379,0.668-0.923,0.668-1.493c0-1.105-0.899-2.004-2.004-2.004s-2.004,0.899-2.004,2.004
					c0,0.569,0.243,1.114,0.668,1.493c0.085,0.076,0.133,0.185,0.133,0.299V27.61z"/>
			</g>
		</g>
	</g>
	<g>
		<polygon class="st4" points="47.481,26.273 42.669,26.273 42.114,29.622 47.774,29.622 47.416,31.699 39.189,31.699 
			41.382,19.135 49.543,19.135 49.171,21.234 43.576,21.234 43.013,24.225 47.847,24.225 		"/>
		<polygon class="st4" points="58.845,31.699 56.396,31.699 52.9,23.347 51.437,31.728 48.915,31.728 51.108,19.165 53.544,19.165 
			57.053,27.559 58.516,19.165 61.039,19.165 		"/>
		<polygon class="st4" points="72.096,21.234 68.367,21.234 66.568,31.699 64.052,31.699 65.851,21.234 62.195,21.234 62.56,19.136 
			72.506,19.136 		"/>
		<polygon class="st4" points="80.096,26.273 75.277,26.273 74.692,29.644 80.352,29.644 79.987,31.721 71.804,31.721 
			73.997,19.158 82.158,19.158 81.786,21.256 76.147,21.256 75.621,24.225 80.454,24.225 		"/>
		<polygon class="st4" points="117.435,31.699 114.905,31.699 117.099,19.135 119.629,19.135 		"/>
		<polygon class="st4" points="138.723,26.273 133.911,26.273 133.326,29.644 138.986,29.644 138.621,31.721 130.43,31.721 
			132.624,19.158 140.792,19.158 140.427,21.256 134.789,21.256 134.255,24.225 139.088,24.225 		"/>
		<path class="st5" d="M148.054,28.554c0.132-1.083-0.446-1.877-1.733-2.384l-1.652-0.629l-0.534-0.211
			c-1.631-0.732-2.391-1.726-2.267-3.086c0.049-0.649,0.306-1.265,0.732-1.755c0.442-0.528,1.015-0.931,1.66-1.17
			c0.697-0.278,1.444-0.411,2.194-0.389c0.695,0.009,1.377,0.185,1.989,0.512c0.562,0.304,1.018,0.771,1.309,1.339
			c0.298,0.589,0.418,1.253,0.344,1.908h-1.061c0.113-0.74-0.106-1.491-0.599-2.055c-0.538-0.535-1.274-0.827-2.033-0.804
			c-0.825-0.036-1.639,0.183-2.333,0.629c-0.62,0.383-1.03,1.031-1.112,1.755c-0.083,0.561,0.111,1.127,0.519,1.521
			c0.637,0.528,1.389,0.9,2.195,1.09c1.044,0.262,2.004,0.788,2.785,1.528c0.519,0.587,0.763,1.366,0.673,2.143
			c-0.053,0.661-0.308,1.289-0.731,1.799c-0.45,0.529-1.03,0.933-1.683,1.171c-0.721,0.272-1.488,0.402-2.259,0.379
			c-0.76,0.008-1.512-0.162-2.194-0.497c-0.611-0.281-1.122-0.744-1.463-1.323c-0.328-0.593-0.46-1.273-0.38-1.946h1.046
			c-0.112,0.775,0.161,1.556,0.732,2.091c0.629,0.562,1.453,0.855,2.296,0.82c0.861,0.044,1.713-0.187,2.435-0.659
			C147.554,29.941,147.969,29.287,148.054,28.554"/>
		<path class="st5" d="M158.299,28.554c0.132-1.083-0.446-1.877-1.733-2.384l-1.652-0.629l-0.534-0.211
			c-1.631-0.732-2.391-1.726-2.267-3.086c0.052-0.649,0.308-1.263,0.732-1.755c0.446-0.526,1.021-0.929,1.667-1.17
			c0.697-0.278,1.444-0.411,2.194-0.389c0.695,0.009,1.377,0.185,1.989,0.512c0.561,0.307,1.016,0.772,1.309,1.339
			c0.295,0.59,0.415,1.253,0.344,1.908h-1.06c0.112-0.74-0.107-1.491-0.6-2.055c-0.538-0.535-1.274-0.827-2.033-0.804
			c-0.827-0.036-1.644,0.183-2.34,0.629c-0.618,0.384-1.025,1.031-1.104,1.755c-0.087,0.562,0.107,1.129,0.519,1.521
			c0.637,0.528,1.388,0.9,2.194,1.09c1.043,0.26,2.001,0.786,2.779,1.528c0.519,0.586,0.767,1.365,0.68,2.143
			c-0.057,0.66-0.312,1.287-0.732,1.799c-0.451,0.528-1.03,0.931-1.682,1.171c-0.721,0.272-1.489,0.402-2.26,0.379
			c-0.76,0.008-1.512-0.162-2.194-0.497c-1.256-0.576-1.995-1.897-1.828-3.269h1.053c-0.117,0.775,0.156,1.558,0.732,2.091
			c0.62,0.551,1.429,0.845,2.259,0.82c0.861,0.044,1.713-0.187,2.435-0.659C157.795,29.943,158.212,29.289,158.299,28.554"/>
		<polygon class="st5" points="162.314,30.799 168.332,30.799 168.179,31.699 161.093,31.699 163.286,19.135 164.346,19.135 		"/>
		<path class="st4" d="M85.26,25h1.879c0.596,0.01,1.179-0.18,1.652-0.541c0.433-0.356,0.712-0.863,0.783-1.419
			c0.1-0.457,0.002-0.936-0.271-1.316c-0.318-0.341-0.77-0.525-1.235-0.505h-2.194L85.26,25z M86.912,27.099h-2.055l-0.804,4.6
			h-2.523l2.195-12.563h4.16c1.162-0.078,2.31,0.276,3.226,0.995c0.769,0.688,1.144,1.713,1.002,2.735
			c-0.074,1.661-1.179,3.099-2.764,3.598l1.77,5.119v0.14h-2.721L86.912,27.099z"/>
		<path class="st4" d="M96.228,25.176h2.107c0.607,0.023,1.203-0.163,1.69-0.527c0.446-0.346,0.737-0.857,0.804-1.419
			c0.118-0.506,0.014-1.038-0.285-1.462c-0.306-0.37-0.764-0.581-1.243-0.571h-2.399L96.228,25.176z M95.863,27.274l-0.782,4.425
			h-2.508l2.194-12.563h4.387c1.173-0.062,2.321,0.349,3.189,1.14c0.776,0.763,1.152,1.845,1.016,2.925
			c-0.063,1.152-0.623,2.22-1.536,2.925c-1.032,0.769-2.297,1.158-3.583,1.105L95.863,27.274z"/>
		<path class="st4" d="M107.387,25h1.887c0.596,0.01,1.179-0.18,1.652-0.541c0.436-0.352,0.714-0.862,0.775-1.419
			c0.103-0.456,0.007-0.935-0.263-1.316c-0.319-0.34-0.77-0.524-1.235-0.505h-2.194L107.387,25z M109.084,27.099h-2.055l-0.804,4.6
			h-2.53l2.186-12.563h4.161c1.154-0.077,2.298,0.275,3.21,0.987c0.766,0.69,1.14,1.714,1.002,2.735
			c-0.074,1.661-1.179,3.098-2.764,3.598l1.77,5.119v0.14h-2.691L109.084,27.099z"/>
		<path class="st4" d="M126.722,28.342c0.117-0.687-0.22-1.207-1.009-1.572l-1.697-0.666c-1.93-0.863-2.852-2.047-2.75-3.56
			c0.03-0.678,0.27-1.33,0.688-1.866c0.472-0.579,1.095-1.019,1.799-1.272c0.781-0.31,1.616-0.461,2.457-0.446
			c1.077-0.018,2.12,0.368,2.925,1.083c0.755,0.734,1.157,1.756,1.105,2.808h-2.523c0.057-0.474-0.078-0.949-0.373-1.323
			c-0.342-0.345-0.817-0.526-1.301-0.498c-0.516-0.013-1.024,0.124-1.463,0.396c-0.394,0.253-0.661,0.663-0.731,1.126
			c-0.11,0.628,0.307,1.126,1.258,1.462l1.14,0.432l0.659,0.307c1.696,0.834,2.486,2.019,2.377,3.532
			c-0.04,0.701-0.295,1.373-0.732,1.923c-0.452,0.562-1.048,0.99-1.726,1.235c-0.766,0.297-1.584,0.437-2.406,0.41
			c-0.825-0.003-1.637-0.196-2.377-0.563c-0.67-0.329-1.223-0.854-1.586-1.507c-0.348-0.634-0.513-1.354-0.476-2.077h2.523
			c-0.081,1.361,0.592,2.055,2.01,2.077c0.536,0.021,1.065-0.119,1.522-0.403C126.396,29.141,126.644,28.767,126.722,28.342"/>
	</g>
</g>
</svg>
