<svg xmlns="http://www.w3.org/2000/svg" viewBox="0 0 406.9 184.9"><style>.st0{fill:#a1ca3b}.st1{fill:#414042;stroke:#a1ca3b;stroke-width:6;stroke-miterlimit:10}.st2{fill:#fff}.st3{fill:#a0cc41}.st5{display:inline}.st6{fill:#f9ed32}</style><g id="Isolation_Mode"><path class="st0" d="M357.7 179.5H173.5c-6.6 0-12-5.4-12-12V147c0-6.6 5.4-12 12-12h184.2c6.6 0 12 5.4 12 12v20.5c0 6.6-5.4 12-12 12z"/><path class="st1" d="M386.8 45.5H164C148.8 22 122.3 6.4 92.2 6.4 44.9 6.4 6.6 44.7 6.6 91.9s38.3 85.5 85.5 85.5c26.2 0 49.7-11.8 65.3-30.4h229.3c7 0 12.7-5.7 12.7-12.7V58.2c.1-7-5.6-12.7-12.6-12.7z"/><path d="M168.3 157.1h10.8v2.8h-3.6v8.6H172v-8.6h-3.6v-2.8zm12.4 11.4V157h5.9c1.1 0 1.9.1 2.5.3s1 .5 1.4 1c.4.5.5 1.1.5 1.9 0 .6-.1 1.2-.4 1.6-.3.5-.6.8-1.1 1.1-.3.2-.7.3-1.2.5.4.1.7.3.9.4l.6.6c.2.3.4.5.5.7l1.7 3.3h-4l-1.9-3.5c-.2-.5-.5-.7-.6-.9-.3-.2-.5-.3-.9-.3h-.3v4.6h-3.6zm3.6-6.8h1.5c.2 0 .5-.1.9-.2.2 0 .4-.2.6-.4s.2-.4.2-.7c0-.4-.1-.7-.4-.9-.2-.2-.7-.3-1.3-.3h-1.6v2.5zm16-4.6h3.5v6.8c0 .7-.1 1.3-.3 1.9s-.5 1.1-1 1.6-.9.8-1.4.9c-.7.3-1.5.4-2.5.4-.6 0-1.2 0-1.8-.1-.7-.1-1.2-.2-1.7-.5-.4-.2-.8-.6-1.2-1s-.6-.9-.8-1.3c-.2-.7-.3-1.4-.3-1.9v-6.8h3.5v7c0 .6.2 1.1.5 1.5.3.4.8.5 1.4.5.6 0 1.1-.2 1.4-.5.3-.3.5-.8.5-1.5v-7zm5.3 7.6l3.4-.2c.1.5.2 1 .4 1.3.4.5.9.7 1.6.7.5 0 .9-.1 1.2-.4s.4-.5.4-.8c0-.3-.1-.6-.4-.8s-.9-.5-1.8-.7c-1.6-.3-2.7-.8-3.3-1.4-.7-.6-1-1.3-1-2.2 0-.6.2-1.1.5-1.7s.9-.9 1.5-1.2 1.6-.4 2.8-.4c1.5 0 2.6.3 3.3.8s1.2 1.4 1.4 2.6l-3.3.2c-.1-.5-.3-.9-.6-1.1s-.7-.4-1.2-.4c-.4 0-.7.1-.9.3s-.3.4-.3.6c0 .2.1.3.3.5.2.2.6.3 1.2.4 1.5.3 2.7.7 3.3 1s1.2.8 1.5 1.3.5 1.1.5 1.7c0 .7-.2 1.4-.6 2s-1 1.1-1.7 1.4c-.7.3-1.6.5-2.8.5-1.9 0-3.3-.4-4-1.1s-1.3-1.7-1.4-2.9zm11.3-7.6h10.8v2.8h-3.6v8.6h-3.5v-8.6H217v-2.8zm12.4 0h9.5v2.4h-5.9v1.8h5.5v2.3h-5.5v2.3h6.1v2.6h-9.7v-11.4zm11.6 0h5.3c1 0 1.9.1 2.5.4s1.2.7 1.6 1.2.7 1.1.9 1.8.3 1.4.3 2.2c0 1.2-.1 2.2-.4 2.8s-.7 1.2-1.2 1.7-1 .8-1.6.9c-.8.2-1.5.3-2.1.3h-5.3v-11.3zm3.5 2.5v6.3h.9c.7 0 1.3-.1 1.6-.2s.6-.5.7-.9.3-1.1.3-2c0-1.2-.2-2-.6-2.5s-1.1-.7-2-.7h-.9zm23.3 3.3l2.5.6c-.1.5-.3.8-.4 1.1s-.3.6-.5 1l1.2.8c.1.1.3.2.6.3l-1.7 2c-.3-.2-.6-.4-1-.6s-.6-.4-.9-.6c-.6.4-1.1.6-1.7.8-.8.2-1.6.3-2.6.3-1.5 0-2.7-.3-3.4-1s-1.1-1.4-1.1-2.3c0-.7.2-1.3.7-1.8s1.2-1.1 2.1-1.5c-.4-.5-.7-.9-.9-1.3s-.2-.8-.2-1.1c0-.8.3-1.5.9-2s1.6-.8 2.8-.8c1.3 0 2.2.3 2.8.8s.9 1.1.9 1.8c0 .4-.1.8-.3 1.1s-.4.7-.7.9-.7.6-1.4 1c.6.6 1.1 1.1 1.7 1.6.3-.4.5-.7.6-1.1zm-4.8.8c-.4.3-.7.6-.9.8s-.2.5-.2.7c0 .4.2.7.5 1s.8.4 1.3.4c.6 0 1.2-.2 1.9-.7-.7-.4-1.6-1.2-2.6-2.2zm1.1-2.8c.4-.2.7-.5 1-.7s.3-.5.3-.7c0-.2-.1-.5-.3-.6s-.4-.3-.8-.3c-.3 0-.6.1-.8.3s-.3.4-.3.7c.1.2.3.7.9 1.3zm13.6 3.8l3.4-.2c.1.5.2 1 .4 1.3.4.5.9.7 1.6.7.5 0 .9-.1 1.2-.4s.4-.5.4-.8c0-.3-.1-.6-.4-.8s-.9-.5-1.8-.7c-1.6-.3-2.7-.8-3.3-1.4-.7-.6-1-1.3-1-2.2 0-.6.2-1.1.5-1.7s.9-.9 1.5-1.2 1.6-.4 2.8-.4c1.5 0 2.6.3 3.3.8s1.2 1.4 1.4 2.6l-3.3.2c-.1-.5-.3-.9-.6-1.1s-.7-.4-1.2-.4c-.4 0-.7.1-.9.3s-.3.4-.3.6c0 .2.1.3.3.5.2.2.6.3 1.2.4 1.5.3 2.7.7 3.3 1s1.2.8 1.5 1.3.5 1.1.5 1.7c0 .7-.2 1.4-.6 2s-1 1.1-1.7 1.4-1.6.5-2.8.5c-1.9 0-3.3-.4-4-1.1s-1.3-1.7-1.4-2.9zm12.1-7.6h9.5v2.4h-5.9v1.8h5.5v2.3h-5.5v2.3h6.1v2.6h-9.7v-11.4zm19.2 6.7l3.1.9c-.2.9-.5 1.6-1 2.2s-1 1-1.7 1.3-1.5.4-2.5.4c-1.2 0-2.3-.2-3.1-.5-.8-.4-1.5-1-2-1.9-.6-.9-.9-2.1-.9-3.5 0-1.9.5-3.4 1.5-4.4s2.4-1.5 4.3-1.5c1.4 0 2.6.3 3.4.9s1.4 1.5 1.8 2.7l-3.1.7c-.1-.3-.2-.6-.3-.8-.2-.3-.4-.5-.7-.6s-.6-.2-1-.2c-.8 0-1.4.3-1.8 1-.3.5-.5 1.2-.5 2.3 0 1.3.2 2.1.6 2.6s.9.7 1.6.7c.7 0 1.2-.2 1.5-.6s.7-1 .8-1.7zm12.3-6.7h3.5v6.8c0 .7-.1 1.3-.3 1.9s-.5 1.1-1 1.6-.9.8-1.4.9c-.7.3-1.5.4-2.5.4-.6 0-1.2 0-1.8-.1s-1.2-.2-1.7-.5c-.4-.2-.8-.6-1.2-1s-.6-.9-.8-1.3c-.2-.7-.3-1.4-.3-1.9v-6.8h3.5v7c0 .6.2 1.1.5 1.5.3.4.8.5 1.4.5.6 0 1.1-.2 1.4-.5.3-.3.5-.8.5-1.5v-7zm5.9 11.4V157h5.9c1.1 0 1.9.1 2.5.3s1 .5 1.4 1 .5 1.1.5 1.9c0 .6-.1 1.2-.4 1.6-.3.5-.6.8-1.1 1.1-.3.2-.7.3-1.2.5.4.1.7.3.9.4l.6.6c.3.3.4.5.5.7l1.7 3.3h-4l-1.9-3.5c-.2-.5-.5-.7-.6-.9-.3-.2-.5-.3-.9-.3h-.3v4.6h-3.6zm3.6-6.8h1.5c.2 0 .5-.1.9-.2.2 0 .4-.2.6-.4s.2-.4.2-.7c0-.4-.1-.7-.4-.9s-.7-.3-1.3-.3h-1.6v2.5zm8.8-4.6h9.5v2.4h-5.9v1.8h5.5v2.3h-5.5v2.3h6.1v2.6h-9.7v-11.4zm11.6 0h5.3c1 0 1.9.1 2.5.4s1.2.7 1.6 1.2.7 1.1.9 1.8.3 1.4.3 2.2c0 1.2-.1 2.2-.4 2.8s-.7 1.2-1.2 1.7-1 .8-1.6.9c-.8.2-1.5.3-2.1.3h-5.3v-11.3zm3.6 2.5v6.3h.9c.7 0 1.3-.1 1.6-.2s.6-.5.7-.9.3-1.1.3-2c0-1.2-.2-2-.6-2.5s-1.1-.7-2-.7h-.9z"/><path class="st0" d="M310.4 68.4h86.1c3.2 0 5.8-2.4 5.8-5.2l-6.9-14.5c0-2.9-18.2-3.7-21.3-3.7l-63.6-2c-3.2 0-5.8 2.4-5.8 5.2v14.9c0 2.9 2.6 5.3 5.7 5.3z"/><path d="M313.8 61.7v-8.6h2.6L318 59l1.5-5.9h2.6v8.6h-1.6v-6.8l-1.7 6.8h-1.7l-1.7-6.8v6.8h-1.6zm9.6-4.2c0-.9.1-1.6.4-2.2.2-.4.5-.8.8-1.2s.7-.6 1.1-.8c.5-.2 1.2-.3 1.9-.3 1.3 0 2.3.4 3 1.2s1.1 1.9 1.1 3.3-.4 2.5-1.1 3.3-1.8 1.2-3 1.2c-1.3 0-2.3-.4-3-1.2s-1.2-2-1.2-3.3zm1.8-.1c0 1 .2 1.7.7 2.2s1 .8 1.7.8 1.3-.2 1.7-.7.7-1.2.7-2.2c0-1-.2-1.7-.6-2.2s-1-.7-1.7-.7-1.3.2-1.7.7-.8 1.1-.8 2.1zm7.9 4.3v-8.6h3.7c.9 0 1.6.1 2 .2s.7.4 1 .8.4.8.4 1.4c0 .6-.2 1.2-.6 1.6s-.9.7-1.7.8c.4.2.7.5.9.7s.6.7 1 1.4l1 1.7h-2.1l-1.3-1.9c-.4-.7-.8-1.1-.9-1.3s-.3-.3-.5-.4-.5-.1-.9-.1h-.4v3.6h-1.6zm1.8-5h1.3c.8 0 1.4 0 1.6-.1s.4-.2.5-.4.2-.4.2-.6c0-.3-.1-.5-.2-.7s-.4-.3-.7-.3h-2.7v2.1zm6.9 5v-8.6h6.4v1.5h-4.6v1.9h4.3v1.4h-4.3v2.3h4.8v1.4h-6.6zm11.3 0v-8.6h1.7v8.6h-1.7zm3.4 0v-8.6h1.7l3.5 5.7v-5.7h1.6v8.6h-1.7l-3.5-5.6v5.6h-1.6zm8.6 0v-8.6h5.9v1.5h-4.2v2h3.6v1.5h-3.6v3.7h-1.7zm7-4.2c0-.9.1-1.6.4-2.2.2-.4.5-.8.8-1.2s.7-.6 1.1-.8c.5-.2 1.2-.3 1.9-.3 1.3 0 2.3.4 3 1.2s1.1 1.9 1.1 3.3-.4 2.5-1.1 3.3-1.8 1.2-3 1.2c-1.3 0-2.3-.4-3-1.2s-1.2-2-1.2-3.3zm1.8-.1c0 1 .2 1.7.7 2.2s1 .8 1.7.8 1.3-.2 1.7-.7.7-1.2.7-2.2c0-1-.2-1.7-.6-2.2s-1-.7-1.7-.7-1.3.2-1.7.7-.8 1.1-.8 2.1zm10.3-3.5l6.1 3.6-6.1 3.5z"/></g><g id="Layer_3"><g id="_x23_ffffffff"><path class="st2" d="M274.3 56c6.9-.1 13.8-.1 20.7-.1.9 0 1.7.9 1.5 1.8-3.5 17.9-6.9 35.7-10.5 53.6-.2.9.5 1.8 1.5 1.8h18.2c.9 0 1.7.9 1.5 1.8-1.3 6.1-2.4 12.2-3.5 18.3-.1.7-.8 1.2-1.5 1.2h-42c-.9 0-1.7-.9-1.5-1.8.9-4.5 1.3-9.3 3.9-13.2 4-7.2 5.6-15.7 3.6-23.8 0-.2-.1-.4 0-.6 1-7.7 3.1-15.3 4.3-23 .4-3.3 2.1-6.1 3.8-8.9.3-.6.3-1.3-.1-1.8-1-1.2-1.2-2.6-1.1-4.1-.2-.6.5-1.2 1.2-1.2zm-90.5 4.1c11.2-4.4 24-2.8 34.6 2.6.8.4 1.1 1.3.6 2.1-3 5.3-6.1 10.6-9.1 15.9-.4.8-1.4 1-2.1.5-4.7-3.1-10.1-6.2-15.9-4.5-3.1.7-5.1 5.4-1.9 7.2 5.7 2.8 12.8 3.2 17.6 7.8 5.8 4.7 6.4 13 4.2 19.6-2.8 11-11.7 19.9-22.5 23.2-12.1 4-26.7 1.8-36.1-7.1-.5-.5-.6-1.2-.3-1.8 2.9-5.5 5.7-11.2 8.5-16.8.5-1 1.8-1.1 2.5-.3 4.7 5.4 11.3 10 18.8 8.7 3.2-.5 8.1-4.9 4.8-7.9-6.2-3.4-13.9-3.7-19.3-8.6-5.4-4.8-6.2-12.8-4.3-19.4 2.9-9.6 10.5-17.7 19.9-21.2z"/><path class="st2" d="M226.2 63.8c12.1-8.5 28.9-7.9 41.7-1 .7.4 1 1.3.6 2-3.1 5.3-6.2 10.6-9.2 15.9-.4.7-1.4 1-2.1.5-4-2.7-8.3-5.2-13.2-5-2.8-.3-5.3 1.6-6.2 4.1 0 .2 0 .5-.1.7.6 3.5 4.9 4 7.7 5h.1c7 1.7 14.7 5.7 16.5 13.2v.2c1.7 10.7-3.3 22.1-11.7 28.8-11.8 9.7-29.4 10.5-42.5 3.1-.8-.5-1-1.6-.3-2.3 4.1-4.2 7.3-9.2 9.3-14.7.3-.9 1.4-1.2 2.2-.7 4.6 3 10.3 5.2 15.4 2.6 1.9-.8 2.8-2.7 3.6-4.4.3-.6.1-1.4-.4-1.8-5.1-4-12.2-4-17.7-7.5-.4-.2-.6-.6-.6-1.1-.6-5.1-2.8-9.8-6.4-13.4-.5-.5-.6-1.3-.2-1.8 4.7-7.2 8.4-15 13.3-22.1-.1 0 0-.1.2-.3zm83.7 70.6v-4.9h4.9v4.9h-4.9zm25.9-13l-4.8.9c-.2-1-.5-1.7-1.1-2.2-.6-.5-1.3-.7-2.2-.7-1.2 0-2.2.4-2.9 1.3-.7.8-1.1 2.2-1.1 4.2 0 2.2.4 3.7 1.1 4.6.7.9 1.7 1.4 3 1.4.9 0 1.7-.3 2.3-.8s1-1.4 1.2-2.7l4.8.8c-.5 2.2-1.5 3.9-2.9 5s-3.3 1.7-5.7 1.7c-2.7 0-4.8-.8-6.4-2.5-1.6-1.7-2.4-4-2.4-7.1 0-3 .8-5.4 2.4-7.1s3.8-2.5 6.5-2.5c2.2 0 4 .5 5.3 1.4 1.4.9 2.3 2.3 2.9 4.3zm2.5 3.5c0-1.6.4-3.2 1.2-4.7.8-1.5 1.9-2.7 3.4-3.5s3.1-1.2 4.9-1.2c2.8 0 5.1.9 6.8 2.7 1.8 1.8 2.7 4.1 2.7 6.9 0 2.8-.9 5.1-2.7 6.9-1.8 1.8-4.1 2.7-6.8 2.7-1.7 0-3.3-.4-4.8-1.1-1.5-.8-2.7-1.9-3.5-3.4s-1.2-3.2-1.2-5.3zm5 .3c0 1.8.4 3.2 1.3 4.2s1.9 1.5 3.2 1.5 2.3-.5 3.2-1.5c.9-1 1.3-2.4 1.3-4.2 0-1.8-.4-3.2-1.3-4.2s-1.9-1.5-3.2-1.5-2.3.5-3.2 1.5c-.8.9-1.3 2.3-1.3 4.2zm17.5-9.2h4.5v2.5c1.6-2 3.5-2.9 5.7-2.9 1.2 0 2.2.2 3.1.7s1.6 1.2 2.1 2.2c.8-1 1.7-1.7 2.6-2.2s1.9-.7 3-.7c1.4 0 2.5.3 3.4.8s1.6 1.4 2.1 2.4c.3.8.5 2.1.5 3.8v11.8H383v-10.5c0-1.8-.2-3-.5-3.5-.5-.7-1.1-1-2.1-1-.7 0-1.3.2-1.9.6s-1 1-1.3 1.8-.4 2.1-.4 3.8v8.8h-4.9v-10.1c0-1.8-.1-2.9-.3-3.5-.2-.5-.4-.9-.8-1.2-.4-.3-.9-.4-1.5-.4-.8 0-1.4.2-2 .6-.6.4-1 1-1.3 1.8s-.4 2-.4 3.8v8.9h-4.9V116z"/></g><g id="_x23_a0cc41ff"><path class="st3" d="M60.1 48.7c1.7-2.9 5.6-2 8.3-1.9.1 0 47.4.7 67 .4 1.2 0 2 1.1 1.9 2.2-.4 3.9-1.3 7.7-2.2 11.5-.3 1.2.6 2.4 1.9 2.4l10.4.3c1.2 0 2.2 1.2 1.9 2.4-5.4 21.2-17.4 73.9-18.6 79.2-.2.7-1 1.1-1.7 1.1H65.3c-1.1 0-2.2-.9-2-2 1.2-6 12.2-57.5 16.8-77.7.3-1.2-.6-2.3-1.7-2.4-6.5-.5-13-.6-19.5-.6-1.2 0-2.2-1.1-1.9-2.3.8-4.4 1.5-8.6 3.1-12.6m43.8 51.9c-1.9 5.3-3.8 10.7-5.8 16-.5 1.3.5 2.7 1.8 2.7h9.3c1 0 1.9-.8 2-1.8.5-5.7 1-11.5 1.5-17.2 0-.5.3-1 .7-1.3 3.3-2.9 6.4-7.8 3.4-11.9-.1-.1-.2-.3-.4-.4-7.1-5.9-17.9 5-12.6 12.2.2.4.3 1.1.1 1.7z"/><path class="st3" d="M55.8 72.8c8.4-.1 8.3-.1 13.1-.1 1.2 0 2.1 1.2 1.8 2.3-1.1 4.3-2.1 8.6-3.2 12.8-.2.7-.9 1.2-1.6 1.2-4.3.1-8.2.1-12.6.1-1.2 0-2.1-1.1-1.9-2.3 1.1-4.5 1.8-8.7 2.9-12.8.1-.6.8-1.2 1.5-1.2zM35 46.2c8.4-.1 8.3-.1 13.1-.1 1.2 0 2.1 1.2 1.8 2.3-1.1 4.3-2.1 8.6-3.2 12.8-.2.7-.9 1.2-1.6 1.2-4.3.1-8.2.1-12.6.1-1.2 0-2.1-1.1-1.9-2.3 1.1-4.5 1.8-8.7 2.9-12.8.2-.6.8-1.2 1.5-1.2z"/></g></g></svg>