<?xml version="1.0" encoding="UTF-8"?>
<!-- Generator: Adobe Illustrator 21.1.0, SVG Export Plug-In . SVG Version: 6.00 Build 0)  -->
<svg version="1.1" id="Layer_1" xmlns="http://www.w3.org/2000/svg" xmlns:xlink="http://www.w3.org/1999/xlink" x="0px" y="0px" width="35.2px" height="55px" viewBox="0 0 35.2 55" style="enable-background:new 0 0 35.2 55;" xml:space="preserve">
<style type="text/css">
	.st0{fill:#29306C;}
</style>
<g>
	<path class="st0" d="M12,31c-0.7,0-1.4,0.6-1.4,1.4s0.6,1.4,1.4,1.4s1.4-0.6,1.4-1.4S12.8,31,12,31z"/>
	<path class="st0" d="M21.8,21.8c1.4-1.4,2.2-3.2,2.2-5.1c0-1.5-0.5-2.9-1.3-4.1h-0.2v0.9h-0.6v0.8h-0.6v0.9   c-1.1,1.7-2.2,3.7-2.8,5.5c-0.3,0.9-1.9,0.7-2.2-0.1c-0.6-1.6-1.4-3.6-3.5-6c-1-1-0.2-1.6,0.3-1.4c1,0.3,2.4,1.3,4.1,3.7   c0.5-1.2,2.1-4.1,2.7-5.1h0.6v-0.8H21v-0.2c-1.2-0.8-2.6-1.3-4.1-1.3c-1.9,0-3.7,0.7-5.1,2.2c-1.4,1.4-2.2,3.2-2.2,5.1   s0.7,3.7,2.2,5.1c1.4,1.4,3.2,2.2,5.1,2.2C18.7,23.8,20.5,23.1,21.8,21.8z"/>
	<path class="st0" d="M24.1,31c-0.7,0-1.4,0.6-1.4,1.4s0.6,1.4,1.4,1.4s1.4-0.6,1.4-1.4S24.9,31,24.1,31z"/>
	<rect x="25.9" y="6.1" class="st0" width="0.8" height="0.8"/>
	<path class="st0" d="M28.2,0H0v38.6h35.2V7C35.2,3.2,32,0,28.2,0z M27.4,3.6h0.8V2.8H29v0.8h-0.8v0.8h-0.8V3.6L27.4,3.6z M29.1,4.5   v0.8h-0.8V4.5H29.1z M8.8,34.9H7.3l-2.5-4.8v4.8H3.5V28h1.7l2.3,4.3V28h1.4C8.8,28,8.8,34.9,8.8,34.9z M6.2,16.7   c0-5.8,4.7-10.5,10.5-10.5c2.3,0,4.5,0.8,6.3,2.1h0.1V7.7h1.3V6.9h-0.8V6.1h0.8v0.7h0.8V5.3h0.7V4.5h1.5v0.8h-0.7v0.8h0.9v0.8h-0.9   v0.8h-0.8V6.9h-0.7v0.8h-0.8v0.8h0.8V7.7h0.7v1.6h-0.7v0.6h-0.3c1.5,1.8,2.5,4.1,2.5,6.7c0,5.8-4.7,10.5-10.5,10.5   C10.9,27.2,6.2,22.4,6.2,16.7z M12,35c-1.4,0-2.6-1.2-2.6-2.6c0-1.4,1.2-2.6,2.6-2.6s2.6,1.2,2.6,2.6C14.6,33.8,13.5,35,12,35z    M20.3,35c-1,0-1.6-0.4-1.6-1.6v-2.6h-0.8c-0.8,0-1.4,0.7-1.4,1.8v2.2H15v-5.1h0.9l0.4,1.1c0.3-0.6,0.9-1,1.5-1.1h0.1h0.9l0.2-1.4   h1.2v1.4h1v1h-1v2.5c0,0.4,0.1,0.6,0.6,0.6c0.1,0,0.3-0.1,0.6-0.1l0.2,1C21.2,34.9,20.8,35,20.3,35z M24.1,35   c-1.4,0-2.6-1.2-2.6-2.6c0-1.4,1.2-2.6,2.6-2.6s2.6,1.2,2.6,2.6C26.7,33.8,25.6,35,24.1,35z M31.7,34.9h-1.5v-3.3   c0-0.4-0.4-0.6-0.7-0.6c-0.4,0-0.7,0.2-1,0.5l-0.1-0.2l0.1,0.2V35h-1.4v-5.1H28l0.3,0.8c0.4-0.5,1-0.9,1.8-0.9c1.2,0,1.7,1,1.7,1.8   V34.9z"/>
</g>
<g>
	<path class="st0" d="M14.3,48.5h-0.6V50h0.6c0.4,0,0.7-0.2,0.7-0.7C15,48.8,14.8,48.5,14.3,48.5z"/>
	<path class="st0" d="M17.5,43c0-0.6-0.2-0.9-0.9-0.9H16v1.8h0.6C17.1,43.9,17.5,43.7,17.5,43z"/>
	<path class="st0" d="M21.4,43c0-0.6-0.2-0.9-0.9-0.9h-0.6v1.8h0.6C21,43.9,21.4,43.7,21.4,43z"/>
	<path class="st0" d="M12.4,42.1c-0.5,0-0.9,0.3-0.9,2c0,1.8,0.4,2.1,0.9,2.1s0.9-0.3,0.9-2.1S12.9,42.1,12.4,42.1z"/>
	<polygon class="st0" points="10.8,48.6 10.3,50.7 11.2,50.7  "/>
	<polygon class="st0" points="17.9,48.6 17.4,50.7 18.4,50.7  "/>
	<path class="st0" d="M0,39.1V55h35.2V39.1H0z M26.2,41.5l1.5,3.7l0,0v-3.7h0.8v5.1h-1L26,42.7l0,0v3.9h-0.8v-5.1H26.2L26.2,41.5z    M4.9,52.4H4.5v-0.6l0,0c-0.2,0.4-0.4,0.6-1,0.6c-1,0-1.3-0.7-1.3-2.2s0.4-2.2,1.4-2.2c1.1,0,1.3,0.9,1.3,1.3v0.1H4.3v-0.1   c0-0.3-0.2-0.7-0.6-0.7S3,48.8,3,50.1s0.2,1.8,0.7,1.8c0.6,0,0.7-0.4,0.7-1.4H3.7V50H5L4.9,52.4L4.9,52.4z M3.7,46.7   c-1.3,0-1.5-0.9-1.5-1.5v-0.1H3v0.2c0,0.6,0.2,1,0.9,1c0.5,0,0.8-0.4,0.8-0.7c0-0.6-0.2-0.8-0.7-0.9l-0.6-0.2c-0.7-0.3-1-0.6-1-1.4   c0-1,0.6-1.4,1.6-1.4c1.3,0,1.4,0.8,1.4,1.4v0.1H4.5V43c0-0.5-0.2-0.7-0.7-0.7c-0.3,0-0.7,0.2-0.7,0.7c0,0.4,0.2,0.6,0.7,0.9   l0.6,0.2c0.7,0.2,1,0.6,1,1.4S4.7,46.7,3.7,46.7z M8.5,51.1c0,1-0.5,1.4-1.4,1.4c-0.9,0-1.4-0.4-1.4-1.4v-3h0.7v3.1   c0,0.6,0.2,0.8,0.6,0.8c0.4,0,0.6-0.2,0.6-0.8v-3.1h0.7C8.5,48,8.5,51.1,8.5,51.1z M7.3,44.2v2.4H6.5v-5.1h0.8v2h1.5v-2h0.8v5.1   H8.8v-2.4H7.3z M11.6,52.4l-0.2-1h-1.3l-0.3,1H9.1l1.2-4.3h0.9l1.1,4.3H11.6z M10.8,44.1c0-1.8,0.6-2.6,1.7-2.6s1.7,0.8,1.7,2.6   c0,1.8-0.6,2.6-1.7,2.6C11.2,46.7,10.8,45.9,10.8,44.1z M15.1,52.4C15,52.3,15,52.1,15,52c0-0.2,0-0.5,0-0.8c0-0.5-0.2-0.6-0.6-0.6   h-0.6v1.9h-0.7v-4.3h1.5c0.6,0,1.1,0.3,1.1,1.1c0,0.6-0.2,1-0.7,1l0,0c0.4,0,0.6,0.3,0.6,0.9c0,0.3,0,0.6,0,0.9   c0,0.2,0.1,0.3,0.2,0.4L15.1,52.4L15.1,52.4z M16,46.6h-0.8v-5.1h1.6c1,0,1.4,0.6,1.4,1.5c0,0.9-0.6,1.5-1.5,1.5h-0.7L16,46.6   L16,46.6z M18.8,52.4l-0.2-1h-1.3l-0.3,1h-0.7l1.2-4.3h0.9l1.1,4.3H18.8z M20,46.6h-0.8v-5.1h1.6c1,0,1.4,0.6,1.4,1.5   c0,0.9-0.6,1.5-1.5,1.5h-0.7L20,46.6L20,46.6z M23,52.4h-0.9l-1.3-3.3l0,0v3.3h-0.6v-4.3H21l1.3,3.2l0,0v-3.2H23V52.4z M23.2,41.5   H24v5.1h-0.8V41.5z M26.5,48.6h-1v3.7h-0.7v-3.7h-1v-0.6h2.7L26.5,48.6L26.5,48.6z M29.6,52.4h-2.4v-4.3l0,0h2.3v0.6h-1.7v1.2h1.5   v0.6h-1.5v1.4h1.7L29.6,52.4L29.6,52.4z M29.6,44.1c0-1.8,0.5-2.6,1.7-2.6c1.3,0,1.5,1,1.5,1.4V43H32v-0.1c0-0.4-0.2-0.8-0.7-0.8   s-0.9,0.4-0.9,2c0,1.6,0.2,2.1,0.8,2.1c0.6,0,0.9-0.4,0.9-1.5h-0.9V44h1.6v2.6h-0.6v-0.6l0,0l0,0c-0.2,0.5-0.5,0.7-1.1,0.7   C30,46.7,29.6,45.9,29.6,44.1z M32.8,52.4h-2.4v-4.3h2.3v0.6h-1.7v1.2h1.5v0.6h-1.5v1.4h1.7L32.8,52.4L32.8,52.4z"/>
</g>
</svg>