<?xml version="1.0" encoding="UTF-8"?>
<!-- Generator: Adobe Illustrator 21.1.0, SVG Export Plug-In . SVG Version: 6.00 Build 0)  -->
<svg version="1.1" id="Layer_1" xmlns="http://www.w3.org/2000/svg" xmlns:xlink="http://www.w3.org/1999/xlink" x="0px" y="0px" width="33px" height="55px" viewBox="0 0 33 55" style="enable-background:new 0 0 33 55;" xml:space="preserve">
<style type="text/css">
	.st0{fill:#FFFFFF;}
	.st1{fill:#999999;}
	.st2{fill:#FDBB30;}
</style>
<path class="st0" d="M0.1,54.9V0.1h22c6,0,10.8,4.9,10.8,10.8v44H0.1z"/>
<path class="st1" d="M22.1,0.2c6,0,10.8,4.8,10.8,10.8v43.9H0.2V0.2H22.1 M22.1,0H0v55h33V10.9C33,4.9,28.1,0,22.1,0"/>
<rect x="0" y="38.5" class="st1" width="33" height="16.5"/>
<path class="st0" d="M2.9,44.8c0.1,0.5,0.2,0.6,0.5,0.6c0.2,0,0.4-0.2,0.4-0.5c0-0.4-0.4-0.7-1-1.2c-0.3-0.3-0.6-0.7-0.6-1.1  c0-0.6,0.5-1.1,1.1-1.1s1,0.4,1,1l-0.6,0.1c-0.1-0.3-0.2-0.6-0.4-0.6c-0.2,0-0.4,0.2-0.4,0.5c0,0.3,0.2,0.6,0.6,0.8  c0.6,0.6,1,0.9,1,1.6c0,0.6-0.5,1.1-1.1,1.1s-1.1-0.5-1.2-1.2L2.9,44.8z"/>
<polygon class="st0" points="6.1,41.6 6.8,41.6 6.8,43.4 7.7,43.4 7.7,41.6 8.4,41.6 8.4,46.1 7.7,46.1 7.7,44.2 6.8,44.2 6.8,46.1   6.1,46.1 "/>
<path class="st0" d="M11.2,41.5c0.9,0,1.3,0.8,1.3,2.3c0,1.5-0.5,2.3-1.3,2.3c-0.8,0-1.3-0.8-1.3-2.3C10,42.3,10.4,41.5,11.2,41.5   M11.2,45.5c0.4,0,0.6-0.6,0.6-1.7c0-1.1-0.2-1.7-0.6-1.7s-0.6,0.6-0.6,1.7C10.7,45,10.8,45.5,11.2,45.5"/>
<path class="st0" d="M14.1,41.6h1c1,0,1.4,0.3,1.4,1.4c0,0.8-0.5,1.3-1.3,1.3h-0.4v1.8h-0.7V41.6z M15,43.6c0.6,0,0.7-0.2,0.7-0.7  c0-0.5-0.2-0.7-0.7-0.7c-0.1,0-0.2,0-0.2,0v1.4C14.9,43.6,15,43.6,15,43.6"/>
<path class="st0" d="M18,41.6h1c1,0,1.4,0.3,1.4,1.4c0,0.8-0.5,1.3-1.3,1.3h-0.4v1.8H18V41.6z M19,43.6c0.6,0,0.7-0.2,0.7-0.7  c0-0.5-0.2-0.7-0.7-0.7c-0.1,0-0.2,0-0.2,0v1.4C18.8,43.6,18.9,43.6,19,43.6"/>
<rect x="21.9" y="41.6" class="st0" width="0.7" height="4.5"/>
<path class="st0" d="M24.4,41.6h0.7L26,44c0.1,0.2,0.2,0.4,0.2,0.8l0,0c-0.1-0.4-0.1-0.7-0.1-0.9v-2.2h0.6v4.5h-0.6l-1-2.6  c-0.1-0.2-0.2-0.6-0.2-0.8l0,0c0.1,0.3,0.1,0.6,0.1,1v2.3h-0.6V41.6L24.4,41.6z"/>
<path class="st0" d="M30.3,45.8c-0.2,0.2-0.4,0.3-0.7,0.3c-0.9,0-1.3-0.8-1.3-2.3c0-1.5,0.5-2.3,1.3-2.3c0.7,0,1.2,0.6,1.2,1.5l0,0  h-0.7c0-0.6-0.2-0.9-0.5-0.9c-0.4,0-0.6,0.6-0.6,1.7c0,1.1,0.2,1.7,0.6,1.7c0.2,0,0.5-0.2,0.5-0.6v-0.4h-0.5v-0.6h1.2v2.2h-0.3  L30.3,45.8z"/>
<path class="st0" d="M4.2,51.9c-0.2,0.2-0.4,0.3-0.7,0.3c-0.9,0-1.3-0.8-1.3-2.3c0-1.5,0.5-2.3,1.3-2.3c0.7,0,1.2,0.6,1.2,1.5l0,0H4  c0-0.6-0.2-0.9-0.5-0.9c-0.4,0-0.6,0.6-0.6,1.7c0,1.1,0.2,1.7,0.6,1.7c0.2,0,0.5-0.2,0.5-0.6v-0.4H3.6V50h1.2v2.2H4.5L4.2,51.9z"/>
<path class="st0" d="M7,52.2c-0.8,0-1.1-0.5-1.1-1.4v-3h0.7v3.2c0,0.5,0.1,0.6,0.4,0.6c0.3,0,0.4-0.2,0.4-0.7v-3.1h0.7v3  C8.1,51.7,7.8,52.2,7,52.2"/>
<path class="st0" d="M9.8,47.7h1l0.8,4.5h-0.7l-0.2-1H9.9l-0.2,1H9L9.8,47.7z M10.6,50.5l-0.3-2.1L10,50.5H10.6z"/>
<path class="st0" d="M14.1,52.1l-0.6-1.8c-0.1,0-0.2,0-0.3,0h-0.1v1.8h-0.7v-4.4h1c0.4,0,0.7,0,1,0.2c0.2,0.2,0.4,0.6,0.4,1  c0,0.6-0.2,1-0.6,1.2l0.6,2L14.1,52.1L14.1,52.1z M13.4,49.7c0.6,0,0.8-0.2,0.8-0.7s-0.2-0.7-0.7-0.7c-0.1,0-0.2,0-0.2,0v1.4  C13.2,49.7,13.3,49.7,13.4,49.7"/>
<path class="st0" d="M16.6,47.7h1l0.8,4.5h-0.7l-0.2-1h-0.8l-0.2,1h-0.7L16.6,47.7z M17.4,50.5l-0.3-2.1l-0.3,2.1H17.4z"/>
<path class="st0" d="M19.2,47.7h0.7l0.9,2.4c0.1,0.2,0.2,0.4,0.2,0.8l0,0c-0.1-0.4-0.1-0.7-0.1-0.9v-2.2h0.6v4.5h-0.6l-1-2.6  c-0.1-0.2-0.2-0.6-0.2-0.8l0,0c0.1,0.3,0.1,0.6,0.1,1v2.3h-0.6L19.2,47.7L19.2,47.7z"/>
<polygon class="st0" points="23.2,48.4 22.5,48.4 22.5,47.7 24.7,47.7 24.7,48.4 24,48.4 24,52.1 23.2,52.1 "/>
<polygon class="st0" points="25.7,47.7 27.7,47.7 27.7,48.4 26.4,48.4 26.4,49.5 27.3,49.5 27.3,50.2 26.4,50.2 26.4,51.4   27.7,51.4 27.7,52.1 25.7,52.1 "/>
<polygon class="st0" points="28.7,47.7 30.8,47.7 30.8,48.4 29.5,48.4 29.5,49.5 30.4,49.5 30.4,50.2 29.5,50.2 29.5,51.4   30.8,51.4 30.8,52.1 28.7,52.1 "/>
<path d="M21.6,30.3c-1.3,0-2.3,1-2.3,2.3c0,1.3,1,2.3,2.3,2.3c1.3,0,2.3-1,2.3-2.3C23.9,31.3,22.9,30.3,21.6,30.3 M21.6,33.7  c-0.6,0-1.2-0.6-1.2-1.2c0-0.6,0.6-1.2,1.2-1.2c0.6,0,1.2,0.6,1.2,1.2C22.8,33.2,22.2,33.7,21.6,33.7"/>
<path d="M11.1,30.3c-1.3,0-2.3,1-2.3,2.3c0,1.3,1,2.3,2.3,2.3s2.3-1,2.3-2.3C13.4,31.3,12.4,30.3,11.1,30.3 M11.1,33.7  c-0.6,0-1.2-0.6-1.2-1.2c0-0.6,0.6-1.2,1.2-1.2c0.6,0,1.2,0.6,1.2,1.2C12.3,33.2,11.8,33.7,11.1,33.7"/>
<path d="M19.2,33.8c-0.2,0.1-0.4,0.1-0.5,0.1c-0.4,0-0.5-0.2-0.5-0.5v-2.2h1v-0.9h-1v-1.3h-1L17,30.4h-0.7l0,0h-0.1  c-0.6,0-1,0.4-1.4,1l-0.3-1h-0.8v4.4H15v-1.9c0-1,0.6-1.6,1.3-1.6H17v2.2c0,1,0.6,1.4,1.4,1.4c0.5,0,0.8-0.1,1-0.2L19.2,33.8z"/>
<polyline points="25.4,31.8 25.4,34.8 24.2,34.8 24.2,30.4 24.9,30.4 25.2,31.1 "/>
<path d="M25.2,31.1c0.4-0.5,0.9-0.8,1.5-0.8c1,0,1.5,0.8,1.5,1.6v2.9h-1.3v-2.9c0-0.4-0.3-0.6-0.6-0.6c-0.4,0-0.6,0.2-0.8,0.4"/>
<polygon points="3.7,28.8 5.3,28.8 7.2,32.6 7.2,28.8 8.4,28.8 8.4,34.8 7.1,34.8 4.9,30.7 4.9,34.8 3.7,34.8 "/>
<polygon points="28.6,30.4 28.6,30.5 28.5,30.5 28.5,31 28.4,31 28.4,30.5 28.2,30.5 28.2,30.4 "/>
<polygon points="28.7,31 28.7,30.4 28.9,30.4 28.9,30.8 29.1,30.4 29.2,30.4 29.2,31 29.1,31 29.1,30.5 29.1,30.5 29,31 28.9,31   28.8,30.5 28.8,30.5 28.8,31 "/>
<path class="st2" d="M15.9,26.5c-5.3,0-9.6-4.4-9.7-9.7c0-5.3,4.4-9.6,9.7-9.6s9.7,4.4,9.7,9.6C25.6,22.2,21.3,26.5,15.9,26.5   M15.9,10.3c-1.8,0-3.4,0.7-4.7,1.9c-1.3,1.3-1.9,2.9-1.9,4.7s0.7,3.4,1.9,4.7c1.3,1.3,2.9,1.9,4.7,1.9s3.4-0.7,4.7-1.9  c1.3-1.3,1.9-2.9,1.9-4.7s-0.7-3.4-1.9-4.7C19.4,10.9,17.7,10.3,15.9,10.3"/>
<rect x="26.5" y="5.7" class="st2" width="0.7" height="0.7"/>
<rect x="26.5" y="4.2" class="st2" width="0.7" height="0.7"/>
<rect x="24.4" y="6.5" class="st2" width="0.7" height="0.7"/>
<rect x="23" y="7.9" width="0.7" height="0.7"/>
<rect x="25" y="7.2" width="0.8" height="0.7"/>
<rect x="22.2" y="7.3" width="0.7" height="0.6"/>
<rect x="24.4" y="7.9" width="0.7" height="0.7"/>
<rect x="25.7" y="4.9" width="0.7" height="0.7"/>
<rect x="24.4" y="5.7" width="1.4" height="0.7"/>
<rect x="23.7" y="6.5" width="0.7" height="1.4"/>
<path d="M23.7,8.6v0.7H23V8.6h-1.2v0.5h-0.6v0.6h0.7v0.7h-0.7V9.7h-0.7v1.1h-0.7v0.7h-0.5v0.7h-0.5c-0.6,0.9-2.1,3.6-2.5,4.6  c-1.6-2.2-2.8-3.1-3.8-3.4c-0.6-0.2-1.2,0.4-0.3,1.3c2,2.2,2.6,4,3.3,5.5c0.3,0.8,1.8,0.9,2.1,0.1c0.6-1.7,1.5-3.5,2.6-5v-0.8h0.6  v-0.7h0.6V13h0.7v-0.8h-0.7v-0.7h0.7v0.7h0.7v-0.7h0.6v-0.9h0.6V10h0.6V8.5L23.7,8.6L23.7,8.6z"/>
</svg>