<?xml version="1.0" encoding="utf-8"?>
<!-- Generator: Adobe Illustrator 24.2.3, SVG Export Plug-In . SVG Version: 6.00 Build 0)  -->
<svg version="1.1" id="Layer_1" xmlns="http://www.w3.org/2000/svg" xmlns:xlink="http://www.w3.org/1999/xlink" x="0px" y="0px"
	 width="120px" height="60.357px" viewBox="0 0 120 60.357" style="enable-background:new 0 0 120 60.357;" xml:space="preserve">
<style type="text/css">
	.st0{fill:#ABB6BF;}
	.st1{fill:#015A99;}
	.st2{fill:#334147;}
	.st3{fill:#0174C3;}
	.st4{fill:#707E86;}
	.st5{fill:#DB0025;}
</style>
<g>
	<g>
		<path class="st0" d="M99.745,42.135H21.948c-11.168,0-20.255-9.087-20.255-20.255c0-11.169,9.087-20.255,20.255-20.255h77.797
			C110.914,1.625,120,10.711,120,21.88C120,33.048,110.914,42.135,99.745,42.135 M21.948,3.215
			c-10.291,0-18.666,8.372-18.666,18.665c0,10.291,8.375,18.665,18.666,18.665h77.797c10.292,0,18.665-8.374,18.665-18.665
			c0-10.293-8.372-18.665-18.665-18.665H21.948z"/>
		<polygon class="st0" points="115.288,1.625 115.288,2.138 114.541,2.138 114.541,4.656 113.955,4.656 113.955,2.138 
			113.221,2.138 113.221,1.625 		"/>
		<polygon class="st0" points="115.708,4.655 115.708,1.625 116.498,1.625 117.024,3.61 117.559,1.625 118.357,1.625 118.357,4.655 
			117.875,4.655 117.875,2.285 117.862,2.285 117.25,4.655 116.821,4.655 116.203,2.285 116.19,2.285 116.19,4.655 		"/>
	</g>
	<path class="st1" d="M62.328,11.31c-0.515-0.274-1.211-0.468-2.044-0.468c-1.956,0-3.132,0.919-3.611,1.289l0.704-4.158H54.61
		l-1.927,11.378h2.768l1.051-6.205c0.694-0.532,1.54-0.983,2.456-0.983c0.478,0,0.891,0.145,1.162,0.387
		c0.507,0.451,0.413,1.128,0.281,1.902l-0.83,4.9h2.768l0.925-5.464C63.388,13.163,63.581,12.019,62.328,11.31z M69.66,10.746
		c-3.163,0-4.236,1.419-4.828,2.208l0.662,0.274c0.49-0.435,1.373-1.225,3.142-1.225c0.791,0,1.941,0.209,2.293,1.08
		c0.138,0.344,0.134,0.712,0.099,1.073h0.06l-0.435,2.563h-0.048l-0.163,0.957c-0.587,0.274-1.308,0.597-2.286,0.597
		c-1.394,0-1.787-0.757-1.666-1.467c0.178-1.048,1.344-1.547,2.572-1.547c0.377,0,0.7,0.041,0.998,0.104l0.203-1.197
		c-0.509-0.107-1.024-0.18-1.713-0.18c-2.477,0-4.675,1.064-4.997,2.965c-0.251,1.482,0.926,2.643,3.09,2.643
		c1.977,0,3.154-0.805,3.675-1.176l-0.158,0.935h2.683l0.844-4.981c0.128-0.757,0.293-1.853-0.608-2.675
		C72.557,11.214,71.471,10.746,69.66,10.746z M93.935,18.643c-0.208,0-1.04,0-1.417-0.725c-0.161-0.274-0.229-0.612-0.111-1.306
		l0.636-3.76h3.025l0.297-1.752h-3.025l0.38-2.24h-2.768l-0.38,2.24h-2.913l-2.527,4.11l-0.443,0.774
		c-0.155-0.436-0.163-0.516-0.306-0.903l-1.448-3.981h-0.916l-3.592,4.867c-0.077-0.403-0.103-0.5-0.185-0.871l-1.071-3.997h-2.893
		l2.546,8.316h1.019l3.624-4.802l1.996,4.802h0.999l4.282-6.564h1.531l-0.693,4.099c-0.123,0.725-0.142,1.451,0.53,2.031
		c0.705,0.628,1.8,0.677,2.299,0.677c1.374,0,2.185-0.371,2.859-0.661l-0.246-0.515C94.678,18.563,94.372,18.643,93.935,18.643z
		 M99.655,14.179c-0.037,0.055-0.117,0.229-0.208,0.768c-0.036,0.211-0.055,0.369-0.064,0.489h7.385
		c0.132-0.903,0.37-2.434-0.911-3.594c-1.122-1-2.768-1.112-3.683-1.112c-3.767,0-6.097,1.966-6.507,4.384
		c-0.428,2.53,1.244,4.576,5.073,4.576c3.662,0,4.803-1.692,5.413-2.594l-0.644-0.258c-0.851,0.725-1.75,1.483-3.685,1.483
		c-2.821,0-3.199-1.672-3.25-2.534c-0.013-0.034-0.06-0.205,0.033-0.778c0.096-0.584,0.219-0.808,0.243-0.849
		c0.449-0.947,1.048-2.077,3.03-2.077c2.081,0,2.081,1.354,2.08,2.096H99.655z M50.394,8.86h-2.768l-1.37,8.091
		c-0.123,0.725-0.142,1.451,0.53,2.031c0.705,0.628,1.8,0.677,2.3,0.677c1.373,0,2.185-0.371,2.859-0.661l-0.246-0.515
		c-0.346,0.081-0.651,0.161-1.088,0.161c-0.209,0-1.041,0-1.417-0.725c-0.162-0.274-0.23-0.612-0.112-1.306l0.637-3.76h2.24
		l0.295-1.74h-2.24L50.394,8.86z"/>
	<path class="st1" d="M108.183,9.633h-0.695v1.794h-0.576V9.633h-0.695V9.201h1.965V9.633z M110.862,11.427h-0.576V9.936
		l-0.41,0.967h-0.395l-0.411-0.967v1.491h-0.542V9.201h0.668l0.499,1.117l0.496-1.117h0.67V11.427z"/>
	<path class="st2" d="M46.829,33.986l0.714-1.11c0.577,0.428,1.448,0.826,2.508,0.826c1.031,0,1.667-0.468,1.667-1.279
		c0-0.933-0.803-1.179-2.124-1.641c-1.186-0.415-2.351-1.013-2.351-2.691c0-1.574,1.241-2.429,2.91-2.429
		c1.108,0,1.927,0.218,2.584,0.606l-0.57,1.18c-0.553-0.287-1.213-0.482-1.989-0.482c-0.929,0-1.487,0.351-1.487,1.087
		c0,0.866,0.647,1.087,1.862,1.486c1.267,0.41,2.663,0.996,2.663,2.857c0,1.571-1.125,2.61-3.142,2.61
		C48.576,35.008,47.476,34.491,46.829,33.986"/>
	<polygon class="st2" points="55.922,25.805 61.325,25.805 61.325,27.059 57.46,27.059 57.46,29.539 60.513,29.539 60.513,30.769 
		57.46,30.769 57.46,33.635 61.561,33.635 61.561,34.889 55.922,34.889 	"/>
	<path class="st2" d="M63.759,30.354c0-2.65,1.268-4.69,3.802-4.69c1.135,0,2.031,0.358,2.661,1.095l-0.896,1.038
		c-0.543-0.531-1.002-0.791-1.741-0.791c-1.487,0-2.173,1.217-2.173,3.464c0,2.111,0.725,3.179,2.187,3.179
		c0.812,0,1.383-0.427,1.883-0.956l0.905,1.008c-0.659,0.777-1.482,1.307-2.802,1.307C64.975,35.008,63.759,33.016,63.759,30.354"/>
	<path class="st2" d="M72.893,31.412v-5.608h1.549v5.859c0,1.247,0.309,2.064,1.627,2.064c1.306,0,1.63-0.817,1.63-2.064v-5.859
		h1.565v5.608c0,2.252-0.866,3.596-3.207,3.596C73.756,35.008,72.893,33.664,72.893,31.412"/>
	<path class="st2" d="M88.742,34.889h-1.68l-1.743-3.852h-1.436v3.852h-1.537v-9.085h2.963c1.834,0,3.266,0.659,3.266,2.65
		c0,1.359-0.814,2.039-1.721,2.364L88.742,34.889z M85.253,29.851c1.152,0,1.745-0.375,1.745-1.424c0-1.009-0.605-1.367-1.654-1.367
		h-1.462v2.792H85.253z"/>
	<polygon class="st2" points="91.374,25.805 96.775,25.805 96.775,27.059 92.91,27.059 92.91,29.539 95.958,29.539 95.958,30.769 
		92.91,30.769 92.91,33.635 97.007,33.635 97.007,34.889 91.374,34.889 	"/>
	<path class="st2" d="M99.604,25.804h2.269c2.96,0,4.385,1.603,4.385,4.51c0,2.962-1.449,4.575-4.306,4.575h-2.347V25.804z
		 M101.784,33.635c2.12,0,2.845-0.98,2.845-3.321c0-2.054-0.569-3.254-2.654-3.254h-0.826v6.576H101.784z"/>
	<g>
		<g>
			<path class="st3" d="M70.326,54.643c0-0.987,0.263-1.779,0.79-2.376c0.526-0.596,1.205-0.895,2.036-0.895
				c0.272,0,0.522,0.033,0.753,0.099c0.23,0.066,0.414,0.148,0.549,0.247c0.136,0.099,0.255,0.197,0.358,0.296
				c0.103,0.099,0.175,0.181,0.216,0.247l0.049,0.099h0.025c-0.017-0.123-0.025-0.263-0.025-0.42v-2.888h1.197v8.712h-1.135v-0.592
				l0.012-0.42h-0.025c-0.017,0.033-0.039,0.074-0.068,0.123c-0.029,0.049-0.099,0.142-0.21,0.278
				c-0.111,0.136-0.239,0.255-0.383,0.358c-0.144,0.103-0.339,0.196-0.586,0.278c-0.247,0.082-0.514,0.123-0.802,0.123
				c-0.839,0-1.508-0.3-2.005-0.901C70.575,56.412,70.326,55.622,70.326,54.643z M71.548,54.643c0,0.675,0.162,1.216,0.487,1.623
				c0.325,0.407,0.751,0.611,1.277,0.611c0.51,0,0.938-0.187,1.283-0.561c0.346-0.374,0.518-0.936,0.518-1.684
				c0-0.6-0.154-1.121-0.463-1.561c-0.308-0.44-0.743-0.66-1.302-0.66c-0.51,0-0.938,0.2-1.283,0.598
				C71.721,53.407,71.548,53.952,71.548,54.643z"/>
			<path class="st3" d="M77.284,50.275v-1.222h1.209v1.222H77.284z M77.296,57.765v-6.244h1.197v6.244H77.296z"/>
			<path class="st3" d="M80.319,58.901c0.518,0.28,1.09,0.42,1.715,0.42c0.592,0,1.069-0.142,1.431-0.426
				c0.362-0.284,0.543-0.726,0.543-1.327v-0.457l0.012-0.395h-0.025c-0.387,0.65-1.004,0.975-1.851,0.975
				c-0.848,0-1.524-0.302-2.03-0.907c-0.506-0.605-0.759-1.368-0.759-2.289c0-0.921,0.242-1.672,0.728-2.252
				c0.485-0.58,1.152-0.87,1.999-0.87c0.28,0,0.539,0.031,0.777,0.093c0.239,0.062,0.428,0.14,0.568,0.234
				c0.14,0.095,0.259,0.187,0.358,0.278c0.099,0.091,0.165,0.169,0.197,0.234l0.062,0.086h0.025
				c-0.008-0.057-0.012-0.123-0.012-0.197v-0.58h1.148v5.985c0,0.494-0.089,0.93-0.265,1.308c-0.177,0.378-0.418,0.677-0.722,0.895
				c-0.304,0.218-0.638,0.38-1,0.487c-0.362,0.107-0.749,0.16-1.16,0.16c-0.749,0-1.46-0.173-2.135-0.518L80.319,58.901z
				 M82.38,56.655c0.485,0,0.882-0.169,1.191-0.506c0.309-0.337,0.463-0.884,0.463-1.641c0-1.399-0.588-2.098-1.765-2.098
				c-0.535,0-0.952,0.183-1.253,0.549c-0.3,0.366-0.45,0.87-0.45,1.512c0,0.658,0.162,1.187,0.487,1.586
				C81.378,56.455,81.82,56.655,82.38,56.655z"/>
			<path class="st3" d="M86.191,50.275v-1.222h1.209v1.222H86.191z M86.203,57.765v-6.244h1.197v6.244H86.203z"/>
			<path class="st3" d="M88.276,54.643c0-0.93,0.315-1.707,0.944-2.332c0.629-0.625,1.429-0.938,2.4-0.938
				c0.461,0,0.886,0.076,1.277,0.228c0.391,0.152,0.668,0.307,0.833,0.463l0.234,0.222l-0.568,0.839
				c-0.049-0.049-0.121-0.115-0.216-0.197c-0.095-0.082-0.292-0.189-0.592-0.321c-0.3-0.132-0.607-0.197-0.919-0.197
				c-0.625,0-1.144,0.21-1.555,0.629c-0.411,0.42-0.617,0.95-0.617,1.592c0,0.642,0.208,1.177,0.623,1.604
				c0.415,0.428,0.944,0.642,1.586,0.642c0.346,0,0.679-0.07,1-0.21c0.321-0.14,0.555-0.28,0.703-0.42l0.222-0.21l0.481,0.876
				c-0.025,0.025-0.06,0.06-0.105,0.105c-0.045,0.045-0.146,0.126-0.302,0.241c-0.156,0.115-0.325,0.216-0.506,0.302
				c-0.181,0.086-0.413,0.167-0.697,0.241c-0.284,0.074-0.578,0.111-0.882,0.111c-0.979,0-1.781-0.309-2.406-0.926
				C88.589,56.371,88.276,55.589,88.276,54.643z"/>
			<path class="st3" d="M94.262,54.643c0-0.979,0.294-1.769,0.882-2.369c0.588-0.6,1.335-0.901,2.24-0.901
				c0.847,0,1.51,0.276,1.987,0.827c0.477,0.551,0.716,1.251,0.716,2.098l-0.037,0.518h-4.554c0.033,0.658,0.253,1.166,0.66,1.524
				c0.407,0.358,0.903,0.537,1.487,0.537c0.321,0,0.636-0.062,0.944-0.185c0.309-0.123,0.537-0.243,0.685-0.358l0.222-0.185
				l0.494,0.876c-0.066,0.066-0.165,0.148-0.296,0.247c-0.132,0.099-0.407,0.23-0.827,0.395c-0.42,0.165-0.852,0.247-1.296,0.247
				c-0.971,0-1.765-0.31-2.382-0.932C94.57,56.361,94.262,55.581,94.262,54.643z M95.533,53.915h3.332
				c-0.017-0.518-0.167-0.913-0.451-1.185c-0.284-0.272-0.636-0.407-1.055-0.407c-0.469,0-0.87,0.14-1.203,0.42
				C95.823,53.023,95.615,53.413,95.533,53.915z"/>
			<path class="st3" d="M100.95,57.765v-6.244h1.16v1.086l-0.025,0.469h0.025c0.148-0.477,0.397-0.868,0.747-1.172
				c0.349-0.304,0.759-0.457,1.228-0.457l0.309,0.025v1.185c-0.107-0.025-0.222-0.037-0.346-0.037c-0.387,0-0.74,0.132-1.061,0.395
				c-0.321,0.263-0.551,0.621-0.691,1.074c-0.099,0.321-0.148,0.695-0.148,1.123v2.555H100.95z"/>
			<path class="st3" d="M105.925,55.482V52.57h-0.814v-0.963h0.851v-1.802h1.16v1.802h1.506v0.963h-1.506v2.777
				c0,0.239,0.033,0.446,0.099,0.623c0.066,0.177,0.146,0.315,0.241,0.413c0.094,0.099,0.205,0.177,0.333,0.234
				c0.127,0.058,0.242,0.095,0.345,0.111c0.103,0.017,0.208,0.025,0.315,0.025l0.284-0.025v1.061
				c-0.115,0.016-0.255,0.025-0.419,0.025c-0.197,0-0.387-0.012-0.568-0.037c-0.181-0.025-0.387-0.086-0.617-0.185
				c-0.23-0.099-0.43-0.228-0.599-0.389c-0.169-0.16-0.313-0.389-0.432-0.685C105.985,56.223,105.925,55.877,105.925,55.482z"/>
			<path class="st3" d="M109.4,49.037c-0.502,0-0.904,0.404-0.904,0.905c0,0.498,0.403,0.903,0.904,0.903
				c0.5,0,0.905-0.405,0.905-0.903C110.305,49.441,109.9,49.037,109.4,49.037 M109.4,50.669c-0.403,0-0.727-0.326-0.727-0.727
				c0-0.402,0.324-0.728,0.727-0.728c0.402,0,0.726,0.326,0.726,0.728C110.126,50.343,109.802,50.669,109.4,50.669"/>
			<g>
				<path class="st3" d="M109.088,50.441v-0.999h0.306c0.084,0,0.146,0.008,0.187,0.023c0.052,0.019,0.093,0.052,0.123,0.1
					c0.03,0.048,0.045,0.105,0.045,0.17c0,0.064-0.016,0.121-0.049,0.17c-0.032,0.049-0.076,0.083-0.131,0.1v0.003
					c0.007,0.008,0.017,0.024,0.03,0.045l0.212,0.388h-0.158l-0.211-0.398h-0.214v0.398H109.088z M109.228,49.921h0.201
					c0.055,0,0.098-0.016,0.129-0.049c0.032-0.033,0.047-0.077,0.047-0.132c0-0.074-0.026-0.125-0.079-0.154
					c-0.028-0.015-0.074-0.023-0.137-0.023h-0.161V49.921z"/>
			</g>
		</g>
	</g>
	<g>
		<g>
			<path class="st4" d="M13.294,54.809c0,0.937-0.214,1.692-0.643,2.264c-0.429,0.573-1.009,0.859-1.741,0.859
				c-0.747,0-1.335-0.237-1.764-0.711v2.964H8.094v-8.523h0.961l0.051,0.683c0.429-0.531,1.024-0.796,1.787-0.796
				c0.74,0,1.325,0.279,1.755,0.836c0.431,0.558,0.646,1.333,0.646,2.327V54.809z M12.241,54.69c0-0.694-0.148-1.242-0.444-1.644
				c-0.296-0.402-0.702-0.603-1.218-0.603c-0.637,0-1.115,0.283-1.434,0.848v2.941c0.315,0.561,0.797,0.842,1.445,0.842
				c0.504,0,0.906-0.2,1.203-0.6C12.092,56.073,12.241,55.479,12.241,54.69z"/>
			<path class="st4" d="M14.294,54.684c0-0.603,0.119-1.145,0.356-1.627c0.237-0.482,0.567-0.853,0.99-1.115
				c0.423-0.262,0.905-0.393,1.448-0.393c0.838,0,1.516,0.29,2.034,0.87c0.518,0.58,0.777,1.352,0.777,2.316v0.074
				c0,0.599-0.115,1.137-0.344,1.613c-0.23,0.476-0.558,0.847-0.984,1.112c-0.427,0.266-0.917,0.398-1.471,0.398
				c-0.834,0-1.51-0.29-2.028-0.871c-0.518-0.58-0.777-1.348-0.777-2.304V54.684z M15.352,54.809c0,0.683,0.158,1.231,0.475,1.644
				c0.317,0.414,0.74,0.62,1.271,0.62c0.535,0,0.96-0.21,1.274-0.629c0.315-0.419,0.472-1.006,0.472-1.761
				c0-0.675-0.16-1.222-0.481-1.641c-0.321-0.419-0.746-0.629-1.277-0.629c-0.52,0-0.939,0.207-1.257,0.62
				C15.511,53.447,15.352,54.039,15.352,54.809z"/>
			<path class="st4" d="M26.61,56.368l1.183-4.705h1.053l-1.792,6.156h-0.853l-1.496-4.665l-1.457,4.665h-0.853l-1.787-6.156h1.047
				l1.212,4.608l1.434-4.608h0.848L26.61,56.368z"/>
			<path class="st4" d="M32.412,57.933c-0.835,0-1.513-0.274-2.037-0.822c-0.524-0.548-0.785-1.281-0.785-2.199v-0.193
				c0-0.611,0.117-1.156,0.35-1.636c0.233-0.48,0.559-0.855,0.978-1.127c0.419-0.271,0.873-0.407,1.363-0.407
				c0.8,0,1.422,0.264,1.866,0.791c0.444,0.527,0.666,1.282,0.666,2.264v0.438h-4.17c0.015,0.607,0.192,1.097,0.532,1.471
				c0.339,0.374,0.771,0.56,1.294,0.56c0.372,0,0.686-0.076,0.944-0.228c0.258-0.152,0.484-0.353,0.677-0.603l0.643,0.501
				C34.217,57.536,33.444,57.933,32.412,57.933z M32.281,52.414c-0.425,0-0.782,0.155-1.07,0.464
				c-0.288,0.309-0.467,0.742-0.535,1.3h3.084v-0.08c-0.03-0.535-0.174-0.949-0.432-1.243C33.07,52.561,32.721,52.414,32.281,52.414
				z"/>
			<path class="st4" d="M38.948,52.607c-0.159-0.026-0.332-0.04-0.518-0.04c-0.69,0-1.159,0.294-1.405,0.882v4.37h-1.053v-6.156
				h1.024l0.017,0.711c0.345-0.55,0.835-0.825,1.468-0.825c0.205,0,0.36,0.026,0.466,0.08V52.607z"/>
			<path class="st4" d="M42.411,57.933c-0.835,0-1.513-0.274-2.037-0.822c-0.524-0.548-0.785-1.281-0.785-2.199v-0.193
				c0-0.611,0.117-1.156,0.35-1.636c0.233-0.48,0.559-0.855,0.978-1.127c0.419-0.271,0.873-0.407,1.363-0.407
				c0.8,0,1.422,0.264,1.866,0.791c0.444,0.527,0.666,1.282,0.666,2.264v0.438h-4.17c0.015,0.607,0.192,1.097,0.532,1.471
				c0.339,0.374,0.771,0.56,1.294,0.56c0.372,0,0.686-0.076,0.944-0.228c0.258-0.152,0.484-0.353,0.677-0.603l0.643,0.501
				C44.217,57.536,43.443,57.933,42.411,57.933z M42.281,52.414c-0.425,0-0.782,0.155-1.07,0.464
				c-0.288,0.309-0.467,0.742-0.535,1.3h3.084v-0.08c-0.03-0.535-0.174-0.949-0.432-1.243C43.07,52.561,42.721,52.414,42.281,52.414
				z"/>
			<path class="st4" d="M45.716,54.69c0-0.944,0.224-1.704,0.671-2.279c0.447-0.575,1.034-0.862,1.758-0.862
				c0.721,0,1.292,0.247,1.713,0.74V49.08h1.053v8.739h-0.967l-0.051-0.66c-0.421,0.516-1.007,0.774-1.758,0.774
				c-0.713,0-1.294-0.292-1.744-0.876c-0.449-0.584-0.674-1.346-0.674-2.287V54.69z M46.768,54.809c0,0.698,0.144,1.244,0.432,1.639
				c0.288,0.395,0.686,0.592,1.195,0.592c0.667,0,1.155-0.3,1.462-0.899v-2.828c-0.315-0.58-0.799-0.871-1.451-0.871
				c-0.516,0-0.918,0.199-1.206,0.597C46.912,53.438,46.768,54.028,46.768,54.809z"/>
			<path class="st4" d="M60.522,54.809c0,0.941-0.216,1.697-0.649,2.267c-0.432,0.571-1.013,0.856-1.741,0.856
				c-0.778,0-1.379-0.275-1.804-0.825l-0.051,0.711h-0.967V49.08h1.053v3.26c0.425-0.527,1.011-0.791,1.758-0.791
				s1.334,0.283,1.761,0.848c0.427,0.565,0.64,1.339,0.64,2.321V54.809z M59.47,54.69c0-0.717-0.138-1.271-0.415-1.661
				c-0.277-0.391-0.675-0.586-1.195-0.586c-0.694,0-1.193,0.322-1.496,0.967v2.663c0.322,0.645,0.825,0.967,1.508,0.967
				c0.504,0,0.897-0.195,1.178-0.586C59.33,56.063,59.47,55.475,59.47,54.69z"/>
			<path class="st4" d="M63.804,56.277l1.434-4.614h1.127l-2.475,7.106c-0.383,1.024-0.992,1.536-1.826,1.536l-0.199-0.017
				l-0.393-0.074v-0.853l0.285,0.023c0.356,0,0.634-0.072,0.834-0.216c0.199-0.144,0.363-0.408,0.492-0.791l0.233-0.626
				l-2.196-6.088h1.149L63.804,56.277z"/>
		</g>
	</g>
	<g>
		<g>
			<path class="st5" d="M21.855,0C9.806,0,0,9.803,0,21.853c0,12.048,9.806,21.854,21.855,21.854
				c12.048,0,21.852-9.805,21.855-21.854C43.707,9.803,33.903,0,21.855,0z M21.855,38.558c-9.226,0-16.705-7.479-16.705-16.705
				S12.629,5.149,21.855,5.149s16.705,7.479,16.705,16.705S31.08,38.558,21.855,38.558z"/>
		</g>
		<path class="st5" d="M23.948,11.335h-5.677l-2.809,16.594c-0.252,1.487-0.292,2.975,1.087,4.165
			c1.446,1.29,3.692,1.388,4.716,1.388c2.818,0,4.483-0.759,5.864-1.354l-0.504-1.058c-0.711,0.165-1.337,0.332-2.233,0.332
			c-0.426,0-2.134,0-2.907-1.489c-0.331-0.562-0.471-1.256-0.229-2.677l1.305-7.713h4.594l0.605-3.569h-4.594L23.948,11.335z"/>
	</g>
</g>
</svg>
