<?xml version="1.0" encoding="utf-8"?>
<!-- Generator: Adobe Illustrator 22.1.0, SVG Export Plug-In . SVG Version: 6.00 Build 0)  -->
<svg version="1.1" id="Layer_1" xmlns="http://www.w3.org/2000/svg" xmlns:xlink="http://www.w3.org/1999/xlink" x="0px" y="0px"
	 width="55px" height="55px" viewBox="0 0 55 55" style="enable-background:new 0 0 55 55;" xml:space="preserve">
<style type="text/css">
	.st0{fill:#29306C;}
</style>
<g>
	<path class="st0" d="M44.48,33.95h2.1v10.1h-7.02c0,0,0,0,0,0v4.77v1.4V55c0,0,0,0,0,0H55V44.06c0,0,0,0,0,0h-7.01v-10.8
		c0-0.39-0.31-0.7-0.7-0.7h-2.81H10.52H6.88c-0.39,0-0.7,0.31-0.7,0.7v10.8H0c0,0,0,0,0,0V55c0,0,0,0,0,0h15.43v-4.77v-1.4v-4.77
		c0,0,0,0,0,0H7.58v-10.1h2.95H44.48z"/>
</g>
<rect x="10.5" class="st0" width="34" height="19"/>
<rect x="20.55" y="25.25" transform="matrix(6.123234e-17 -1 1 6.123234e-17 1.5509 53.4491)" class="st0" width="13.9" height="1.4"/>
</svg>
