<?xml version="1.0" encoding="utf-8"?>
<!-- Generator: Adobe Illustrator 22.1.0, SVG Export Plug-In . SVG Version: 6.00 Build 0)  -->
<svg version="1.1" id="Layer_1" xmlns="http://www.w3.org/2000/svg" xmlns:xlink="http://www.w3.org/1999/xlink" x="0px" y="0px"
	 width="37.81px" height="55px" viewBox="0 0 37.81 55" style="enable-background:new 0 0 37.81 55;" xml:space="preserve">
<style type="text/css">
	.st0{fill:#29306C;}
</style>
<path class="st0" d="M0,0v55h37.81V0H0z M6.77,48.7c-0.18-0.12-0.35-0.28-0.47-0.47c-1.88-2.9,1.22-6,4.11-4.11
	c0.18,0.12,0.35,0.28,0.47,0.47C12.76,47.48,9.67,50.58,6.77,48.7z M10.42,33.8c0.18,0.12,0.35,0.28,0.47,0.47
	c1.88,2.9-1.22,5.99-4.11,4.11c-0.18-0.12-0.35-0.28-0.47-0.47C4.42,35.02,7.52,31.92,10.42,33.8z M10.42,23.49
	c0.18,0.12,0.35,0.28,0.47,0.47c1.88,2.9-1.22,5.99-4.11,4.11c-0.18-0.12-0.35-0.28-0.47-0.47C4.42,24.71,7.52,21.61,10.42,23.49z
	 M20.73,33.8c0.18,0.12,0.35,0.28,0.47,0.47c1.88,2.9-1.22,5.99-4.11,4.11c-0.18-0.12-0.35-0.28-0.47-0.47
	C14.74,35.02,17.83,31.92,20.73,33.8z M20.73,23.49c0.18,0.12,0.35,0.28,0.47,0.47c1.88,2.9-1.22,5.99-4.11,4.11
	c-0.18-0.12-0.35-0.28-0.47-0.47C14.74,24.71,17.83,21.61,20.73,23.49z M17.08,48.7c-0.18-0.12-0.35-0.28-0.47-0.47
	c-1.88-2.9,1.22-6,4.12-4.11c0.18,0.12,0.35,0.28,0.47,0.47C23.08,47.48,19.98,50.58,17.08,48.7z M27.4,48.7
	c-0.18-0.12-0.35-0.28-0.47-0.47c-1.88-2.9,1.21-5.99,4.11-4.11c0.18,0.12,0.35,0.28,0.47,0.47C33.39,47.48,30.29,50.58,27.4,48.7z
	 M27.39,28.07c-0.18-0.12-0.35-0.28-0.47-0.47c-1.88-2.9,1.21-5.99,4.11-4.11c0.18,0.12,0.35,0.28,0.47,0.47
	C33.39,26.85,30.29,29.95,27.39,28.07z M27.4,38.38c-0.18-0.12-0.35-0.28-0.47-0.47c-1.88-2.89,1.21-5.99,4.11-4.11
	c0.18,0.12,0.35,0.28,0.47,0.47C33.39,37.17,30.29,40.27,27.4,38.38z M32.08,5.73v12.6H5.73V5.73H32.08z"/>
</svg>
