<?xml version="1.0" encoding="UTF-8"?>
<svg width="400pt" height="400pt" viewBox="0 0 400 400" version="1.1" xmlns="http://www.w3.org/2000/svg">
  <g id="#657debff">
    <path fill="#657deb" opacity="1.00" d=" M 0.00 0.00 L 400.00 0.00 L 400.00 400.00 L 0.00 400.00 L 0.00 0.00 M 74.00 129.01 C 74.00 176.33 74.00 223.66 74.00 270.99 C 115.95 294.68 157.91 318.33 199.87 341.99 C 241.83 318.32 283.81 294.69 325.74 270.98 C 325.74 223.66 325.74 176.34 325.74 129.02 C 283.80 105.31 241.83 81.68 199.87 58.01 C 157.91 81.67 115.95 105.33 74.00 129.01 Z" />
  </g>
  <g id="#ffffffff">
    <path fill="#ffffff" opacity="1.00" d=" M 74.00 129.01 C 115.95 105.33 157.91 81.67 199.87 58.01 C 241.83 81.68 283.80 105.31 325.74 129.02 C 325.74 176.34 325.74 223.66 325.74 270.98 C 283.81 294.69 241.83 318.32 199.87 341.99 C 157.91 318.33 115.95 294.68 74.00 270.99 C 74.00 223.66 74.00 176.33 74.00 129.01 M 204.04 77.97 C 204.03 92.00 204.03 106.03 204.05 120.05 C 225.94 132.10 247.85 144.12 269.80 156.07 C 281.79 149.17 293.79 142.28 305.76 135.35 C 271.87 116.20 237.96 97.08 204.04 77.97 M 93.66 135.42 C 105.59 142.30 117.54 149.14 129.44 156.08 C 151.48 144.25 173.36 132.09 195.30 120.05 C 195.32 106.03 195.31 92.02 195.30 78.00 C 161.41 97.12 127.43 116.10 93.66 135.42 M 138.45 161.20 C 158.85 172.97 179.27 184.70 199.68 196.44 C 220.09 184.70 240.50 172.96 260.90 161.20 C 240.50 150.00 220.08 138.83 199.68 127.64 C 179.27 138.83 158.85 150.00 138.45 161.20 M 89.30 142.98 C 89.29 181.97 89.29 220.96 89.30 259.95 C 101.11 253.19 112.92 246.41 124.69 239.58 C 126.06 238.98 125.42 237.19 125.61 236.05 C 125.50 211.98 125.67 187.91 125.53 163.83 C 113.45 156.89 101.40 149.89 89.30 142.98 M 273.78 163.90 C 273.76 188.95 273.77 214.01 273.78 239.06 C 285.83 246.08 297.95 253.00 310.04 259.94 C 310.07 220.95 310.07 181.97 310.04 142.98 C 297.95 149.94 285.83 156.86 273.78 163.90 M 134.30 168.88 C 134.32 190.96 134.28 213.05 134.32 235.13 C 154.66 246.26 174.97 257.43 195.31 268.55 C 195.33 247.03 195.31 225.51 195.31 203.99 C 174.99 192.27 154.65 180.56 134.30 168.88 M 204.04 203.98 C 204.04 225.51 204.03 247.04 204.04 268.56 C 224.38 257.43 244.72 246.29 265.04 235.14 C 265.04 213.05 265.06 190.96 265.04 168.88 C 244.70 180.57 224.36 192.27 204.04 203.98 M 96.14 266.12 C 129.18 284.79 162.22 303.44 195.30 322.04 C 195.35 307.58 195.26 293.11 195.35 278.65 C 174.74 267.15 154.06 255.78 133.27 244.62 C 120.96 251.90 108.48 258.89 96.14 266.12 M 204.12 278.40 C 203.93 292.95 204.08 307.50 204.04 322.05 C 237.12 303.43 270.18 284.80 303.21 266.11 C 290.78 258.91 278.33 251.74 265.86 244.61 C 245.25 255.83 224.75 267.23 204.12 278.40 Z" />
  </g>
  <g id="#8ed6fbff">
    <path fill="#8ed6fb" opacity="1.00" d=" M 204.04 77.97 C 237.96 97.08 271.87 116.20 305.76 135.35 C 293.79 142.28 281.79 149.17 269.80 156.07 C 247.85 144.12 225.94 132.10 204.05 120.05 C 204.03 106.03 204.03 92.00 204.04 77.97 Z" />
    <path fill="#8ed6fb" opacity="1.00" d=" M 93.66 135.42 C 127.43 116.10 161.41 97.12 195.30 78.00 C 195.31 92.02 195.32 106.03 195.30 120.05 C 173.36 132.09 151.48 144.25 129.44 156.08 C 117.54 149.14 105.59 142.30 93.66 135.42 Z" />
    <path fill="#8ed6fb" opacity="1.00" d=" M 89.30 142.98 C 101.40 149.89 113.45 156.89 125.53 163.83 C 125.67 187.91 125.50 211.98 125.61 236.05 C 125.42 237.19 126.06 238.98 124.69 239.58 C 112.92 246.41 101.11 253.19 89.30 259.95 C 89.29 220.96 89.29 181.97 89.30 142.98 Z" />
    <path fill="#8ed6fb" opacity="1.00" d=" M 273.78 163.90 C 285.83 156.86 297.95 149.94 310.04 142.98 C 310.07 181.97 310.07 220.95 310.04 259.94 C 297.95 253.00 285.83 246.08 273.78 239.06 C 273.77 214.01 273.76 188.95 273.78 163.90 Z" />
    <path fill="#8ed6fb" opacity="1.00" d=" M 96.14 266.12 C 108.48 258.89 120.96 251.90 133.27 244.62 C 154.06 255.78 174.74 267.15 195.35 278.65 C 195.26 293.11 195.35 307.58 195.30 322.04 C 162.22 303.44 129.18 284.79 96.14 266.12 Z" />
    <path fill="#8ed6fb" opacity="1.00" d=" M 204.12 278.40 C 224.75 267.23 245.25 255.83 265.86 244.61 C 278.33 251.74 290.78 258.91 303.21 266.11 C 270.18 284.80 237.12 303.43 204.04 322.05 C 204.08 307.50 203.93 292.95 204.12 278.40 Z" />
  </g>
  <g id="#1c78c0ff">
    <path fill="#1c78c0" opacity="1.00" d=" M 138.45 161.20 C 158.85 150.00 179.27 138.83 199.68 127.64 C 220.08 138.83 240.50 150.00 260.90 161.20 C 240.50 172.96 220.09 184.70 199.68 196.44 C 179.27 184.70 158.85 172.97 138.45 161.20 Z" />
    <path fill="#1c78c0" opacity="1.00" d=" M 134.30 168.88 C 154.65 180.56 174.99 192.27 195.31 203.99 C 195.31 225.51 195.33 247.03 195.31 268.55 C 174.97 257.43 154.66 246.26 134.32 235.13 C 134.28 213.05 134.32 190.96 134.30 168.88 Z" />
    <path fill="#1c78c0" opacity="1.00" d=" M 204.04 203.98 C 224.36 192.27 244.70 180.57 265.04 168.88 C 265.06 190.96 265.04 213.05 265.04 235.14 C 244.72 246.29 224.38 257.43 204.04 268.56 C 204.03 247.04 204.04 225.51 204.04 203.98 Z" />
  </g>
</svg>
