<svg xmlns="http://www.w3.org/2000/svg" id="Layer_1" viewBox="0 0 547.4 292.9"><style>.st0{fill:#C82027;} .st1{fill:#12393D;}</style><path d="M212.1 264.6l-.1 21.5 1.6.3c4.9.9 9.9 1.6 14.9 1.9 4.4.4 8.8.5 13.2.3 4.2-.3 8.4-1.1 12.4-2.3 4.7-1.3 9.1-3.7 12.9-6.9 3.4-2.9 6-6.6 7.5-10.7 2.7-7 2.6-14.7-.1-21.6-1.5-3.6-3.8-6.8-6.7-9.3-2.9-2.6-6.2-4.5-9.9-5.7l-16.2-6c-1.9-.8-3.5-2.3-4.4-4.2-.7-1.6-.6-3.4.2-4.9.3-.5.7-1 1.1-1.5.5-.5 1.1-.9 1.7-1.3.2-.1.5-.3.7-.4 1.8-.9 3.8-1.5 5.8-1.7 3.4-.5 6.9-.5 10.4.1 4 .4 8.1 1.2 12 2.1l.8.2v-19.9l-1.6-.3c-4-1-8.1-1.7-12.2-2.2-5.3-.7-10.7-.7-16.1-.1-6.8.6-13.2 3.2-18.5 7.4-3.6 2.8-6.3 6.6-7.9 10.9-2.4 6.5-2.4 13.7 0 20.2 1.2 3.3 3.2 6.2 5.7 8.6 2.2 2.1 4.7 3.9 7.4 5.3 3.5 1.9 7.3 3.4 11.2 4.4 1.3.4 2.6.8 3.8 1.2l1.9.7c.2.1.4.1.6.2 1.9.7 3.6 1.7 5.1 3.1 1 .9 1.8 2.1 2.3 3.4.3 1.2.3 2.4 0 3.6-.6 1.9-1.9 3.5-3.7 4.5-1.9 1-4 1.7-6.2 1.9-3.2.5-6.4.7-9.6.5-4.2-.3-8.4-.9-12.5-1.7-2.2-.4-4.3-.9-6.5-1.5l-1-.1m-88.3 20.7v-25l-.5.2c-5.6 2.7-11.8 4.3-18 4.6-6.5.5-13-1.4-18.1-5.3-3.7-2.9-6.5-6.8-7.9-11.2-1.6-4.8-1.8-10.1-.5-15 1.2-5.1 4-9.6 8-12.8 3.6-3 8-4.9 12.6-5.5 8.2-.9 16.5.6 23.9 4.5l.5.3v-25.2l-1.1-.3c-7.3-2.4-15.1-3.4-22.8-3-7 .2-13.9 1.8-20.3 4.6-6.5 3-12.2 7.4-16.6 12.9-14 17.8-14.4 42.7-.9 60.9 6.6 8.5 16 14.5 26.5 17 11.1 2.7 22.6 2.3 33.5-1.2l1.7-.5m56.3 1.7v-93.8h-23.7V287h23.7m350-10.9v-1.4h-10v1.4h4.2V287h1.7v-10.9h4.1m1 10.9h1.6v-9.8h.2l3.6 9.8h1.6l3.9-10.3V287h1.7v-12.3h-2.6l-3.6 10.1-3.7-10.1h-2.7V287" class="st0"/><path d="M3.7 117.8c.2 3 1.5 5.7 3.7 7.7s5 3.1 8 3.1 5.8-1.1 8-3.1 3.5-4.8 3.7-7.7v-26c-.1-3-1.4-5.9-3.6-8-2.2-2.1-5.1-3.3-8.1-3.3s-5.9 1.2-8.1 3.3c-2.2 2.1-3.5 5-3.6 8v26m64.8 0c.2 3 1.5 5.7 3.7 7.7s5 3.1 8 3.1 5.8-1.1 8-3.1 3.5-4.8 3.7-7.7V59.5c-.1-3-1.4-5.9-3.6-8-2.2-2.1-5.1-3.3-8.1-3.3s-5.9 1.2-8.1 3.3c-2.2 2.1-3.5 5-3.6 8v58.3m64.4 23.5c.2 3 1.5 5.7 3.7 7.7s5 3.1 8 3.1 5.8-1.1 8-3.1 3.5-4.8 3.7-7.7V15.2c-.1-3-1.4-5.9-3.6-8-2.2-2.1-5.1-3.3-8.1-3.3s-5.9 1.2-8.1 3.3c-2.2 2.1-3.5 5-3.6 8v126.1m64.7-23.5c.2 3 1.5 5.7 3.7 7.7s5 3.1 8 3.1 5.8-1.1 8-3.1 3.5-4.8 3.7-7.7V59.5c-.1-3-1.4-5.9-3.6-8-2.2-2.1-5.1-3.3-8.1-3.3s-5.9 1.2-8.1 3.3c-2.2 2.1-3.5 5-3.6 8v58.3m64.5 0c.2 3 1.5 5.7 3.7 7.7s5 3.1 8 3.1 5.8-1.1 8-3.1 3.5-4.8 3.7-7.7v-26c-.1-3-1.4-5.9-3.6-8-2.2-2.1-5.1-3.3-8.1-3.3s-5.9 1.2-8.1 3.3c-2.2 2.1-3.5 5-3.6 8v26m64.7 0c.2 3 1.5 5.7 3.7 7.7s5 3.1 8 3.1 5.8-1.1 8-3.1 3.5-4.8 3.7-7.7V59.5c-.1-3-1.4-5.9-3.6-8-2.2-2.1-5.1-3.3-8.1-3.3s-5.9 1.2-8.1 3.3c-2.2 2.1-3.5 5-3.6 8v58.3m64.4 23.5c.2 3 1.5 5.7 3.7 7.7s5 3.1 8 3.1 5.8-1.1 8-3.1 3.5-4.8 3.7-7.7V15.2c-.1-3-1.4-5.9-3.6-8-2.2-2.1-5.1-3.3-8.1-3.3s-5.9 1.2-8.1 3.3c-2.2 2.1-3.5 5-3.6 8v126.1m64.6-23.5c.2 3 1.5 5.7 3.7 7.7s5 3.1 8 3.1 5.8-1.1 8-3.1 3.5-4.8 3.7-7.7V59.5c-.1-3-1.4-5.9-3.6-8-2.2-2.1-5.1-3.3-8.1-3.3s-5.9 1.2-8.1 3.3c-2.2 2.1-3.5 5-3.6 8v58.3m64.5 0c.2 3 1.5 5.7 3.7 7.7s5 3.1 8 3.1 5.8-1.1 8-3.1 3.5-4.8 3.7-7.7v-26c-.1-3-1.4-5.9-3.6-8-2.2-2.1-5.1-3.3-8.1-3.3s-5.9 1.2-8.1 3.3c-2.2 2.1-3.5 5-3.6 8v26" class="st1"/><path d="M371 285.3v-25l-.5.2c-5.6 2.7-11.8 4.3-18 4.6-6.5.5-13-1.4-18.1-5.3-3.7-2.9-6.5-6.8-7.9-11.2-1.6-4.8-1.8-10.1-.5-15 1.2-5.1 4-9.6 8-12.8 3.6-3 8-4.9 12.6-5.5 8.2-.9 16.5.6 23.9 4.5l.5.3v-25.2l-1.1-.3c-7.3-2.4-15.1-3.4-22.8-3-7 .2-13.9 1.8-20.3 4.6-6.5 3-12.2 7.4-16.6 12.9-14 17.8-14.4 42.7-.9 60.9 6.6 8.5 16 14.5 26.5 17 11.1 2.7 22.6 2.3 33.5-1.2l1.7-.5m24.9-45.2c.2 14.8 7.1 28.8 18.8 38 11.6 9.2 26.8 12.7 41.3 9.5 19.7-3.7 35-19.2 38.5-38.9s-5.5-39.5-22.7-49.8c-15.2-9.4-34.2-9.9-49.9-1.4-15.7 8.5-25.6 24.8-26 42.6m34.3-19.2c5.1-4.1 11.6-6 18.1-5.2 6.5.7 12.4 4 16.5 9.1s6 11.6 5.2 18.1c-.7 6.5-4 12.4-9.1 16.5s-11.6 6-18.1 5.2c-6.5-.7-12.4-4-16.5-9.1s-6-11.6-5.2-18.1c.7-6.5 4-12.4 9.1-16.5" class="st0"/></svg>