<svg xmlns="http://www.w3.org/2000/svg" id="Layer_1" viewBox="-99 191 300 120"><style>.st0{fill:#C9C9CA;} .st1{fill:url(#SVGID_1_);} .st2{fill:url(#SVGID_2_);} .st3{fill:url(#SVGID_3_);} .st4{fill:url(#SVGID_4_);} .st5{fill:url(#SVGID_5_);} .st6{fill:url(#SVGID_6_);} .st7{fill:url(#SVGID_7_);} .st8{fill:url(#SVGID_8_);} .st9{fill:url(#SVGID_9_);} .st10{fill:url(#SVGID_10_);} .st11{fill:url(#SVGID_11_);} .st12{fill:url(#SVGID_12_);} .st13{fill:url(#SVGID_13_);} .st14{fill:url(#SVGID_14_);} .st15{fill:url(#SVGID_15_);} .st16{fill:url(#SVGID_16_);} .st17{fill:url(#SVGID_17_);} .st18{fill:url(#SVGID_18_);} .st19{fill:url(#SVGID_19_);} .st20{fill:url(#SVGID_20_);} .st21{fill:url(#SVGID_21_);} .st22{fill:url(#SVGID_22_);} .st23{fill:url(#SVGID_23_);} .st24{fill:#4B4B4B;} .st25{fill:url(#SVGID_24_);} .st26{fill:url(#SVGID_25_);} .st27{fill:#FFFFFF;}</style><path d="M51.8 197.5c-80.3 0-144.7 24.1-144.7 54.3 0 30 64.9 54.3 144.7 54.3 79.8 0 144.8-24.3 144.8-54.3 0-30-65-54.3-144.8-54.3m143.9 50c.1.3.1.5.1.8 0-.2-.1-.5-.1-.8" class="st0"/><radialGradient id="SVGID_1_" cx="50.87" cy="-55.67" r="623.71" gradientTransform="matrix(1 0 0 -.5 0 348.3)" gradientUnits="userSpaceOnUse"><stop offset="0" stop-color="#00082E"/><stop offset=".15" stop-color="#000A30"/><stop offset=".24" stop-color="#010F39"/><stop offset=".31" stop-color="#011946"/><stop offset=".37" stop-color="#02275A"/><stop offset=".41" stop-color="#03346C"/><stop offset=".44" stop-color="#0B4F87"/><stop offset=".48" stop-color="#1676AF"/><stop offset=".51" stop-color="#1C8EC7"/><stop offset=".53" stop-color="#1F97D0"/><stop offset="1" stop-color="#1F97D0"/></radialGradient><path d="M51.8 199.6c-78.7 0-142.5 23.3-142.5 52.1s63.8 52.1 142.5 52.1c78.8 0 142.5-23.3 142.5-52.1.1-28.8-63.7-52.1-142.5-52.1" class="st1"/><linearGradient id="SVGID_2_" x1="-460.81" x2="-457.55" y1="95.31" y2="95.31" gradientUnits="userSpaceOnUse" gradientTransform="matrix(0 -33.8 33.8 0 -3166.2 -15250.1)"><stop offset="0" stop-color="#00082E"/><stop offset=".32" stop-color="#010A30"/><stop offset=".5" stop-color="#030F39"/><stop offset=".65" stop-color="#071846"/><stop offset=".77" stop-color="#0D245A"/><stop offset=".81" stop-color="#0F2961"/><stop offset=".84" stop-color="#0B386E"/><stop offset=".9" stop-color="#054E83"/><stop offset=".95" stop-color="#015B90"/><stop offset="1" stop-color="#006094"/></linearGradient><path d="M52.5 210.5c66.9 0 122.2 16.4 130.7 37.5-5.6-22.3-62.3-39.8-131.3-39.8C-21 208.3-80 227.7-80 251.7c0 2 .4 3.9 1.1 5.8-.3-1.2-.5-2.5-.5-3.8.1-23.8 59.1-43.2 131.9-43.2z" class="st2"/><linearGradient id="SVGID_3_" x1="-460.82" x2="-457.55" y1="95.35" y2="95.35" gradientUnits="userSpaceOnUse" gradientTransform="rotate(-90 -9207.9 -6042.2) scale(33.8)"><stop offset="0" stop-color="#00082E"/><stop offset=".32" stop-color="#010A30"/><stop offset=".5" stop-color="#030F39"/><stop offset=".65" stop-color="#071846"/><stop offset=".77" stop-color="#0D245A"/><stop offset=".81" stop-color="#0F2961"/><stop offset=".84" stop-color="#0B386E"/><stop offset=".9" stop-color="#054E83"/><stop offset=".95" stop-color="#015B90"/><stop offset="1" stop-color="#006094"/></linearGradient><path d="M187.5 246.3c.6 1.8.9 3.6.9 5.4 0 26.3-61.1 47.5-136.6 47.5-67.1 0-122.9-16.9-134.4-39.1 8.7 23.1 65.8 40.9 135 41h.8c75.2-.1 136.2-21.1 136.2-47.1 0-2.6-.7-5.2-1.9-7.7z" class="st3"/><linearGradient id="SVGID_4_" x1="-465.89" x2="-462.63" y1="93.63" y2="93.63" gradientUnits="userSpaceOnUse" gradientTransform="matrix(0 -23.7 23.7 0 -2145.9 -10769.6)"><stop offset="0" stop-color="#00082E"/><stop offset=".32" stop-color="#010A30"/><stop offset=".5" stop-color="#030F39"/><stop offset=".65" stop-color="#071846"/><stop offset=".77" stop-color="#0D245A"/><stop offset=".81" stop-color="#0F2961"/><stop offset=".84" stop-color="#0B386E"/><stop offset=".9" stop-color="#054E83"/><stop offset=".95" stop-color="#015B90"/><stop offset="1" stop-color="#006094"/></linearGradient><path d="M78.1 259c-.3-.8-.4-1.6-.2-2.5.1-.3-.3-.6-.7-.2-3.1 3.2-3.3 7.3-1.3 9.2.7.7 1.5 1 2.4 1-1.2-1.6-1.8-4.9-.2-7.5z" class="st4"/><linearGradient id="SVGID_5_" x1="-465.92" x2="-462.69" y1="94.57" y2="94.57" gradientUnits="userSpaceOnUse" gradientTransform="matrix(0 -23.7 23.7 0 -2130.4 -10745.3)"><stop offset="0" stop-color="#00082E"/><stop offset=".32" stop-color="#010A30"/><stop offset=".5" stop-color="#030F39"/><stop offset=".65" stop-color="#071846"/><stop offset=".77" stop-color="#0D245A"/><stop offset=".81" stop-color="#0F2961"/><stop offset=".84" stop-color="#0B386E"/><stop offset=".9" stop-color="#054E83"/><stop offset=".95" stop-color="#015B90"/><stop offset="1" stop-color="#006094"/></linearGradient><path d="M109.1 265.2c.2-.3.3-.6.5-1 .1-.3.1-.3 0-.4-.3-.1-.6-.4-.7-.6v-.1c0 .5.1 1.4.2 2.1z" class="st5"/><linearGradient id="SVGID_6_" x1="-465.92" x2="-462.68" y1="94.71" y2="94.71" gradientUnits="userSpaceOnUse" gradientTransform="rotate(-90 -6437.1 -4308.2) scale(23.7)"><stop offset="0" stop-color="#00082E"/><stop offset=".32" stop-color="#010A30"/><stop offset=".5" stop-color="#030F39"/><stop offset=".65" stop-color="#071846"/><stop offset=".77" stop-color="#0D245A"/><stop offset=".81" stop-color="#0F2961"/><stop offset=".84" stop-color="#0B386E"/><stop offset=".9" stop-color="#054E83"/><stop offset=".95" stop-color="#015B90"/><stop offset="1" stop-color="#006094"/></linearGradient><path d="M112.6 252.7c1 1 1.6 2.2 1.8 3.3 0 .5.4.6.8.1.1-.1.2-.3.3-.4-.1-.1-.2-.2-.3-.4-.6-.6-1.6-1.7-2.6-2.6z" class="st6"/><linearGradient id="SVGID_7_" x1="-465.93" x2="-462.66" y1="93.47" y2="93.47" gradientUnits="userSpaceOnUse" gradientTransform="matrix(0 -23.7 23.7 0 -2143.6 -10752)"><stop offset="0" stop-color="#00082E"/><stop offset=".32" stop-color="#010A30"/><stop offset=".5" stop-color="#030F39"/><stop offset=".65" stop-color="#071846"/><stop offset=".77" stop-color="#0D245A"/><stop offset=".81" stop-color="#0F2961"/><stop offset=".84" stop-color="#0B386E"/><stop offset=".9" stop-color="#054E83"/><stop offset=".95" stop-color="#015B90"/><stop offset="1" stop-color="#006094"/></linearGradient><path d="M70.2 250.7c.8 1.1 1.2 2.7 1.1 4.8 0 .5.4.5.6.1.1-.2.3-.4.4-.6-.5-1.8-1.4-3.6-2.1-4.3z" class="st7"/><linearGradient id="SVGID_8_" x1="-465.91" x2="-462.65" y1="94.37" y2="94.37" gradientUnits="userSpaceOnUse" gradientTransform="rotate(-90 -6447.5 -4311.3) scale(23.7)"><stop offset="0" stop-color="#00082E"/><stop offset=".32" stop-color="#010A30"/><stop offset=".5" stop-color="#030F39"/><stop offset=".65" stop-color="#071846"/><stop offset=".77" stop-color="#0D245A"/><stop offset=".81" stop-color="#0F2961"/><stop offset=".84" stop-color="#0B386E"/><stop offset=".9" stop-color="#054E83"/><stop offset=".95" stop-color="#015B90"/><stop offset="1" stop-color="#006094"/></linearGradient><path d="M108.3 256.1c-2.5-1.2-6.4 1-9.9 5.3-2.9 3.5-4.4 7.1-4.4 10.5 0 1.2.4 2.8 1.5 3.3.4.2.7.3 1.1.4-.1-.5-.2-1-.2-1.4 0-3.6 1.1-7.2 3.9-10.7 3.5-4.3 7.1-6.4 9.6-5.2-.1-.9-.5-1.7-1.6-2.2z" class="st8"/><linearGradient id="SVGID_9_" x1="-465.95" x2="-462.68" y1="92.39" y2="92.39" gradientUnits="userSpaceOnUse" gradientTransform="rotate(-90 -6443 -4292.2) scale(23.7)"><stop offset="0" stop-color="#00082E"/><stop offset=".32" stop-color="#010A30"/><stop offset=".5" stop-color="#030F39"/><stop offset=".65" stop-color="#071846"/><stop offset=".77" stop-color="#0D245A"/><stop offset=".81" stop-color="#0F2961"/><stop offset=".84" stop-color="#0B386E"/><stop offset=".9" stop-color="#054E83"/><stop offset=".95" stop-color="#015B90"/><stop offset="1" stop-color="#006094"/></linearGradient><path d="M32.8 263.2c2.7-3.6 5.7-5 9.1-6.4.4-.2.5-.5.4-.8-.1-.7-.6-2.4-.8-2.8.1.4 0 .7-.4.8-3.9 1.5-7.8 3.8-10.4 7.4-3 4.1-3.9 9-1.8 11.8.5.7 1.1 1.2 1.7 1.5-1.1-3.5-.3-8 2.2-11.5z" class="st9"/><linearGradient id="SVGID_10_" x1="-465.93" x2="-462.66" y1="93.38" y2="93.38" gradientUnits="userSpaceOnUse" gradientTransform="rotate(-90 -6445.6 -4302.2) scale(23.7)"><stop offset="0" stop-color="#00082E"/><stop offset=".32" stop-color="#010A30"/><stop offset=".5" stop-color="#030F39"/><stop offset=".65" stop-color="#071846"/><stop offset=".77" stop-color="#0D245A"/><stop offset=".81" stop-color="#0F2961"/><stop offset=".84" stop-color="#0B386E"/><stop offset=".9" stop-color="#054E83"/><stop offset=".95" stop-color="#015B90"/><stop offset="1" stop-color="#006094"/></linearGradient><path d="M52.3 284.6h8c.3 0 .6-.2.7-.4 3.3-5.1 6.7-10.6 10.1-15.7.7 2.6 1.1 3.8 2.5 5 1.4 1.2 2.7 1.6 4.5 1.6 1.7 0 3.4-.7 5.4-1.5.7-.3 1.4-.7 1.9-1 0-.9.1-1.9.3-2.8 0-.1-.1-.7-.6-.4-.9.7-2.1 1.4-3.6 1.9-1.8.7-2.7.9-4.4.9-2.1 0-4.1-.9-5.4-3.1-.8-1.1-1.1-2.9-1.1-4.2 0-.1-.2-.4-.4-.1-3.6 5.5-7 10.8-10.6 16.4-.2.3-.3.4-.7.4h-7.1c-.3 0-.4-.1-.5-.3.2.9.5 2.4.6 2.8 0 .4.2.5.4.5z" class="st10"/><linearGradient id="SVGID_11_" x1="-465.78" x2="-462.51" y1="94.63" y2="94.63" gradientUnits="userSpaceOnUse" gradientTransform="matrix(0 -23.9 23.9 0 -2151.2 -10837.5)"><stop offset="0" stop-color="#00082E"/><stop offset=".32" stop-color="#010A30"/><stop offset=".5" stop-color="#030F39"/><stop offset=".65" stop-color="#071846"/><stop offset=".77" stop-color="#0D245A"/><stop offset=".81" stop-color="#0F2961"/><stop offset=".84" stop-color="#0B386E"/><stop offset=".9" stop-color="#054E83"/><stop offset=".95" stop-color="#015B90"/><stop offset="1" stop-color="#006094"/></linearGradient><path d="M87.4 281.5c.6 1.2 2 2.5 2.8 2.9 4.7 2.3 11.4-.3 15.7-4.4 0-.1.1-.1.1-.1.2.7.4 1.6.5 1.8.3 1 .8 1.8 1.2 2.3 2.9 3.3 9.2 1.8 15.7-3.2 3.6-2.8 6.3-5.6 9.6-9.5.1-.2.1-.4 0-.8-.2-.8-.5-2.3-.7-3.1 0 .1-.1.3-.1.3-3.4 4.2-7.3 8.2-10.9 11-5.7 4.4-11.3 5.5-14.1 2.7-1-1-1.6-2.5-1.7-3.8 0-.7-.4-.7-.7-.4-3.3 3.3-9.2 7-14.4 4.4-2.7-1.3-4.2-3.9-4.7-6.7v.1c.3 1.9.8 4.8 1.7 6.5z" class="st11"/><linearGradient id="SVGID_12_" x1="-465.83" x2="-462.56" y1="93.86" y2="93.86" gradientUnits="userSpaceOnUse" gradientTransform="matrix(0 -23.8 23.8 0 -2153.2 -10810.7)"><stop offset="0" stop-color="#00082E"/><stop offset=".32" stop-color="#010A30"/><stop offset=".5" stop-color="#030F39"/><stop offset=".65" stop-color="#071846"/><stop offset=".77" stop-color="#0D245A"/><stop offset=".81" stop-color="#0F2961"/><stop offset=".84" stop-color="#0B386E"/><stop offset=".9" stop-color="#054E83"/><stop offset=".95" stop-color="#015B90"/><stop offset="1" stop-color="#006094"/></linearGradient><path d="M85.1 263.6c1.7-.9 3.3-2.9 3.1-6.2-.1-1.6-.6-3.3-1.3-4.6.5 1 .7 2.1.5 3.3-.3 2.1-1.5 3.9-3.4 4.9-1.6.8-3.5.7-4.9-.5-.4-.4-.7-.8-.9-1.3.3 1.6.6 2.7 1.1 3.4 1.2 1.8 3.3 2.3 5.8 1z" class="st12"/><linearGradient id="SVGID_13_" x1="-465.95" x2="-462.68" y1="95.04" y2="95.04" gradientUnits="userSpaceOnUse" gradientTransform="matrix(0 -23.7 23.7 0 -2123.8 -10737.9)"><stop offset="0" stop-color="#00082E"/><stop offset=".32" stop-color="#010A30"/><stop offset=".5" stop-color="#030F39"/><stop offset=".65" stop-color="#071846"/><stop offset=".77" stop-color="#0D245A"/><stop offset=".81" stop-color="#0F2961"/><stop offset=".84" stop-color="#0B386E"/><stop offset=".9" stop-color="#054E83"/><stop offset=".95" stop-color="#015B90"/><stop offset="1" stop-color="#006094"/></linearGradient><path d="M136.9 236.2c-1.1 1.9-22.3 34.2-23.6 37.5-.4 1.1-.5 1.9 0 2.4.4.6 1.1.8 1.8.8.1-.4.2-.9.4-1.4 1.3-3.3 21.2-33.5 22.3-35.4.1-.2.1-.3 0-.5-.1-.3-.7-3.5-.8-3.8-.1.2-.1.3-.1.4z" class="st13"/><linearGradient id="SVGID_14_" x1="-465.93" x2="-462.66" y1="92.86" y2="92.86" gradientUnits="userSpaceOnUse" gradientTransform="rotate(-90 -6449.6 -4300.2) scale(23.7)"><stop offset="0" stop-color="#00082E"/><stop offset=".32" stop-color="#010A30"/><stop offset=".5" stop-color="#030F39"/><stop offset=".65" stop-color="#071846"/><stop offset=".77" stop-color="#0D245A"/><stop offset=".81" stop-color="#0F2961"/><stop offset=".84" stop-color="#0B386E"/><stop offset=".9" stop-color="#054E83"/><stop offset=".95" stop-color="#015B90"/><stop offset="1" stop-color="#006094"/></linearGradient><path d="M48.9 251.2l.2.2c1.3 1.9 2 4.6 2 7.3.1.6.3.6.6.3l.8-.8c-.4-1.5-1-2.8-1.5-4.1-.3-.5-1.3-2.1-2.1-2.9z" class="st14"/><linearGradient id="SVGID_15_" x1="-465.93" x2="-462.67" y1="92.5" y2="92.5" gradientUnits="userSpaceOnUse" gradientTransform="rotate(-90 -6448.9 -4296.4) scale(23.7)"><stop offset="0" stop-color="#00082E"/><stop offset=".32" stop-color="#010A30"/><stop offset=".5" stop-color="#030F39"/><stop offset=".65" stop-color="#071846"/><stop offset=".77" stop-color="#0D245A"/><stop offset=".81" stop-color="#0F2961"/><stop offset=".84" stop-color="#0B386E"/><stop offset=".9" stop-color="#054E83"/><stop offset=".95" stop-color="#015B90"/><stop offset="1" stop-color="#006094"/></linearGradient><path d="M14.6 281.4c.4.2.8 0 1-.1 1.3-.7 3.8-2.6 4.9-4 .3-.3.6-.1.8.2.5 1.4 1.1 2.5 1.9 3.7.8 1.3 2.4 2.7 4.5 3.2 2.7.8 5.7.9 9.5-.6 3.1-1.2 6.4-3.6 8.9-6.3 3-3.3 4.1-5.3 5.2-6.8 1.9-2.4 5-6.7 9.2-10.3 1.5-1.3 3.1-2.1 4.1-1.7.6-1.6.3-2.5-.3-2.9-1-.6-3 .3-4.7 1.6-4.6 3.5-8.4 8.9-10.4 11.3-1.1 1.4-2.2 3.5-5.2 6.8-4.7 5.1-11 8.1-17 6-3.3-1.1-5.7-3.8-6.6-7-.2-.6-.5-.8-.9-.4-1 1.2-3 3-4.6 4.1-.2.1-.6.4-1 .2-.3-.2-1.6-1.9-1.8-2.4 0 0-.1-.1-.1-.2.4 2.1.5 2.4 1.1 3.4.8 1.3 1.4 2.1 1.5 2.2z" class="st15"/><linearGradient id="SVGID_16_" x1="-465.95" x2="-462.68" y1="90.79" y2="90.79" gradientUnits="userSpaceOnUse" gradientTransform="matrix(0 -23.7 23.7 0 -2168 -10737.1)"><stop offset="0" stop-color="#00082E"/><stop offset=".32" stop-color="#010A30"/><stop offset=".5" stop-color="#030F39"/><stop offset=".65" stop-color="#071846"/><stop offset=".77" stop-color="#0D245A"/><stop offset=".81" stop-color="#0F2961"/><stop offset=".84" stop-color="#0B386E"/><stop offset=".9" stop-color="#054E83"/><stop offset=".95" stop-color="#015B90"/><stop offset="1" stop-color="#006094"/></linearGradient><path d="M-21.7 262.1c1.5-3.1 3.7-4.5 5.8-5.9.9-.6 1.3-1.1.8-2.6-.2-.4-.2-1.2-.4-1.9.1.7-.3 1.2-.9 1.5-2.6 1.3-5.7 3.6-7.2 6.6-1.2 2.5-1.5 5.5.4 8.4.2.2.3.5.5.7-.6-2.3 0-4.9 1-6.8z" class="st16"/><linearGradient id="SVGID_17_" x1="-465.79" x2="-462.52" y1="91.89" y2="91.89" gradientUnits="userSpaceOnUse" gradientTransform="rotate(-90 -6508.7 -4328.6) scale(23.9)"><stop offset="0" stop-color="#00082E"/><stop offset=".32" stop-color="#010A30"/><stop offset=".5" stop-color="#030F39"/><stop offset=".65" stop-color="#071846"/><stop offset=".77" stop-color="#0D245A"/><stop offset=".81" stop-color="#0F2961"/><stop offset=".84" stop-color="#0B386E"/><stop offset=".9" stop-color="#054E83"/><stop offset=".95" stop-color="#015B90"/><stop offset="1" stop-color="#006094"/></linearGradient><path d="M4.6 224.8c9.4-3.1 19.8-1.1 28.1.7 1.2-.7 2.2-1.2 3.2-1.8.5-.3-.1-.6-.2-.6-10.8-2-22-4.7-32.8-.7-7.4 2.8-10.7 8.7-9.1 12.6.3.8.8 1.3 1.4 1.8-.4-3.7 2.3-9.6 9.4-12z" class="st17"/><linearGradient id="SVGID_18_" x1="-465.94" x2="-462.67" y1="91.51" y2="91.51" gradientUnits="userSpaceOnUse" gradientTransform="matrix(0 -23.7 23.7 0 -2161.8 -10742.9)"><stop offset="0" stop-color="#00082E"/><stop offset=".32" stop-color="#010A30"/><stop offset=".5" stop-color="#030F39"/><stop offset=".65" stop-color="#071846"/><stop offset=".77" stop-color="#0D245A"/><stop offset=".81" stop-color="#0F2961"/><stop offset=".84" stop-color="#0B386E"/><stop offset=".9" stop-color="#054E83"/><stop offset=".95" stop-color="#015B90"/><stop offset="1" stop-color="#006094"/></linearGradient><path d="M-25.8 281.3c3.1 2.2 6.1 2.9 9.6 2.9 7.2.1 13.7-2.8 20.6-9.9 6.7-6.8 12.4-16.2 18.1-25.5.2-.3.4-.5 1.3-.6 3.6-.4 6.8-.6 9.9-.9.9-.1 1.7-.2 2 .2 1.1 1.1 2.5 2.2 3.3 2.7.6 0 1.1.1 1.4.4.4 0 .7-.3.9-.5.4-.4.4-.9.4-1.3-.1-.8-.4-2.3-.6-2.8.2.3.1.8-.3 1.2-.2.3-.6.6-1.1.5-.4 0-.7-.2-1.2-.4-1.1-.6-2.4-1.5-3.3-2.6-.3-.4-.4-.4-1.2-.3-3.4.2-8.6.7-12.2 1.1-.9.1-1 .3-1.2.6-5.7 9.4-11.7 19.4-18.4 26.2-7.1 7.2-13.1 9.1-19.3 9.2-7.3 0-13.7-4.1-15.4-11.3 1.1 4.2 3.7 9 6.7 11.1z" class="st18"/><linearGradient id="SVGID_19_" x1="-465.87" x2="-462.61" y1="91.6" y2="91.6" gradientUnits="userSpaceOnUse" gradientTransform="matrix(0 -23.8 23.8 0 -2170.3 -10783)"><stop offset="0" stop-color="#00082E"/><stop offset=".32" stop-color="#010A30"/><stop offset=".5" stop-color="#030F39"/><stop offset=".65" stop-color="#071846"/><stop offset=".77" stop-color="#0D245A"/><stop offset=".81" stop-color="#0F2961"/><stop offset=".84" stop-color="#0B386E"/><stop offset=".9" stop-color="#054E83"/><stop offset=".95" stop-color="#015B90"/><stop offset="1" stop-color="#006094"/></linearGradient><path d="M1 249.9c-.2-.3-.2-.5-.3-.8-.1 1.2.4 3 .8 3.6.4.7 1.6 1 2.6.3 2.2-1.6 4.1-2.5 6.3-2.9.6-.8 1.2-1.6 1.9-2.6.1-.1.1-.2.1-.2 0-.1-.1-.1-.3-.1-3.2.1-6 1.1-8.7 3.1-.7.4-1.9.4-2.4-.4z" class="st19"/><linearGradient id="SVGID_20_" x1="-465.95" x2="-462.68" y1="93.1" y2="93.1" gradientUnits="userSpaceOnUse" gradientTransform="rotate(-90 -6440.6 -4296.7) scale(23.7)"><stop offset="0" stop-color="#00082E"/><stop offset=".32" stop-color="#010A30"/><stop offset=".5" stop-color="#030F39"/><stop offset=".65" stop-color="#071846"/><stop offset=".77" stop-color="#0D245A"/><stop offset=".81" stop-color="#0F2961"/><stop offset=".84" stop-color="#0B386E"/><stop offset=".9" stop-color="#054E83"/><stop offset=".95" stop-color="#015B90"/><stop offset="1" stop-color="#006094"/></linearGradient><path d="M88.5 228c-4.5 2.5-9.2 3.2-14.1 3.3-11.9.1-22.9-4.5-34.4-7 0 .5.1 1.1-.3 1.4-6.3 4.7-12.1 9.4-15.9 16.1-.1.2-.1.3.2.3 1 0 2-.1 3-.1 3.5-5.5 7.2-8.6 13-12.8.4-.3.9-.5.7-1.8 11.5 2.5 20.2 6.8 35 6.8 4.4 0 10.7-1.5 14-3.5 3.9-2.3 4.9-4 5-5.8 0-.6-.1-1.4-.2-1.8-.1-.6-.2-1.4-.4-2 .1.2.1.5.1.8-.2 2-1.8 4-5.7 6.1z" class="st20"/><linearGradient id="SVGID_21_" x1="-465.91" x2="-462.64" y1="92.53" y2="92.53" gradientUnits="userSpaceOnUse" gradientTransform="rotate(-90 -6458.3 -4302.9) scale(23.7)"><stop offset="0" stop-color="#00082E"/><stop offset=".32" stop-color="#010A30"/><stop offset=".5" stop-color="#030F39"/><stop offset=".65" stop-color="#071846"/><stop offset=".77" stop-color="#0D245A"/><stop offset=".81" stop-color="#0F2961"/><stop offset=".84" stop-color="#0B386E"/><stop offset=".9" stop-color="#054E83"/><stop offset=".95" stop-color="#015B90"/><stop offset="1" stop-color="#006094"/></linearGradient><path d="M38.9 235.7c-.1.1-.3.3-.5.4-1.1 1.2-1.5 2.7-1.3 3.9.1.5.3.6.5.5.2 0 .4-.1.7-.2.1-.6.4-1.3 1-1.9.5-.4 1.1-.6 1.6-.5.4-.9.6-1.9 0-2.4-.5-.3-1.3-.2-2 .2z" class="st21"/><linearGradient id="SVGID_22_" x1="-465.94" x2="-462.68" y1="92.59" y2="92.59" gradientUnits="userSpaceOnUse" gradientTransform="rotate(-90 -6444.1 -4294.5) scale(23.7)"><stop offset="0" stop-color="#00082E"/><stop offset=".32" stop-color="#010A30"/><stop offset=".5" stop-color="#030F39"/><stop offset=".65" stop-color="#071846"/><stop offset=".77" stop-color="#0D245A"/><stop offset=".81" stop-color="#0F2961"/><stop offset=".84" stop-color="#0B386E"/><stop offset=".9" stop-color="#054E83"/><stop offset=".95" stop-color="#015B90"/><stop offset="1" stop-color="#006094"/></linearGradient><path d="M43.5 239.8c-1.1 2.1-2.9 3.2-4.6 3.7 0 0-.4.1-.3.4 0 .4 1.3 1.1 2 1.7.1 0 .3-.1.3-.1.9-.4 2.4-1.3 3.2-3.1.5-1.2.8-2.1.6-4.2-.2-1.4-.5-2.7-.8-3.4.7 1.5.4 3.5-.4 5z" class="st22"/><linearGradient id="SVGID_23_" x1="-465.95" x2="-462.67" y1="91.36" y2="91.36" gradientUnits="userSpaceOnUse" gradientTransform="rotate(-90 -6452 -4288.5) scale(23.7)"><stop offset="0" stop-color="#00082E"/><stop offset=".32" stop-color="#010A30"/><stop offset=".5" stop-color="#030F39"/><stop offset=".65" stop-color="#071846"/><stop offset=".77" stop-color="#0D245A"/><stop offset=".81" stop-color="#0F2961"/><stop offset=".84" stop-color="#0B386E"/><stop offset=".9" stop-color="#054E83"/><stop offset=".95" stop-color="#015B90"/><stop offset="1" stop-color="#006094"/></linearGradient><path d="M11.6 232.4c-3.1 7.4-9.1 13.2-16.4 13.5-4.1.1-7.2-1.8-8.9-4.7 1.2 2.2 3.3 4.1 5.1 5.3 1.6 1 3.5 1.5 5.8 1.5 7.6-.3 13.4-6.5 15.3-11.8.5-1.4.1-3-.1-4-.1-.4-.2-1.3-.5-1.9.1.3.1 1.1-.3 2.1z" class="st23"/><path d="M51.8 197.5c-80.3 0-144.7 24.1-144.7 54.3 0 30 64.9 54.3 144.7 54.3 79.8 0 144.8-24.3 144.8-54.3 0-30-65-54.3-144.8-54.3m-143.7 54.8c0-6.4 2.8-12.7 8.7-18.6 20.7-20.9 75-35 134.9-35.3 79.3-.3 143.9 23.3 144 52.7 0 6.4-2.9 12.6-8.8 18.5-20.9 21-75 35.2-134.8 35.4-79.3.4-143.9-23.3-144-52.7m287.6-4.8c.1.3.1.5.1.8 0-.2-.1-.5-.1-.8" class="st24"/><linearGradient id="SVGID_24_" x1="-457.49" x2="-454.22" y1="92.73" y2="92.73" gradientUnits="userSpaceOnUse" gradientTransform="rotate(-105 -10326.1 -4957.1) scale(39.6)"><stop offset="0" stop-color="#A5A5A6"/><stop offset=".35" stop-color="#D7D7D7"/><stop offset=".65" stop-color="#D7D7D7"/><stop offset="1" stop-color="#A5A5A6"/></linearGradient><path d="M-92.5 251.7c0 1.4.2 2.8.5 4.2-.2-1.2-.3-2.4-.4-3.6 0-6.4 2.8-12.9 8.8-18.9 20.8-21 75.2-35.2 135.2-35.4 8.3 0 16.5.2 24.4.7-7.9-.5-15.9-.8-24.2-.8-80 0-144.3 24-144.3 53.8z" class="st25"/><linearGradient id="SVGID_25_" x1="107.88" x2="74.5" y1="241.04" y2="365.61" gradientUnits="userSpaceOnUse" gradientTransform="matrix(1 0 0 -1 0 504)"><stop offset="0" stop-color="#A5A5A6"/><stop offset=".35" stop-color="#D7D7D7"/><stop offset=".65" stop-color="#D7D7D7"/><stop offset="1" stop-color="#A5A5A6"/></linearGradient><path d="M187.1 270c-20.8 20.9-75.1 35.2-135 35.5-8.5 0-16.8-.2-24.9-.7 8 .5 16.2.8 24.6.8 79.6 0 144.3-24.3 144.3-53.8 0-1.1-.1-2.2-.3-3.4.1.9.2 1.8.2 2.8.1 6.4-3 12.8-8.9 18.8" class="st26"/><path d="M51.8 204.2c-75.4 0-136.6 21.3-136.6 47.5 0 26.3 61.2 47.5 136.6 47.5 75.4 0 136.6-21.3 136.6-47.5s-61.1-47.5-136.6-47.5zm0 90.9C-21 295.1-80 275.7-80 251.7s59-43.4 131.8-43.4c72.8 0 131.8 19.4 131.8 43.4s-59 43.4-131.8 43.4z" class="st27"/><path d="M136.9 236.2c.2-.3 0-.6-.4-.6h-7.3c-.5 0-.8.1-1.1.6-.8 1.6-11.1 16.9-13 19.9-.3.5-.7.4-.8-.1-.2-1.8-1.7-3.8-4.1-4.8-1.8-.7-3.6-.9-5.5-.6-3.4.5-6.4 2.2-9 4.2-4 3-7.4 6.9-11.8 9.8-2.4 1.6-5.7 2.9-7.9.9-2-1.9-1.8-6 1.3-9.2.3-.3.7-.1.7.2-.3 1.4.1 2.9 1.2 3.9 1.3 1.2 3.2 1.3 4.9.5 1.9-1 3.1-2.8 3.4-4.9.5-3.3-2-6.1-5.1-6.4-2.5-.2-5 .7-7.4 2.7-1.2 1-1.9 1.7-2.9 3.2-.3.4-.6.4-.6-.1.1-4.2-1.6-6.5-5-6.6-2.7-.1-5.5 1.4-7.8 3.2-2.4 2-4.6 4.6-6.9 7-.3.3-.5.3-.6-.3-.1-2.8-.8-5.4-2-7.3-.5-.7-1.4-1-2.2-.5-.4.2-1.7.8-2.6 1.5-.5.4-.6.9-.4 1.6 1.2 4.1 1 8.8-.7 12.8-1.5 3.6-4.5 6.9-8 8-2.3.7-4.7.4-6.2-1.7-2-2.8-1.2-7.7 1.8-11.8 2.7-3.6 6.6-5.9 10.4-7.4.5-.2.6-.5.4-.9-.2-.6-.5-1.5-.7-1.9-.4-.9-1.4-1.1-2.6-1-2.8.3-5.4 1.3-7.9 2.6-6.6 3.5-9.9 10.3-11.3 14-.7 1.8-1.3 2.8-2.1 3.8-1 1.3-2.3 2.5-4.7 4.6-.2.2-.4.6-.2 1 .2.5 1.5 2.2 1.8 2.4.4.2.8-.1 1-.2 1.7-1.1 3.7-2.9 4.6-4.1.3-.4.7-.2.9.4.9 3.2 3.3 5.9 6.6 7 6 2 12.3-.9 17-6 3-3.3 4.1-5.3 5.2-6.8 1.9-2.4 5.8-7.8 10.4-11.3 1.7-1.3 3.7-2.3 4.7-1.6.8.5 1.1 1.7-.2 4.1-4.7 8.5-11.5 18.5-12.8 21-.2.4 0 .8.4.8h7.1c.4 0 .5-.2.7-.4 3.6-5.6 6.9-10.9 10.6-16.4.2-.3.4-.1.4.1.1 1.3.4 3 1.1 4.2 1.4 2.1 3.3 3 5.4 3.1 1.7 0 2.6-.2 4.4-.9 1.5-.6 2.7-1.3 3.6-1.9.5-.4.6.3.6.4-.8 4.4.2 9.7 4.6 11.9 5.3 2.6 11.1-1.1 14.4-4.4.3-.3.7-.3.7.4.1 1.3.6 2.8 1.7 3.8 2.8 2.8 8.5 1.7 14.1-2.7 3.6-2.8 7.5-6.8 10.9-11 .1-.2.2-.4 0-.7-.5-.5-1.3-1.2-1.8-1.7-.2-.2-.6-.1-.8 0-3.5 3.4-6.7 7.2-11.3 10.3-1.5 1.1-4 2-5.1.5-.4-.6-.4-1.4 0-2.4 1.5-3.6 22.7-35.9 23.8-37.8m-28.1 27c0 .2.4.5.7.6.1 0 .2.1 0 .4-.9 1.9-1.7 3-2.9 4.7-1 1.5-2.2 2.8-3.6 3.9-2.1 1.8-5.1 3.7-7.6 2.4-1.1-.6-1.6-2.1-1.5-3.3.1-3.5 1.6-7 4.4-10.5 3.5-4.3 7.3-6.5 9.9-5.3 2.6 1.2 1.8 4.3.6 6.6v.5" class="st27"/><path d="M-16.9 281.6c-7.9.1-14.9-4.8-15.7-13.3-.4-4.7.9-8.9 3.5-12.3 2.4-3.1 6.3-5.6 9.7-6.2 1.1-.2 2.6-.1 3.2.7 1 1.1.7 2.3-.3 2.8-2.6 1.3-5.7 3.6-7.2 6.6-1.2 2.5-1.5 5.5.4 8.4 3.2 4.8 12 4.9 20.3-2.7 2-1.9 3.9-3.7 5.7-5.8 3.6-4.1 4.8-5.7 9.6-12.3.1-.1.1-.2.1-.2 0-.1-.1-.1-.3-.1-3.2.1-6 1.1-8.7 3.1-.8.6-1.9.5-2.4-.3-.5-.9-.2-2 .8-2.6 4.4-3 9.2-3.6 14.1-4.4 0 0 .3 0 .6-.4 2-2.6 3.5-4.9 5.7-7.5 2.2-2.6 4.9-5.1 7.1-6.9 3-2.6 4.9-3.4 6.8-4.5.5-.3-.1-.6-.2-.6-10.8-2-22-4.7-32.8-.7-7.4 2.8-10.7 8.7-9.1 12.6 1.1 2.8 4.8 3.2 8.2 1.6 2.9-1.4 5.5-3.7 7.4-6.6 1-1.6 3.3-.4 2.1 2.4-3.1 7.4-9.1 13.2-16.4 13.5-6.2.2-10.2-4.4-10.2-10 0-11.1 12.4-18.5 25.5-19.6 15.7-1.3 30.6 2.9 46.1 4.8 11.9 1.4 23.4 1.5 35.4-1.3 1.4-.3 2.4.6 2.3 2-.1 2.1-1.7 4.1-5.7 6.2-4.5 2.5-9.2 3.2-14.1 3.3-11.9.1-22.9-4.5-34.4-7 0 .5.1 1.1-.3 1.4-6.3 4.7-12.1 9.4-15.9 16.1-.1.2-.1.3.2.3 3.3-.2 6.3-.3 9.4-.5.5 0 .6-.2.5-.6-.3-2.3.4-4.9 2.4-6.7 2.1-1.9 4.7-2.1 6.4-.7 2 1.5 1.8 4.3.7 6.3-1.1 2.1-2.9 3.2-4.6 3.7 0 0-.4.1-.3.4.1.5 2.4 1.8 2.6 2.2.2.3.1.8-.3 1.2-.2.3-.6.6-1.1.5-.4 0-.7-.1-1.2-.4-1.1-.6-2.4-1.5-3.3-2.6-.3-.4-.4-.4-1.2-.3-3.4.2-8.6.7-12.2 1.1-.9.1-1 .3-1.2.6-5.7 9.4-11.7 19.4-18.4 26.2-7.1 7.2-13 9.1-19.3 9.1m54-41.5c.1.5.3.6.5.5 1.1-.2 2.3-1.1 3-2.1.6-.9.9-2.3.3-2.8-.6-.5-1.5-.3-2.2.3-1.3 1.1-1.8 2.8-1.6 4.1" class="st27"/></svg>