<svg xmlns="http://www.w3.org/2000/svg" id="Layer_1" viewBox="0 0 842 595"><style>.st0{fill:#0054b5;}</style><path d="M814 148H683l8-22.5h123zm-349.4-22.5h121.7l8 22.7H464.7v-22.7zm-96.6 0c20 2 37.5 9 52.4 22.6H199.8v-22H368zm-341.4 0H180V148H26.5zm787.4 65H668l8-22.5h138v22.5zm-204.6 0H464.6V168h137zm-172-22.5c3 7.4 6.4 13.8 6.4 22.5h-244V168h237.7zm-410.8 0H180v22.5H26.5zM653 233l8-22.6h110V233zm-36.6-22.6l8 22.6H507.8v-22.6zm-170.6 0c0 7.8-1 15.8-3.2 22.6h-66.8v-22.6h70zm-376.5 0h66V233h-66zm174.7 0h66V233h-66zm328.6 47v17h-64.8V252h123.5l7.7 21 7.4-21h124.4v22.5h-64.5v-17l-6 17H578.5l-6-17zM244 252h189c-4.2 7.6-11.7 16.8-18.8 22.6h-170V252zm-174.7 0h66v22.6h-66zm637 42.5h64.5V317h-64.5zm-133.7 0h-64.8V317h64.8v-22.5zm120.7 0c-.3 0-7.6 22.5-8 22.5h-91.7l-8-22.5h107.7zm-449.3 0h170c7.8 6.5 14.8 14.4 20.2 22.5H244v-22.5zM135.2 317v-22.5H69.4V317h65.8zm571 20H771v22.4h-64.5zM508 337h64.8v22.4H508zm162.5 22.5l8-22.6h-78l8 22h62zm-426.3 0V337h67v22.4h-67zM443.4 337c3.2 6.7 3.6 14.8 4.2 22.5H377V337h66.4zm-374 0h65.8v22.4H69.4zm637 41.4H814V401H706.4zm-241.8 0h108V401h-108zM655.8 401h-33l-7.8-22.6h48.4zM26.6 378.4V401h153.2v-22.6H26.6zm418.2 0c-1.6 7.4-3 16.5-8.5 22.5H199.7v-23h245zm196.2 65h-3l-7.8-22.6h18.6zm65.3-22.6H814v22.6H706.4zm-506.6 22.6V421h222c-15 14-35.3 22-57.3 22.4H199.7m265-22.6h108v22.6h-108zm-285 .2v22.3H26.5v-22.6c0 .2 153.2.3 153.2.2z" class="st0"/></svg>
