<svg xmlns="http://www.w3.org/2000/svg" id="Layer_1" viewBox="0 0 175 40"><style>.st0{fill-rule:evenodd;clip-rule:evenodd;}</style><path d="M22.3 5.9c8.4 0 15 6.8 15 15 0 8.3-6.7 15-15 15s-15-6.7-15-15 6.7-15 15-15zM22.2 24L18 10.1l-5.4 17.8h1s.7-3.1 1.8-5c.6-1 1.5-1.8 2.8-1.8.9 0 1.6.5 2.6 1.8.6.8 1.5 2.8 1.5 2.8s.9-2 1.5-2.8c.9-1.3 1.7-1.8 2.6-1.8 1.2 0 2.2.8 2.8 1.8 1.1 1.9 1.8 5 1.8 5h1l-5.4-17.8L22.2 24zm25.1 1.9l2.9-10h5.1l1.3 4.3 3.6-4.3h5.4l-2.8 10h-4l1.4-5.1-4.7 5.1h-2l-1.4-5.5-1.7 5.5h-3.1zm35.7-10h12.5l-.7 3.2h-4.3l-1.8 6.8h-3.9l1.6-6.7h-4.2l.8-3.3zm33.5 0v2.3l-.5 1.9h4.3s1-.2 1.1-1.1c.1-.8-.7-.8-.7-.8h-4.2v-2.3h6.4s2.8.2 2.5 2.6c-.3 2.4-2.8 3.1-2.8 3.1s-.2.2 0 .2c.1.1 1.1.3 1.2 1.2.1.9-.3 1.5-.3 1.8 0 .3 0 .8.4 1h-4.1s-.7-.1-.7-.9c.1-.7.1-1.4.1-1.4s-.1-.8-1.2-.7h-3l-.8 3h-3.7l2.8-10h3.2v.1zm28.2 0h3.9l-1.9 7.3h6.3l-.7 2.7h-10.2l2.6-10zm20.5 0l2.3 10h-4l-.4-1.7h-4.8l-1.2 1.7h-3.4l6.8-10 1.3 3-1.9 2.9h2.6l-.7-2.9-1.3-3h4.7zm-90.7 2.2c1.2 0 2.4.6 2.6 1.5.6 2.8-2.4 4-2 3.8-1.7.8-4.3.6-4.6-1.2-.3-1.7 1-3.3 2.1-3.7.7-.3 1.3-.4 1.9-.4v-2.6c-.8 0-1.7.1-2.4.2-3 .6-6.8 3.3-6.1 6.7.6 2.9 4.5 4.5 8.9 3.6 4.1-.8 6.9-4 6.3-6.8-.6-2.7-3.8-3.8-6.7-3.8v2.7zm29 0c1.2 0 2.4.6 2.6 1.5.6 2.8-2.4 4-2 3.8-1.7.8-4.3.6-4.6-1.2-.3-1.7 1-3.3 2.1-3.7.7-.3 1.3-.4 1.9-.4v-2.6c-.8 0-1.7.1-2.4.2-3 .6-6.8 3.3-6.1 6.7.6 2.9 4.5 4.5 8.9 3.6 4.2-.8 6.9-4 6.3-6.8-.6-2.7-3.8-3.8-6.7-3.8v2.7zm31.5 0c1.2.1 2.4.6 2.6 1.5.6 2.8-2.4 4-2 3.8-1.7.8-4.3.6-4.6-1.2-.3-1.7 1-3.3 2.1-3.7.9-.3 1.2-.4 1.9-.4v-2.6c-.8 0-1.7.1-2.4.2-3 .6-6.8 3.3-6.1 6.7.6 2.9 4.5 4.5 8.9 3.6 4.1-.8 6.9-4 6.3-6.8-.6-2.7-3.8-3.8-6.7-3.8v2.7z" class="st0"/></svg>