<svg xmlns="http://www.w3.org/2000/svg" width="290" height="240"><path fill="#1a5dad" d="M252.5 120c0 64.62-53.22 117.8-117.9 117.8-64.7 0-117.93-53.2-117.93-117.8 0-64.62 52-117.8 117.92-117.8C198 2.2 252.5 55.38 252.5 120"/><path fill="#FFF" d="M161.2 182c50.37 20.72 41.63-31.65 14.77-71.75-15.22-22.7-35.07-41.64-47.6-50.78-41.5-30.3-67.13-11.92-37.8 47.83 9.46 19.32 21.64 32.36 31.15 44.65 7.26 9.38 21.4 14.08 16.42 18.54-5.62 5-19.2-17.2-19.2-17.2-10.05-12.1-19.62-25.1-29.48-42.8-22.54-40.5-19.3-81.9 21.5-63.9 34.6 15.3 67.68 58.1 80.97 88.6 6.14 14 22.88 69.6-30.44 47.2"/><path fill="#ee293d" d="M4.53 154.92c22.16-14.76 43.17-24.3 78.93-36.1 50.25-16.6 88.07-27.76 134.47-51.08 20.77-10.44 56.8-33.85 69.7-54.2-3.86 7.88-15.8 23.2-21.22 30-62.9 78.82-197 74.35-261 112.2"/><path fill="#FFF" d="M36.68 97.3c20.28.16 18.3-.04 18.53.2.4 0 16.2 27.28 16.2 27.52 0 .1-.1-9.7-.1-21.97 0-1.42-3.9-5.55-3.8-5.55 5.8 0 13.4.12 13.4.12-2.8 3.3-3.4 3.03-3.4 5.08-.1 6.57-.1 18.7 0 32.36 0 2.04 1.6 2.83 4 6.37H62.9c-6.04-10.03-17.08-28.87-17.03-28.8.1.07-.24 11.8.12 21.24.1 3.13 1.5 4.14 4.1 6.97 0 0 3-.08-14.6.12 5.3-2.83 4.6-6.38 4.6-6.5-.2-13.05-.1-24.2-.1-31.4 0-1.2-.1-1.07-3.8-5.56m63.7 19.96c1.7-5.9 3.1-11.2 3.8-14.64.1-.6-1.3-2.72-3.6-4.84l-.2-.33c10.8.03 22.2.1 22.2.1 2.9 7.2 9.6 27.4 14.7 39.8 1.3 3.26 3.6 3.88 3.6 3.88-9.3-.1-26.4-.03-26.3-.1 4.6-4.15 4-4.15 2-10.17H102c-2.95 6.85.93 10.06 1.4 10.04-3.26.17-14.4 0-14.4 0 6.03-4.25 5.68-5.55 5.68-5.55 1.67-5.9 3.6-12.35 5.27-18.2h6l-2.55 8.16h11.47l-6.4-16.3-2.55 8.2H100m99.1.6c1.7-5.9 3.14-11.2 3.83-14.6.1-.5-1.3-2.7-3.54-4.8l-.2-.3 22.2.1c3 7.2 9.7 27.4 14.8 39.8 1.4 3.3 3.7 3.9 3.7 3.9-9.2-.1-26.3 0-26.2-.1 4.6-4.1 4-4.1 2-10.1h-14.5c-2.9 6.9.9 10.1 1.4 10-3.3.2-14.5 0-14.5 0 6-4.2 5.7-5.5 5.7-5.5 1.6-5.9 3.6-12.3 5.2-18.2h5.9l-2.6 8.2H214l-6.37-16.3-2.54 8.2h-6m-18.7-9.7c-.3-8.4 0-11.1 0-11.1-3.7 3-1.8 2.6-11 1.1-26.4-4.4-28.4 20.3-14 25.8 12.1 4.7 16.3 5.6 14.5 9.9-.6 1.5-11.6 6.7-23-3.9l.2 14.7c1.4-1.4 5.3-4.1 5.3-4.1.1 0 12.3 5.4 23.3-.2 16.9-8.6 8.5-22.6-9.6-28.1-15-4.6-.8-15.3 14.1-3.9m-44-95.7c0 .6-.5 1-1 1-.6 0-1-.4-1-.9s.4-1 .9-1 .9.4.9.9m6.6 14.5c0 .7-.6 1.2-1.2 1.2-.7 0-1.2-.5-1.2-1.2 0-.6.5-1.2 1.2-1.2.6 0 1.1.6 1.1 1.2M160 51.3c0 .6-.53 1.2-1.2 1.2-.63 0-1.16-.6-1.16-1.2 0-.7.5-1.2 1.16-1.2.6 0 1.2.5 1.2 1.2m-27.8-15.6c0 .5-.5 1-1 1s-1-.5-1-1 .4-1 .9-1 1 .4 1 .93m10.4 5.5c0 .5-.4.9-.9.9s-1-.42-1-.94.46-1 1-1 .94.4.94.9m-13.1-15.2c0 .66-.52 1.2-1.17 1.2-.64 0-1.2-.54-1.2-1.2 0-.6.56-1.2 1.2-1.2.66 0 1.2.6 1.2 1.2m-15.6 9.54c0 .5-.4.9-.9.9s-.9-.4-.9-.9.5-.97 1-.97 1 .44 1 .97m2.8 1.94c0 .5-.4.92-.95.92-.54 0-1-.4-1-.93s.46-.93 1-.93.97.4.97.92m2.8 1.9c0 .52-.5 1-1 1s-1-.47-1-1c0-.5.4-.94.9-.94s1 .47 1 1m-4.3 3.7c0 .5-.4.95-.96.95s-.97-.4-.97-.9.4-.9.94-.9 1 .5 1 1M92.8 58.6c0 .6-.45 1-.98 1s-.95-.4-.95-.9.47-.9 1-.9.93.46.93 1m4.14 5c0 .52-.43.95-.96.95s-1-.44-1-.97.4-.96.95-.96.96.43.96.95m-3.3 81.07c0 .5-.4.96-1 .96s-1-.42-1-.95.4-1 .9-1 .9.44.9.97m.6 22.38c0 .64-.6 1.17-1.2 1.17-.7 0-1.2-.52-1.2-1.2 0-.64.5-1.2 1.2-1.2.6 0 1.2.56 1.2 1.2m-12.7 11.4c0 .5-.5.97-1 .97s-1-.45-1-.97c0-.6.4-1 .9-1s1 .4 1 .9M66.1 183c0 .66-.53 1.2-1.18 1.2-.67 0-1.2-.5-1.2-1.17 0-.65.53-1.18 1.2-1.18.63 0 1.16.53 1.16 1.18M63 172.7c0 .6-.5 1.15-1.16 1.15-.67 0-1.2-.54-1.2-1.18 0-.66.53-1.2 1.2-1.2.63 0 1.16.54 1.16 1.2m-1.75 6.56c0 .53-.44.96-.96.96s-1-.5-1-1 .4-1 .9-1 .9.4.9 1m-11.4-5.5c0 .5-.5 1-1 1s-1-.5-1-1 .4-1 .9-1 .9.4.9.9M89.3 192c0 .56-.4 1-.92 1s-1-.43-1-.96.47-.97 1-.97.96.4.96.94m11.96-8.7c0 .7-.5 1.2-1.14 1.2-.7 0-1.28-.5-1.28-1.1 0-.7.53-1.2 1.18-1.2.7 0 1.2.5 1.2 1.2m1.4 11.3c0 .6-.5 1-1 1s-.98-.4-.98-.9.45-1 1-1 1 .4 1 1m49.3-10.7c0 .56-.44 1-.97 1s-1-.43-1-.96c0-.6.4-1 .9-1s1 .4 1 .93m-22.9 8c0 .5-.4.95-.9.95s-.92-.4-.92-.9.4-.93.94-.93.93.44.93.97m61.66 11.7c0 .5-.43.96-.96.96s-.98-.4-.98-.9.43-1 .96-1 .95.5.95 1m5-45.4c0 .7-.5 1.2-1.17 1.2-.67 0-1.2-.5-1.2-1.2 0-.6.5-1.2 1.17-1.2.6 0 1.2.6 1.2 1.2m-9.5 6.4c0 .6-.5 1-1 1s-1-.4-1-.9.4-.9 1-.9.9.4.9 1m9.3 1.9c0 .68-.6 1.2-1.2 1.2-.7 0-1.2-.5-1.2-1.16 0-.66.5-1.2 1.2-1.2.6 0 1.2.53 1.2 1.2m-9.3 11.4c0 .5-.5.95-1 .95s-1-.4-1-.96c0-.6.4-1 .9-1s.9.4.9 1m24.2-26.2c0 .5-.5 1-1 1s-1-.5-1-1 .46-1 1-1 1 .4 1 .9m2.3 5.85c0 .63-.5 1.16-1.1 1.16-.7 0-1.25-.5-1.25-1.2 0-.6.5-1.2 1.2-1.2.6 0 1.1.6 1.1 1.2m16.6 7c0 .7-.6 1.2-1.2 1.2-.7 0-1.2-.5-1.2-1.1 0-.63.5-1.2 1.2-1.2.6 0 1.1.57 1.1 1.2m-16.2 12c0 .57-.43 1-.95 1-.57 0-1-.42-1-.95s.43-.96.96-.96c.5 0 .97.4.97.94m10.73-10c0 .58-.46 1-1 1s-.95-.42-.95-.95.44-.93.96-.93.98.42.98.95m-1.97 15.5c0 .53-.4.96-.9.96s-1-.42-1-.95.4-.95 1-.95.9.4.9.94m4.5-25.75c0 .8-.7 1.44-1.5 1.44s-1.5-.66-1.5-1.5c0-.8.7-1.5 1.5-1.5s1.5.7 1.5 1.5"/><path fill="#FFF" d="M224.36 152.26l-.44 4.06-4.03.44 4 .44.4 4.2.4-4.2 4-.5-4.1-.38-.5-4.06m-8.9 30.18c0 .8-.7 1.48-1.5 1.48s-1.5-.67-1.5-1.48c0-.8.7-1.48 1.5-1.48s1.5.67 1.5 1.48"/><path fill="#FFF" d="M214.02 177.94l-.44 4.06-4.03.44 4.06.45.5 4.2.5-4.2 4-.6-4-.4-.4-4.1M105.3 60.5c0 .82-.7 1.48-1.5 1.48s-1.48-.67-1.48-1.47c0-.8.64-1.4 1.45-1.4.8 0 1.48.7 1.48 1.5"/><path fill="#FFF" d="M103.78 56l-.44 4.06-4.03.45 4.1.5.5 4.2.5-4.2 4-.5-4-.3-.4-4M160.5 25c0 .8-.67 1.5-1.5 1.5-.8 0-1.46-.66-1.46-1.5 0-.8.65-1.44 1.46-1.44.8 0 1.43.68 1.43 1.5"/><path fill="#FFF" d="M158.75 20.28l-.44 4.06-4 .44 4.1.44.5 4.2.5-4.2 4-.5-4-.38-.4-4.06m-65.4 185.8c0 .8-.7 1.47-1.5 1.47s-1.4-.67-1.4-1.48c0-.8.7-1.48 1.5-1.48s1.5.6 1.5 1.4"/><path fill="#FFF" d="M91.96 201.56l-.44 4.06-4.03.44 4 .45.4 4.2.4-4.2 4-.5-4.1-.3-.5-4"/><path fill="#ee293d" d="M287.62 13.54c-17.97 53.3-89.96 94.48-150.56 133.78-36.56 23.72-72.86 51-97.84 74.24-6.6 6.13 1.34-2.3-1.2.3 34.9-40.16 75-64.07 97.17-79.13 37.4-25.46 58.8-31.88 123.4-91.46M19.5 145.62c-6.46 3.16-12.24 6.28-17.14 9.32l2.98 1.1c4.3-2.65 9.44-5.4 14.86-7.84"/><path fill="#ee293d" d="M53.6 205.28c-5.9 5.15-12 10.64-18.13 16.4l-.27 4.08c5.6-5.77 12.48-12 20.42-18.6"/><path fill="#FFF" d="M161.2 182c50.37 20.72 41.63-31.65 14.77-71.75-15.22-22.7-34-40.74-47.6-50.78-15.87-11.72-17.42-12.7-17.42-12.7 35.46 16.84 67.68 58.17 80.97 88.62 6.14 14 22.88 69.6-30.43 47.2"/></svg>