<svg xmlns="http://www.w3.org/2000/svg" id="Layer_1" viewBox="0 0 192.8 47"><style>.st0{fill-rule:evenodd;clip-rule:evenodd;fill:#E92A35;} .st1{fill-rule:evenodd;clip-rule:evenodd;fill:#040607;}</style><path d="M185.4 7.2c0-1 .8-1.8 1.8-1.8s1.8.8 1.8 1.8c0 1.1-.8 1.9-1.8 1.9s-1.8-.8-1.8-1.9zm1.8 2.4c1.3 0 2.3-1.1 2.3-2.3 0-1.3-1-2.4-2.3-2.4-1.3 0-2.3 1.1-2.3 2.4 0 1.2 1 2.3 2.3 2.3zm-.2-3.7h.6c.5.2.5.6.5.8v.2c0 .2-.2.3-.3.5h-.2l.6 1.1h-.6l-.5-1h-.3v1h-.5V5.9h.7zm.2 1.1c.2 0 .3 0 .3-.2.2 0 .2-.2.2-.2 0-.2-.2-.3-.2-.3h-.7V7h.4zM82.5 19.8h11.7l-6.1-10L76.7 28h-5.2L85.3 6.2c.7-.8 1.6-1.5 2.8-1.5 1 0 1.9.6 2.6 1.5l14 21.8h-5.2L97 23.9H85l-2.5-4.1zm53.8 4.1V5.1h-4.4v20.6c0 .6.2 1.1.6 1.6.3.3 1 .6 1.6.6h20l2.6-4.1h-20.4v.1zm-72.8-3.4c4.2 0 7.8-3.4 7.8-7.8 0-4.2-3.6-7.6-7.8-7.6H44.4V28h4.4V9.1h14.5c2.1 0 3.7 1.6 3.7 3.6 0 2.1-1.6 3.7-3.7 3.7H50.9L64 28h6.3l-8.8-7.5h2zM17.2 28c-6.3 0-11.4-5.2-11.4-11.5s5-11.4 11.4-11.4h13.3c6.3 0 11.4 5 11.4 11.4 0 6.3-5 11.5-11.4 11.5H17.2zm13-4.1c4.1 0 7.5-3.4 7.5-7.5s-3.4-7.3-7.5-7.3H17.6c-4.1 0-7.5 3.2-7.5 7.3s3.4 7.5 7.5 7.5h12.6zm83.5 4.1c-6.3 0-11.4-5.2-11.4-11.5s5-11.4 11.4-11.4h15.8l-2.6 4.1h-12.8c-4.1 0-7.5 3.2-7.5 7.3s3.4 7.5 7.5 7.5h15.8l-2.4 4.1h-13.8V28zm53.8-4.1c-3.4 0-6.2-2.3-7.1-5.4h18.8l2.6-4.1h-21.4c1-3.1 3.7-5.4 7.1-5.4h13l2.6-4.1h-15.9c-6.2 0-11.4 5-11.4 11.4 0 6.3 5.2 11.5 11.4 11.5h13.6l2.6-4.1h-15.9v.2z" class="st0"/><path d="M10.2 37.4c-.2-.8-.5-1.1-1.3-1.1-.5 0-1.1.3-1.1 1 0 .6.6.8 1.3 1 1.1.3 2.8.6 2.8 2.1 0 1.8-1.5 2.4-3.1 2.4s-2.9-.6-2.8-2.6h1.6c-.1.8.4 1.4 1.2 1.4.7 0 1.5-.3 1.5-1 0-1-1-1-1.6-1.1-1.1-.3-2.4-.6-2.4-1.9 0-1.8 1.5-2.4 3.1-2.4 1.3 0 2.4.8 2.4 2.3h-1.6v-.1zm6.1-1.2c1.5 0 1.8 1.3 1.8 2.6s-.3 2.8-1.8 2.8c-1.6 0-1.9-1.5-1.9-2.8-.1-1.3.2-2.6 1.9-2.6zm0 6.5c2.4 0 3.4-1.8 3.4-3.9 0-2.1-1-3.7-3.4-3.7s-3.6 1.6-3.6 3.7c0 2.2 1.1 3.9 3.6 3.9zm4.5-.1v-7.3h4.7v1.1h-3.1v1.8h3v1.3h-3v3.1h-1.6zm5.2-7.3h5.9v1.1h-2.2v6.2h-1.6v-6.2H26v-1.1zm10.2 0H38l1.3 5.5 1.2-5.5h1.6l-2 7.3h-1.6l-1.4-5.7-1.3 5.7H34l-1.8-7.3h1.6l1.1 5.5 1.3-5.5zm8 4.5l1-3.1 1.1 3.1h-2.1zm-1 2.8l.5-1.6h2.9l.5 1.6h1.6l-2.6-7.3h-1.8l-2.6 7.3h1.5zm7.8-6.2h1.3c.8 0 1.1.3 1.1 1 0 .6-.3 1-1.1 1H51v-2zm0 3.3h1.6c.6 0 .6.5.8 1 0 .6 0 1.3.2 1.9h1.8c-.3-.5-.3-1.3-.5-1.8-.2-1-.2-1.8-1.3-1.9 1-.2 1.5-.8 1.5-1.8 0-1.5-1.3-1.8-2.4-1.8h-3.1v7.3H51v-2.9zm5.4-4.4h4.9v1.1H58v1.8h3.1v1.1H58v2h3.4v1.3h-5v-7.3zm9.1 7.3v-7.3h2.3c1.6 0 2.9.3 2.9 2.3 0 1.3-1 2.1-2.6 2.1H67v2.9h-1.5zm1.4-4.1c1 0 2.1.3 2.1-1s-1.1-1.1-2.1-1.1v2.1zm4.4.3c0-2.1 1.1-3.7 3.6-3.7 2.3 0 3.4 1.6 3.4 3.7s-1.1 3.9-3.4 3.9c-2.4 0-3.6-1.7-3.6-3.9zm1.7 0c0 1.3.3 2.8 1.9 2.8 1.5 0 1.8-1.5 1.8-2.8 0-1.3-.3-2.6-1.8-2.6-1.6 0-1.9 1.3-1.9 2.6zm10-3.5h1.7l1.3 5.5 1.3-5.5h1.4l-1.9 7.3h-1.7l-1.3-5.7h-.1l-1.3 5.7h-1.8l-1.8-7.3h1.6l1.2 5.5 1.4-5.5zm6.4 0h4.8v1.1H91v1.8h3.1v1.1H91v2h3.4v1.3h-5v-7.3zm7.8 3.1h1.3c.8 0 1.1-.3 1.1-1 0-.6-.3-1-1.1-1h-1.3v2zm0 4.2h-1.5v-7.3h3.1c1.3 0 2.4.3 2.4 1.8 0 1-.5 1.6-1.5 1.8 1.3.2 1.3 1 1.3 1.9.2.5.2 1.3.5 1.8h-1.8c0-.6-.2-1.3-.2-1.9-.2-.5-.2-1-.6-1h-1.8v2.9h.1zm9.2-5.2c0-.8-.5-1.1-1.1-1.1-.6 0-1.3.3-1.3 1 0 .6.8.8 1.5 1 1 .3 2.8.6 2.8 2.1 0 1.8-1.6 2.4-3.2 2.4s-2.8-.6-2.8-2.6h1.6c-.2.8.3 1.5 1.1 1.5.7 0 1.5-.3 1.5-1 0-1-1-1-1.6-1.1-1-.3-2.4-.6-2.4-1.9 0-1.8 1.6-2.4 3.1-2.4s2.4.8 2.4 2.3h-1.6v-.2zm5.1-2.1h5.8v1.1h-2.1v6.2h-1.6v-6.2h-2.1v-1.1zm6.5 7.3v-7.3h1.4V38h2.8v-2.7h1.6v7.3h-1.6v-3.3h-2.8v3.3H118zm7.3-7.3h4.8v1.1h-3.4v1.8h3.3v1.1h-3.3v2h3.6v1.3h-5v-7.3zm8.9 0h1.5v7.3h-1.5v-7.3zm7.3 7.3l-2.8-6.2h-.1v6.2h-1.5v-7.3h2.5l2.7 5.7v-5.7h1.5v7.3h-2.3zm2.9-7.3h5.9v1.1h-2.1v6.2h-1.7v-6.2h-2.1v-1.1zm6.5 0h4.9v1.1h-3.2v1.8h3v1.1h-3v2h3.4v1.3h-5.1v-7.3zm7.8 1.1h1.3c.6 0 1.1.3 1.1 1 0 .6-.5 1-1.1 1h-1.3v-2zm0 3.3h1.6c.5 0 .6.5.6 1 .2.6.2 1.3.3 1.9h1.6c-.2-.5-.3-1.3-.3-1.8-.2-1-.2-1.8-1.3-1.9.8-.2 1.5-.8 1.5-1.8 0-1.5-1.3-1.8-2.6-1.8H157v7.3h1.6v-2.9h.1zm9.6 2.9l-2.9-6.2v6.2h-1.5v-7.3h2.5l2.7 5.7v-5.7h1.5v7.3h-2.3zm3.6-7.3h4.9v1.1h-3.3v1.8h3.1v1.1h-3.1v2h3.4v1.3h-5v-7.3zm5.5 0h6v1.1h-2.3v6.2h-1.4v-6.2h-2.3v-1.1zm9.3.6c0-.5-.3-.8-.8-.8s-1 .3-1 .8.3.6.8.6c.2.2.5.2.5.5 0 .2-.3.3-.5.3-.3 0-.5-.2-.5-.5h-.5c0 .7.5.8 1 .8s1-.2 1-.8c0-.5-.5-.6-.8-.6-.2-.2-.5-.2-.5-.3 0-.3.2-.3.3-.3.3 0 .5 0 .5.3h.5zm1.9 1.8h-.3l-.7-2.1v2.1h-.4v-2.4h.8l.5 1.8.6-1.8h.8v2.4h-.5v-2.1l-.8 2.1z" class="st1"/></svg>