<svg xmlns="http://www.w3.org/2000/svg" id="Layer_1" viewBox="0 0 144 144"><style>.st0{fill:#CE1141;} .st1{fill:#ffffff;}</style><path d="M8.7 7.9h130v129H8.7z" class="st0"/><path d="M91 67.5v-2.1h.3c1.6 0 2.4-.2 2.4-1.8v-11c0-1.6-.8-1.8-2.4-1.8h-1.2v-2.1h11.3v2.1H100c-1.8 0-2.1.2-2.1 1.7v12.7h4.6c2.2 0 3.5-.3 4.1-1.4.5-1 .8-2.1.8-3.9h2.2v7.6H91m-21 0v-2.1h1.1c1.6 0 2.3-.2 2.3-1.8v-11c0-1.6-.9-1.8-2.5-1.8h-1v-2.1h11.3v2.1h-1.4c-1.8 0-2.1.2-2.1 1.7v12.7h4.6c2.2 0 3.5-.3 4.1-1.4.6-1 .8-2.1.8-3.9h2.2v7.6H70zm-22.3 0v-2.1h1.1c1.6 0 2.5-.2 2.5-1.7V52.6c0-1.5-.9-1.7-2.5-1.7h-1.1v-2.1H68V56h-2.1c-.1-4.4-1.1-5.1-5-5.1h-5.3v5.6H57c2.4 0 2.7-.8 2.9-3.6H62v9.5h-2.2c-.2-3.2-.5-3.7-2.8-3.7h-1.4v6.5h6c3.4 0 4.2-1.6 4.5-5.3h2.1v7.6H47.7zm.8-16.6c-1.5 0-2.1.6-2.7 2.3l-5.4 14.3H37l-4.3-10.4-4.1 10.4h-3.5l-5.6-14.1c-.6-1.6-1.6-2.5-3-2.5h-.4v-2.1h9.5v2.1h-.9c-1.1 0-1.5.3-1.5.9 0 .1 0 .3.1.6 0 0 2.2 5.1 3.9 10.2h.3l3.7-9.4c-.2-1.5-.7-2.3-2.3-2.3h-1.3v-2.1h10v2.1H36c-.9 0-1.3.2-1.3.8 0 .2 0 .5.2.8 0 0 2.3 5.5 3.9 10.2h.2l3.6-9.5c.4-.7.4-1.2.4-1.5 0-.6-.5-.8-1.6-.8h-1.3v-2.1h9.1v2.1h-.7zM128.8 62c0 4.3-3.4 5.8-8.4 5.8-3 0-5.9-1.7-6.6-2.3l-.6 2h-1.9V60h2.2c.6 3.6 3 5.2 6.5 5.3 3 .1 5.1-.7 5.3-2.7.3-2.4-2.3-2.2-4.5-2.6l-3.2-.6c-4.8-.8-6.4-2.2-6.5-5.4-.1-3.4 3-5.7 7.2-5.7 2 0 4.7.3 6.7 1.9l.9-1.6h1.7v6.6h-2.1c-.5-3.6-4-4.7-7.1-4.7-2.2.1-3.7 1.4-3.7 2.9 0 1.4 1.4 1.6 3.2 1.9l3.9.7c3.9.7 7 1.6 7 6m-90 22.2c0-1.4-.2-2.7-.8-3.8-.6-1.1-1.9-1.3-4.2-1.3h-4.7v5.6h1.5c2.4 0 2.7-.4 2.7-3.3H35v9.4h-1.8c0-3.1-.4-3.8-2.7-3.8H29v4.9c0 1.6.2 1.7 1.9 1.7h2.2v2.1H21.6v-2.1h1.1c1.6 0 2.2-.2 2.2-1.7V80.8c0-1.5-.6-1.7-2.2-1.7h-1.1V77h19.3v7.3h-2.1m11.1 11.4v-2.1h2c1.1 0 1.6-.1 1.6-.8 0-.2-.1-.6-.3-.9l-.8-2.2h-7.3l-.9 2.3c-.2.4-.2.6-.2.9 0 .6.5.6 1.5.6h2v2.1h-9.8v-2.1h.9c1.5 0 1.9-.5 2.5-1.8l6.3-14.8H52l6 14.8c.5 1.4 1.2 1.8 2.2 1.8h.8v2.1H49.9m-1-15.3L46 87.5h5.7l-2.8-7.2z" class="st1"/><path d="M82.2 91.3c0 3.4-1.6 4.8-3.8 4.8-2.6 0-4.3-.7-4.4-3.3l-.1-2.2c-.1-3.1-1.1-3.8-4.4-3.8h-1.9v5c0 1.6.2 1.7 1.9 1.7h1.7v2.1H59.7v-2.1h1.7c1.1 0 2-.4 2-1.8v-11c0-1.5-.2-1.7-1.9-1.7H60v-2.1h12.9c4.8 0 7 1.4 7 4.5 0 2.7-2.1 4.4-5.7 4.8 3.3.8 3.8 2 4 4.5v1.2c.1 1.1.5 1.6 1.1 1.6 1.1-.1 1.2-.9 1.1-3.1h1.8v.9m-6.7-9.4c0-2.2-1.3-2.8-3.9-2.8h-4v5.7h4.1c2.6-.1 3.8-.9 3.8-2.9zm23.4 1c-.9-2.8-2.8-4.1-5.9-4.1-3.1 0-5.5 2.5-5.4 7.3 0 4.9 1.9 7.5 5.4 7.5 2.5 0 4.8-1.3 4.8-3.4v-1c0-1.3-.3-1.3-2.1-1.3h-.9v-2.2h8.7v2.2h-.7c-1.4 0-1.6-.1-1.6 1.5v6.3h-1.5l-1-1.6c-1.7 1.4-4.2 2-6.4 2-2.6 0-4.8-.9-6.5-2.7-1.8-1.9-2.9-4.4-2.9-7.3 0-2.9.9-5.2 2.8-7.1 1.6-1.6 4.1-2.5 6.6-2.5 2.1 0 4.6.6 6 2l1-1.9h1.5v6.3h-1.9M116 96c-6.2 0-11.1-3.9-11.1-9.8s4.8-9.7 11-9.7 10.9 3.8 10.9 9.8c.2 5.8-4.6 9.7-10.8 9.7m6.4-9.7c0-4.9-2.7-7.5-6.4-7.5s-6.4 2.6-6.4 7.5 2.8 7.5 6.4 7.5c3.6 0 6.3-2.6 6.4-7.5z" class="st1"/></svg>
