<?xml version="1.0" encoding="UTF-8"?><!DOCTYPE svg PUBLIC "-//W3C//DTD SVG 1.1//EN" "http://www.w3.org/Graphics/SVG/1.1/DTD/svg11.dtd"><svg version="1.1" xmlns="http://www.w3.org/2000/svg" width="160" height="160" viewBox="0 0 160 160"><g transform="scale(1,1) rotate(0,80,80)" fill-opacity="1">
	<g><circle cx="80" cy="80" r="80" fill="#FFFFFF" display="none"/></g>
	<g>
		<g id="ringback" display="none"><path fill="#FF0100" d="M80,0C35.817,0,0,35.817,0,80c0,44.184,35.817,80,80,80c44.184,0,80-35.816,80-80C160,35.817,124.184,0,80,0z M80,155.5c-41.697,0-75.5-33.804-75.5-75.5C4.5,38.303,38.303,4.5,80,4.5c41.696,0,75.5,33.803,75.5,75.5C155.5,121.696,121.696,155.5,80,155.5z"/></g>

		<g id="ringfore" display="inline" transform="rotate(173,80,80)">
			<path fill="#FF0100" d="M39.5,16.2v-5.3c-5.7,3.4-11.1,7.6-16,12.5c-5,5-9.1,10.3-12.5,16h5.3c2.9-4.5,6.3-8.8,10.3-12.8S34.9,19.2,39.5,16.2z"/>
			<path fill="#FF0100" d="M15.6,40.4h-5.2c-2.8,5-5.1,10.3-6.7,15.8l3.2,5.5C8.7,54.1,11.6,47,15.6,40.4z"/>
			<path fill="#FF0100" d="M97.4,2C91.9,0.8,86.1,0.1,80,0C65.2,0.3,52.1,3.8,40.5,10.4v5.2C52,8.5,65.1,4.8,80,4.5c7.3,0.1,14.1,1.1,20.5,2.9L97.4,2z"/>
			<path fill="#FF0100" d="M129.3,22.8l2.3-3.9c-9.5-8.2-20.5-13.7-32.8-16.6l3.1,5.5C112.1,10.7,121.3,15.7,129.3,22.8z"/>
			<path fill="#FF0100" d="M132.3,19.5l-2.2,3.9c1.1,1,2.2,2.1,3.3,3.2c9,9,15.3,19.4,18.8,31.4l5.5,3.1c-3.4-14.5-10.5-27-21.1-37.7C135.2,22.1,133.8,20.8,132.3,19.5z"/>
			<path fill="#FF0100" d="M158,62.4l-5.4-3.1c1.8,6.5,2.8,13.4,2.9,20.7c-0.1,6-0.8,11.7-2,17.1l3.2,5.6c2-7.1,3.1-14.7,3.3-22.7C159.9,73.8,159.2,68,158,62.4z"/>
			<path fill="#FF0100" d="M156.3,104l-3.1-5.5c-3.4,13.4-9.9,25-19.8,34.9c-4,4-8.3,7.4-12.9,10.4v5.2c5.8-3.4,11.1-7.5,16.1-12.5C146,127.2,152.6,116.3,156.3,104z"/>
			<path fill="#FF0100" d="M119.5,149.6v-5.2c-11.4,7-24.6,10.7-39.5,11.1c-7.3-0.2-14.2-1.2-20.7-3l3.1,5.4c5.6,1.2,11.5,1.9,17.6,2.1C94.8,159.6,108,156.2,119.5,149.6z"/>
			<path fill="#FF0100" d="M6.5,63.1l-3.2-5.6C1.3,64.5,0.2,72,0,80c0.4,14.7,3.8,27.9,10.4,39.4h5.2C8.6,108,4.9,94.9,4.5,80C4.7,74.1,5.3,68.5,6.5,63.1z"/>
			<path fill="#FF0100" d="M16.2,120.4H11c3.3,5.8,7.5,11.2,12.5,16.1c4.9,5,10.2,9.1,16,12.5l-0.1-5.3c-4.5-2.9-8.8-6.3-12.8-10.3C22.6,129.3,19.1,125,16.2,120.4z"/>
			<path fill="#FF0100" d="M40.4,144.4l0.1,5.2c6.3,3.6,13.2,6.3,20.6,8l-3.2-5.5C51.7,150.3,45.9,147.7,40.4,144.4z"/>
		</g>

		<g id="centersign" transform="translate(0,0) scale(1,1)">
			<g id="signstar" display="inline">
				<polygon fill="#FF0100" points="79.5,58.5 84.633,73.722 100.563,73.722 87.818,83.277 92.42,98.5 79.5,89.475 66.58,98.5 71.182,83.277 58.438,73.722 74.367,73.722"/>
			</g>
			<g id="signparty" display="none"><path fill="#FF0100" d="M80.448,58.475c10.11,3.89,16.197,16.188,10.938,26.069L78.592,71.51l4.953-4.941l-3.097-3.153c-1.651,1.683-4.333,1.999-6.19,1.261l-9.699,9.985l5.572,5.571l3.61-3.784l12.792,13.035c-6.292,3.574-14.958,2.418-21.354-4.311l-2.992,3.156c0.826,1.258,1.65,2.414,2.579,3.466c0,0.104-0.309,0.316-0.309,0.316c-0.207,0-0.413-0.105-0.517-0.105c-1.65,0-2.993,1.47-2.993,3.153c0,1.682,1.342,3.047,2.993,3.047s3.095-1.365,3.095-3.047c0-0.209-0.103-0.421-0.103-0.525l0.412-0.525c7.429,5.045,15.477,5.677,24.142,0.423l3.508,3.675l4.953-4.938l-3.612-3.682C106.654,73.717,92.831,58.054,80.448,58.475"/></g>
		</g>
	</g>
<g><g transform="rotate(-120,80,80)"><g transform="translate(72.2,8) scale(0.015234375000000001,0.02361328125)"><g transform="scale(1,-1) translate(0,-820)"><path d="M698 333H532V718Q532 728 539 729Q564 736 564 751Q564 761 543 770Q489 785 427 790Q420 791 420 786Q420 777 420 769V-119H109H101L40 -112Q27 -109 29 -116Q33 -135 39 -152Q40 -159 50 -155L109 -146H781H816H970V-146Q983 -146 987 -139Q990 -133 983 -125V-125Q941 -70 880 -33Q867 -26 859 -35Q828 -72 800 -109Q796 -116 781 -119H532V306H696H738H886Q899 306 903 313Q906 319 899 327V327Q857 382 796 419Q783 426 775 417Q744 380 718 343Q712 336 698 333V333V333V334V333Z" fill="#FF0100"/></g></g></g><g transform="rotate(-93.33333333333333,80,80)"><g transform="translate(72.2,8) scale(0.015234375000000001,0.02361328125)"><g transform="scale(1,-1) translate(0,-820)"><path d="M393 273H349H341L277 280Q267 281 268 276Q272 258 276 241Q277 235 284 238L349 246H388Q373 170 354 86L331 64Q324 58 335 45Q363 11 391 -22Q404 -38 412 -30L450 14H718Q715 4 712 -6Q700 -37 689 -44Q673 -51 645 -53Q617 -54 545 -45Q529 -42 525 -54Q522 -66 536 -70Q588 -92 607 -122Q623 -150 623 -176Q624 -185 636 -185Q699 -185 755 -150Q791 -126 809 -72Q821 -36 832 14H848H890H965V14Q977 14 980 22Q984 31 975 42Q951 82 920 106Q907 116 899 103Q875 72 860 48Q856 44 852 41Q848 41 845 41H838Q841 60 845 79Q857 161 866 246H885H973Q985 246 988 254Q991 261 983 273Q962 310 934 333Q924 340 915 330Q893 302 877 279Q874 275 870 273Q869 273 869 273Q873 340 879 411Q880 429 897 435Q924 444 924 458Q925 474 901 491Q868 516 822 544Q806 554 795 543Q773 518 760 503Q756 497 739 497H561Q504 525 454 541Q461 554 471 567Q484 592 502 626H791H833H974Q987 626 991 633Q994 639 987 647V647Q947 701 888 736Q876 743 868 734Q837 700 812 662Q808 656 801 653Q797 653 794 653H515Q522 671 533 690Q539 708 550 709Q577 710 579 726Q582 739 565 749Q546 759 505 774Q468 787 442 792Q429 796 427 779Q423 746 411 684Q404 642 388 584Q375 535 353 493Q331 450 309 422Q302 415 306 408Q310 401 321 408Q339 418 364 440Q392 462 419 494Q420 495 422 498Q418 422 405 341Q399 308 393 273V273V273ZM755 246Q748 179 740 122Q733 77 725 41H456Q480 147 499 246H755V246ZM504 273Q522 375 533 470H754Q764 471 766 467Q767 463 770 429Q764 347 758 273H504V273ZM596 437Q608 416 611 388Q612 363 607 339Q603 320 610 305Q620 289 643 285Q667 281 682 301Q692 317 691 339Q690 366 670 395Q651 423 609 451Q602 457 597 451Q593 444 596 437V437V437ZM583 218Q596 193 598 163Q599 135 593 108Q587 89 595 71Q605 53 627 49Q651 45 666 64Q679 80 679 104Q678 134 659 166Q640 197 597 231Q590 237 585 231Q579 224 583 218V218V218ZM122 769Q152 744 170 705Q186 668 190 630Q193 600 211 582Q230 566 257 570Q287 574 297 603Q306 631 295 661Q282 698 242 732Q203 766 132 790Q122 794 119 786Q115 776 122 769V769V769ZM38 525Q63 501 80 465Q93 431 97 395Q98 368 116 350Q134 334 161 338Q191 342 201 371Q210 396 200 425Q187 459 151 492Q114 523 48 545Q38 549 34 542Q31 532 38 525V525V525ZM317 580L131 171Q127 161 110 161Q79 160 43 165Q30 166 28 160Q27 153 35 148Q99 133 121 95Q128 35 113 -36Q97 -115 126 -156Q144 -178 175 -175Q209 -171 225 -133Q247 -78 220 5Q207 45 206 98Q203 128 211 158L336 575Q339 584 336 589Q332 593 328 591Q322 590 317 580V580V580V581V580Z" fill="#FF0100"/></g></g></g><g transform="rotate(-66.66666666666666,80,80)"><g transform="translate(72.2,8) scale(0.015234375000000001,0.02361328125)"><g transform="scale(1,-1) translate(0,-820)"><path d="M777 645H545Q558 655 565 674Q569 695 559 717Q546 744 514 765Q483 787 429 798Q419 802 415 793Q412 783 420 776Q439 758 451 732Q461 707 464 680Q465 661 478 647Q479 646 480 645H109H101L40 652Q27 655 29 648Q33 629 39 612Q40 605 50 609L109 618H777H812H966V618Q979 618 983 625Q986 631 979 639V639Q937 694 876 731Q863 738 855 729Q824 692 796 655Q792 648 777 645V645V645ZM456 410V293H321Q264 324 215 339Q205 343 204 336Q205 332 205 329V-44Q204 -65 212 -71Q225 -81 247 -81Q275 -80 298 -67Q316 -55 316 -28V265L317 266H456V-141Q456 -166 474 -176Q508 -192 542 -179Q567 -169 568 -141V266H698Q710 266 709 246V54Q709 38 697 30Q690 26 679 24Q669 23 628 25Q615 26 611 17Q608 7 620 2Q654 -2 676 -18Q697 -33 703 -70Q704 -83 712 -82Q745 -83 781 -64Q818 -42 820 21V225Q820 241 833 244Q857 253 857 265Q857 278 846 289Q836 299 817 310Q869 335 934 374Q941 377 948 377Q966 376 973 386Q977 396 966 408Q920 447 863 474Q854 478 846 475Q824 462 808 445Q802 441 792 437H621Q676 474 719 529Q731 544 742 545Q763 549 763 563Q763 579 735 586Q684 601 631 610Q622 611 622 600Q613 524 583 437H414Q426 446 433 463Q440 487 430 511Q417 542 385 569Q351 596 292 614Q282 618 279 610Q275 600 282 593Q304 572 318 541Q330 511 332 481Q333 457 347 442Q350 441 353 437H237H221L179 440Q178 452 176 462Q175 471 170 471Q166 471 163 464Q145 418 126 399Q107 378 77 366Q47 356 36 325Q26 297 38 274Q53 252 81 247Q111 246 135 264Q166 295 176 350Q180 378 181 406L237 410H456V410ZM568 410H816Q807 370 791 327Q776 336 758 345Q740 352 733 342Q720 323 708 302Q704 295 689 293H568V410V410V411V410Z" fill="#FF0100"/></g></g></g><g transform="rotate(-40,80,80)"><g transform="translate(72.2,8) scale(0.015234375000000001,0.02361328125)"><g transform="scale(1,-1) translate(0,-820)"><path d="M177 134H392H434H509V134Q521 134 524 142Q528 151 519 162Q495 202 464 226Q451 236 443 223Q419 192 404 168Q401 165 397 161Q393 161 390 161V326H403V312Q403 297 409 289Q415 280 433 280Q460 281 473 289Q485 296 486 312V480Q486 490 494 494Q509 500 509 509Q509 516 500 524Q466 549 427 562Q421 563 418 561Q406 554 396 542Q392 538 386 537V686H408H477V686Q489 686 492 694Q496 703 487 714Q465 751 435 775Q423 785 415 772Q391 744 377 720Q374 717 370 713Q366 713 363 713H208Q148 758 84 792Q80 793 80 792Q80 791 81 789L80 211Q81 186 76 177L50 138Q46 131 57 124Q91 105 127 86Q140 79 145 88L177 134V134ZM183 161Q183 168 184 177V686H303V537H292Q252 558 218 568Q211 571 210 566Q211 563 211 561V303Q210 288 216 283Q226 276 242 275Q264 276 281 286Q294 295 294 315V326H307V161H183V161ZM294 507L309 510H392Q398 514 403 509V353H294V507V507ZM645 721Q594 746 551 756Q542 757 542 750Q542 741 542 734V228Q542 200 556 169Q572 139 605 125Q642 109 725 108Q867 109 921 126Q973 144 973 179Q973 213 936 226Q920 236 919 269Q918 302 917 335Q916 345 906 346Q899 346 895 334Q888 303 877 267Q865 233 849 223Q836 216 812 213Q790 212 721 211Q682 211 664 224Q649 237 649 268V438H793V418Q793 397 801 386Q810 374 833 374Q869 377 887 387Q903 397 904 417V649Q904 662 914 667Q935 676 935 688Q935 698 923 708Q877 741 826 759Q819 762 814 758Q801 745 788 728Q782 721 776 721H657H645V721ZM649 692L657 694H782Q789 697 793 688V465H649V692V692ZM198 45Q173 -7 147 -30Q120 -52 85 -64Q57 -71 44 -99Q31 -124 41 -146Q54 -168 79 -174Q107 -178 131 -163Q168 -135 190 -78Q212 -20 210 43Q210 50 205 51Q201 52 198 45V45V45ZM309 34Q331 6 340 -34Q347 -70 344 -105Q341 -133 354 -153Q369 -172 395 -173Q423 -174 439 -149Q452 -127 448 -96Q442 -59 413 -21Q383 16 323 51Q314 58 309 50Q305 41 309 34V34V34ZM532 37Q560 9 576 -32Q589 -72 591 -111Q592 -142 610 -162Q626 -180 653 -177Q681 -176 693 -149Q705 -121 697 -89Q687 -49 650 -12Q613 25 544 57Q534 61 530 54Q526 44 532 37V37V37ZM770 38Q801 11 822 -31Q841 -70 845 -111Q849 -142 869 -162Q888 -178 913 -174Q941 -170 951 -142Q961 -112 950 -80Q937 -40 895 -4Q855 32 780 58Q770 62 767 54Q763 44 770 38V38V38V39V38Z" fill="#FF0100"/></g></g></g><g transform="rotate(-13.333333333333329,80,80)"><g transform="translate(72.2,8) scale(0.015234375000000001,0.02361328125)"><g transform="scale(1,-1) translate(0,-820)"><path d="M716 165V-140Q716 -161 733 -172Q767 -188 801 -175Q826 -162 827 -135V188L985 223Q992 224 994 234Q994 241 985 248Q936 279 887 292Q877 296 872 286Q853 261 838 228Q834 221 828 219L827 218L828 706Q828 719 838 722Q863 729 863 746Q863 762 833 769Q775 779 723 784Q716 784 716 778Q716 774 717 766L716 194L480 141L417 138Q407 137 412 129Q419 119 428 106Q431 102 437 104L486 116L716 165V165ZM513 725Q540 698 555 659Q568 622 570 585Q570 557 588 537Q606 519 633 522Q661 525 674 553Q684 580 676 610Q664 647 628 682Q592 718 524 745Q514 749 510 742Q506 732 513 725V725V725ZM488 437Q513 409 528 368Q540 331 539 293Q539 263 556 243Q572 225 600 226Q630 227 643 255Q655 282 647 313Q637 352 603 388Q567 425 500 456Q490 462 486 454Q482 444 488 437V437V437ZM304 365Q323 346 339 315Q355 279 360 241Q364 211 383 193Q401 178 426 183Q453 187 462 214Q471 241 460 271Q447 308 408 341Q371 374 304 396V446H337H462V446Q475 446 479 453Q482 459 475 467V467Q441 515 389 547Q379 553 371 545Q343 514 319 481Q315 477 304 473V665Q341 675 377 685Q390 689 400 687Q425 683 430 695Q436 708 416 724Q376 755 325 778Q318 782 307 773Q268 739 202 707Q126 668 38 639Q28 636 29 628Q30 621 44 622Q90 625 181 640Q185 641 192 641V473H105H97L36 480Q23 483 25 476Q29 457 35 440Q36 433 46 437L105 446H192V420Q167 311 125 195Q76 78 43 22Q39 16 42 9Q46 5 56 9Q96 34 133 83Q172 135 192 203V-137Q192 -162 210 -172Q244 -188 278 -175Q303 -165 304 -137V365V365V366V365Z" fill="#FF0100"/></g></g></g><g transform="rotate(13.333333333333343,80,80)"><g transform="translate(72.2,8) scale(0.015234375000000001,0.02361328125)"><g transform="scale(1,-1) translate(0,-820)"><path d="M665 -34Q686 -56 712 -78Q773 -130 866 -178Q879 -185 884 -175Q896 -147 922 -119Q949 -91 993 -79Q1003 -78 1002 -70Q1001 -63 992 -62Q934 -55 853 -17Q802 7 752 38Q786 72 816 108Q874 181 916 297Q920 310 931 314Q958 321 960 332Q961 344 950 354Q919 384 862 408Q847 415 840 406Q827 394 814 378Q807 368 798 369H728V554H768H803H950V554Q963 554 967 561Q970 567 963 575V575Q923 629 864 664Q852 671 844 662Q813 628 787 590Q783 584 775 581Q771 581 768 581H728V722Q728 732 735 733Q760 740 760 755Q760 765 739 774Q685 789 623 794Q616 795 616 790Q616 781 616 773V581H481H473L412 588Q399 591 401 584Q405 565 411 548Q412 541 422 545L481 554H616V369H493L425 375Q415 376 415 370Q419 352 424 335Q425 331 438 334L493 342H499Q509 267 541 176Q566 101 604 43Q611 33 619 21Q570 -24 506 -67Q406 -125 296 -163Q287 -166 288 -172Q289 -178 301 -177Q356 -171 463 -136Q563 -103 652 -43Q658 -39 665 -34V-34V-34ZM586 200Q543 270 522 342H802Q808 343 809 340Q810 337 807 323Q785 244 743 173Q715 128 683 89Q623 140 586 200V200V200ZM267 258Q337 306 391 361Q395 367 391 372Q387 376 381 372Q326 344 267 321V502H287H381Q393 502 396 510Q399 517 391 529Q369 566 339 591Q327 601 319 588Q295 560 280 536Q277 532 273 529Q269 529 267 529V728Q267 737 275 739Q297 746 298 760Q298 776 269 781Q212 791 164 794Q157 795 157 785Q156 776 157 769L156 529H105H97L33 536Q23 537 24 532Q28 514 32 497Q33 491 40 494L105 502H156V286Q102 273 67 270Q51 269 24 265Q15 264 18 254Q37 196 64 141Q73 123 87 127Q99 131 97 150Q96 160 106 165Q128 178 156 191V-38Q156 -48 148 -57Q141 -64 128 -63Q92 -62 54 -60Q45 -60 44 -70Q43 -79 54 -82Q94 -100 110 -125Q123 -146 122 -171Q121 -175 131 -177Q195 -176 231 -146Q267 -116 267 -78V258V258V259V258Z" fill="#FF0100"/></g></g></g><g transform="rotate(40,80,80)"><g transform="translate(72.2,8) scale(0.015234375000000001,0.02361328125)"><g transform="scale(1,-1) translate(0,-820)"><path d="M400 114H721V-26Q721 -39 711 -51Q705 -58 690 -61Q674 -62 630 -63Q617 -62 613 -72Q612 -82 623 -87Q659 -94 680 -122Q698 -147 700 -169Q701 -178 708 -177Q750 -178 791 -154Q831 -129 832 -69V371Q832 389 846 397Q876 407 878 422Q879 435 866 449Q836 474 767 507Q755 513 747 504Q734 488 715 462Q708 455 691 453H404Q383 465 363 474Q397 535 429 606H768H803H950V606Q963 606 967 613Q970 619 963 627V627Q923 681 864 716Q852 723 844 714Q813 680 787 642Q783 636 775 633Q771 633 768 633H441Q460 679 480 730Q483 740 491 742Q512 745 513 757Q513 770 489 779Q434 795 378 801Q369 800 368 792Q367 785 367 777Q354 705 331 633H133H125L64 640Q51 643 53 636Q57 617 63 600Q64 593 74 597L133 606H322Q292 519 247 431Q159 268 56 162Q52 158 54 152Q57 148 64 150Q181 225 289 361V-139Q289 -158 298 -167Q308 -177 330 -178Q366 -178 385 -162Q400 -150 400 -117V114V114ZM400 141V270H721V141H400V141ZM400 297V426H711Q720 427 721 415V297H400V297V298V297Z" fill="#FF0100"/></g></g></g><g transform="rotate(66.66666666666669,80,80)"><g transform="translate(72.2,8) scale(0.015234375000000001,0.02361328125)"><g transform="scale(1,-1) translate(0,-820)"><path d="M756 139Q801 149 849 173Q907 203 949 237Q955 241 961 240Q982 234 988 244Q995 256 979 271Q939 308 890 337Q886 340 883 334Q879 327 874 319Q852 271 816 226Q783 187 745 155Q717 201 699 241Q668 314 654 390H765V382Q765 361 773 350Q782 338 805 338Q841 341 859 351Q875 361 876 381V669Q876 682 886 687Q907 696 907 708Q907 718 895 728Q849 761 798 779Q791 782 786 778Q773 765 760 748Q754 741 748 741H553H547Q486 775 435 791Q428 792 428 779L429 137V136V8Q428 -35 408 -45Q405 -46 402 -48Q395 -49 403 -66Q422 -102 447 -136Q477 -179 491 -178Q504 -177 506 -150Q506 -132 534 -116Q556 -100 580 -83Q622 -56 671 -11Q698 13 717 31Q741 -18 773 -59Q822 -119 873 -158Q882 -164 889 -151Q907 -117 932 -96Q956 -77 988 -74Q998 -73 1000 -67Q1001 -60 993 -57Q932 -36 884 0Q829 43 784 101Q769 120 756 139V139V139ZM647 246Q663 152 694 81Q698 68 705 54Q620 8 540 -17V136V292V390H632Q631 330 647 246V246V246ZM540 550H765V417H540V550V550ZM540 712L553 714H754Q761 717 765 708V577H540V712V712ZM199 458Q192 448 203 435Q219 414 245 377Q270 337 281 296Q294 247 293 208Q292 192 289 183Q285 176 282 169Q272 153 243 151Q215 150 186 156Q177 157 174 150Q171 141 181 135Q214 114 226 86Q236 61 232 30Q231 23 236 22Q282 19 318 36Q358 54 378 90Q400 127 402 176Q403 224 384 279Q368 319 333 364Q297 409 256 440Q243 450 249 460Q301 535 340 612Q362 652 374 675Q383 693 396 696Q415 699 417 712Q418 722 405 735Q368 769 322 792Q315 796 309 791Q290 775 278 757Q274 750 267 749H169Q115 779 70 793Q63 796 61 794Q60 793 59 786V-124Q59 -143 68 -151Q78 -161 99 -162Q133 -161 151 -146Q166 -136 166 -103V722H279Q260 620 230 541Q205 472 199 458V458V458V459V458Z" fill="#FF0100"/></g></g></g><g transform="rotate(93.33333333333334,80,80)"><g transform="translate(72.2,8) scale(0.015234375000000001,0.02361328125)"><g transform="scale(1,-1) translate(0,-820)"><path d="M209 466Q142 342 65 262Q59 258 62 252Q65 248 72 250Q171 305 263 418Q345 524 411 681Q414 691 422 692Q444 695 445 707Q445 720 421 729Q366 747 311 753Q302 753 301 745Q300 738 299 730Q277 597 209 466V466V466ZM706 456Q764 327 875 246Q888 236 893 247Q903 271 929 293Q956 312 989 316Q998 317 998 322Q999 329 991 333Q865 391 765 512Q674 626 650 741Q646 760 638 760Q631 759 631 743Q640 604 706 456V456V456ZM245 24Q242 21 245 24Q217 -7 197 -24Q193 -25 186 -29Q186 -28 185 -28Q176 -27 175 -32Q174 -32 174 -32L175 -33Q174 -34 175 -37Q176 -47 188 -91Q195 -121 204 -142Q210 -157 222 -156Q232 -155 237 -141Q240 -134 267 -127Q460 -93 610 -55Q667 -42 707 -31Q723 -68 732 -101Q739 -141 760 -153Q782 -166 807 -159Q829 -149 842 -123Q852 -96 846 -72Q830 -23 770 35Q688 116 593 177Q584 183 579 177Q573 171 580 163Q643 88 682 18Q686 8 693 -2Q563 -18 412 -25Q297 -29 231 -29Q307 37 396 150Q493 277 549 399Q553 406 562 406Q578 407 581 417Q584 427 565 438Q513 468 457 483Q450 484 448 478Q447 468 444 455Q416 349 347 201Q302 108 245 24V24V24V25V24Z" fill="#FF0100"/></g></g></g><g transform="rotate(120,80,80)"><g transform="translate(72.2,8) scale(0.015234375000000001,0.02361328125)"><g transform="scale(1,-1) translate(0,-820)"><path d="M153 743Q143 744 143 738Q147 722 153 704Q154 700 166 702L221 710H775Q784 711 785 699V-22Q785 -35 775 -47Q768 -54 751 -56Q735 -57 687 -55Q672 -54 669 -64Q668 -74 678 -79Q717 -86 741 -115Q760 -140 763 -165Q764 -175 772 -173Q814 -174 855 -150Q895 -125 896 -65V655Q896 673 910 681Q940 691 942 706Q943 719 930 733Q900 758 831 791Q819 797 811 788Q798 772 779 746Q772 739 755 737H221L153 743V743ZM555 553H173H165L104 560Q91 563 93 556Q97 537 103 520Q104 513 114 517L173 526H555H590H730V526Q743 526 747 533Q750 539 743 547V547Q706 599 649 633Q637 640 629 631Q599 597 574 562Q570 556 562 553Q558 553 555 553V553V553ZM304 102H529V58Q529 37 537 26Q546 14 569 14Q605 17 623 27Q639 37 640 57V313Q640 326 650 331Q671 340 671 352Q671 362 659 372Q613 405 562 423Q555 426 550 422Q537 409 524 392Q518 385 512 385H313H309Q252 416 203 431Q193 435 192 428Q193 424 193 421V48Q192 27 200 21Q213 11 235 11Q263 12 286 25Q304 37 304 64V102V102ZM304 129V356L313 358H518Q525 361 529 352V129H304V129V130V129Z" fill="#FF0100"/></g></g></g></g><g><g transform="rotate(43.92857142857143,80,80)"><g transform="translate(77.52857142857142,144) scale(0.009654017857142858,0.009654017857142858)"><g transform="scale(1,-1) translate(0,-820)"><path d="M438 332Q438 513 384 608Q335 695 242 695Q181 695 132 644Q68 571 67 468Q67 354 107 293Q156 224 224 224Q281 224 328 269Q335 276 343 285Q342 161 325 110Q309 53 287 23Q268 -7 247 -7Q222 -6 213 5Q206 15 206 37Q206 62 194 75Q184 88 160 89Q141 89 126 75Q113 62 112 37Q112 3 141 -24Q172 -55 233 -55Q291 -55 340 -2Q382 40 409 121Q437 200 438 332V332V332ZM343 355Q324 324 302 303Q268 272 244 271Q210 271 184 328Q162 382 161 468Q161 556 189 607Q214 647 242 648Q282 648 307 590Q341 509 343 355V355V355V356V355Z" fill="#FF0100"/></g></g></g><g transform="rotate(38.760504201680675,80,80)"><g transform="translate(77.52857142857142,144) scale(0.009654017857142858,0.009654017857142858)"><g transform="scale(1,-1) translate(0,-820)"><path d="M303 42V695H256Q189 634 106 621V574Q131 574 163 574Q185 574 197 565Q210 555 210 529V42Q210 18 191 11Q173 5 114 5V-42H399V5Q339 5 321 12Q303 18 303 42V42V42V43V42Z" fill="#FF0100"/></g></g></g><g transform="rotate(33.59243697478992,80,80)"><g transform="translate(77.52857142857142,144) scale(0.009654017857142858,0.009654017857142858)"><g transform="scale(1,-1) translate(0,-820)"><path d="M440 158Q440 273 364 321Q348 333 326 340Q347 353 364 374Q418 438 418 530Q418 600 374 647Q328 695 253 695Q189 695 138 652Q89 609 89 552Q89 530 102 515Q115 502 137 502Q153 502 167 516Q182 532 182 552Q182 565 174 577Q168 587 168 601Q168 616 189 631Q213 647 253 648Q284 648 305 615Q324 587 325 530Q325 452 296 404Q269 359 207 359Q194 360 182 353Q173 347 172 336Q173 326 182 319Q192 312 207 312Q271 312 306 279Q346 240 347 158Q347 67 311 27Q283 -7 245 -7Q197 -7 178 10Q159 26 158 46Q158 56 165 66Q172 76 172 88Q172 109 157 126Q144 142 124 142Q103 142 86 127Q70 112 69 88Q69 43 112 -2Q163 -54 245 -54Q327 -54 380 2Q440 63 440 158V158V158V159V158Z" fill="#FF0100"/></g></g></g><g transform="rotate(28.42436974789916,80,80)"><g transform="translate(77.52857142857142,144) scale(0.009654017857142858,0.009654017857142858)"><g transform="scale(1,-1) translate(0,-820)"><path d="M303 42V695H256Q189 634 106 621V574Q131 574 163 574Q185 574 197 565Q210 555 210 529V42Q210 18 191 11Q173 5 114 5V-42H399V5Q339 5 321 12Q303 18 303 42V42V42V43V42Z" fill="#FF0100"/></g></g></g><g transform="rotate(23.256302521008404,80,80)"><g transform="translate(77.52857142857142,144) scale(0.009654017857142858,0.009654017857142858)"><g transform="scale(1,-1) translate(0,-820)"><path d="M81 321Q81 126 145 17Q191 -53 256 -54Q314 -54 367 26Q431 126 431 321Q431 520 367 619Q315 695 256 695Q196 695 144 617Q81 520 81 321V321V321ZM174 321Q174 543 211 612Q230 648 256 648Q278 648 296 614Q338 544 338 321Q338 105 296 25Q280 -6 256 -7Q226 -7 209 30Q175 106 174 321V321V321V322V321Z" fill="#FF0100"/></g></g></g><g transform="rotate(18.08823529411765,80,80)"><g transform="translate(77.52857142857142,144) scale(0.009654017857142858,0.009654017857142858)"><g transform="scale(1,-1) translate(0,-820)"><path d="M303 42V695H256Q189 634 106 621V574Q131 574 163 574Q185 574 197 565Q210 555 210 529V42Q210 18 191 11Q173 5 114 5V-42H399V5Q339 5 321 12Q303 18 303 42V42V42V43V42Z" fill="#FF0100"/></g></g></g><g transform="rotate(12.92016806722689,80,80)"><g transform="translate(77.52857142857142,144) scale(0.009654017857142858,0.009654017857142858)"><g transform="scale(1,-1) translate(0,-820)"><path d="M303 42V695H256Q189 634 106 621V574Q131 574 163 574Q185 574 197 565Q210 555 210 529V42Q210 18 191 11Q173 5 114 5V-42H399V5Q339 5 321 12Q303 18 303 42V42V42V43V42Z" fill="#FF0100"/></g></g></g><g transform="rotate(7.752100840336134,80,80)"><g transform="translate(77.52857142857142,144) scale(0.009654017857142858,0.009654017857142858)"><g transform="scale(1,-1) translate(0,-820)"><path d="M69 288Q69 102 143 5Q188 -53 262 -54Q328 -54 377 7Q440 80 440 193Q440 287 390 351Q344 406 281 406Q214 406 164 361Q163 361 163 360Q166 457 178 509Q196 582 221 618Q240 649 269 648Q290 649 300 637Q310 627 311 608Q311 587 323 574Q338 561 359 561Q378 561 392 574Q405 587 405 608Q405 645 369 670Q332 695 284 695Q211 695 159 631Q114 570 89 481Q70 393 69 288V288V288ZM163 288Q163 289 163 291Q175 310 190 323Q230 359 262 359Q295 359 320 313Q345 270 346 193Q346 97 313 38Q289 -7 262 -7Q231 -7 205 36Q163 103 163 288V288V288V289V288Z" fill="#FF0100"/></g></g></g><g transform="rotate(2.584033613445378,80,80)"><g transform="translate(77.52857142857142,144) scale(0.009654017857142858,0.009654017857142858)"><g transform="scale(1,-1) translate(0,-820)"><path d="M233 -42L354 578V46Q354 28 349 17Q342 5 306 5V-42H491V5Q457 5 452 16Q448 28 447 46V599Q447 623 453 636Q459 648 489 648V695H377H354H331L236 144L144 695H97H51H14V648Q44 648 47 640Q51 631 51 615V42Q51 26 44 16Q38 6 18 5V-42H139V5Q111 5 104 15Q97 25 97 42V477L210 -42H233V-42V-41V-42Z" fill="#FF0100"/></g></g></g><g transform="rotate(-2.584033613445378,80,80)"><g transform="translate(77.52857142857142,144) scale(0.009654017857142858,0.009654017857142858)"><g transform="scale(1,-1) translate(0,-820)"><path d="M452 47L294 695H247H201L66 48Q60 26 47 14Q37 5 18 5V-42H144V5Q122 5 114 17Q110 27 112 48L149 230H314L359 47Q363 28 356 15Q352 5 337 5V-42H493V5Q474 5 463 19Q456 32 452 47V47V47ZM225 593L302 276H158L225 593V593V594V593Z" fill="#FF0100"/></g></g></g><g transform="rotate(-7.752100840336134,80,80)"><g transform="translate(77.52857142857142,144) scale(0.009654017857142858,0.009654017857142858)"><g transform="scale(1,-1) translate(0,-820)"><path d="M303 42V695H256Q189 634 106 621V574Q131 574 163 574Q185 574 197 565Q210 555 210 529V42Q210 18 191 11Q173 5 114 5V-42H399V5Q339 5 321 12Q303 18 303 42V42V42V43V42Z" fill="#FF0100"/></g></g></g><g transform="rotate(-12.92016806722689,80,80)"><g transform="translate(77.52857142857142,144) scale(0.009654017857142858,0.009654017857142858)"><g transform="scale(1,-1) translate(0,-820)"><path d="M390 12V604Q390 620 400 635Q410 648 430 648Q440 648 454 648V695H233V648Q245 648 257 648Q276 648 287 634Q297 621 297 604V12Q297 -57 273 -95Q254 -123 219 -123Q176 -123 165 -111Q156 -104 156 -92Q156 -82 165 -73Q178 -60 179 -40Q179 -9 160 10Q141 29 116 30Q91 30 74 10Q58 -9 57 -40Q57 -92 102 -131Q148 -170 205 -170Q290 -170 335 -124Q390 -73 390 12V12V12V13V12Z" fill="#FF0100"/></g></g></g><g transform="rotate(-18.088235294117652,80,80)"><g transform="translate(77.52857142857142,144) scale(0.009654017857142858,0.009654017857142858)"><g transform="scale(1,-1) translate(0,-820)"><path d="M81 599V50Q81 28 74 17Q67 5 48 5Q41 5 32 5V-42H232H266Q324 -42 370 -6Q425 28 449 92Q479 165 479 318Q479 462 453 540Q428 616 387 653Q341 695 267 695V695H227H32V648Q38 648 51 648Q69 648 75 634Q81 618 81 599V599V599ZM174 599Q174 618 180 634Q187 647 204 648Q214 648 227 648Q285 648 322 613Q353 577 371 511Q384 448 385 318Q385 167 363 110Q347 68 316 37Q282 6 232 5Q219 5 210 5Q188 5 181 16Q174 28 174 50V599V599V600V599Z" fill="#FF0100"/></g></g></g><g transform="rotate(-23.256302521008408,80,80)"><g transform="translate(77.52857142857142,144) scale(0.009654017857142858,0.009654017857142858)"><g transform="scale(1,-1) translate(0,-820)"><path d="M429 695H106L69 479H116Q134 567 153 594Q172 619 206 620H375Q233 379 197 255Q157 114 156 16Q156 -15 168 -36Q181 -54 203 -54Q227 -54 237 -37Q250 -16 250 16Q250 170 297 331Q333 446 439 648L429 695V695V696V695Z" fill="#FF0100"/></g></g></g><g transform="rotate(-28.424369747899163,80,80)"><g transform="translate(77.52857142857142,144) scale(0.009654017857142858,0.009654017857142858)"><g transform="scale(1,-1) translate(0,-820)"><path d="M446 -42V610Q446 629 453 639Q460 648 485 648V695H360V648Q384 648 393 638Q400 629 400 610V156L162 695H115H69H30V648Q52 648 61 639Q68 630 69 610V43Q69 22 61 13Q54 6 30 5V-42H155V5Q128 5 122 13Q115 22 115 43V591L399 -42H400H446V-42V-41V-42Z" fill="#FF0100"/></g></g></g><g transform="rotate(-33.59243697478992,80,80)"><g transform="translate(77.52857142857142,144) scale(0.009654017857142858,0.009654017857142858)"><g transform="scale(1,-1) translate(0,-820)"><path d="M400 -42L437 142H390Q374 69 353 50Q332 34 306 33H145Q163 96 208 146Q305 260 358 322Q428 407 429 507Q429 589 380 643Q334 695 244 695Q172 695 122 636Q79 584 79 521Q79 487 97 464Q115 448 138 448Q156 448 175 464Q191 479 192 504Q192 525 179 545Q169 564 169 583Q169 595 183 616Q205 647 244 648Q277 648 301 620Q335 580 335 507Q335 395 273 317Q218 247 155 169Q85 79 84 -42H131H306H400V-42V-41V-42Z" fill="#FF0100"/></g></g></g><g transform="rotate(-38.760504201680675,80,80)"><g transform="translate(77.52857142857142,144) scale(0.009654017857142858,0.009654017857142858)"><g transform="scale(1,-1) translate(0,-820)"><path d="M438 332Q438 513 384 608Q335 695 242 695Q181 695 132 644Q68 571 67 468Q67 354 107 293Q156 224 224 224Q281 224 328 269Q335 276 343 285Q342 161 325 110Q309 53 287 23Q268 -7 247 -7Q222 -6 213 5Q206 15 206 37Q206 62 194 75Q184 88 160 89Q141 89 126 75Q113 62 112 37Q112 3 141 -24Q172 -55 233 -55Q291 -55 340 -2Q382 40 409 121Q437 200 438 332V332V332ZM343 355Q324 324 302 303Q268 272 244 271Q210 271 184 328Q162 382 161 468Q161 556 189 607Q214 647 242 648Q282 648 307 590Q341 509 343 355V355V355V356V355Z" fill="#FF0100"/></g></g></g><g transform="rotate(-43.92857142857143,80,80)"><g transform="translate(77.52857142857142,144) scale(0.009654017857142858,0.009654017857142858)"><g transform="scale(1,-1) translate(0,-820)"><path d="M303 42V695H256Q189 634 106 621V574Q131 574 163 574Q185 574 197 565Q210 555 210 529V42Q210 18 191 11Q173 5 114 5V-42H399V5Q339 5 321 12Q303 18 303 42V42V42V43V42Z" fill="#FF0100"/></g></g></g></g></g>
</svg>
