<svg xmlns="http://www.w3.org/2000/svg" width="406.933" height="184.909" viewBox="0 0 406.933 184.909">
  <path fill="#fff" d="M357.71 179.508H173.46c-6.6 0-12-5.4-12-12v-20.5c0-6.6 5.4-12 12-12h184.25c6.6 0 12 5.4 12 12v20.5c0 6.6-5.4 12-12 12z"/>
  <path fill="#000" stroke="#fff" stroke-width="6" stroke-miterlimit="10" d="M386.825 45.493H164.022C148.782 21.958 122.312 6.37 92.185 6.37 44.94 6.371 6.641 44.67 6.641 91.915c0 47.245 38.299 85.544 85.544 85.544 26.211 0 49.654-11.8 65.346-30.364h229.293c6.976 0 12.683-5.707 12.683-12.683V58.176c0-6.976-5.707-12.683-12.682-12.683z"/>
  <path d="M168.327 157.054h10.758v2.828h-3.609v8.625h-3.539v-8.625h-3.609v-2.828zm12.407 11.454v-11.453h5.898c1.094 0 1.93.094 2.508.281s1.044.535 1.398 1.043c.354.508.531 1.126.531 1.855 0 .636-.136 1.184-.406 1.645a3.175 3.175 0 0 1-1.118 1.121c-.302.183-.716.333-1.243.453.421.141.729.281.921.422.13.094.318.295.566.603.247.308.413.545.496.712l1.714 3.318H188l-1.892-3.5c-.24-.453-.453-.747-.641-.883a1.485 1.485 0 0 0-.867-.266h-.312v4.648h-3.554zm3.554-6.813h1.492c.161 0 .474-.052.938-.156.234-.047.426-.167.574-.359s.223-.414.223-.664c0-.37-.117-.653-.352-.852s-.675-.297-1.32-.297h-1.555v2.328zm16.024-4.641h3.531v6.823c0 .677-.105 1.315-.316 1.917s-.542 1.127-.992 1.577-.923.767-1.418.948c-.688.255-1.513.383-2.477.383-.558 0-1.166-.039-1.824-.117-.659-.078-1.21-.232-1.652-.465-.443-.231-.848-.561-1.215-.987s-.619-.866-.754-1.319c-.219-.729-.328-1.374-.328-1.937v-6.823h3.531v6.986c0 .624.173 1.112.52 1.463.346.352.827.527 1.441.527.609 0 1.087-.173 1.434-.52.347-.346.52-.836.52-1.471v-6.985zm5.258 7.665l3.367-.211c.073.547.222.964.445 1.25.364.464.886.695 1.562.695.505 0 .895-.118 1.168-.355s.41-.512.41-.824c0-.297-.13-.562-.391-.797s-.864-.456-1.812-.664c-1.552-.349-2.659-.812-3.32-1.391-.667-.578-1-1.315-1-2.211 0-.589.171-1.145.512-1.668s.854-.935 1.539-1.234 1.624-.449 2.816-.449c1.464 0 2.579.272 3.348.816s1.226 1.41 1.371 2.598l-3.336.195c-.089-.516-.274-.891-.559-1.125s-.676-.352-1.176-.352c-.411 0-.722.087-.93.262s-.312.387-.312.637c0 .183.086.347.258.492.167.151.562.292 1.188.422 1.547.333 2.655.671 3.324 1.012s1.156.765 1.461 1.27.457 1.07.457 1.695c0 .734-.203 1.411-.609 2.031s-.974 1.09-1.703 1.41-1.648.48-2.758.48c-1.948 0-3.297-.375-4.047-1.125s-1.175-1.703-1.273-2.859zm11.367-7.665h10.758v2.828h-3.609v8.625h-3.539v-8.625h-3.609v-2.828zm12.351 0h9.484v2.445h-5.938v1.82h5.508v2.336h-5.508v2.258h6.109v2.594h-9.656v-11.453zm11.61 0h5.258c1.036 0 1.874.141 2.512.422s1.165.685 1.582 1.211.719 1.138.906 1.836.281 1.438.281 2.219c0 1.224-.14 2.173-.418 2.848s-.665 1.239-1.16 1.695-1.026.759-1.594.91c-.776.208-1.479.312-2.109.312h-5.258v-11.453zm3.539 2.594v6.258h.867c.739 0 1.266-.082 1.578-.246s.558-.45.734-.859.266-1.071.266-1.988c0-1.214-.198-2.044-.594-2.492s-1.052-.672-1.969-.672h-.882zm23.234 3.289l2.484.555c-.13.458-.255.825-.375 1.102s-.289.602-.508.977l1.195.82c.146.094.333.206.562.336l-1.711 1.969c-.312-.167-.637-.359-.973-.578s-.637-.406-.902-.562a6.368 6.368 0 0 1-1.656.797c-.766.229-1.636.344-2.609.344-1.526 0-2.661-.317-3.406-.953s-1.117-1.406-1.117-2.312c0-.651.219-1.267.656-1.848s1.153-1.071 2.148-1.473c-.417-.505-.703-.944-.859-1.316s-.234-.751-.234-1.137c0-.812.31-1.481.93-2.008s1.56-.789 2.82-.789c1.286 0 2.231.25 2.836.75s.906 1.099.906 1.797c0 .391-.093.766-.277 1.125s-.407.651-.668.875-.727.558-1.398 1a20.479 20.479 0 0 0 1.742 1.555c.161-.326.3-.666.414-1.026zm-4.789.774c-.438.308-.728.57-.871.789s-.215.45-.215.695c0 .38.164.719.492 1.016s.755.445 1.281.445c.567 0 1.206-.222 1.914-.664-.676-.521-1.543-1.281-2.601-2.281zm1.133-2.782c.411-.224.729-.468.953-.73s.336-.512.336-.746c0-.245-.094-.452-.281-.621s-.445-.254-.773-.254c-.323 0-.586.094-.789.281s-.305.409-.305.664c-.001.323.286.792.859 1.406zm13.562 3.79l3.367-.211c.073.547.222.964.445 1.25.364.464.886.695 1.562.695.505 0 .895-.118 1.168-.355s.41-.512.41-.824c0-.297-.13-.562-.391-.797s-.864-.456-1.812-.664c-1.552-.349-2.659-.812-3.32-1.391-.667-.578-1-1.315-1-2.211 0-.589.171-1.145.512-1.668s.854-.935 1.539-1.234 1.624-.449 2.816-.449c1.464 0 2.579.272 3.348.816s1.226 1.41 1.371 2.598l-3.336.195c-.089-.516-.274-.891-.559-1.125s-.676-.352-1.176-.352c-.411 0-.722.087-.93.262s-.312.387-.312.637c0 .183.086.347.258.492.167.151.562.292 1.188.422 1.547.333 2.655.671 3.324 1.012s1.156.765 1.461 1.27.457 1.07.457 1.695c0 .734-.203 1.411-.609 2.031s-.974 1.09-1.703 1.41-1.648.48-2.758.48c-1.948 0-3.297-.375-4.047-1.125s-1.174-1.703-1.273-2.859zm12.164-7.665h9.484v2.445h-5.938v1.82h5.508v2.336h-5.508v2.258h6.109v2.594h-9.656v-11.453zm19.188 6.766l3.102.938c-.208.87-.536 1.597-.984 2.18s-1.004 1.023-1.668 1.32-1.509.445-2.535.445c-1.245 0-2.262-.181-3.051-.543-.789-.361-1.47-.998-2.043-1.908-.573-.911-.859-2.077-.859-3.498 0-1.895.504-3.351 1.512-4.368s2.434-1.526 4.277-1.526c1.442 0 2.577.292 3.402.875s1.438 1.479 1.84 2.688l-3.125.695c-.109-.349-.224-.604-.344-.766-.198-.271-.44-.479-.727-.625s-.606-.219-.961-.219c-.802 0-1.417.322-1.844.968-.323.479-.484 1.23-.484 2.255 0 1.27.192 2.14.578 2.61s.927.706 1.625.706c.677 0 1.188-.19 1.535-.57s.598-.933.754-1.657zm12.273-6.766h3.531v6.823c0 .677-.105 1.315-.316 1.917s-.542 1.127-.992 1.577-.923.767-1.418.948c-.688.255-1.513.383-2.477.383-.558 0-1.165-.039-1.824-.117s-1.21-.232-1.652-.465c-.442-.231-.848-.561-1.215-.987s-.618-.866-.754-1.319c-.219-.729-.328-1.374-.328-1.937v-6.823h3.531v6.986c0 .624.173 1.112.52 1.463.347.352.827.527 1.441.527.609 0 1.087-.173 1.434-.52.347-.346.52-.836.52-1.471v-6.985zm5.922 11.454v-11.453h5.898c1.094 0 1.93.094 2.508.281s1.044.535 1.398 1.043.531 1.126.531 1.855c0 .636-.136 1.184-.406 1.645a3.175 3.175 0 0 1-1.118 1.121c-.302.183-.717.333-1.243.453.422.141.729.281.922.422.13.094.318.295.565.603s.413.545.496.712l1.714 3.318h-3.999l-1.892-3.5c-.239-.453-.453-.747-.641-.883a1.485 1.485 0 0 0-.867-.266h-.312v4.648h-3.554zm3.555-6.813h1.492c.161 0 .474-.052.938-.156.234-.047.426-.167.574-.359s.223-.414.223-.664c0-.37-.117-.653-.352-.852s-.675-.297-1.32-.297h-1.555v2.328zm8.836-4.641h9.484v2.445h-5.938v1.82h5.508v2.336h-5.508v2.258h6.109v2.594h-9.656v-11.453zm11.609 0h5.258c1.036 0 1.874.141 2.512.422s1.165.685 1.582 1.211.719 1.138.906 1.836.281 1.438.281 2.219c0 1.224-.14 2.173-.418 2.848s-.665 1.239-1.16 1.695-1.026.759-1.594.91c-.776.208-1.479.312-2.109.312h-5.258v-11.453zm3.539 2.594v6.258h.867c.739 0 1.266-.082 1.578-.246s.558-.45.734-.859.266-1.071.266-1.988c0-1.214-.198-2.044-.594-2.492s-1.052-.672-1.969-.672h-.882z"/>
  <path fill="#fff" d="M310.435 68.355h86.078c3.172 0 5.768-2.359 5.768-5.242l-6.88-14.491c0-2.883-18.173-3.658-21.345-3.658l-63.62-1.954c-3.172 0-5.768 2.359-5.768 5.242v14.861c-.001 2.883 2.594 5.242 5.767 5.242z"/>
  <path d="M313.778 61.702v-8.59h2.596l1.559 5.859 1.541-5.859h2.602v8.59h-1.611V54.94l-1.705 6.762h-1.67l-1.699-6.762v6.762h-1.613zm9.668-4.242c0-.875.131-1.609.393-2.203.195-.438.462-.83.8-1.178s.708-.605 1.11-.773c.535-.227 1.152-.34 1.852-.34 1.266 0 2.278.393 3.038 1.178s1.14 1.877 1.14 3.275c0 1.387-.377 2.472-1.131 3.255s-1.762 1.175-3.023 1.175c-1.277 0-2.293-.39-3.047-1.169s-1.132-1.853-1.132-3.22zm1.788-.059c0 .973.225 1.71.674 2.212s1.02.753 1.711.753 1.259-.249 1.702-.747.665-1.245.665-2.241c0-.984-.216-1.719-.647-2.203s-1.005-.727-1.72-.727-1.291.245-1.729.735-.656 1.23-.656 2.218zm7.904 4.301v-8.59h3.65c.918 0 1.585.077 2.001.231s.749.429.999.823.375.846.375 1.354c0 .645-.189 1.177-.568 1.597s-.945.685-1.699.794c.375.219.685.459.929.721s.573.727.987 1.395l1.049 1.676h-2.074l-1.254-1.869c-.445-.668-.75-1.089-.914-1.263s-.338-.293-.521-.357-.475-.097-.873-.097h-.352v3.586h-1.735zm1.734-4.957h1.283c.832 0 1.352-.035 1.559-.105s.369-.191.486-.363.176-.387.176-.645c0-.289-.077-.522-.231-.7s-.372-.29-.653-.337c-.141-.02-.562-.029-1.266-.029h-1.354v2.179zm6.926 4.957v-8.59h6.369v1.453h-4.635v1.904h4.312v1.447h-4.312v2.338h4.799v1.447h-6.533zm11.285 0v-8.59h1.734v8.59h-1.734zm3.404 0v-8.59h1.688l3.516 5.736v-5.736h1.611v8.59h-1.74l-3.463-5.602v5.602h-1.612zm8.661 0v-8.59h5.889v1.453h-4.154v2.033h3.586v1.453h-3.586v3.65h-1.735zm6.966-4.242c0-.875.131-1.609.393-2.203.195-.438.462-.83.8-1.178s.708-.605 1.11-.773c.535-.227 1.152-.34 1.852-.34 1.266 0 2.278.393 3.038 1.178s1.14 1.877 1.14 3.275c0 1.387-.377 2.472-1.131 3.255s-1.762 1.175-3.023 1.175c-1.277 0-2.293-.39-3.047-1.169s-1.132-1.853-1.132-3.22zm1.788-.059c0 .973.225 1.71.674 2.212s1.02.753 1.711.753 1.259-.249 1.702-.747.665-1.245.665-2.241c0-.984-.216-1.719-.647-2.203s-1.005-.727-1.72-.727-1.291.245-1.729.735-.656 1.23-.656 2.218zm10.286-3.455l6.142 3.546-6.142 3.546z"/>
  <g fill="#FFF">
    <path d="M274.307 55.996c6.874-.144 13.766-.056 20.65-.06a1.496 1.496 0 0 1 1.472 1.783c-3.472 17.857-6.85 35.725-10.463 53.558a1.5 1.5 0 0 0 1.465 1.799c6.058.012 12.123-.02 18.18.01a1.5 1.5 0 0 1 1.458 1.807c-1.259 6.082-2.372 12.198-3.54 18.298a1.504 1.504 0 0 1-1.475 1.22c-13.999.01-28.01-.012-42.021.009a1.494 1.494 0 0 1-1.473-1.779c.903-4.539 1.268-9.288 3.865-13.237 4.012-7.208 5.553-15.705 3.581-23.765a1.498 1.498 0 0 1-.031-.554c1.05-7.712 3.103-15.272 4.286-22.975.354-3.302 2.098-6.113 3.796-8.877.34-.553.326-1.279-.094-1.773-.992-1.168-1.248-2.597-1.124-4.12.064-.753.713-1.328 1.468-1.344zm-90.49 4.114c11.178-4.392 24.012-2.815 34.587 2.552.773.392 1.077 1.342.648 2.096-3.021 5.309-6.133 10.568-9.146 15.877a1.492 1.492 0 0 1-2.13.507c-4.681-3.138-10.142-6.16-15.857-4.522-3.073.732-5.055 5.361-1.876 7.184 5.747 2.847 12.771 3.18 17.601 7.822 5.814 4.656 6.439 12.998 4.177 19.649-2.767 10.975-11.707 19.915-22.496 23.161-12.103 3.97-26.67 1.756-36.089-7.119a1.488 1.488 0 0 1-.278-1.774c2.917-5.547 5.675-11.182 8.474-16.793.481-.964 1.78-1.111 2.488-.299 4.715 5.415 11.306 10.04 18.754 8.743 3.219-.479 8.089-4.882 4.763-7.889-6.173-3.392-13.929-3.658-19.343-8.567-5.375-4.789-6.213-12.825-4.284-19.423 2.978-9.591 10.561-17.72 20.007-21.205z"/>
    <path d="M226.178 63.833c12.119-8.479 28.928-7.891 41.706-1.037.715.383.957 1.296.552 1.999-3.059 5.303-6.182 10.581-9.202 15.903a1.443 1.443 0 0 1-2.059.492c-3.972-2.665-8.297-5.247-13.239-4.995-2.757-.267-5.272 1.578-6.222 4.097l-.069.74c.644 3.46 4.858 4.038 7.659 4.98.029.01.056.017.085.024 7.037 1.662 14.665 5.667 16.51 13.24l.038.186c1.725 10.709-3.326 22.063-11.696 28.789-11.791 9.66-29.36 10.519-42.503 3.129-.83-.467-1.007-1.595-.342-2.277 4.091-4.2 7.335-9.181 9.347-14.698.32-.878 1.377-1.207 2.16-.696 4.552 2.97 10.288 5.221 15.427 2.556 1.92-.781 2.753-2.658 3.577-4.428a1.465 1.465 0 0 0-.435-1.774c-5.101-3.955-12.203-3.981-17.661-7.467a1.445 1.445 0 0 1-.638-1.057c-.607-5.071-2.836-9.753-6.435-13.35-.495-.495-.594-1.254-.213-1.841 4.683-7.217 8.385-15.048 13.265-22.121.13-.134.258-.263.388-.394zm83.7 70.531v-4.868h4.868v4.868h-4.868zm25.901-12.96l-4.799.867c-.162-.959-.528-1.681-1.1-2.166-.572-.485-1.314-.728-2.227-.728-1.213 0-2.181.419-2.902 1.256-.722.838-1.083 2.238-1.083 4.201 0 2.184.367 3.726 1.101 4.626.733.901 1.718 1.352 2.954 1.352.924 0 1.681-.263 2.27-.788s1.005-1.43 1.247-2.712l4.782.814c-.497 2.194-1.45 3.853-2.858 4.973-1.41 1.12-3.298 1.681-5.666 1.681-2.691 0-4.837-.85-6.437-2.547-1.6-1.698-2.399-4.049-2.399-7.052 0-3.037.803-5.402 2.408-7.095s3.777-2.538 6.515-2.538c2.24 0 4.022.482 5.345 1.446 1.322.966 2.272 2.435 2.849 4.41zm2.565 3.5c0-1.617.398-3.182 1.195-4.695.797-1.513 1.926-2.668 3.387-3.465s3.093-1.195 4.895-1.195c2.784 0 5.065.903 6.844 2.711 1.778 1.809 2.668 4.092 2.668 6.853 0 2.784-.897 5.091-2.693 6.922-1.797 1.831-4.058 2.746-6.783 2.746-1.687 0-3.295-.382-4.825-1.144-1.531-.763-2.694-1.88-3.491-3.353s-1.197-3.266-1.197-5.38zm4.989.26c0 1.825.434 3.223 1.3 4.193.866.97 1.935 1.455 3.205 1.455s2.336-.485 3.196-1.455c.86-.971 1.291-2.38 1.291-4.228 0-1.802-.431-3.188-1.291-4.158-.86-.971-1.926-1.455-3.196-1.455s-2.339.484-3.205 1.455c-.866.97-1.3 2.369-1.3 4.193zm17.447-9.199h4.487v2.512c1.605-1.951 3.518-2.928 5.735-2.928 1.178 0 2.2.242 3.066.728s1.576 1.219 2.131 2.2c.809-.981 1.681-1.715 2.616-2.2s1.935-.728 2.997-.728c1.352 0 2.495.274 3.431.823s1.635 1.354 2.097 2.417c.335.785.502 2.056.502 3.812v11.764h-4.868v-10.517c0-1.825-.168-3.003-.502-3.534-.451-.693-1.144-1.04-2.079-1.04-.682 0-1.323.208-1.924.624s-1.033 1.025-1.299 1.828-.398 2.07-.398 3.803v8.836h-4.869v-10.083c0-1.791-.086-2.945-.26-3.466-.173-.52-.441-.906-.806-1.16-.363-.254-.857-.382-1.481-.382-.751 0-1.427.202-2.026.606-.601.404-1.031.987-1.291 1.75s-.39 2.027-.39 3.794v8.94h-4.869v-18.399z"/>
  </g>
  <g fill="#fff">
    <path d="M60.141 48.681c1.673-2.875 5.589-1.977 8.317-1.943.077.001 47.422.693 66.971.4 1.155-.017 2.013 1.078 1.882 2.225-.443 3.886-1.312 7.712-2.168 11.529a1.978 1.978 0 0 0 1.862 2.411c3.466.108 6.938.166 10.404.259 1.226.033 2.188 1.184 1.887 2.373-5.383 21.203-17.426 73.923-18.623 79.2-.162.713-1.015 1.05-1.747 1.05H65.343c-1.093 0-2.19-.909-1.984-1.982 1.159-6.04 12.194-57.501 16.84-77.744.267-1.165-.552-2.312-1.744-2.411-6.468-.537-12.965-.554-19.455-.561a1.974 1.974 0 0 1-1.94-2.326c.77-4.221 1.426-8.503 3.081-12.48m43.717 51.91c-1.908 5.335-3.822 10.668-5.838 15.963a1.97 1.97 0 0 0 1.841 2.678c3.084-.001 6.164-.005 9.25-.021a1.985 1.985 0 0 0 1.965-1.792c.549-5.737.99-11.496 1.487-17.243.043-.501.291-.957.668-1.29 3.332-2.94 6.376-7.769 3.369-11.934a2.216 2.216 0 0 0-.374-.4c-7.096-5.884-17.938 5.003-12.632 12.221.384.523.482 1.206.264 1.818z"/>
    <path d="M55.78 72.809c8.375-.06 8.254-.06 13.107-.083 1.198-.006 2.115 1.186 1.828 2.35-1.07 4.337-2.105 8.592-3.22 12.759-.188.701-.903 1.193-1.628 1.213-4.295.117-8.228.094-12.649.103-1.19.002-2.149-1.135-1.878-2.294 1.063-4.538 1.79-8.656 2.922-12.813.183-.672.822-1.23 1.518-1.235zM35.022 46.223c8.375-.06 8.254-.06 13.107-.083 1.198-.006 2.115 1.186 1.828 2.35-1.07 4.337-2.105 8.592-3.22 12.759-.188.701-.903 1.193-1.628 1.213-4.295.117-8.228.094-12.649.103-1.19.002-2.149-1.135-1.878-2.294 1.063-4.538 1.79-8.656 2.922-12.813.184-.672.823-1.23 1.518-1.235z"/>
  </g>
  <path d="M327.027 108.031l6.439-30.75h22.192l-.734 3.503h-18.081l-2.014 9.565h17.62l-.734 3.503h-17.619l-2.224 10.697h19.36l-.734 3.482h-23.471zm37.967 0l-5.915-30.75h3.964l3.566 18.333c.657 3.328 1.083 6.014 1.279 8.055 1.286-2.629 2.342-4.712 3.167-6.25l10.971-20.137h4.237l-16.865 30.75h-4.404z" fill="#A0CC41"/>
</svg>
