<?xml version="1.0" encoding="UTF-8"?>
<svg width="131.2" height="131.2" xmlns="http://www.w3.org/2000/svg" xmlns:xlink="http://www.w3.org/1999/xlink" version="1.2" baseProfile="tiny-ps" xml:space="preserve">
  <g>
   <title>Layer 1</title>
   <g id="svg_2">
    <circle fill="#FFFFFF" cx="65.9" cy="65.4" r="65" id="svg_1"/>
   </g>
   <g id="svg_3" stroke="null">
    <g id="svg_4" fill="none" fill-rule="evenodd" stroke="null">
     <g id="svg_5" fill-rule="nonzero" stroke="null">
      <g id="svg_6" fill="#0b3251" stroke="#0b3251">
       <path id="svg_7" d="m23.3999,63.00022l0.15612,0.0023c1.08459,0.03398 2.02041,0.42704 2.79276,1.17872c0.81413,0.7875 1.22143,1.73893 1.22143,2.85475s-0.4073,2.06725 -1.22143,2.85475s-1.79725,1.18102 -2.94888,1.18102l0,0l-4.17031,0l0.00551,-8.07153l4.1648,0l0,-0.00001zm0,2.15265l-1.47949,0l0,3.76668l1.47995,0c0.41327,0 0.75765,-0.18367 1.04694,-0.55102s0.43301,-0.81184 0.43301,-1.33163s-0.14418,-0.96429 -0.43301,-1.33163s-0.64286,-0.55102 -1.04694,-0.55102l0,0l-0.00046,-0.00138zm11.69725,5.92347l0,-2.15265l-2.15173,0l0,-3.77082l2.15265,0l0,-2.15265l-6.99612,0l0,2.15265l2.14806,0l0,3.76668l-2.15219,0l0,2.15265l6.99934,0.00413l-0.00001,0.00001z" stroke="null"/>
       <use id="svg_8" xlink:href="#svg_24" href="#svg_24" y="40.18253" x="-42.41777" transform="matrix(0.459184 0 0 0.459184 38.4776 44.0899)" stroke="null"/>
       <path id="svg_9" d="m50.95827,71.07175l0,-2.14806l-2.15725,0l0,-3.77082l2.15265,0l0,-2.15265l-6.99061,0l0,2.15265l2.15265,0l0,3.76668l-2.15219,0l0,2.15265l6.99475,-0.00046l0,0.00001zm5.91291,0l0,-5.92347l3.4976,0l0,-2.14806l-8.87878,0l0,2.15265l2.69082,0l0,5.92347l2.69036,-0.00459zm9.41097,-8.07153l2.15265,8.07153l-2.8249,0l-0.43026,-1.61449l-1.82939,0l-0.43026,1.61449l-2.8249,0l2.15082,-8.07153l4.04082,0l-0.00459,0l0.00001,0zm-2.01811,3.02418l-0.48444,1.81837l0.96429,0l-0.48444,-1.81837l0.00459,0zm11.96633,5.04735l0,-2.14806l-4.57347,0l0,-5.92347l-2.69082,0l0,8.07153l7.26429,0z" stroke="null"/>
      </g>
      <path id="svg_10" d="m81.60511,71.07175l0,-0.00551a1.92857,1.92857 0 0 0 1.29168,-0.58638a1.94235,1.94235 0 0 0 0.59189,-1.42577a2.24541,2.24541 0 0 0 -0.53816,-1.47995l-2.42128,-2.15219c0,-0.17908 0.08954,-0.26908 0.26908,-0.26908l4.03622,0l0,-2.15265l-5.38163,0l0,0.00551l-0.13454,-0.00551a1.94235,1.94235 0 0 0 -1.42577,0.59189a1.94235,1.94235 0 0 0 -0.59189,1.42577a2.23163,2.23163 0 0 0 0.54367,1.47995l2.41622,2.15816c0,0.17587 -0.08954,0.26357 -0.26908,0.26357l-3.22806,0l0,2.15265l4.84301,0l-0.00138,-0.00046l0.00002,0z" fill="red" stroke="red"/>
      <g id="svg_11" fill="#0b3251" stroke="#0b3251">
       <path id="svg_12" d="m91.55333,71.07175l0,-2.15265l-2.15219,0l0,-3.76622l2.15265,0l0,-2.15265l-6.99612,0l0,2.15265l2.15265,0l0,3.76668l-2.15219,0l0,2.15265l6.9952,-0.00046z" stroke="null"/>
       <use id="svg_13" xlink:href="#svg_24" x="80.53123" href="#svg_24" y="40.18253" transform="matrix(0.459184 0 0 0.459184 38.4776 44.0899)" stroke="null"/>
       <path id="svg_14" d="m103.1096,71.07175l0,-4.03531l2.42128,4.03622l3.22806,0l0,-8.07245l-2.69082,0l0,4.03622l-2.42036,-4.03622l-3.22806,0l0,8.07153l2.6899,0l0,0.00001z" stroke="null"/>
      </g>
      <path id="svg_15" d="m20.35138,78.08578c0.28561,0 0.54459,-0.04684 0.7774,-0.14005a1.69898,1.69898 0 0 0 0.59602,-0.39536c0.16531,-0.1699 0.29112,-0.37515 0.37883,-0.61531s0.13179,-0.50832 0.13179,-0.80495a2.37398,2.37398 0 0 0 -0.11801,-0.75536c-0.07806,-0.23602 -0.19745,-0.44219 -0.35449,-0.61806s-0.35449,-0.315 -0.59051,-0.41786s-0.50969,-0.15383 -0.82194,-0.15383l0,0l-1.35046,0l0,3.90031l1.35138,0l0,0.00046l-0.00001,0.00001zm0,-0.43944l-0.85684,0l0,-3.02143l0.85684,0c0.22041,0 0.41556,0.03765 0.58776,0.1125s0.31776,0.17908 0.43622,0.31041s0.20893,0.2902 0.26908,0.47526s0.09046,0.38709 0.09046,0.60704c0,0.21582 -0.03031,0.41648 -0.09046,0.59694a1.4051,1.4051 0 0 1 -0.26357,0.48077a1.19388,1.19388 0 0 1 -0.43393,0.31867c-0.17449,0.07668 -0.37286,0.1148 -0.59602,0.1148l0,0l0.00046,0.00505l0,-0.00001zm2.79184,-2.96633l0,-0.60429l-0.48352,0l0,0.60429l0.48352,0zm0,3.40577l0,-2.8676l-0.48352,0l0,2.8676l0.48352,0zm1.76969,1.2251a1.9148,1.9148 0 0 0 0.56847,-0.08219a1.38214,1.38214 0 0 0 0.46423,-0.24153c0.13179,-0.10561 0.23602,-0.23694 0.31316,-0.3926s0.1148,-0.33612 0.1148,-0.54092l0,0l0,-2.83454l-0.42842,0l0,0.57122c-0.12077,-0.17908 -0.26908,-0.32786 -0.44541,-0.44541s-0.38434,-0.17587 -0.62633,-0.17587c-0.19745,0 -0.37791,0.03949 -0.54092,0.11801s-0.30306,0.18597 -0.42015,0.32143a1.4648,1.4648 0 0 0 -0.27184,0.47526c-0.06429,0.18138 -0.09643,0.37286 -0.09643,0.57398c0,0.19056 0.03214,0.37378 0.09643,0.54918a1.48316,1.48316 0 0 0 0.27184,0.46699a1.32704,1.32704 0 0 0 0.42015,0.32418c0.16301,0.08036 0.34163,0.12077 0.53541,0.12077a1.19847,1.19847 0 0 0 0.30214,-0.03857a1.16633,1.16633 0 0 0 0.2801,-0.1125a1.22602,1.22602 0 0 0 0.24429,-0.18138c0.07485,-0.07163 0.14005,-0.15153 0.19515,-0.23878l0,0l0,0.5051c0,0.15015 -0.02663,0.27551 -0.07944,0.39031s-0.12398,0.20204 -0.21122,0.27459s-0.19148,0.12857 -0.31041,0.16531a1.27194,1.27194 0 0 1 -0.37607,0.0551c-0.20893,0 -0.4027,-0.04224 -0.58224,-0.12628a1.0699,1.0699 0 0 1 -0.43944,-0.37883l0,0l-0.27551,0.24704a1.4648,1.4648 0 0 0 0.50832,0.46423c0.20342,0.11158 0.46837,0.1676 0.79439,0.1676l-0.00505,-0.00092l0,0.00002zm0.10423,-1.5874c-0.13913,0 -0.26816,-0.02847 -0.38709,-0.08495a1.0102,1.0102 0 0 1 -0.31041,-0.22776a1.07908,1.07908 0 0 1 -0.20893,-0.3352a1.08367,1.08367 0 0 1 -0.07668,-0.40638c0,-0.13179 0.02204,-0.26265 0.06612,-0.3926a1.16173,1.16173 0 0 1 0.18689,-0.34898c0.08036,-0.1024 0.17908,-0.18505 0.29388,-0.24704s0.24612,-0.09321 0.3926,-0.09321a0.8449,0.8449 0 0 1 0.28286,0.04959c0.09321,0.03306 0.18046,0.07944 0.26082,0.14005a1.18469,1.18469 0 0 1 0.21719,0.21168c0.06429,0.08036 0.11617,0.1699 0.15612,0.26908l0,0l0,0.82423a0.65663,0.65663 0 0 1 -0.10974,0.23602a0.94133,0.94133 0 0 1 -0.20342,0.20617a1.08827,1.08827 0 0 1 -0.26357,0.14556c-0.09505,0.03673 -0.19423,0.0551 -0.29663,0.0551l0,-0.00138l-0.00001,0.00002zm2.42357,-3.04347l0,-0.60429l-0.48306,0l0,0.60429l0.48352,0l-0.00046,0zm0,3.40577l0,-2.8676l-0.48306,0l0,2.8676l0.48352,0l-0.00046,0zm1.36837,0.03857a1.25816,1.25816 0 0 0 0.2227,-0.01929a1.41888,1.41888 0 0 0 0.19791,-0.04959l0.16209,-0.06061l0.1148,-0.05235l-0.1148,-0.38434c-0.02939,0.01837 -0.08265,0.04316 -0.16209,0.07439s-0.16531,0.04684 -0.26082,0.04684c-0.08403,0 -0.1575,-0.02388 -0.22041,-0.07163s-0.09643,-0.12398 -0.10423,-0.23051l0,0l0,-1.7798l0.64286,0l0,-0.37883l-0.64286,0l0,-0.95602l-0.48352,0l0,0.95602l-0.39031,0l0,0.37883l0.39031,0l0,1.92857c0,0.20526 0.06429,0.35633 0.19286,0.45321s0.27551,0.14556 0.45597,0.14556l-0.00046,-0.00046l0,0.00001zm1.6875,0.01653a1.49235,1.49235 0 0 0 0.62908,-0.13454a1.2398,1.2398 0 0 0 0.48628,-0.3926l0,0l0.01102,0.20342c0.01102,0.08036 0.045,0.14923 0.10102,0.20663a0.30765,0.30765 0 0 0 0.22776,0.08495a0.94592,0.94592 0 0 0 0.10423,-0.00551l0.12628,-0.01653l0,-0.41786c-0.1024,-0.00367 -0.15383,-0.06245 -0.15383,-0.17587l0,0l0,-1.17c0,-0.36643 -0.10561,-0.6502 -0.31592,-0.85133s-0.5051,-0.30214 -0.88163,-0.30214c-0.37378,0 -0.74526,0.12398 -1.11582,0.37378l0,0l0.15934,0.31316c0.31867,-0.22362 0.62265,-0.3352 0.91194,-0.3352c0.24153,0 0.42842,0.06704 0.5602,0.20066s0.19745,0.31776 0.19745,0.55194l0,0l0,0.23051a1.95153,1.95153 0 0 0 -0.37883,-0.10423c-0.14235,-0.02571 -0.28378,-0.03857 -0.42245,-0.03857c-0.17587,0 -0.33796,0.02204 -0.48673,0.06612s-0.27643,0.10423 -0.38434,0.18138a0.81735,0.81735 0 0 0 -0.2498,0.27735c-0.05878,0.10791 -0.08724,0.22776 -0.08724,0.36c0,0.12857 0.0248,0.24612 0.07439,0.35449s0.11709,0.20204 0.20342,0.28286s0.18827,0.14372 0.3049,0.18964a1.03316,1.03316 0 0 0 0.37883,0.06888l0.00046,-0.00138l-0.00001,-0.00001zm0.12628,-0.36735a0.68878,0.68878 0 0 1 -0.24704,-0.04408c-0.07668,-0.02939 -0.14372,-0.0698 -0.20066,-0.12077a0.53724,0.53724 0 0 1 -0.13179,-0.18138c-0.03122,-0.0698 -0.04684,-0.14464 -0.04684,-0.22959c0,-0.16531 0.07577,-0.29847 0.22776,-0.40087s0.34898,-0.15383 0.59051,-0.15383c0.25255,0 0.49592,0.04592 0.7301,0.13776l0,0l0,0.42245c0,0.07347 -0.0349,0.14464 -0.10423,0.21444c-0.07668,0.10561 -0.18964,0.19148 -0.33796,0.25531a1.19847,1.19847 0 0 1 -0.48077,0.09597l0.00092,0.00459zm2.59898,0.34622a1.50612,1.50612 0 0 0 0.29112,-0.03306a1.575,1.575 0 0 0 0.28561,-0.08219l0,0l-0.07668,-0.39031a1.16633,1.16633 0 0 1 -0.15383,0.04684c-0.0551,0.01286 -0.1024,0.01929 -0.14235,0.01929c-0.1024,0 -0.1823,-0.03031 -0.23878,-0.09046s-0.08495,-0.14372 -0.08495,-0.2498l0,0l0,-3.26434l-0.48352,0l0,3.44388c0,0.19056 0.05418,0.33888 0.16209,0.44541s0.25531,0.15934 0.44219,0.15934l-0.00092,-0.00459l0.00002,-0.00001zm3.14403,0c0.20204,0 0.38801,-0.02112 0.5602,-0.06337s0.32143,-0.10791 0.4477,-0.19745a0.97347,0.97347 0 0 0 0.29939,-0.34071c0.07347,-0.13776 0.1102,-0.29939 0.1102,-0.48673c0,-0.17587 -0.03031,-0.32418 -0.09046,-0.44541s-0.14832,-0.22362 -0.26357,-0.30765s-0.25439,-0.15474 -0.41786,-0.21122a4.73878,4.73878 0 0 0 -0.54643,-0.15107l-0.45597,-0.1148a1.44643,1.44643 0 0 1 -0.32143,-0.12903c-0.08587,-0.04959 -0.14923,-0.10883 -0.18964,-0.17908s-0.06061,-0.1575 -0.06061,-0.26357c0,-0.19745 0.07071,-0.35357 0.21122,-0.46699s0.36367,-0.1699 0.66765,-0.1699a1.56582,1.56582 0 0 1 0.33796,0.03582c0.10791,0.02388 0.20801,0.0551 0.29939,0.09321s0.17449,0.08128 0.24704,0.12857s0.13179,0.09643 0.17587,0.14832l0,0l0.23051,-0.40087c-0.16531,-0.13546 -0.35357,-0.24337 -0.56571,-0.32418s-0.45,-0.12077 -0.71403,-0.12077c-0.20204,0 -0.38801,0.0248 -0.5602,0.07439s-0.32051,0.12398 -0.44541,0.2227a1.03776,1.03776 0 0 0 -0.29112,0.36276c-0.0698,0.14235 -0.10423,0.30765 -0.10423,0.49454c0,0.15383 0.02571,0.28561 0.07668,0.3949s0.12719,0.20342 0.22776,0.27551s0.22592,0.14235 0.37653,0.19745a4.80306,4.80306 0 0 0 0.52209,0.15383l0.48077,0.12857c0.14097,0.04224 0.25898,0.09046 0.35449,0.14556a0.62908,0.62908 0 0 1 0.21719,0.19515c0.04959,0.07485 0.07439,0.1676 0.07439,0.27735c0,0.19745 -0.07668,0.34622 -0.23051,0.44541s-0.3701,0.14832 -0.64837,0.14832c-0.15015,0 -0.29388,-0.01561 -0.43163,-0.04684s-0.26541,-0.07163 -0.38434,-0.12077s-0.22959,-0.10561 -0.31867,-0.1676s-0.1699,-0.12398 -0.22776,-0.18689l0,0l-0.23602,0.41786a2.38776,2.38776 0 0 0 0.73332,0.40913c0.26908,0.09321 0.55378,0.14005 0.85408,0.14005l-0.00046,0.00551l0,-0.00001zm2.27526,-3.44388l0,-0.60015l-0.48352,0l0,0.60429l0.48352,0l0,-0.00413l0,-0.00001zm0,3.40577l0,-2.8676l-0.48352,0l0,2.8676l0.48352,0zm1.76969,1.2251a1.9148,1.9148 0 0 0 0.56847,-0.08219a1.38214,1.38214 0 0 0 0.46423,-0.24153c0.13179,-0.10561 0.23602,-0.23694 0.31316,-0.3926s0.1148,-0.33612 0.1148,-0.54092l0,0l0,-2.83454l-0.42842,0l0,0.57122c-0.12077,-0.17908 -0.26908,-0.32786 -0.44541,-0.44541s-0.38434,-0.17587 -0.62633,-0.17587c-0.19745,0 -0.37791,0.03949 -0.54092,0.11801s-0.30306,0.18597 -0.42015,0.32143a1.4648,1.4648 0 0 0 -0.27184,0.47526c-0.06429,0.18138 -0.09643,0.37286 -0.09643,0.57398c0,0.19056 0.03214,0.37378 0.09643,0.54918a1.48316,1.48316 0 0 0 0.27184,0.46699a1.32704,1.32704 0 0 0 0.42015,0.32418c0.16301,0.08036 0.34163,0.12077 0.53541,0.12077a1.19847,1.19847 0 0 0 0.30214,-0.03857a1.16633,1.16633 0 0 0 0.2801,-0.1125a1.22602,1.22602 0 0 0 0.24429,-0.18138c0.07485,-0.07163 0.14005,-0.15153 0.19515,-0.23878l0,0l0,0.5051c0,0.15015 -0.02663,0.27551 -0.07944,0.39031s-0.12398,0.20204 -0.21122,0.27459s-0.19148,0.12857 -0.31041,0.16531a1.27194,1.27194 0 0 1 -0.37607,0.0551c-0.20893,0 -0.4027,-0.04224 -0.58224,-0.12628a1.0699,1.0699 0 0 1 -0.43944,-0.37883l0,0l-0.27551,0.24704a1.4648,1.4648 0 0 0 0.50832,0.46423c0.20342,0.11158 0.46837,0.1676 0.79439,0.1676l-0.00505,-0.00092l0,0.00002zm0.10423,-1.5874c-0.13913,0 -0.26816,-0.02847 -0.38709,-0.08495a1.0102,1.0102 0 0 1 -0.31041,-0.22776a1.07908,1.07908 0 0 1 -0.20893,-0.3352a1.08367,1.08367 0 0 1 -0.07668,-0.40638c0,-0.13179 0.02204,-0.26265 0.06612,-0.3926a1.16173,1.16173 0 0 1 0.18689,-0.34898c0.08036,-0.1024 0.17908,-0.18505 0.29388,-0.24704s0.24612,-0.09321 0.3926,-0.09321a0.8449,0.8449 0 0 1 0.28286,0.04959c0.09321,0.03306 0.18046,0.07944 0.26082,0.14005a1.18469,1.18469 0 0 1 0.21719,0.21168c0.06429,0.08036 0.11617,0.1699 0.15612,0.26908l0,0l0,0.82423a0.65663,0.65663 0 0 1 -0.10974,0.23602a0.94133,0.94133 0 0 1 -0.20342,0.20617a1.08827,1.08827 0 0 1 -0.26357,0.14556c-0.09505,0.03673 -0.19423,0.0551 -0.29663,0.0551l0,-0.00138l-0.00001,0.00002zm2.42357,0.36735l0,-1.7302a1.0102,1.0102 0 0 1 0.14832,-0.30214c0.06612,-0.09184 0.14235,-0.1699 0.23051,-0.23602a1.17551,1.17551 0 0 1 0.2801,-0.15658a0.81276,0.81276 0 0 1 0.29663,-0.05786c0.19056,0 0.33245,0.0698 0.42566,0.20893s0.14005,0.36735 0.14005,0.67041l0,0l0,1.60393l0.48398,0l0,-1.71551c0,-0.17219 -0.01378,-0.33153 -0.04592,-0.47755a1.125,1.125 0 0 0 -0.14005,-0.38158a0.69796,0.69796 0 0 0 -0.26357,-0.25255c-0.1102,-0.06061 -0.24704,-0.09046 -0.41189,-0.09046a1.40051,1.40051 0 0 0 -0.70026,0.18138c-0.21444,0.12077 -0.37791,0.28194 -0.49133,0.48352l0,0l0,-0.61531l-0.43944,0l0,2.8676l0.48352,0l0.00367,0l0.00002,-0.00001zm4.46143,0.03857c0.29296,0 0.56388,-0.04592 0.81276,-0.15153a1.99286,1.99286 0 0 0 0.64837,-0.4174c0.18367,-0.1777 0.32143,-0.38709 0.42842,-0.62908s0.15383,-0.5051 0.15383,-0.79117c0,-0.28194 -0.05143,-0.54367 -0.15383,-0.7852a1.86888,1.86888 0 0 0 -0.42842,-0.62633c-0.18367,-0.17587 -0.39949,-0.31408 -0.64837,-0.41464s-0.52026,-0.15153 -0.81276,-0.15153s-0.56296,0.04592 -0.81046,0.15153s-0.46148,0.23878 -0.64286,0.41464s-0.32327,0.38434 -0.42566,0.62633s-0.15383,0.50372 -0.15383,0.7852c0,0.28561 0.05143,0.54918 0.15383,0.79117a1.91939,1.91939 0 0 0 0.42566,0.62908c0.18138,0.1777 0.3949,0.32143 0.64286,0.41786s0.5175,0.15153 0.81046,0.15153l0,-0.00046zm0,-0.20342a1.87347,1.87347 0 0 1 -0.7223,-0.1373c-0.22179,-0.09184 -0.41189,-0.21719 -0.57122,-0.37653a1.71276,1.71276 0 0 1 -0.37378,-0.56571c-0.08954,-0.21811 -0.13454,-0.45321 -0.13454,-0.70577c0,-0.24888 0.045,-0.48214 0.13454,-0.69796s0.21444,-0.40408 0.37378,-0.56296a1.69898,1.69898 0 0 1 0.57122,-0.37378c0.22179,-0.08954 0.4624,-0.13454 0.7223,-0.13454s0.50051,0.045 0.7223,0.13454s0.41327,0.21444 0.57398,0.37378s0.28745,0.34714 0.37883,0.56296s0.13776,0.45 0.13776,0.70255c0,0.26357 -0.04684,0.5051 -0.14005,0.7223s-0.22179,0.40546 -0.38434,0.56296a1.71735,1.71735 0 0 1 -0.57398,0.36551c-0.22041,0.08587 -0.45781,0.12857 -0.71403,0.12857l-0.00046,0.00138l-0.00001,0zm-0.49454,-0.54918l0,-0.89082l0.55469,0l0.5602,0.8899l0.40087,0l-0.59878,-0.945c0.1575,-0.04041 0.28469,-0.12857 0.38112,-0.26633a0.7852,0.7852 0 0 0 0.14556,-0.46423a0.7898,0.7898 0 0 0 -0.0551,-0.28561c-0.03673,-0.09505 -0.08724,-0.18046 -0.15383,-0.25531s-0.14464,-0.13546 -0.23602,-0.18138a0.66582,0.66582 0 0 0 -0.30214,-0.06888l0,0l-1.05475,0l0,2.46673l0.35724,0l0.00092,0.00092l0.00002,0.00001zm0.68097,-1.20306l-0.68097,0l0,-0.93949l0.6649,0a0.40408,0.40408 0 0 1 0.3049,0.12903c0.08265,0.08587 0.12398,0.19883 0.12398,0.33796s-0.03582,0.25255 -0.10699,0.34071s-0.17311,0.13179 -0.3049,0.13179l0,0l-0.00092,0zm4.07296,1.91709l0,-1.40051l1.16449,0a1.04694,1.04694 0 0 0 0.46974,-0.10423a1.13418,1.13418 0 0 0 0.36276,-0.2801c0.10102,-0.11709 0.17908,-0.25071 0.23327,-0.40087s0.08265,-0.30582 0.08265,-0.46699c0,-0.15383 -0.02939,-0.3049 -0.08724,-0.45321a1.36378,1.36378 0 0 0 -0.24429,-0.40087c-0.10423,-0.11939 -0.22867,-0.21444 -0.37378,-0.28561s-0.30306,-0.10699 -0.47526,-0.10699l0,0l-1.62551,0l0,3.90031l0.49454,0l-0.00138,-0.00092l0.00001,-0.00001zm1.13694,-1.84041l-1.13694,0l0,-1.62092l1.10434,0a0.63367,0.63367 0 0 1 0.27184,0.06061a0.67959,0.67959 0 0 1 0.225,0.17036a0.86327,0.86327 0 0 1 0.15383,0.25806c0.03857,0.09872 0.05786,0.20526 0.05786,0.31867a0.98265,0.98265 0 0 1 -0.04959,0.31316a0.86327,0.86327 0 0 1 -0.1373,0.26082a0.62908,0.62908 0 0 1 -0.21168,0.17587c-0.08265,0.04224 -0.17449,0.06337 -0.27735,0.06337l0,0l-0.00001,0zm2.40153,1.89505a1.39592,1.39592 0 0 0 0.68648,-0.17311c0.20893,-0.1148 0.37653,-0.28102 0.5051,-0.4973l0,0l0.01102,0.3352a0.28929,0.28929 0 0 0 0.10148,0.21168c0.06429,0.05694 0.14372,0.08495 0.23878,0.08495l0.09046,-0.00276l0.12857,-0.01378l0,-0.41786c-0.1024,-0.00367 -0.15383,-0.06245 -0.15383,-0.17587l0,0l0,-2.27434l-0.48352,0l0,1.79633c-0.08403,0.22041 -0.21352,0.3926 -0.38709,0.51888s-0.36,0.18964 -0.55745,0.18964c-0.40638,0 -0.6098,-0.29296 -0.6098,-0.87888l0,0l0,-1.62551l-0.48352,0l0,1.71964c0,0.39949 0.07668,0.69934 0.23051,0.90092s0.38112,0.30214 0.68097,0.30214l0.00184,0l0,0.00003zm3.69184,0c0.19056,0 0.36918,-0.03949 0.53541,-0.11801s0.31041,-0.18505 0.43163,-0.31867s0.21582,-0.2902 0.28561,-0.46974a1.56582,1.56582 0 0 0 0.10423,-0.57122c0,-0.19056 -0.03031,-0.37653 -0.09046,-0.55745a1.50153,1.50153 0 0 0 -0.25806,-0.47801a1.31327,1.31327 0 0 0 -0.40362,-0.33245c-0.1575,-0.08403 -0.3352,-0.12628 -0.53265,-0.12628c-0.22959,0 -0.43944,0.05694 -0.61531,0.1699a1.49235,1.49235 0 0 0 -0.44495,0.45046l0,0l0,-1.71413l-0.48352,0l0,4.01005l0.42842,0l0,-0.53862c0.10561,0.17587 0.25071,0.31867 0.43393,0.42842a1.16173,1.16173 0 0 0 0.6098,0.16485l-0.00046,0.00092l0,-0.00002zm-0.12077,-0.41786c-0.08724,0 -0.17908,-0.01653 -0.27184,-0.04959a1.12041,1.12041 0 0 1 -0.26357,-0.13454c-0.08265,-0.05694 -0.15383,-0.12398 -0.21444,-0.20066a0.59235,0.59235 0 0 1 -0.11801,-0.25255l0,0l0,-0.82929c0.04408,-0.09184 0.09643,-0.1777 0.15612,-0.25806a1.08827,1.08827 0 0 1 0.20893,-0.21168c0.07806,-0.06061 0.16393,-0.10883 0.25531,-0.14556a0.77602,0.77602 0 0 1 0.29112,-0.0551c0.13913,0 0.26633,0.03031 0.38112,0.09046a0.96429,0.96429 0 0 1 0.29663,0.23878a1.10204,1.10204 0 0 1 0.1924,0.34347a1.20765,1.20765 0 0 1 0.06888,0.40362a1.12041,1.12041 0 0 1 -0.07163,0.39811a1.07449,1.07449 0 0 1 -0.20342,0.33796a0.99643,0.99643 0 0 1 -0.31316,0.23602c-0.12077,0.05878 -0.25255,0.08724 -0.3949,0.08724l0.00046,0.00138l0,-0.00001zm2.48878,0.40087a1.50612,1.50612 0 0 0 0.29112,-0.03306a1.575,1.575 0 0 0 0.28561,-0.08219l0,0l-0.07668,-0.39031a1.16633,1.16633 0 0 1 -0.15383,0.04684c-0.0551,0.01286 -0.1024,0.01929 -0.14235,0.01929c-0.1024,0 -0.1823,-0.03031 -0.23878,-0.09046s-0.08495,-0.14372 -0.08495,-0.2498l0,0l0,-3.26893l-0.48352,0l0,3.44388c0,0.19056 0.05418,0.33888 0.16209,0.44541s0.25531,0.15934 0.44219,0.15934l-0.00092,0l0.00002,-0.00001zm1.24255,-3.44388l0,-0.60474l-0.48352,0l0,0.60429l0.48352,0l0,0.00046l0,-0.00001zm0,3.40577l0,-2.8676l-0.48352,0l0,2.8676l0.48352,0zm1.85235,0.0551a1.50153,1.50153 0 0 0 0.40913,-0.0551c0.12995,-0.03673 0.24796,-0.08587 0.35449,-0.14832s0.19883,-0.13776 0.27735,-0.22959s0.14005,-0.18505 0.18367,-0.29112l0,0l-0.47296,-0.14235a0.47755,0.47755 0 0 1 -0.10974,0.17311c-0.05143,0.05327 -0.1102,0.09964 -0.17908,0.14005a0.95969,0.95969 0 0 1 -0.225,0.09597a0.89541,0.89541 0 0 1 -0.2498,0.03582c-0.13179,0 -0.25531,-0.02755 -0.37102,-0.08265a0.94133,0.94133 0 0 1 -0.30214,-0.22776c-0.08587,-0.09643 -0.15474,-0.21122 -0.20663,-0.34347a1.15714,1.15714 0 0 1 -0.07668,-0.42291a1.16633,1.16633 0 0 1 0.07439,-0.42291c0.04959,-0.12857 0.11617,-0.23969 0.20066,-0.3352s0.18505,-0.1699 0.30214,-0.2227a0.89541,0.89541 0 0 1 0.37378,-0.07944a0.87245,0.87245 0 0 1 0.43944,0.1125a0.7852,0.7852 0 0 1 0.30765,0.31592l0,0l0.47296,-0.14832a1.23061,1.23061 0 0 0 -0.46974,-0.50832c-0.20663,-0.12628 -0.45321,-0.18964 -0.73929,-0.18964c-0.22041,0 -0.41786,0.03949 -0.59602,0.11801s-0.33061,0.18505 -0.45918,0.31867s-0.22684,0.2902 -0.29663,0.46974a1.56582,1.56582 0 0 0 -0.10423,0.57122a1.55204,1.55204 0 0 0 0.10699,0.57398a1.4648,1.4648 0 0 0 0.29939,0.47526a1.43725,1.43725 0 0 0 0.46148,0.32418c0.17908,0.08036 0.37653,0.12077 0.59327,0.12077l0.00138,0.00459l-0.00003,0.00001zm3.34194,-0.0551l0,-1.19204l0.675,-0.70255l1.4175,1.89505l0.53816,0l-1.65306,-2.18112l1.56122,-1.71964l-0.53265,0l-2.01122,2.15908l0,-2.15816l-0.49454,0l0,3.8948l0.49454,0l0.00505,0.00459l0,-0.00001zm3.90122,0.0551c0.14235,0 0.27551,-0.01837 0.41189,-0.0551s0.25163,-0.08724 0.36,-0.15153s0.20342,-0.14005 0.28561,-0.22776s0.14694,-0.18505 0.19515,-0.29112l0,0l-0.41786,-0.1148a0.60612,0.60612 0 0 1 -0.12903,0.19791c-0.05694,0.05878 -0.12168,0.10791 -0.19515,0.14832a1.12041,1.12041 0 0 1 -0.23602,0.09597a0.94592,0.94592 0 0 1 -0.25806,0.03582c-0.12398,0 -0.24245,-0.02388 -0.35449,-0.07163s-0.21122,-0.11342 -0.29939,-0.19745s-0.15934,-0.18505 -0.21444,-0.30214s-0.08724,-0.24704 -0.09872,-0.39031l2.37857,0a0.57857,0.57857 0 0 0 0.00827,-0.07668l0.00276,-0.1102c0,-0.19056 -0.03398,-0.37469 -0.10102,-0.55194a1.41888,1.41888 0 0 0 -0.28837,-0.46699c-0.12398,-0.13316 -0.27551,-0.24061 -0.45321,-0.32143s-0.37469,-0.12077 -0.59051,-0.12077a1.4602,1.4602 0 0 0 -0.59327,0.11801c-0.17908,0.07806 -0.33429,0.18597 -0.46378,0.32143s-0.23051,0.29296 -0.30214,0.47296s-0.10699,0.3701 -0.10699,0.57122a1.55204,1.55204 0 0 0 0.10699,0.57398a1.4648,1.4648 0 0 0 0.29939,0.47526c0.12857,0.13546 0.28194,0.24245 0.46148,0.32143a1.4602,1.4602 0 0 0 0.59327,0.11801l-0.00092,-0.00046l-0.00001,-0.00001zm0.98265,-1.68061l-1.94464,0c0.01102,-0.13546 0.04316,-0.2599 0.09643,-0.37378a0.97347,0.97347 0 0 1 0.20893,-0.29388a0.93214,0.93214 0 0 1 0.29939,-0.1924a0.95969,0.95969 0 0 1 0.36276,-0.06888a0.95969,0.95969 0 0 1 0.36276,0.06888c0.11342,0.04592 0.21352,0.10883 0.29939,0.18964a1.00561,1.00561 0 0 1 0.21444,0.29388a1.03316,1.03316 0 0 1 0.10148,0.37607l0,0l-0.00092,0.00046l-0.00002,0.00001zm1.0777,2.86209c0.20893,0 0.37286,-0.04867 0.49133,-0.14556s0.20434,-0.20985 0.25531,-0.33796l0,0l1.39592,-3.6202l-0.46148,0l-0.8899,2.43367l-0.97806,-2.43367l-0.50051,0l1.21408,2.8676l-0.16531,0.40867c-0.04408,0.10423 -0.08265,0.18597 -0.11801,0.24429s-0.0698,0.09781 -0.10423,0.11801s-0.07439,0.03031 -0.11801,0.03031c-0.02571,0 -0.06245,-0.00184 -0.1102,-0.00551l-0.14235,-0.01653l0,0.42842l0.12857,0.02204c0.0349,0.00367 0.06888,0.00551 0.10102,0.00551l0.00184,0.00092l-0.00001,-0.00001zm4.05,-1.23612l0,-3.90077l-0.49454,0l0,3.90031l0.49454,0l0,0.00046zm1.14796,0l0,-1.7302a1.0102,1.0102 0 0 1 0.14832,-0.30214c0.06612,-0.09184 0.14235,-0.1699 0.23051,-0.23602a1.17551,1.17551 0 0 1 0.2801,-0.15658a0.81276,0.81276 0 0 1 0.29663,-0.05786c0.19056,0 0.33245,0.0698 0.42566,0.20893s0.14005,0.36735 0.14005,0.67041l0,0l0,1.60393l0.48352,0l0,-1.71551c0,-0.17219 -0.01378,-0.33153 -0.04592,-0.47755a1.125,1.125 0 0 0 -0.14005,-0.38158a0.69796,0.69796 0 0 0 -0.26357,-0.25255c-0.1102,-0.06061 -0.24704,-0.09046 -0.41189,-0.09046a1.40051,1.40051 0 0 0 -0.70026,0.18138c-0.21444,0.12077 -0.37791,0.28194 -0.49133,0.48352l0,0l0,-0.61531l-0.43944,0l0,2.8676l0.48352,0l0.00413,0l0.00002,-0.00001zm3.17066,0l0,-2.48878l0.76362,0l0,-0.37883l-0.76362,0l0,-0.07668c0,-0.23051 0.04224,-0.40638 0.12628,-0.52714s0.20663,-0.18138 0.36827,-0.18138a0.7898,0.7898 0 0 1 0.2227,0.03306c0.07485,0.02204 0.13776,0.05143 0.18964,0.08724l0,0l0.12077,-0.35724c-0.08724,-0.0551 -0.18689,-0.09781 -0.29663,-0.12857s-0.22179,-0.04684 -0.3352,-0.04684c-0.27551,0 -0.48536,0.10102 -0.64286,0.30214s-0.23602,0.47985 -0.23602,0.8348l0,0l0,0.06061l-0.39031,0l0,0.37883l0.39031,0l0,2.48878l0.48352,0l-0.00046,0l-0.00001,0zm1.53367,0l0,-1.77015c0.07668,-0.20893 0.20801,-0.36735 0.3926,-0.48903s0.39811,-0.17908 0.6401,-0.18689l0,0l0,-0.43944c-0.01837,-0.00367 -0.04041,-0.00551 -0.06612,-0.00551l0,0l-0.09321,0a0.96888,0.96888 0 0 0 -0.51658,0.20617c-0.16071,0.1226 -0.29112,0.28286 -0.39031,0.48077l0,0l0,-0.6649l-0.45,0l0,2.8676l0.48352,0l0,0.00138zm2.0498,0.0551a1.49235,1.49235 0 0 0 0.62908,-0.13454a1.2398,1.2398 0 0 0 0.48628,-0.3926l0,0l0.01102,0.20342c0.01102,0.08036 0.045,0.14923 0.10102,0.20663a0.30765,0.30765 0 0 0 0.22776,0.08495a0.94592,0.94592 0 0 0 0.10423,-0.00551l0.12628,-0.01653l0,-0.41786c-0.1024,-0.00367 -0.15383,-0.06245 -0.15383,-0.17587l0,0l0,-1.17c0,-0.36643 -0.10561,-0.6502 -0.31592,-0.85133s-0.5051,-0.30214 -0.88163,-0.30214c-0.37378,0 -0.74526,0.12398 -1.11582,0.37378l0,0l0.15934,0.31316c0.31867,-0.22362 0.62265,-0.3352 0.91194,-0.3352c0.24153,0 0.42842,0.06704 0.5602,0.20066s0.19745,0.31776 0.19745,0.55194l0,0l0,0.23051a1.95153,1.95153 0 0 0 -0.37883,-0.10423c-0.14235,-0.02571 -0.28378,-0.03857 -0.42245,-0.03857c-0.17587,0 -0.33796,0.02204 -0.48673,0.06612s-0.27643,0.10423 -0.38434,0.18138a0.81735,0.81735 0 0 0 -0.2498,0.27735c-0.05878,0.10791 -0.08724,0.22776 -0.08724,0.36c0,0.12857 0.0248,0.24612 0.07439,0.35449s0.11709,0.20204 0.20342,0.28286s0.18827,0.14372 0.3049,0.18964a1.03316,1.03316 0 0 0 0.37883,0.06888l0.00046,-0.00138l-0.00001,-0.00001zm0.12628,-0.36735a0.68878,0.68878 0 0 1 -0.24704,-0.04408c-0.07668,-0.02939 -0.14372,-0.0698 -0.20066,-0.12077a0.53724,0.53724 0 0 1 -0.13179,-0.18138c-0.03122,-0.0698 -0.04684,-0.14464 -0.04684,-0.22959c0,-0.16531 0.07577,-0.29847 0.22776,-0.40087s0.34898,-0.15383 0.59051,-0.15383c0.25255,0 0.49592,0.04592 0.7301,0.13776l0,0l0,0.42245c0,0.07347 -0.0349,0.14464 -0.10423,0.21444c-0.07668,0.10561 -0.18964,0.19148 -0.33796,0.25531a1.19847,1.19847 0 0 1 -0.48077,0.09597l0.00092,0.00459zm2.98469,0.36735c0.34806,0 0.62449,-0.07806 0.82929,-0.23602s0.30765,-0.3701 0.30765,-0.63735c0,-0.12077 -0.02296,-0.22362 -0.06888,-0.30765a0.62449,0.62449 0 0 0 -0.20893,-0.21995c-0.09321,-0.06245 -0.21122,-0.11617 -0.35173,-0.16209l-0.4973,-0.13454l-0.31041,-0.08265c-0.08587,-0.02571 -0.15612,-0.0551 -0.21122,-0.08724s-0.09413,-0.07163 -0.11801,-0.1148s-0.03582,-0.09872 -0.03582,-0.16531c0,-0.16531 0.06153,-0.28469 0.18367,-0.36s0.27184,-0.1125 0.4477,-0.1125c0.1575,0 0.31133,0.02663 0.46148,0.07944s0.28561,0.13316 0.40638,0.23878l0,0l0.22041,-0.29112c-0.12857,-0.11342 -0.28561,-0.20526 -0.47296,-0.27459a1.71735,1.71735 0 0 0 -0.60429,-0.10423c-0.15383,0 -0.29755,0.01929 -0.43163,0.05786s-0.2498,0.09505 -0.34898,0.1699s-0.17679,0.16852 -0.23327,0.27551a0.83112,0.83112 0 0 0 -0.08495,0.38158c0,0.11342 0.01837,0.20893 0.0551,0.28561a0.50051,0.50051 0 0 0 0.17587,0.19791c0.08036,0.0551 0.18367,0.1024 0.30765,0.14235l0.44541,0.12628l0.35724,0.09321a1.21225,1.21225 0 0 1 0.25255,0.09872c0.06612,0.03673 0.1148,0.07944 0.14832,0.12857s0.04959,0.10883 0.04959,0.17908a0.3949,0.3949 0 0 1 -0.18413,0.34898c-0.1226,0.08265 -0.28837,0.12398 -0.4973,0.12398c-0.18689,0 -0.36459,-0.03214 -0.53265,-0.09643a2.03418,2.03418 0 0 1 -0.50556,-0.28837l0,0l-0.20893,0.32418c0.16071,0.13546 0.35357,0.23878 0.57673,0.31041s0.45,0.10699 0.68097,0.10699l0.00092,0.00551l0.00002,-0.00001zm2.2973,-0.01653a1.25816,1.25816 0 0 0 0.2227,-0.01929a1.41888,1.41888 0 0 0 0.19791,-0.04959l0.16209,-0.06061l0.1148,-0.05235l-0.1148,-0.38434c-0.02939,0.01837 -0.08265,0.04316 -0.16209,0.07439s-0.16531,0.04684 -0.26082,0.04684c-0.08403,0 -0.1575,-0.02388 -0.22041,-0.07163s-0.09643,-0.12398 -0.10423,-0.23051l0,0l0,-1.7798l0.64286,0l0,-0.37883l-0.64286,0l0,-0.95602l-0.48352,0l0,0.95602l-0.39031,0l0,0.37883l0.39031,0l0,1.92857c0,0.20526 0.06429,0.35633 0.19286,0.45321s0.27551,0.14556 0.45597,0.14556l-0.00046,-0.00046l0,0.00001zm1.43449,-0.03857l0,-1.77015c0.07668,-0.20893 0.20801,-0.36735 0.3926,-0.48903s0.39811,-0.17908 0.6401,-0.18689l0,0l0,-0.43944c-0.01837,-0.00367 -0.04041,-0.00551 -0.06612,-0.00551l0,0l-0.09321,0a0.96888,0.96888 0 0 0 -0.51658,0.20617c-0.16071,0.1226 -0.29112,0.28286 -0.39031,0.48077l0,0l0,-0.6649l-0.45,0l0,2.8676l0.48352,0l0,0.00138zm2.19811,0.0551a1.39592,1.39592 0 0 0 0.68648,-0.17311c0.20893,-0.1148 0.37653,-0.28102 0.5051,-0.4973l0,0l0.01102,0.3352a0.28929,0.28929 0 0 0 0.10148,0.21168c0.06429,0.05694 0.14372,0.08495 0.23878,0.08495l0.09046,-0.00276l0.12857,-0.01378l0,-0.41786c-0.1024,-0.00367 -0.15383,-0.06245 -0.15383,-0.17587l0,0l0,-2.27434l-0.48352,0l0,1.79633c-0.08403,0.22041 -0.21352,0.3926 -0.38709,0.51888s-0.36,0.18964 -0.55745,0.18964c-0.40638,0 -0.6098,-0.29296 -0.6098,-0.87888l0,0l0,-1.62551l-0.48352,0l0,1.71964c0,0.39949 0.07668,0.69934 0.23051,0.90092s0.38112,0.30214 0.68097,0.30214l0.00184,0l0,0.00003zm3.4898,0a1.50153,1.50153 0 0 0 0.40913,-0.0551c0.12995,-0.03673 0.24796,-0.08587 0.35449,-0.14832s0.19883,-0.13776 0.27735,-0.22959s0.14005,-0.18505 0.18367,-0.29112l0,0l-0.47296,-0.14235a0.47755,0.47755 0 0 1 -0.10974,0.17311c-0.05143,0.05327 -0.1102,0.09964 -0.17908,0.14005a0.95969,0.95969 0 0 1 -0.225,0.09597a0.89541,0.89541 0 0 1 -0.2498,0.03582c-0.13179,0 -0.25531,-0.02755 -0.37102,-0.08265a0.94133,0.94133 0 0 1 -0.30214,-0.22776c-0.08587,-0.09643 -0.15474,-0.21122 -0.20663,-0.34347a1.15714,1.15714 0 0 1 -0.07668,-0.42291a1.16633,1.16633 0 0 1 0.07439,-0.42291c0.04959,-0.12857 0.11617,-0.23969 0.20066,-0.3352s0.18505,-0.1699 0.30214,-0.2227a0.89541,0.89541 0 0 1 0.37378,-0.07944a0.87245,0.87245 0 0 1 0.43944,0.1125a0.7852,0.7852 0 0 1 0.30765,0.31592l0,0l0.47296,-0.14832a1.23061,1.23061 0 0 0 -0.46974,-0.50832c-0.20663,-0.12628 -0.45321,-0.18964 -0.73929,-0.18964c-0.22041,0 -0.41786,0.03949 -0.59602,0.11801s-0.33061,0.18505 -0.45918,0.31867s-0.22684,0.2902 -0.29663,0.46974a1.56582,1.56582 0 0 0 -0.10423,0.57122a1.55204,1.55204 0 0 0 0.10699,0.57398a1.4648,1.4648 0 0 0 0.29939,0.47526a1.43725,1.43725 0 0 0 0.46148,0.32418c0.17908,0.08036 0.37653,0.12077 0.59327,0.12077l0.00138,0.00459l-0.00003,0.00001zm2.36296,-0.01653a1.25816,1.25816 0 0 0 0.2227,-0.01929a1.41888,1.41888 0 0 0 0.19791,-0.04959l0.16209,-0.06061l0.1148,-0.05235l-0.1148,-0.38434c-0.02939,0.01837 -0.08265,0.04316 -0.16209,0.07439s-0.16531,0.04684 -0.26082,0.04684c-0.08403,0 -0.1575,-0.02388 -0.22041,-0.07163s-0.09643,-0.12398 -0.10423,-0.23051l0,0l0,-1.7798l0.64286,0l0,-0.37883l-0.64286,0l0,-0.95602l-0.48352,0l0,0.95602l-0.39031,0l0,0.37883l0.39031,0l0,1.92857c0,0.20526 0.06429,0.35633 0.19286,0.45321s0.27551,0.14556 0.45597,0.14556l-0.00046,-0.00046l0,0.00001zm1.83582,0.01653a1.39592,1.39592 0 0 0 0.68648,-0.17311c0.20893,-0.1148 0.37653,-0.28102 0.5051,-0.4973l0,0l0.01102,0.3352a0.28929,0.28929 0 0 0 0.10148,0.21168c0.06429,0.05694 0.14372,0.08495 0.23878,0.08495l0.09046,-0.00276l0.12857,-0.01378l0,-0.41786c-0.1024,-0.00367 -0.15383,-0.06245 -0.15383,-0.17587l0,0l0,-2.27434l-0.48352,0l0,1.79633c-0.08403,0.22041 -0.21352,0.3926 -0.38709,0.51888s-0.36,0.18964 -0.55745,0.18964c-0.40638,0 -0.6098,-0.29296 -0.6098,-0.87888l0,0l0,-1.62551l-0.48444,0l0,1.71964c0,0.39949 0.07668,0.69934 0.23051,0.90092s0.38112,0.30214 0.68097,0.30214l0.00276,0l0,0.00003zm2.70367,-0.0551l0,-1.77015c0.07668,-0.20893 0.20801,-0.36735 0.3926,-0.48903s0.39811,-0.17908 0.6401,-0.18689l0,0l0,-0.43944c-0.01837,-0.00367 -0.04041,-0.00551 -0.06612,-0.00551l0,0l-0.09321,0a0.96888,0.96888 0 0 0 -0.51658,0.20617c-0.16071,0.1226 -0.29112,0.28286 -0.39031,0.48077l0,0l0,-0.6649l-0.45,0l0,2.8676l0.48352,0l0,0.00138zm2.51633,0.0551c0.14235,0 0.27551,-0.01837 0.41189,-0.0551s0.25163,-0.08724 0.36,-0.15153s0.20342,-0.14005 0.28561,-0.22776s0.14694,-0.18505 0.19515,-0.29112l0,0l-0.41786,-0.1148a0.60612,0.60612 0 0 1 -0.12903,0.19791c-0.05694,0.05878 -0.12168,0.10791 -0.19515,0.14832a1.12041,1.12041 0 0 1 -0.23602,0.09597a0.94592,0.94592 0 0 1 -0.25806,0.03582c-0.12398,0 -0.24245,-0.02388 -0.35449,-0.07163s-0.21122,-0.11342 -0.29939,-0.19745s-0.15934,-0.18505 -0.21444,-0.30214s-0.08724,-0.24704 -0.09872,-0.39031l2.37857,0a0.57857,0.57857 0 0 0 0.00827,-0.07668l0.00276,-0.1102c0,-0.19056 -0.03398,-0.37469 -0.10102,-0.55194a1.41888,1.41888 0 0 0 -0.28837,-0.46699c-0.12398,-0.13316 -0.27551,-0.24061 -0.45321,-0.32143s-0.37469,-0.12077 -0.59051,-0.12077a1.4602,1.4602 0 0 0 -0.59327,0.11801c-0.17908,0.07806 -0.33429,0.18597 -0.46378,0.32143s-0.23051,0.29296 -0.30214,0.47296s-0.10699,0.3701 -0.10699,0.57122a1.55204,1.55204 0 0 0 0.10699,0.57398a1.4648,1.4648 0 0 0 0.29939,0.47526c0.12857,0.13546 0.28194,0.24245 0.46148,0.32143a1.4602,1.4602 0 0 0 0.59327,0.11801l-0.00092,-0.00046l-0.00001,-0.00001zm0.98265,-1.68061l-1.94464,0c0.01102,-0.13546 0.04316,-0.2599 0.09643,-0.37378a0.97347,0.97347 0 0 1 0.20893,-0.29388a0.93214,0.93214 0 0 1 0.29939,-0.1924a0.95969,0.95969 0 0 1 0.36276,-0.06888a0.95969,0.95969 0 0 1 0.36276,0.06888c0.11342,0.04592 0.21352,0.10883 0.29939,0.18964a1.00561,1.00561 0 0 1 0.21444,0.29388a1.03316,1.03316 0 0 1 0.10148,0.37607l0,0l-0.00092,0.00046l-0.00002,0.00001z" fill="#333" stroke="null"/>
     </g>
     <path id="svg_16" d="m19,72.87267l90.00001,0" stroke="#333"/>
    </g>
    <defs transform="translate(0 1) translate(0 0.487484) translate(1 0) translate(1 0) translate(-0.446119 0) translate(-0.30768 0) translate(0 -0.30768) translate(0 -0.30768) translate(0 -0.30768) translate(0 -0.30768) translate(0 -0.30768) translate(-0.30768 0) translate(-0.30768 0) translate(-0.30768 0) translate(-0.30768 0) translate(-0.30768 0) translate(-0.30768 0) translate(-0.30768 0) translate(-0.30768 0) translate(-0.30768 0) translate(-0.30768 0) translate(-0.30768 0) translate(-0.30768 0) translate(-0.30768 0) translate(-0.30768 0) translate(-0.30768 0) translate(-0.30768 0) translate(-0.30768 0) translate(-0.30768 0) translate(-0.307959 0) translate(0 -1) translate(0 -1) translate(0 -1) translate(0 -1) translate(-32.4 0) translate(0 46.8267) translate(163.6 83.3737) scale(0.714286 0.714286) translate(-163.6 -83.3737) translate(33.04 116.723) scale(0.642857 0.642857) translate(-33.04 -116.723)" stroke="null">
     <path id="svg_24" d="m53.206,18.578l0,-9.96l-5.86,0l0,5.273l-2.05,0c-0.89,0 -1.65,-0.4 -2.28,-1.2s-0.943,-1.768 -0.943,-2.9s0.314,-2.1 0.943,-2.9s1.39,-1.2 2.28,-1.2l6.727,0l0,-4.691l-6.727,0c-2.508,0 -4.648,0.857 -6.422,2.572s-2.66,3.787 -2.66,6.217s0.887,4.502 2.66,6.217s3.914,2.572 6.422,2.572l7.9,0l0.01,0z" stroke="null"/>
    </defs>
   </g>
  </g>
 </svg>
