<?xml version="1.0" encoding="UTF-8"?>
<svg width="131.2" height="131.2" xmlns="http://www.w3.org/2000/svg" version="1.2" baseProfile="tiny-ps" xml:space="preserve">
  <g>
    <title>Layer 1</title>
    <g id="svg_2">
      <circle fill="#FFFFFF" cx="65.9" cy="65.4" r="65" id="svg_1" />
    </g>
    <g stroke="null" id="svg_3">
      <polygon stroke="null" id="svg_4" fill="#3a4749" points="62.035743713378906,67.17855834960938 28.150131225585938,47.63853073120117 28,47.72526931762695 28,87.14060974121094 62.135826110839844,106.84745025634766 96.26998901367188,87.14060974121094 96.26998901367188,47.72526931762695 96.11819458007812,47.63853073120117 62.035743713378906,67.17855834960938 " class="cls-1" />
      <polygon stroke="null" id="svg_5" fill="#41b883" points="62.085792541503906,24 28.131778717041016,43.581729888916016 28.031696319580078,43.581729888916016 61.98570251464844,63.16179275512695 96.13821411132812,43.581729888916016 96.23829650878906,43.581729888916016 62.085792541503906,24 " class="cls-2" />
      <path stroke="null" id="svg_6" fill="#c9d5e1" d="m53.18318,88.73531q1.46458,0.53379 1.33447,1.73148q0,2.00171 -1.73148,2.13182q-0.66724,0 -1.59803,-0.53379l-13.58661,-6.1269q-1.19769,-0.53045 -1.19769,-2.00171q0,-1.33447 1.19769,-1.86493l13.58661,-6.26035q1.33447,-0.53045 1.59803,-0.53212q1.59636,0.13178 1.73148,2.2636q0,1.19936 -1.33447,1.73148l-11.32134,4.66732l11.32134,4.7941z" class="cls-3" />
      <path stroke="null" id="svg_7" fill="#c9d5e1" d="m65.30353,69.15691c0.26689,-0.79902 0.88576,-1.19936 1.86493,-1.19936q1.86493,0.13512 2.00171,1.86493l-0.13178,0.26689a1.50128,1.50128 0 0 1 -0.13345,0.66724l-9.06274,21.04131c-0.3553,0.6222 -1.02087,0.9308 -2.00171,0.9308c-1.2444,-0.08841 -1.91163,-0.61886 -2.00171,-1.59803a3.00257,3.00257 0 0 1 0.26689,-0.93246l9.19786,-21.04131z" class="cls-3" />
      <path stroke="null" id="svg_8" fill="#c9d5e1" d="m83.15045,83.94121l-11.31967,-4.65398c-0.80068,-0.35364 -1.19936,-0.93246 -1.19936,-1.73148q0.13011,-2.12849 1.59803,-2.2636c0.26689,0 0.83405,0.17849 1.73148,0.53212l13.45149,6.26035q1.33447,0.26856 1.33447,1.86493t-1.33447,2.00171l-13.45149,6.1269c-0.71228,0.35697 -1.28777,0.53379 -1.73148,0.53379q-1.5997,-0.13178 -1.59803,-2.13182q0,-1.19769 1.19936,-1.73148l11.31967,-4.80744z" class="cls-3" />
    </g>
  </g>
</svg>
