<?xml version="1.0" encoding="utf-8"?>
<!-- Generator: Adobe Illustrator 25.1.0, SVG Export Plug-In . SVG Version: 6.00 Build 0)  -->
<svg version="1.1" id="Layer_1" xmlns="http://www.w3.org/2000/svg" xmlns:xlink="http://www.w3.org/1999/xlink" x="0px" y="0px"
	 viewBox="0 0 120 59.7" style="enable-background:new 0 0 120 59.7;" xml:space="preserve">
<style type="text/css">
	.st0{fill:#ABB6BF;}
	.st1{fill-rule:evenodd;clip-rule:evenodd;fill:#0174C3;}
	.st2{fill:#707E86;}
	.st3{fill:none;}
	.st4{fill-rule:evenodd;clip-rule:evenodd;fill:#D0D0D8;}
	.st5{fill-rule:evenodd;clip-rule:evenodd;fill:#3D3E49;}
	.st6{fill:#5E6C75;}
	.st7{font-family:'PangMenZhengDao';}
	.st8{font-size:12px;}
	.st9{fill:#0174C3;}
	.st10{fill:#009933;}
</style>
<g>
	<g>
		<g>
			<path class="st0" d="M101.8,7.4H38.5c1.1,0.4,2.1,0.9,3.1,1.4h60.3c9.2,0,16.8,7.5,16.8,16.8c0,9.2-7.5,16.8-16.8,16.8h-60
				C41,43,40,43.4,39,43.8h62.9c10,0,18.2-8.2,18.2-18.2C120,15.5,111.8,7.4,101.8,7.4z"/>
		</g>
		<path class="st1" d="M19.4,10.2c4.2-2.9,8.7-4,12.5-3.5V0H0v32.2h10.9c-0.1-0.2-0.3-0.5-0.4-0.7C7.5,25.1,11.5,15.6,19.4,10.2
			L19.4,10.2z"/>
	</g>
	<g>
		<g>
			<path class="st2" d="M23.6,54.7c0,0.8-0.2,1.5-0.6,2s-0.9,0.8-1.6,0.8s-1.2-0.2-1.6-0.6v2.7h-0.9v-7.7h0.9v0.6
				c0.4-0.5,0.9-0.7,1.6-0.7s1.2,0.2,1.6,0.8S23.6,53.8,23.6,54.7L23.6,54.7L23.6,54.7z M22.6,54.6c0-0.6-0.1-1.1-0.4-1.5
				s-0.6-0.5-1.1-0.5c-0.6,0-1,0.3-1.3,0.8V56c0.3,0.5,0.7,0.8,1.3,0.8c0.5,0,0.8-0.2,1.1-0.5C22.5,55.9,22.6,55.3,22.6,54.6z"/>
			<path class="st2" d="M24.5,54.6c0-0.5,0.1-1,0.3-1.5c0.2-0.4,0.5-0.8,0.9-1s0.8-0.4,1.3-0.4c0.8,0,1.4,0.3,1.8,0.8
				s0.7,1.2,0.7,2.1v0.1c0,0.5-0.1,1-0.3,1.4s-0.5,0.8-0.9,1s-0.8,0.4-1.3,0.4c-0.7,0-1.4-0.3-1.8-0.8S24.5,55.5,24.5,54.6
				L24.5,54.6z M25.4,54.7c0,0.6,0.1,1.1,0.4,1.5s0.7,0.6,1.1,0.6c0.5,0,0.9-0.2,1.1-0.6c0.3-0.4,0.4-0.9,0.4-1.6
				c0-0.6-0.1-1.1-0.4-1.5s-0.7-0.6-1.1-0.6c-0.5,0-0.8,0.2-1.1,0.6C25.6,53.5,25.4,54,25.4,54.7z"/>
			<path class="st2" d="M35.5,56.1l1.1-4.2h0.9l-1.6,5.5h-0.8l-1.3-4.2l-1.3,4.2h-0.8l-1.6-5.5H31l1.1,4.1l1.3-4.1h0.8L35.5,56.1z"
				/>
			<path class="st2" d="M40.7,57.5c-0.8,0-1.4-0.2-1.8-0.7c-0.5-0.5-0.7-1.2-0.7-2v-0.2c0-0.5,0.1-1,0.3-1.5c0.2-0.4,0.5-0.8,0.9-1
				s0.8-0.4,1.2-0.4c0.7,0,1.3,0.2,1.7,0.7s0.6,1.2,0.6,2v0.4h-3.7c0,0.5,0.2,1,0.5,1.3s0.7,0.5,1.2,0.5c0.3,0,0.6-0.1,0.8-0.2
				c0.2-0.1,0.4-0.3,0.6-0.5l0.6,0.5C42.4,57.2,41.7,57.5,40.7,57.5z M40.6,52.6c-0.4,0-0.7,0.1-1,0.4c-0.3,0.3-0.4,0.7-0.5,1.2h2.8
				v-0.1c0-0.5-0.2-0.9-0.4-1.1C41.3,52.7,41,52.6,40.6,52.6z"/>
			<path class="st2" d="M46.6,52.8c-0.1,0-0.3,0-0.5,0c-0.6,0-1,0.3-1.3,0.8v3.9h-0.9V52h0.9v0.6c0.3-0.5,0.8-0.7,1.3-0.7
				c0.2,0,0.3,0,0.4,0.1L46.6,52.8L46.6,52.8z"/>
			<path class="st2" d="M49.7,57.5c-0.8,0-1.4-0.2-1.8-0.7c-0.5-0.5-0.7-1.2-0.7-2v-0.2c0-0.5,0.1-1,0.3-1.5c0.2-0.4,0.5-0.8,0.9-1
				s0.8-0.4,1.2-0.4c0.7,0,1.3,0.2,1.7,0.7s0.6,1.2,0.6,2v0.4h-3.7c0,0.5,0.2,1,0.5,1.3s0.7,0.5,1.2,0.5c0.3,0,0.6-0.1,0.8-0.2
				c0.2-0.1,0.4-0.3,0.6-0.5l0.6,0.5C51.3,57.2,50.6,57.5,49.7,57.5z M49.6,52.6c-0.4,0-0.7,0.1-1,0.4c-0.3,0.3-0.4,0.7-0.5,1.2h2.8
				v-0.1c0-0.5-0.2-0.9-0.4-1.1C50.3,52.7,50,52.6,49.6,52.6z"/>
			<path class="st2" d="M52.7,54.6c0-0.8,0.2-1.5,0.6-2c0.4-0.5,0.9-0.8,1.6-0.8c0.6,0,1.2,0.2,1.5,0.7v-2.9h0.9v7.8h-0.9v-0.6
				c-0.4,0.5-0.9,0.7-1.6,0.7c-0.6,0-1.2-0.3-1.6-0.8C52.9,56.2,52.7,55.5,52.7,54.6L52.7,54.6L52.7,54.6z M53.6,54.7
				c0,0.6,0.1,1.1,0.4,1.5s0.6,0.5,1.1,0.5c0.6,0,1-0.3,1.3-0.8v-2.5c-0.3-0.5-0.7-0.8-1.3-0.8c-0.5,0-0.8,0.2-1.1,0.5
				C53.8,53.5,53.6,54,53.6,54.7z"/>
			<path class="st2" d="M66,54.7c0,0.8-0.2,1.5-0.6,2s-0.9,0.8-1.6,0.8c-0.7,0-1.2-0.2-1.6-0.7v0.6h-0.9v-7.8h0.9v2.9
				c0.4-0.5,0.9-0.7,1.6-0.7s1.2,0.3,1.6,0.8S66,53.8,66,54.7L66,54.7L66,54.7z M65,54.6c0-0.6-0.1-1.1-0.4-1.5s-0.6-0.5-1.1-0.5
				c-0.6,0-1.1,0.3-1.3,0.9v2.4c0.3,0.6,0.7,0.9,1.4,0.9c0.5,0,0.8-0.2,1.1-0.5C64.9,55.9,65,55.3,65,54.6z"/>
			<path class="st2" d="M68.9,56.1l1.3-4.1h1L69,58.3c-0.3,0.9-0.9,1.4-1.6,1.4h-0.2l-0.4-0.1v-0.8h0.3c0.3,0,0.6-0.1,0.7-0.2
				c0.2-0.1,0.3-0.4,0.4-0.7l0.2-0.6l-2-5.5h1L68.9,56.1z"/>
		</g>
	</g>
</g>
<g id="首页">
	<g id="全维云板块" transform="translate(-874.000000, -643.000000)">
		<g id="编组-58" transform="translate(0.000000, 34.000000)">
			<g id="编组-78" transform="translate(-82.000000, 0.000000)">
				<g transform="translate(953.000000, 607.000000)">
					<g id="Icon-Snapshot">
						<g>
							<rect id="Bound" x="13.4" y="14.3" class="st3" width="28.2" height="29.7"/>
							<g id="编组-57" transform="translate(3.000000, 2.000000)">
								<rect id="Rectangle" x="14.6" y="22.7" class="st4" width="14.6" height="15.4"/>
								<rect id="Rectangle_1_" x="21.6" y="15.3" class="st4" width="14.6" height="15.4"/>
								<polygon id="Rectangle_2_" class="st5" points="21.6,22.7 29.2,22.7 29.2,30.7 21.6,30.7 								"/>
							</g>
						</g>
					</g>
				</g>
			</g>
		</g>
	</g>
</g>
<text transform="matrix(1 0 0 1 45.2703 23.6055)" class="st6 st7 st8">QuantumCA</text>
<g>
	<g>
		<path class="st9" d="M73.6,53h8.2v0.6h-8.2V53z M73.6,57.8H77v-0.3h-3.4v-0.6H77v-0.4h-2.2v0.2h-1.1v-2.9h1.1v0.6l0.4-0.6h6.4v2.9
			h-1v-0.2h-2.3v0.4h3.4v0.6h-3.4v0.3h3.5v0.6h-8.2C73.6,58.4,73.6,57.8,73.6,57.8z M73.9,50.4H75v0.4l0.4-0.4h6.2v2.4h-1v-0.1h-5.5
			v0.1H74L73.9,50.4L73.9,50.4z M77,54.5h-2.2v0.3H77V54.5z M77,55.5h-2.2v0.3H77V55.5z M80.5,51H75v0.3h5.5V51z M80.5,51.8H75v0.3
			h5.5V51.8z M80.5,54.9v-0.3h-2.3v0.3H80.5z M80.5,55.8v-0.3h-2.3v0.3H80.5z"/>
		<path class="st9" d="M82.9,50.4h5.9v0.8l-1.7,2.3h3.1v0.8h-3.4v4.1h-2.2c0-0.2-0.1-0.3-0.2-0.4c-0.1-0.1-0.3-0.2-0.5-0.2v-0.3h1.7
			v-3.2h-3.5v-0.8h3.6l1.5-2.3h-4.3V50.4z"/>
		<path class="st9" d="M90.6,52.3h1.9v5.3h0.7v0.8h-1.9v-5.3h-0.6L90.6,52.3L90.6,52.3z M92.4,51.7H91l-0.1-1.4h1.3L92.4,51.7z
			 M97.2,58.4l-1.4-3.6l-0.9,3.6h-1.5l2-8h1.5L96,53.6h0.9l1.8,4.7h-1.5V58.4z"/>
		<path class="st9" d="M99.1,52.3h1.9v5.3h0.7v0.8h-1.9v-5.3h-0.6L99.1,52.3L99.1,52.3z M101,51.7h-1.4l-0.1-1.4h1.3L101,51.7z
			 M102,57.6h0.5v-4.5h1.1v4.5h0.8v-6.4H102v-0.8h5.3v0.8h-1.7v2.9h1.7v0.8h-1.7v2.7h1.7v0.8H102V57.6z"/>
	</g>
</g>
<g>
	<g>
		<path class="st2" d="M45.8,32.6l0.5-0.4c0.4,0.5,0.9,0.8,1.5,0.8c0.7,0,1.3-0.4,1.3-1.1c0-0.4-0.3-0.7-0.7-1l-0.7-0.4
			c-0.5-0.3-0.9-0.7-0.9-1.4c0-0.9,0.8-1.6,1.8-1.6c0.7,0,1.3,0.4,1.7,0.8l-0.5,0.4c-0.3-0.4-0.7-0.6-1.3-0.6c-0.7,0-1.1,0.5-1.1,1
			s0.3,0.7,0.8,1l0.7,0.4c0.6,0.3,0.9,0.7,0.9,1.4c0,1.1-0.8,1.8-2,1.8C46.9,33.7,46.2,33.3,45.8,32.6z"/>
		<path class="st2" d="M52.9,29.1c1,0,1.4,0.7,1.4,1.6c0,0.3-0.1,0.7-0.2,0.9h-2.8c-0.2,1.1,0.4,1.6,1.2,1.6c0.3,0,0.7-0.2,1-0.4
			l0.3,0.5c-0.3,0.3-0.8,0.5-1.4,0.5c-1,0-1.7-0.7-1.7-1.8C50.5,30.2,51.7,29.1,52.9,29.1z M53.6,31c0-0.1,0-0.3,0-0.4
			c0-0.5-0.2-1-0.8-1s-1.3,0.6-1.5,1.4H53.6z"/>
		<path class="st2" d="M54.9,31.9c0-1.6,1.2-2.8,2.4-2.8c0.5,0,0.9,0.2,1.1,0.5L58,30c-0.2-0.3-0.4-0.4-0.8-0.4
			c-0.9,0-1.7,1-1.7,2.2c0,0.8,0.3,1.2,1,1.2c0.4,0,0.7-0.2,1-0.4l0.3,0.4c-0.3,0.2-0.8,0.5-1.4,0.5C55.5,33.7,54.9,33,54.9,31.9z"
			/>
		<path class="st2" d="M62,33.5h-0.6l0.1-0.7l0,0c-0.5,0.4-1,0.8-1.5,0.8c-0.7,0-1-0.4-1-1.1c0-0.2,0-0.4,0.1-0.6l0.6-2.8h0.7
			l-0.5,2.7c0,0.2-0.1,0.4-0.1,0.5c0,0.4,0.2,0.7,0.7,0.7c0.3,0,0.8-0.2,1.3-0.8l0.6-3.1h0.7L62,33.5z"/>
		<path class="st2" d="M64.4,29.2H65L64.8,30l0,0c0.4-0.5,0.8-0.9,1.4-0.9c0.2,0,0.3,0,0.4,0.1l-0.2,0.6c-0.1,0-0.2-0.1-0.4-0.1
			c-0.4,0-0.9,0.4-1.3,1.1l-0.5,2.8h-0.7L64.4,29.2z"/>
		<path class="st2" d="M69,29.1c1,0,1.4,0.7,1.4,1.6c0,0.3-0.1,0.7-0.2,0.9h-2.8c-0.2,1.1,0.4,1.6,1.2,1.6c0.3,0,0.7-0.2,1-0.4
			l0.3,0.5c-0.3,0.3-0.8,0.5-1.4,0.5c-1,0-1.7-0.7-1.7-1.8C66.6,30.2,67.8,29.1,69,29.1z M69.7,31c0-0.1,0-0.3,0-0.4
			c0-0.5-0.2-1-0.8-1c-0.6,0-1.3,0.6-1.5,1.4H69.7z"/>
		<path class="st2" d="M72.4,32.6l0.5-0.4c0.4,0.5,0.9,0.8,1.5,0.8c0.7,0,1.3-0.4,1.3-1.1c0-0.4-0.3-0.7-0.7-1l-0.7-0.4
			c-0.5-0.3-0.9-0.7-0.9-1.4c0-0.9,0.8-1.6,1.8-1.6c0.7,0,1.3,0.4,1.7,0.8l-0.5,0.4c-0.3-0.4-0.7-0.6-1.3-0.6c-0.7,0-1.1,0.5-1.1,1
			s0.3,0.7,0.8,1l0.7,0.4c0.6,0.3,0.9,0.7,0.9,1.4c0,1.1-0.8,1.8-2,1.8C73.6,33.7,72.9,33.3,72.4,32.6z"/>
		<path class="st2" d="M78,29.2h0.7l-0.9,4.4h-0.7L78,29.2z M78.2,27.9c0-0.3,0.2-0.5,0.5-0.5c0.2,0,0.4,0.2,0.4,0.4
			c0,0.3-0.2,0.5-0.5,0.5C78.4,28.3,78.2,28.1,78.2,27.9z"/>
		<path class="st2" d="M79.6,32.7c0-0.2,0-0.3,0-0.5l0.5-2.5h-0.6l0.1-0.5h0.7l0.3-1.2h0.6L81,29.2h1.1L82,29.7h-1.1l-0.5,2.5
			c0,0.1,0,0.2,0,0.3c0,0.4,0.1,0.5,0.6,0.5c0.2,0,0.3-0.1,0.5-0.1l0.1,0.5c-0.2,0.1-0.5,0.2-0.8,0.2C79.9,33.7,79.6,33.2,79.6,32.7
			z"/>
		<path class="st2" d="M84.6,29.1c1,0,1.4,0.7,1.4,1.6c0,0.3-0.1,0.7-0.2,0.9H83c-0.2,1.1,0.4,1.6,1.2,1.6c0.3,0,0.7-0.2,1-0.4
			l0.3,0.5c-0.3,0.3-0.8,0.5-1.4,0.5c-1,0-1.7-0.7-1.7-1.8C82.3,30.2,83.5,29.1,84.6,29.1z M85.3,31c0-0.1,0-0.3,0-0.4
			c0-0.5-0.2-1-0.8-1c-0.6,0-1.3,0.6-1.5,1.4H85.3z"/>
		<path class="st10" d="M89.5,27.6h3.3l-0.1,0.6h-2.6l-0.4,1.9h2.2l-0.1,0.6h-2.2L89.1,33h2.6l-0.1,0.6h-3.3L89.5,27.6z"/>
		<path class="st10" d="M93.3,27.6H94l0.2,3.3c0.1,0.6,0.1,1.3,0.1,1.9l0,0c0.3-0.6,0.6-1.3,0.9-1.9l1.6-3.3h0.8l-3.1,5.9h-0.8
			L93.3,27.6z"/>
		<path d="M100.2,27.6h1.7c1.1,0,1.9,0.4,1.9,1.4c0,1.4-1.1,2.1-2.6,2.1h-0.9l-0.5,2.4H99L100.2,27.6z M101.2,30.6
			c1.2,0,1.9-0.5,1.9-1.4c0-0.7-0.5-1-1.3-1h-0.9l-0.5,2.4H101.2z"/>
		<path d="M104.8,29.2h0.6l-0.1,0.8l0,0c0.4-0.5,0.8-0.9,1.4-0.9c0.2,0,0.3,0,0.4,0.1l-0.2,0.6c-0.1,0-0.2-0.1-0.4-0.1
			c-0.4,0-0.9,0.4-1.3,1.1l-0.5,2.8H104L104.8,29.2z"/>
		<path d="M107.1,31.9c0-1.7,1.2-2.8,2.4-2.8c0.9,0,1.6,0.7,1.6,1.8c0,1.7-1.2,2.8-2.4,2.8C107.7,33.7,107.1,33,107.1,31.9z
			 M110.3,30.9c0-0.8-0.3-1.2-0.9-1.2c-0.8,0-1.6,1-1.6,2.2c0,0.8,0.3,1.2,0.9,1.2C109.5,33.1,110.3,32.1,110.3,30.9z"/>
	</g>
</g>
</svg>
