<?xml version="1.0" encoding="UTF-8"?>
<svg width="131.2" height="131.2" xmlns="http://www.w3.org/2000/svg" version="1.2" baseProfile="tiny-ps" xml:space="preserve">
  <g>
    <title>thawte.com.ru Logo</title>
    <circle fill="#FFFFFF" cx="65.9" cy="65.4" r="65" id="svg_1" />
  </g>

  <g>
    <path stroke="null" id="svg_2" d="m64.76676,25c-24.1728,0 -43.76676,19.59396 -43.76676,43.76148s19.59396,43.76042 43.76676,43.76042c24.17227,0 43.76624,-19.59291 43.76624,-43.76042s-19.59396,-43.76148 -43.76624,-43.76148zm0,78.82481c-19.36923,0 -35.06968,-15.69886 -35.06968,-35.06333c0,-19.36605 15.69992,-35.06492 35.06968,-35.06492c19.36923,0 35.06968,15.69886 35.06968,35.06492c-0.00053,19.36447 -15.70045,35.06333 -35.06968,35.06333zm4.23512,-56.41448l-11.45,0l-5.66498,33.46637c-0.5087,2.99827 -0.58802,5.99918 2.19185,8.39938c2.91525,2.6022 7.44649,2.79891 9.5109,2.79891c5.68296,0 9.04133,-1.53139 11.82597,-2.73175l-1.01529,-2.13369c-1.43303,0.33367 -2.6958,0.66998 -4.50322,0.66998c-0.85929,0 -4.30386,0 -5.86169,-3.00355c-0.6684,-1.13321 -0.94919,-2.5324 -0.46217,-5.39847l2.63234,-15.55609l9.26449,0l1.2194,-7.19743l-9.26554,0l1.57792,-9.31366l0.00002,0z" fill="#ED174C" xmlns="http://www.w3.org/2000/svg" />
  </g>
</svg>
